<svg width="1080" height="1920" viewBox="0 0 1080 1920" fill="none" xmlns="http://www.w3.org/2000/svg">
<rect width="1080" height="1920" fill="white"/>
<path d="M442.578 873V824.552H449.042V848.872L469.266 824.552H476.626V824.744L459.666 844.776L478.994 872.616V873H471.762L455.25 849.064L449.042 856.488V873H442.578ZM497.364 873.832C486.868 873.832 480.276 865.96 480.276 855.4C480.276 844.84 486.868 836.968 497.364 836.968C507.86 836.968 514.452 844.84 514.452 855.4C514.452 865.96 507.86 873.832 497.364 873.832ZM486.676 855.4C486.676 863.336 490.324 869.096 497.364 869.096C504.404 869.096 508.052 863.336 508.052 855.4C508.052 847.528 504.404 841.704 497.364 841.704C490.324 841.704 486.676 847.528 486.676 855.4ZM521.002 873V824.552H527.146V873H521.002ZM550.739 873.832C540.243 873.832 533.651 865.96 533.651 855.4C533.651 844.84 540.243 836.968 550.739 836.968C561.235 836.968 567.827 844.84 567.827 855.4C567.827 865.96 561.235 873.832 550.739 873.832ZM540.051 855.4C540.051 863.336 543.699 869.096 550.739 869.096C557.779 869.096 561.427 863.336 561.427 855.4C561.427 847.528 557.779 841.704 550.739 841.704C543.699 841.704 540.051 847.528 540.051 855.4ZM572.785 863.08C572.785 856.424 578.033 853.8 585.777 852.52C589.105 851.944 592.945 851.368 596.977 850.856L596.913 849.256C596.785 845.416 594.865 843.368 592.561 842.408C591.281 841.896 589.937 841.704 588.593 841.704C583.409 841.704 580.401 843.816 579.441 848.232H573.553C574.321 842.216 578.929 836.968 588.465 836.968C597.297 836.968 602.609 840.936 602.609 849.32V873H596.977V868.264H596.785C594.545 871.976 590.001 873.832 585.457 873.832C579.121 873.832 572.785 870.248 572.785 863.08ZM579.185 863.08C579.185 866.728 581.873 869.48 586.417 869.48C590.193 869.48 595.057 867.048 596.593 862.312C596.913 861.224 597.105 860.008 597.041 858.088L596.977 854.824C593.201 855.4 589.553 856.168 586.161 856.872C580.529 858.024 579.185 860.456 579.185 863.08ZM610.252 873V824.552H616.332V843.368H616.588C619.084 839.016 622.924 836.968 627.724 836.968C632.588 836.968 636.748 839.208 638.604 843.752C639.244 845.352 639.564 847.08 639.564 850.344V873H633.484V850.792C633.484 848.936 633.484 847.144 632.844 845.544C632.012 843.432 630.028 841.896 627.02 841.896C623.884 841.896 621.452 843.24 619.468 845.544C616.332 849.128 616.332 851.368 616.332 856.808V873H610.252ZM473.283 947.832C460.355 947.832 449.923 939.768 449.923 923C449.923 905.912 460.355 897.72 473.283 897.72C486.275 897.72 496.643 905.912 496.643 923C496.643 939.768 486.275 947.832 473.283 947.832ZM456.771 923C456.771 933.56 461.635 942.648 473.155 942.648C484.803 942.648 489.795 933.688 489.795 923C489.795 912.184 485.123 902.904 473.283 902.904C461.443 902.904 456.771 912.184 456.771 923ZM534.847 934.904C533.631 943.224 527.935 947.832 519.295 947.832C508.863 947.832 502.463 940.024 502.463 929.4C502.463 918.456 509.247 910.968 519.615 910.968C520.831 910.968 522.175 911.032 523.519 911.288C529.599 912.504 533.439 916.664 534.335 923.192H528.383C527.551 919.16 525.247 916.728 521.983 915.896C521.087 915.704 520.319 915.704 519.423 915.704C512.447 915.704 508.671 921.464 508.671 929.4C508.671 937.4 512.575 943.096 519.615 943.096C524.799 943.096 527.871 939.96 528.831 934.904H534.847ZM541.063 947V911.8H547.015V918.968H547.271C549.895 913.4 554.439 911.16 558.663 911.16C559.495 911.16 560.839 911.224 561.671 911.544V916.664C560.967 916.472 559.687 916.344 558.791 916.344C556.359 916.344 552.839 917.112 549.767 921.208C549.127 922.104 548.743 922.872 548.295 923.64C547.399 925.496 547.143 927.288 547.143 930.36V947H541.063ZM564.222 937.08C564.222 930.424 569.47 927.8 577.214 926.52C580.542 925.944 584.382 925.368 588.414 924.856L588.35 923.256C588.222 919.416 586.302 917.368 583.998 916.408C582.718 915.896 581.374 915.704 580.03 915.704C574.846 915.704 571.838 917.816 570.878 922.232H564.99C565.758 916.216 570.366 910.968 579.902 910.968C588.734 910.968 594.046 914.936 594.046 923.32V947H588.414V942.264H588.222C585.982 945.976 581.438 947.832 576.894 947.832C570.558 947.832 564.222 944.248 564.222 937.08ZM570.622 937.08C570.622 940.728 573.31 943.48 577.854 943.48C581.63 943.48 586.494 941.048 588.03 936.312C588.35 935.224 588.542 934.008 588.478 932.088L588.414 928.824C584.638 929.4 580.99 930.168 577.598 930.872C571.966 932.024 570.622 934.456 570.622 937.08ZM601.626 947V911.8H607.45V917.88H607.706C610.138 913.144 614.106 910.968 619.098 910.968C623.962 910.968 628.122 913.208 629.978 917.752C630.618 919.352 630.938 921.08 630.938 924.344V947H624.858V924.792C624.858 922.936 624.858 921.144 624.218 919.544C623.386 917.432 621.402 915.896 618.394 915.896C615.258 915.896 612.826 917.24 610.842 919.544C607.706 923.128 607.706 925.368 607.706 930.808V947H601.626ZM395.346 1021.83C382.418 1021.83 371.986 1013.77 371.986 997C371.986 979.912 382.418 971.72 395.346 971.72C408.338 971.72 418.706 979.912 418.706 997C418.706 1013.77 408.338 1021.83 395.346 1021.83ZM378.834 997C378.834 1007.56 383.698 1016.65 395.218 1016.65C406.866 1016.65 411.858 1007.69 411.858 997C411.858 986.184 407.186 976.904 395.346 976.904C383.506 976.904 378.834 986.184 378.834 997ZM426.19 1021V972.552H432.334V1021H426.19ZM472.054 1008.9C470.838 1017.22 464.758 1021.83 455.99 1021.83C445.43 1021.83 438.838 1013.96 438.838 1003.4C438.838 996.104 441.974 990.024 447.414 987.016C449.782 985.672 452.662 984.968 455.862 984.968C457.334 984.968 458.614 984.968 459.83 985.16C462.006 985.544 463.99 986.44 465.782 987.72C469.686 990.536 472.246 995.72 472.182 1003.91H444.982C444.918 1004.42 444.918 1004.94 444.982 1005.58C445.11 1007.11 445.366 1008.52 445.814 1009.8C447.478 1014.22 451.062 1017.03 456.31 1017.03C460.342 1017.03 463.03 1015.43 464.694 1012.68C465.334 1011.59 465.846 1010.31 466.166 1008.9H472.054ZM445.238 999.368H466.038C465.654 993.864 462.518 990.088 457.718 989.512C457.014 989.448 456.566 989.448 456.054 989.448C450.678 989.448 446.966 992.712 445.558 997.64C445.43 998.216 445.366 998.792 445.238 999.368ZM508.337 1018.89C508.337 1028.36 503.089 1033.03 492.593 1033.03C482.353 1033.03 478.577 1028.49 477.809 1023.11H483.889C484.465 1026.7 487.729 1028.42 492.721 1028.42C499.249 1028.42 502.769 1026.06 502.769 1016.9V1014.86H502.513C501.361 1018.12 497.457 1020.23 492.273 1020.23C482.097 1020.23 476.401 1011.98 476.401 1002.63C476.401 993.224 482.097 984.968 492.273 984.968C497.201 984.968 500.913 986.888 502.257 990.024H502.577V985.8H508.337V1018.89ZM482.737 1002.63C482.737 1010.25 486.577 1015.75 493.233 1015.75C498.353 1015.75 501.425 1013.13 502.449 1007.94C502.833 1005.96 502.833 1004.55 502.833 1002.63C502.833 1000.71 502.833 999.368 502.449 997.32C501.425 992.2 498.353 989.384 493.233 989.384C486.577 989.384 482.737 994.888 482.737 1002.63ZM534.016 1021V972.552H550.784C554.944 972.552 558.912 972.744 561.728 973.704C567.168 975.56 569.984 980.04 569.984 986.248C569.984 993.928 565.312 998.536 557.632 999.624L570.432 1020.68V1021H563.264L550.848 1000.07H540.48V1021H534.016ZM540.48 995.144H551.04C553.728 995.144 555.52 995.08 557.888 994.504C561.344 993.672 563.776 991.112 563.776 986.632C563.776 981.64 561.344 979.08 557.952 978.248C555.52 977.608 553.088 977.672 551.104 977.672H540.48V995.144ZM591.551 1021.83C581.055 1021.83 574.463 1013.96 574.463 1003.4C574.463 992.84 581.055 984.968 591.551 984.968C602.047 984.968 608.639 992.84 608.639 1003.4C608.639 1013.96 602.047 1021.83 591.551 1021.83ZM580.863 1003.4C580.863 1011.34 584.511 1017.1 591.551 1017.1C598.591 1017.1 602.239 1011.34 602.239 1003.4C602.239 995.528 598.591 989.704 591.551 989.704C584.511 989.704 580.863 995.528 580.863 1003.4ZM611.756 1021V1016.71L632.364 990.216H612.716V985.8H638.956V990.6L618.732 1016.58H639.724V1021H611.756ZM659.926 1021.83C649.43 1021.83 642.838 1013.96 642.838 1003.4C642.838 992.84 649.43 984.968 659.926 984.968C670.422 984.968 677.014 992.84 677.014 1003.4C677.014 1013.96 670.422 1021.83 659.926 1021.83ZM649.238 1003.4C649.238 1011.34 652.886 1017.1 659.926 1017.1C666.966 1017.1 670.614 1011.34 670.614 1003.4C670.614 995.528 666.966 989.704 659.926 989.704C652.886 989.704 649.238 995.528 649.238 1003.4ZM691.732 1021L678.996 985.8H685.268L692.116 1005.9C693.972 1011.27 694.484 1013.58 694.996 1015.18H695.252C695.764 1013.58 696.276 1011.27 698.132 1005.9L704.98 985.8H711.252L698.516 1021H691.732ZM348.065 1095.83C335.137 1095.83 324.705 1087.77 324.705 1071C324.705 1053.91 335.137 1045.72 348.065 1045.72C361.057 1045.72 371.425 1053.91 371.425 1071C371.425 1087.77 361.057 1095.83 348.065 1095.83ZM331.553 1071C331.553 1081.56 336.417 1090.65 347.937 1090.65C359.585 1090.65 364.577 1081.69 364.577 1071C364.577 1060.18 359.905 1050.9 348.065 1050.9C336.225 1050.9 331.553 1060.18 331.553 1071ZM378.909 1095V1046.55H385.053V1095H378.909ZM424.773 1082.9C423.557 1091.22 417.477 1095.83 408.709 1095.83C398.149 1095.83 391.557 1087.96 391.557 1077.4C391.557 1070.1 394.693 1064.02 400.133 1061.02C402.501 1059.67 405.381 1058.97 408.581 1058.97C410.053 1058.97 411.333 1058.97 412.549 1059.16C414.725 1059.54 416.709 1060.44 418.501 1061.72C422.405 1064.54 424.965 1069.72 424.901 1077.91H397.701C397.637 1078.42 397.637 1078.94 397.701 1079.58C397.829 1081.11 398.085 1082.52 398.533 1083.8C400.197 1088.22 403.781 1091.03 409.029 1091.03C413.061 1091.03 415.749 1089.43 417.413 1086.68C418.053 1085.59 418.565 1084.31 418.885 1082.9H424.773ZM397.957 1073.37H418.757C418.373 1067.86 415.237 1064.09 410.437 1063.51C409.733 1063.45 409.285 1063.45 408.773 1063.45C403.397 1063.45 399.685 1066.71 398.277 1071.64C398.149 1072.22 398.085 1072.79 397.957 1073.37ZM461.056 1092.89C461.056 1102.36 455.808 1107.03 445.312 1107.03C435.072 1107.03 431.296 1102.49 430.528 1097.11H436.608C437.184 1100.7 440.448 1102.42 445.44 1102.42C451.968 1102.42 455.488 1100.06 455.488 1090.9V1088.86H455.232C454.08 1092.12 450.176 1094.23 444.992 1094.23C434.816 1094.23 429.12 1085.98 429.12 1076.63C429.12 1067.22 434.816 1058.97 444.992 1058.97C449.92 1058.97 453.632 1060.89 454.976 1064.02H455.296V1059.8H461.056V1092.89ZM435.456 1076.63C435.456 1084.25 439.296 1089.75 445.952 1089.75C451.072 1089.75 454.144 1087.13 455.168 1081.94C455.552 1079.96 455.552 1078.55 455.552 1076.63C455.552 1074.71 455.552 1073.37 455.168 1071.32C454.144 1066.2 451.072 1063.38 445.952 1063.38C439.296 1063.38 435.456 1068.89 435.456 1076.63ZM505.039 1095.9C492.111 1095.9 485.007 1090.14 484.174 1078.87H490.831C491.983 1087.32 496.271 1090.9 505.743 1090.9C514.127 1090.9 518.543 1087.51 518.543 1081.24C518.543 1076.95 515.599 1074.65 508.559 1073.43L500.111 1071.96C489.871 1070.17 485.967 1066.52 485.967 1059.22C485.967 1050.97 493.455 1045.53 505.231 1045.53C516.559 1045.53 523.407 1050.58 524.047 1059.48H517.647C516.687 1053.59 512.399 1050.46 504.847 1050.46C497.423 1050.46 492.687 1053.72 492.687 1058.52C492.687 1062.62 494.927 1064.6 500.687 1065.69L510.991 1067.61C521.103 1069.46 525.071 1073.24 525.071 1080.92C525.071 1090.33 518.031 1095.9 505.039 1095.9ZM546.708 1095.83C536.212 1095.83 529.62 1087.96 529.62 1077.4C529.62 1066.84 536.212 1058.97 546.708 1058.97C557.204 1058.97 563.796 1066.84 563.796 1077.4C563.796 1087.96 557.204 1095.83 546.708 1095.83ZM536.02 1077.4C536.02 1085.34 539.668 1091.1 546.708 1091.1C553.748 1091.1 557.396 1085.34 557.396 1077.4C557.396 1069.53 553.748 1063.7 546.708 1063.7C539.668 1063.7 536.02 1069.53 536.02 1077.4ZM572.217 1095V1064.34H566.777V1059.8H572.217V1055.19C572.217 1047.32 578.105 1045.72 582.649 1045.72C584.121 1045.72 585.465 1045.91 586.425 1046.1V1050.71C585.529 1050.65 584.697 1050.58 583.929 1050.58C580.345 1050.58 578.233 1051.61 578.233 1055.26V1059.8H586.937V1064.34H578.233V1095H572.217ZM592.095 1095V1059.8H598.047V1066.97H598.303C600.927 1061.4 605.471 1059.16 609.695 1059.16C610.527 1059.16 611.871 1059.22 612.703 1059.54V1064.66C611.999 1064.47 610.719 1064.34 609.823 1064.34C607.391 1064.34 603.871 1065.11 600.799 1069.21C600.159 1070.1 599.775 1070.87 599.327 1071.64C598.431 1073.5 598.175 1075.29 598.175 1078.36V1095H592.095ZM631.27 1095.83C620.774 1095.83 614.182 1087.96 614.182 1077.4C614.182 1066.84 620.774 1058.97 631.27 1058.97C641.766 1058.97 648.358 1066.84 648.358 1077.4C648.358 1087.96 641.766 1095.83 631.27 1095.83ZM620.582 1077.4C620.582 1085.34 624.23 1091.1 631.27 1091.1C638.31 1091.1 641.958 1085.34 641.958 1077.4C641.958 1069.53 638.31 1063.7 631.27 1063.7C624.23 1063.7 620.582 1069.53 620.582 1077.4ZM654.845 1095V1059.8H660.669V1065.88H660.925C663.357 1061.14 667.325 1058.97 672.317 1058.97C677.181 1058.97 681.341 1061.21 683.197 1065.75C683.837 1067.35 684.157 1069.08 684.157 1072.34V1095H678.077V1072.79C678.077 1070.94 678.077 1069.14 677.437 1067.54C676.605 1065.43 674.621 1063.9 671.613 1063.9C668.477 1063.9 666.045 1065.24 664.061 1067.54C660.925 1071.13 660.925 1073.37 660.925 1078.81V1095H654.845ZM707.208 1095.83C696.712 1095.83 690.12 1087.96 690.12 1077.4C690.12 1066.84 696.712 1058.97 707.208 1058.97C717.704 1058.97 724.296 1066.84 724.296 1077.4C724.296 1087.96 717.704 1095.83 707.208 1095.83ZM696.52 1077.4C696.52 1085.34 700.168 1091.1 707.208 1091.1C714.248 1091.1 717.896 1085.34 717.896 1077.4C717.896 1069.53 714.248 1063.7 707.208 1063.7C700.168 1063.7 696.52 1069.53 696.52 1077.4ZM739.013 1095L726.277 1059.8H732.549L739.397 1079.9C741.253 1085.27 741.765 1087.58 742.277 1089.18H742.533C743.045 1087.58 743.557 1085.27 745.413 1079.9L752.261 1059.8H758.533L745.797 1095H739.013Z" fill="black"/>
<path d="M156.266 1511V1462.55H173.098C178.346 1462.55 180.906 1462.68 183.786 1463.64C188.586 1465.24 191.466 1469.14 191.466 1474.14C191.466 1479.58 187.946 1483.86 182.634 1484.7V1484.95C188.714 1485.98 192.938 1490.14 192.938 1496.73C192.938 1503.26 189.802 1507.74 184.106 1509.78C181.482 1510.74 178.026 1511 172.97 1511H156.266ZM162.73 1505.82H172.778C175.594 1505.82 178.026 1505.69 179.946 1505.24C183.914 1504.28 186.154 1501.46 186.154 1497.11C186.154 1492.63 184.042 1489.75 180.33 1488.86C177.962 1488.28 176.106 1488.22 174.058 1488.22H162.73V1505.82ZM162.73 1483.03H171.946C175.274 1483.03 176.938 1482.97 178.922 1482.52C182.698 1481.62 184.81 1479 184.81 1475.1C184.81 1471.51 183.21 1469.14 179.946 1468.25C178.026 1467.74 175.466 1467.67 171.946 1467.67H162.73V1483.03ZM215.864 1511.83C205.368 1511.83 198.776 1503.96 198.776 1493.4C198.776 1482.84 205.368 1474.97 215.864 1474.97C226.36 1474.97 232.952 1482.84 232.952 1493.4C232.952 1503.96 226.36 1511.83 215.864 1511.83ZM205.176 1493.4C205.176 1501.34 208.824 1507.1 215.864 1507.1C222.904 1507.1 226.552 1501.34 226.552 1493.4C226.552 1485.53 222.904 1479.7 215.864 1479.7C208.824 1479.7 205.176 1485.53 205.176 1493.4ZM234.237 1511L247.293 1492.82L235.133 1475.8H242.109L250.877 1489.24L259.581 1475.8H266.237L254.397 1492.38L267.709 1511H260.733L250.813 1495.83L240.893 1511H234.237ZM272.565 1511V1462.55H278.645V1481.37H278.901C281.397 1477.02 285.237 1474.97 290.037 1474.97C294.901 1474.97 299.061 1477.21 300.917 1481.75C301.557 1483.35 301.877 1485.08 301.877 1488.34V1511H295.797V1488.79C295.797 1486.94 295.797 1485.14 295.157 1483.54C294.325 1481.43 292.341 1479.9 289.333 1479.9C286.197 1479.9 283.765 1481.24 281.781 1483.54C278.645 1487.13 278.645 1489.37 278.645 1494.81V1511H272.565ZM308.222 1501.08C308.222 1494.42 313.47 1491.8 321.214 1490.52C324.542 1489.94 328.382 1489.37 332.414 1488.86L332.35 1487.26C332.222 1483.42 330.302 1481.37 327.998 1480.41C326.718 1479.9 325.374 1479.7 324.03 1479.7C318.846 1479.7 315.838 1481.82 314.878 1486.23H308.99C309.758 1480.22 314.366 1474.97 323.902 1474.97C332.734 1474.97 338.046 1478.94 338.046 1487.32V1511H332.414V1506.26H332.222C329.982 1509.98 325.438 1511.83 320.894 1511.83C314.558 1511.83 308.222 1508.25 308.222 1501.08ZM314.622 1501.08C314.622 1504.73 317.31 1507.48 321.854 1507.48C325.63 1507.48 330.494 1505.05 332.03 1500.31C332.35 1499.22 332.542 1498.01 332.478 1496.09L332.414 1492.82C328.638 1493.4 324.99 1494.17 321.598 1494.87C315.966 1496.02 314.622 1498.46 314.622 1501.08ZM375.962 1508.89C375.962 1518.36 370.714 1523.03 360.218 1523.03C349.978 1523.03 346.202 1518.49 345.434 1513.11H351.514C352.09 1516.7 355.354 1518.42 360.346 1518.42C366.874 1518.42 370.394 1516.06 370.394 1506.9V1504.86H370.138C368.986 1508.12 365.082 1510.23 359.898 1510.23C349.722 1510.23 344.026 1501.98 344.026 1492.63C344.026 1483.22 349.722 1474.97 359.898 1474.97C364.826 1474.97 368.538 1476.89 369.882 1480.02H370.202V1475.8H375.962V1508.89ZM350.362 1492.63C350.362 1500.25 354.202 1505.75 360.858 1505.75C365.978 1505.75 369.05 1503.13 370.074 1497.94C370.458 1495.96 370.458 1494.55 370.458 1492.63C370.458 1490.71 370.458 1489.37 370.074 1487.32C369.05 1482.2 365.978 1479.38 360.858 1479.38C354.202 1479.38 350.362 1484.89 350.362 1492.63ZM415.617 1498.9C414.401 1507.22 408.321 1511.83 399.553 1511.83C388.993 1511.83 382.401 1503.96 382.401 1493.4C382.401 1486.1 385.537 1480.02 390.977 1477.02C393.345 1475.67 396.225 1474.97 399.425 1474.97C400.897 1474.97 402.177 1474.97 403.393 1475.16C405.569 1475.54 407.553 1476.44 409.345 1477.72C413.249 1480.54 415.809 1485.72 415.745 1493.91H388.545C388.481 1494.42 388.481 1494.94 388.545 1495.58C388.673 1497.11 388.929 1498.52 389.377 1499.8C391.041 1504.22 394.625 1507.03 399.873 1507.03C403.905 1507.03 406.593 1505.43 408.257 1502.68C408.897 1501.59 409.409 1500.31 409.729 1498.9H415.617ZM388.801 1489.37H409.601C409.217 1483.86 406.081 1480.09 401.281 1479.51C400.577 1479.45 400.129 1479.45 399.617 1479.45C394.241 1479.45 390.529 1482.71 389.121 1487.64C388.993 1488.22 388.929 1488.79 388.801 1489.37ZM422.188 1511V1475.8H428.012V1481.88H428.268C430.7 1477.14 434.668 1474.97 439.66 1474.97C444.524 1474.97 448.684 1477.21 450.54 1481.75C451.18 1483.35 451.5 1485.08 451.5 1488.34V1511H445.42V1488.79C445.42 1486.94 445.42 1485.14 444.78 1483.54C443.948 1481.43 441.964 1479.9 438.956 1479.9C435.82 1479.9 433.388 1481.24 431.404 1483.54C428.268 1487.13 428.268 1489.37 428.268 1494.81V1511H422.188ZM490.679 1498.9C489.463 1507.22 483.383 1511.83 474.615 1511.83C464.055 1511.83 457.463 1503.96 457.463 1493.4C457.463 1486.1 460.599 1480.02 466.039 1477.02C468.407 1475.67 471.287 1474.97 474.487 1474.97C475.959 1474.97 477.239 1474.97 478.455 1475.16C480.631 1475.54 482.615 1476.44 484.407 1477.72C488.311 1480.54 490.871 1485.72 490.807 1493.91H463.607C463.543 1494.42 463.543 1494.94 463.607 1495.58C463.735 1497.11 463.991 1498.52 464.439 1499.8C466.103 1504.22 469.687 1507.03 474.935 1507.03C478.967 1507.03 481.655 1505.43 483.319 1502.68C483.959 1501.59 484.471 1500.31 484.791 1498.9H490.679ZM463.863 1489.37H484.663C484.279 1483.86 481.143 1480.09 476.343 1479.51C475.639 1479.45 475.191 1479.45 474.679 1479.45C469.303 1479.45 465.591 1482.71 464.183 1487.64C464.055 1488.22 463.991 1488.79 463.863 1489.37ZM497.251 1511V1475.8H503.203V1482.97H503.459C506.083 1477.4 510.627 1475.16 514.851 1475.16C515.683 1475.16 517.027 1475.22 517.859 1475.54V1480.66C517.155 1480.47 515.875 1480.34 514.979 1480.34C512.547 1480.34 509.027 1481.11 505.955 1485.21C505.315 1486.1 504.931 1486.87 504.483 1487.64C503.587 1489.5 503.331 1491.29 503.331 1494.36V1511H497.251ZM558.82 1511.9C545.892 1511.9 538.788 1506.14 537.956 1494.87H544.612C545.764 1503.32 550.052 1506.9 559.524 1506.9C567.908 1506.9 572.324 1503.51 572.324 1497.24C572.324 1492.95 569.38 1490.65 562.34 1489.43L553.892 1487.96C543.652 1486.17 539.748 1482.52 539.748 1475.22C539.748 1466.97 547.236 1461.53 559.012 1461.53C570.34 1461.53 577.188 1466.58 577.828 1475.48H571.428C570.468 1469.59 566.18 1466.46 558.628 1466.46C551.204 1466.46 546.468 1469.72 546.468 1474.52C546.468 1478.62 548.708 1480.6 554.468 1481.69L564.772 1483.61C574.884 1485.46 578.852 1489.24 578.852 1496.92C578.852 1506.33 571.812 1511.9 558.82 1511.9ZM587.113 1504.79V1480.34H582.441V1475.8H587.113V1467.16H593.129V1475.8H600.873V1480.34H593.129V1503.26C593.129 1506.97 595.497 1507.61 598.633 1507.61C599.529 1507.61 600.297 1507.54 600.873 1507.48V1511.45C599.401 1511.77 597.673 1511.96 595.945 1511.96C591.529 1511.96 587.113 1510.55 587.113 1504.79ZM606.688 1511V1475.8H612.64V1482.97H612.896C615.52 1477.4 620.064 1475.16 624.288 1475.16C625.12 1475.16 626.464 1475.22 627.296 1475.54V1480.66C626.592 1480.47 625.312 1480.34 624.416 1480.34C621.984 1480.34 618.464 1481.11 615.392 1485.21C614.752 1486.1 614.368 1486.87 613.92 1487.64C613.024 1489.5 612.768 1491.29 612.768 1494.36V1511H606.688ZM625.288 1511V1503.51H632.008V1511H625.288ZM656.768 1469.53C660.48 1467.86 663.808 1465.37 665.856 1462.55H671.424V1511H665.472V1470.68H665.216C662.4 1473.05 659.776 1474.46 656.768 1475.48V1469.53ZM696.638 1511.83C686.974 1511.83 679.486 1506.78 679.486 1498.14C679.486 1492.31 682.622 1487.38 689.79 1485.59V1485.34C684.286 1483.54 681.214 1479.51 681.214 1474.58C681.214 1466.39 688.318 1461.72 696.638 1461.72C704.894 1461.72 711.998 1466.39 711.998 1474.58C711.998 1479.51 708.926 1483.54 703.422 1485.34V1485.59C710.59 1487.38 713.726 1492.31 713.726 1498.14C713.726 1506.9 706.046 1511.83 696.638 1511.83ZM685.886 1497.75C685.886 1503.64 691.006 1507.22 696.638 1507.22C702.206 1507.22 707.39 1503.64 707.39 1497.75C707.39 1491.48 702.846 1488.28 696.574 1488.28C690.366 1488.28 685.886 1491.48 685.886 1497.75ZM687.55 1474.97C687.55 1481.11 692.35 1483.22 696.638 1483.22C700.862 1483.22 705.662 1481.11 705.662 1474.97C705.662 1469.34 701.374 1466.65 696.638 1466.65C691.71 1466.65 687.55 1469.21 687.55 1474.97ZM717.306 1519.26L719.61 1511V1503.51H725.818V1511L721.594 1519.26H717.306ZM750.581 1469.53C754.293 1467.86 757.621 1465.37 759.669 1462.55H765.237V1511H759.285V1470.68H759.029C756.213 1473.05 753.589 1474.46 750.581 1475.48V1469.53ZM791.218 1511.83C778.802 1511.83 773.298 1500.06 773.298 1486.74C773.298 1473.3 778.866 1461.72 791.154 1461.72H791.218C803.57 1461.72 809.074 1473.5 809.074 1486.74C809.074 1500.25 803.506 1511.83 791.218 1511.83ZM779.89 1486.74C779.89 1499.67 784.306 1506.71 791.218 1506.71C798.13 1506.71 802.546 1499.67 802.546 1486.74C802.546 1473.88 798.13 1466.84 791.218 1466.84C784.306 1466.84 779.89 1473.88 779.89 1486.74ZM815.349 1478.04C815.925 1472.09 817.845 1467.99 821.173 1465.3C823.925 1463.06 827.701 1461.72 832.117 1461.72C841.781 1461.72 847.861 1466.97 847.861 1475.67C847.861 1482.14 844.981 1486.1 837.813 1489.82L833.973 1491.8C826.357 1495.77 822.837 1499.54 822.133 1505.37H848.373V1511H815.413C815.413 1499.1 819.637 1492.82 829.493 1487.77L833.845 1485.53C839.349 1482.71 841.205 1479.96 841.205 1475.86C841.205 1470.17 837.621 1466.84 832.565 1466.84C826.421 1466.84 822.709 1470.81 821.685 1478.04H815.349ZM873.182 1511L873.31 1497.5H850.462V1492.25L870.75 1462.55H879.454V1492.44H885.022V1497.5H879.454V1511H873.182ZM857.054 1492.44H873.31V1480.15C873.31 1475.74 873.502 1469.72 873.63 1467.93H873.246C870.878 1472.15 867.742 1477.14 865.246 1480.66L857.054 1492.44ZM905.646 1511.77C897.198 1511.77 890.926 1506.46 890.414 1497.88H897.134C897.454 1503 901.038 1506.71 906.286 1506.71C913.518 1506.71 916.91 1500.06 916.91 1493.53C916.91 1486.17 913.326 1481.62 907.182 1481.62C902.318 1481.62 898.734 1484.63 897.582 1488.98H891.95L894.126 1462.55H920.75V1468.06H899.182L898.158 1480.6C900.27 1478.1 903.726 1476.57 908.078 1476.57C917.998 1476.57 923.374 1484.44 923.374 1493.14C923.374 1504.15 915.95 1511.77 905.646 1511.77ZM134.766 1585V1536.55H142.318L168.558 1576.36H168.878C168.622 1573.61 168.43 1568.42 168.43 1561.32V1536.55H174.83V1585H167.406L141.038 1545.06H140.718C140.91 1548.33 141.166 1557.86 141.166 1564.58V1585H134.766ZM215.179 1572.9C213.963 1581.22 207.883 1585.83 199.115 1585.83C188.555 1585.83 181.963 1577.96 181.963 1567.4C181.963 1560.1 185.099 1554.02 190.539 1551.02C192.907 1549.67 195.787 1548.97 198.987 1548.97C200.459 1548.97 201.739 1548.97 202.955 1549.16C205.131 1549.54 207.115 1550.44 208.907 1551.72C212.811 1554.54 215.371 1559.72 215.307 1567.91H188.107C188.043 1568.42 188.043 1568.94 188.107 1569.58C188.235 1571.11 188.491 1572.52 188.939 1573.8C190.603 1578.22 194.187 1581.03 199.435 1581.03C203.467 1581.03 206.155 1579.43 207.819 1576.68C208.459 1575.59 208.971 1574.31 209.291 1572.9H215.179ZM188.363 1563.37H209.163C208.779 1557.86 205.643 1554.09 200.843 1553.51C200.139 1553.45 199.691 1553.45 199.179 1553.45C193.803 1553.45 190.091 1556.71 188.683 1561.64C188.555 1562.22 188.491 1562.79 188.363 1563.37ZM250.551 1549.8V1585H244.727V1578.92H244.471C242.039 1583.66 238.071 1585.83 233.079 1585.83C228.215 1585.83 224.055 1583.59 222.199 1579.05C221.559 1577.45 221.239 1575.72 221.239 1572.46V1549.8H227.319V1572.01C227.319 1573.86 227.319 1575.66 227.959 1577.26C228.791 1579.37 230.775 1580.9 233.783 1580.9C236.919 1580.9 239.351 1579.56 241.335 1577.26C244.471 1573.67 244.471 1571.43 244.471 1565.99V1549.8H250.551ZM290.242 1572.9C289.026 1581.22 282.946 1585.83 274.178 1585.83C263.618 1585.83 257.026 1577.96 257.026 1567.4C257.026 1560.1 260.162 1554.02 265.602 1551.02C267.97 1549.67 270.85 1548.97 274.05 1548.97C275.522 1548.97 276.802 1548.97 278.018 1549.16C280.194 1549.54 282.178 1550.44 283.97 1551.72C287.874 1554.54 290.434 1559.72 290.37 1567.91H263.17C263.106 1568.42 263.106 1568.94 263.17 1569.58C263.298 1571.11 263.554 1572.52 264.002 1573.8C265.666 1578.22 269.25 1581.03 274.498 1581.03C278.53 1581.03 281.218 1579.43 282.882 1576.68C283.522 1575.59 284.034 1574.31 284.354 1572.9H290.242ZM263.426 1563.37H284.226C283.842 1557.86 280.706 1554.09 275.906 1553.51C275.202 1553.45 274.754 1553.45 274.242 1553.45C268.866 1553.45 265.154 1556.71 263.746 1561.64C263.618 1562.22 263.554 1562.79 263.426 1563.37ZM314.453 1585V1536.55H331.285C336.533 1536.55 339.093 1536.68 341.973 1537.64C346.773 1539.24 349.653 1543.14 349.653 1548.14C349.653 1553.58 346.133 1557.86 340.821 1558.7V1558.95C346.901 1559.98 351.125 1564.14 351.125 1570.73C351.125 1577.26 347.989 1581.74 342.293 1583.78C339.669 1584.74 336.213 1585 331.157 1585H314.453ZM320.917 1579.82H330.965C333.781 1579.82 336.213 1579.69 338.133 1579.24C342.101 1578.28 344.341 1575.46 344.341 1571.11C344.341 1566.63 342.229 1563.75 338.517 1562.86C336.149 1562.28 334.293 1562.22 332.245 1562.22H320.917V1579.82ZM320.917 1557.03H330.133C333.461 1557.03 335.125 1556.97 337.109 1556.52C340.885 1555.62 342.997 1553 342.997 1549.1C342.997 1545.51 341.397 1543.14 338.133 1542.25C336.213 1541.74 333.653 1541.67 330.133 1541.67H320.917V1557.03ZM387.363 1549.8V1585H381.539V1578.92H381.283C378.851 1583.66 374.883 1585.83 369.891 1585.83C365.027 1585.83 360.867 1583.59 359.011 1579.05C358.371 1577.45 358.051 1575.72 358.051 1572.46V1549.8H364.131V1572.01C364.131 1573.86 364.131 1575.66 364.771 1577.26C365.603 1579.37 367.587 1580.9 370.595 1580.9C373.731 1580.9 376.163 1579.56 378.147 1577.26C381.283 1573.67 381.283 1571.43 381.283 1565.99V1549.8H387.363ZM395.502 1585V1536.55H401.582V1555.37H401.838C404.334 1551.02 408.174 1548.97 412.974 1548.97C417.838 1548.97 421.998 1551.21 423.854 1555.75C424.494 1557.35 424.814 1559.08 424.814 1562.34V1585H418.734V1562.79C418.734 1560.94 418.734 1559.14 418.094 1557.54C417.262 1555.43 415.278 1553.9 412.27 1553.9C409.134 1553.9 406.702 1555.24 404.718 1557.54C401.582 1561.13 401.582 1563.37 401.582 1568.81V1585H395.502ZM432.376 1585V1549.8H438.2V1555.88H438.456C440.888 1551.14 444.856 1548.97 449.848 1548.97C454.712 1548.97 458.872 1551.21 460.728 1555.75C461.368 1557.35 461.688 1559.08 461.688 1562.34V1585H455.608V1562.79C455.608 1560.94 455.608 1559.14 454.968 1557.54C454.136 1555.43 452.152 1553.9 449.144 1553.9C446.008 1553.9 443.576 1555.24 441.592 1557.54C438.456 1561.13 438.456 1563.37 438.456 1568.81V1585H432.376ZM500.867 1572.9C499.651 1581.22 493.571 1585.83 484.803 1585.83C474.243 1585.83 467.651 1577.96 467.651 1567.4C467.651 1560.1 470.787 1554.02 476.227 1551.02C478.595 1549.67 481.475 1548.97 484.675 1548.97C486.147 1548.97 487.427 1548.97 488.643 1549.16C490.819 1549.54 492.803 1550.44 494.595 1551.72C498.499 1554.54 501.059 1559.72 500.995 1567.91H473.795C473.731 1568.42 473.731 1568.94 473.795 1569.58C473.923 1571.11 474.179 1572.52 474.627 1573.8C476.291 1578.22 479.875 1581.03 485.123 1581.03C489.155 1581.03 491.843 1579.43 493.507 1576.68C494.147 1575.59 494.659 1574.31 494.979 1572.9H500.867ZM474.051 1563.37H494.851C494.467 1557.86 491.331 1554.09 486.531 1553.51C485.827 1553.45 485.379 1553.45 484.867 1553.45C479.491 1553.45 475.779 1556.71 474.371 1561.64C474.243 1562.22 474.179 1562.79 474.051 1563.37ZM525.078 1585V1536.55H555.926V1542.06H531.542V1558.7H554.006V1564.01H531.542V1585H525.078ZM560.813 1585V1549.8H566.765V1556.97H567.021C569.645 1551.4 574.189 1549.16 578.413 1549.16C579.245 1549.16 580.589 1549.22 581.421 1549.54V1554.66C580.717 1554.47 579.437 1554.34 578.541 1554.34C576.109 1554.34 572.589 1555.11 569.517 1559.21C568.877 1560.1 568.493 1560.87 568.045 1561.64C567.149 1563.5 566.893 1565.29 566.893 1568.36V1585H560.813ZM586.069 1585V1549.8H592.149V1585H586.069ZM585.877 1544.68V1537.96H592.341V1544.68H585.877ZM632.054 1572.9C630.838 1581.22 624.758 1585.83 615.99 1585.83C605.43 1585.83 598.838 1577.96 598.838 1567.4C598.838 1560.1 601.974 1554.02 607.414 1551.02C609.782 1549.67 612.662 1548.97 615.862 1548.97C617.334 1548.97 618.614 1548.97 619.83 1549.16C622.006 1549.54 623.99 1550.44 625.782 1551.72C629.686 1554.54 632.246 1559.72 632.182 1567.91H604.982C604.918 1568.42 604.918 1568.94 604.982 1569.58C605.11 1571.11 605.366 1572.52 605.814 1573.8C607.478 1578.22 611.062 1581.03 616.31 1581.03C620.342 1581.03 623.03 1579.43 624.694 1576.68C625.334 1575.59 625.846 1574.31 626.166 1572.9H632.054ZM605.238 1563.37H626.038C625.654 1557.86 622.518 1554.09 617.718 1553.51C617.014 1553.45 616.566 1553.45 616.054 1553.45C610.678 1553.45 606.966 1556.71 605.558 1561.64C605.43 1562.22 605.366 1562.79 605.238 1563.37ZM669.666 1585H663.906V1580.58H663.65C662.306 1583.78 658.466 1585.83 653.346 1585.83C642.85 1585.83 637.026 1577.19 637.026 1567.4C637.026 1557.61 642.85 1548.97 653.346 1548.97C658.146 1548.97 661.73 1550.76 663.33 1553.58H663.586V1536.55H669.666V1585ZM643.362 1567.4C643.362 1575.4 647.458 1581.1 654.242 1581.1C659.426 1581.1 662.754 1578.34 663.778 1572.97C664.162 1570.92 664.162 1569.45 664.162 1567.4C664.162 1565.35 664.162 1563.88 663.778 1561.83C662.754 1556.46 659.426 1553.7 654.242 1553.7C647.458 1553.7 643.362 1559.4 643.362 1567.4ZM677.813 1585V1549.8H683.765V1556.97H684.021C686.645 1551.4 691.189 1549.16 695.413 1549.16C696.245 1549.16 697.589 1549.22 698.421 1549.54V1554.66C697.717 1554.47 696.437 1554.34 695.541 1554.34C693.109 1554.34 689.589 1555.11 686.517 1559.21C685.877 1560.1 685.493 1560.87 685.045 1561.64C684.149 1563.5 683.893 1565.29 683.893 1568.36V1585H677.813ZM703.069 1585V1549.8H709.149V1585H703.069ZM702.877 1544.68V1537.96H709.341V1544.68H702.877ZM748.222 1572.9C747.006 1581.22 741.31 1585.83 732.67 1585.83C722.238 1585.83 715.838 1578.02 715.838 1567.4C715.838 1556.46 722.622 1548.97 732.99 1548.97C734.206 1548.97 735.55 1549.03 736.894 1549.29C742.974 1550.5 746.814 1554.66 747.71 1561.19H741.758C740.926 1557.16 738.622 1554.73 735.358 1553.9C734.462 1553.7 733.694 1553.7 732.798 1553.7C725.822 1553.7 722.046 1559.46 722.046 1567.4C722.046 1575.4 725.95 1581.1 732.99 1581.1C738.174 1581.1 741.246 1577.96 742.206 1572.9H748.222ZM754.502 1585V1536.55H760.582V1555.37H760.838C763.334 1551.02 767.174 1548.97 771.974 1548.97C776.838 1548.97 780.998 1551.21 782.854 1555.75C783.494 1557.35 783.814 1559.08 783.814 1562.34V1585H777.734V1562.79C777.734 1560.94 777.734 1559.14 777.094 1557.54C776.262 1555.43 774.278 1553.9 771.27 1553.9C768.134 1553.9 765.702 1555.24 763.718 1557.54C760.582 1561.13 760.582 1563.37 760.582 1568.81V1585H754.502ZM820.56 1574.12C820.56 1581.1 815.376 1585.83 805.776 1585.83C796.944 1585.83 791.184 1581.74 790.224 1574.12H796.176C797.2 1578.79 800.464 1581.03 805.776 1581.03C811.344 1581.03 814.544 1578.54 814.544 1574.76C814.544 1571.88 812.752 1570.15 808.656 1569.77L802.256 1569.13C794.32 1568.36 790.864 1565.29 790.864 1560.1C790.864 1553.58 796.816 1548.97 805.84 1548.97C814.032 1548.97 819.472 1552.87 820.24 1560.23H814.544C813.712 1555.82 810.576 1553.7 805.584 1553.7C800.336 1553.7 796.944 1556.07 796.944 1559.59C796.944 1562.02 798.608 1563.3 802.576 1563.69L809.296 1564.39C817.232 1565.22 820.56 1568.55 820.56 1574.12ZM827.377 1585V1536.55H833.457V1555.37H833.713C836.209 1551.02 840.049 1548.97 844.849 1548.97C849.713 1548.97 853.873 1551.21 855.729 1555.75C856.369 1557.35 856.689 1559.08 856.689 1562.34V1585H850.609V1562.79C850.609 1560.94 850.609 1559.14 849.969 1557.54C849.137 1555.43 847.153 1553.9 844.145 1553.9C841.009 1553.9 838.577 1555.24 836.593 1557.54C833.457 1561.13 833.457 1563.37 833.457 1568.81V1585H827.377ZM863.035 1575.08C863.035 1568.42 868.283 1565.8 876.027 1564.52C879.355 1563.94 883.195 1563.37 887.227 1562.86L887.163 1561.26C887.035 1557.42 885.115 1555.37 882.811 1554.41C881.531 1553.9 880.187 1553.7 878.843 1553.7C873.659 1553.7 870.651 1555.82 869.691 1560.23H863.803C864.571 1554.22 869.179 1548.97 878.715 1548.97C887.547 1548.97 892.859 1552.94 892.859 1561.32V1585H887.227V1580.26H887.035C884.795 1583.98 880.251 1585.83 875.707 1585.83C869.371 1585.83 863.035 1582.25 863.035 1575.08ZM869.435 1575.08C869.435 1578.73 872.123 1581.48 876.667 1581.48C880.443 1581.48 885.307 1579.05 886.843 1574.31C887.163 1573.22 887.355 1572.01 887.291 1570.09L887.227 1566.82C883.451 1567.4 879.803 1568.17 876.411 1568.87C870.779 1570.02 869.435 1572.46 869.435 1575.08ZM900.694 1585V1549.8H906.774V1585H900.694ZM900.502 1544.68V1537.96H906.966V1544.68H900.502ZM915.063 1585V1549.8H920.887V1555.88H921.143C923.575 1551.14 927.543 1548.97 932.535 1548.97C937.399 1548.97 941.559 1551.21 943.415 1555.75C944.055 1557.35 944.375 1559.08 944.375 1562.34V1585H938.295V1562.79C938.295 1560.94 938.295 1559.14 937.655 1557.54C936.823 1555.43 934.839 1553.9 931.831 1553.9C928.695 1553.9 926.263 1555.24 924.279 1557.54C921.143 1561.13 921.143 1563.37 921.143 1568.81V1585H915.063Z" fill="black"/>
<path d="M319.581 341.528C323.293 339.864 326.621 337.368 328.669 334.552H334.237V383H328.285V342.68H328.029C325.213 345.048 322.589 346.456 319.581 347.48V341.528ZM342.724 350.04C343.3 344.088 345.22 339.992 348.548 337.304C351.3 335.064 355.076 333.72 359.492 333.72C369.156 333.72 375.236 338.968 375.236 347.672C375.236 354.136 372.356 358.104 365.188 361.816L361.348 363.8C353.732 367.768 350.212 371.544 349.508 377.368H375.748V383H342.788C342.788 371.096 347.012 364.824 356.868 359.768L361.22 357.528C366.724 354.712 368.58 351.96 368.58 347.864C368.58 342.168 364.996 338.84 359.94 338.84C353.796 338.84 350.084 342.808 349.06 350.04H342.724ZM400.328 383V334.552H416.584C420.616 334.552 424.136 334.872 426.824 335.896C432.072 337.944 435.144 342.744 435.144 349.208C435.144 355.864 432.072 360.536 426.952 362.52C424.136 363.608 420.616 363.928 415.944 363.928H406.792V383H400.328ZM406.792 358.872H416.2C418.76 358.872 420.488 358.872 422.728 358.232C426.056 357.272 428.424 354.392 428.424 349.336C428.424 344.152 426.056 341.336 422.536 340.312C420.488 339.736 418.76 339.672 416.84 339.672H406.792V358.872ZM441.626 383V347.8H447.45V353.88H447.706C450.074 349.144 453.978 346.968 458.842 346.968C461.85 346.968 464.794 347.928 466.906 349.784C468.122 350.872 468.954 352.216 469.786 354.264C472.282 349.272 476.442 346.968 481.69 346.968C484.698 346.968 487.642 347.928 489.754 349.784C490.97 350.872 491.802 352.216 492.506 353.816C493.082 355.352 493.402 357.08 493.402 360.344V383H487.322V360.792C487.322 358.936 487.322 357.144 486.682 355.672C485.85 353.432 483.994 351.896 481.05 351.896C478.042 351.896 475.546 353.24 473.626 355.544C470.554 359.128 470.554 361.368 470.554 366.808V383H464.474V360.792C464.474 358.936 464.474 357.144 463.834 355.672C463.002 353.432 461.146 351.896 458.202 351.896C455.13 351.896 452.698 353.24 450.778 355.544C447.706 359.128 447.706 361.368 447.706 366.808V383H441.626ZM517.298 366.168V360.536H559.858V366.168H517.298ZM582.393 341.528C586.105 339.864 589.433 337.368 591.481 334.552H597.049V383H591.097V342.68H590.841C588.025 345.048 585.401 346.456 582.393 347.48V341.528ZM623.031 383.832C610.615 383.832 605.111 372.056 605.111 358.744C605.111 345.304 610.679 333.72 622.967 333.72H623.031C635.383 333.72 640.887 345.496 640.887 358.744C640.887 372.248 635.319 383.832 623.031 383.832ZM611.703 358.744C611.703 371.672 616.119 378.712 623.031 378.712C629.943 378.712 634.359 371.672 634.359 358.744C634.359 345.88 629.943 338.84 623.031 338.84C616.119 338.84 611.703 345.88 611.703 358.744ZM665.953 383V334.552H682.209C686.241 334.552 689.761 334.872 692.449 335.896C697.697 337.944 700.769 342.744 700.769 349.208C700.769 355.864 697.697 360.536 692.577 362.52C689.761 363.608 686.241 363.928 681.569 363.928H672.417V383H665.953ZM672.417 358.872H681.825C684.385 358.872 686.113 358.872 688.353 358.232C691.681 357.272 694.049 354.392 694.049 349.336C694.049 344.152 691.681 341.336 688.161 340.312C686.113 339.736 684.385 339.672 682.465 339.672H672.417V358.872ZM707.251 383V347.8H713.075V353.88H713.331C715.699 349.144 719.603 346.968 724.467 346.968C727.475 346.968 730.419 347.928 732.531 349.784C733.747 350.872 734.579 352.216 735.411 354.264C737.907 349.272 742.067 346.968 747.315 346.968C750.323 346.968 753.267 347.928 755.379 349.784C756.595 350.872 757.427 352.216 758.131 353.816C758.707 355.352 759.027 357.08 759.027 360.344V383H752.947V360.792C752.947 358.936 752.947 357.144 752.307 355.672C751.475 353.432 749.619 351.896 746.675 351.896C743.667 351.896 741.171 353.24 739.251 355.544C736.179 359.128 736.179 361.368 736.179 366.808V383H730.099V360.792C730.099 358.936 730.099 357.144 729.459 355.672C728.627 353.432 726.771 351.896 723.827 351.896C720.755 351.896 718.323 353.24 716.403 355.544C713.331 359.128 713.331 361.368 713.331 366.808V383H707.251ZM442.237 415.528C445.949 413.864 449.277 411.368 451.325 408.552H456.893V457H450.941V416.68H450.685C447.869 419.048 445.245 420.456 442.237 421.48V415.528ZM480.763 407.72C493.243 407.72 498.107 418.024 498.107 431.08C498.107 445.992 492.731 457.832 479.483 457.832C471.355 457.832 466.171 452.968 465.467 444.648H471.483C472.443 450.024 475.003 452.648 480.059 452.648C488.059 452.648 492.155 443.88 492.283 433.384H491.963C489.531 438.376 485.179 440.744 479.931 440.744C471.867 440.744 464.763 434.6 464.763 424.68C464.763 414.632 471.611 407.72 480.763 407.72ZM471.099 424.488C471.099 432.04 475.963 435.88 480.571 435.88C485.691 435.88 490.555 432.04 490.555 424.424C490.555 417.576 486.587 412.584 480.763 412.584C475.323 412.584 471.099 417.512 471.099 424.488ZM534.308 457.832C524.132 457.832 519.268 450.472 519.14 439.912H525.604C525.924 447.464 528.42 452.584 534.564 452.584C541.156 452.584 542.884 447.592 542.884 440.232V408.552H549.348V440.104C549.348 451.752 544.484 457.832 534.308 457.832ZM586.832 421.8V457H581.008V450.92H580.752C578.32 455.656 574.352 457.832 569.36 457.832C564.496 457.832 560.336 455.592 558.48 451.048C557.84 449.448 557.52 447.72 557.52 444.456V421.8H563.6V444.008C563.6 445.864 563.6 447.656 564.24 449.256C565.072 451.368 567.056 452.904 570.064 452.904C573.2 452.904 575.632 451.56 577.616 449.256C580.752 445.672 580.752 443.432 580.752 437.992V421.8H586.832ZM594.971 457V408.552H601.115V457H594.971ZM606.276 421.992V421.8H612.612L623.108 448.488L632.452 421.8H638.596V422.056L621.508 468.2H615.492V467.944L619.908 455.656L606.276 421.992ZM239.672 531V482.552H256.504C261.752 482.552 264.312 482.68 267.192 483.64C271.992 485.24 274.872 489.144 274.872 494.136C274.872 499.576 271.352 503.864 266.04 504.696V504.952C272.12 505.976 276.344 510.136 276.344 516.728C276.344 523.256 273.208 527.736 267.512 529.784C264.888 530.744 261.432 531 256.376 531H239.672ZM246.136 525.816H256.184C259 525.816 261.432 525.688 263.352 525.24C267.32 524.28 269.56 521.464 269.56 517.112C269.56 512.632 267.448 509.752 263.736 508.856C261.368 508.28 259.512 508.216 257.464 508.216H246.136V525.816ZM246.136 503.032H255.352C258.68 503.032 260.344 502.968 262.328 502.52C266.104 501.624 268.216 499 268.216 495.096C268.216 491.512 266.616 489.144 263.352 488.248C261.432 487.736 258.872 487.672 255.352 487.672H246.136V503.032ZM299.27 531.832C288.774 531.832 282.182 523.96 282.182 513.4C282.182 502.84 288.774 494.968 299.27 494.968C309.766 494.968 316.358 502.84 316.358 513.4C316.358 523.96 309.766 531.832 299.27 531.832ZM288.582 513.4C288.582 521.336 292.23 527.096 299.27 527.096C306.31 527.096 309.958 521.336 309.958 513.4C309.958 505.528 306.31 499.704 299.27 499.704C292.23 499.704 288.582 505.528 288.582 513.4ZM317.643 531L330.699 512.824L318.539 495.8H325.515L334.283 509.24L342.987 495.8H349.643L337.803 512.376L351.115 531H344.139L334.219 515.832L324.299 531H317.643ZM356.163 531V495.8H362.243V531H356.163ZM355.971 490.68V483.96H362.435V490.68H355.971ZM388.172 531V482.552H405.004C410.252 482.552 412.812 482.68 415.692 483.64C420.492 485.24 423.372 489.144 423.372 494.136C423.372 499.576 419.852 503.864 414.54 504.696V504.952C420.62 505.976 424.844 510.136 424.844 516.728C424.844 523.256 421.708 527.736 416.012 529.784C413.388 530.744 409.932 531 404.876 531H388.172ZM394.636 525.816H404.684C407.5 525.816 409.932 525.688 411.852 525.24C415.82 524.28 418.06 521.464 418.06 517.112C418.06 512.632 415.948 509.752 412.236 508.856C409.868 508.28 408.012 508.216 405.964 508.216H394.636V525.816ZM394.636 503.032H403.852C407.18 503.032 408.844 502.968 410.828 502.52C414.604 501.624 416.716 499 416.716 495.096C416.716 491.512 415.116 489.144 411.852 488.248C409.932 487.736 407.372 487.672 403.852 487.672H394.636V503.032ZM431.066 521.08C431.066 514.424 436.314 511.8 444.058 510.52C447.386 509.944 451.226 509.368 455.258 508.856L455.194 507.256C455.066 503.416 453.146 501.368 450.842 500.408C449.562 499.896 448.218 499.704 446.874 499.704C441.69 499.704 438.682 501.816 437.722 506.232H431.834C432.602 500.216 437.21 494.968 446.746 494.968C455.578 494.968 460.89 498.936 460.89 507.32V531H455.258V526.264H455.066C452.826 529.976 448.282 531.832 443.738 531.832C437.402 531.832 431.066 528.248 431.066 521.08ZM437.466 521.08C437.466 524.728 440.154 527.48 444.698 527.48C448.474 527.48 453.338 525.048 454.874 520.312C455.194 519.224 455.386 518.008 455.322 516.088L455.258 512.824C451.482 513.4 447.834 514.168 444.442 514.872C438.81 516.024 437.466 518.456 437.466 521.08ZM499.254 518.904C498.038 527.224 492.342 531.832 483.702 531.832C473.27 531.832 466.87 524.024 466.87 513.4C466.87 502.456 473.654 494.968 484.022 494.968C485.238 494.968 486.582 495.032 487.926 495.288C494.006 496.504 497.846 500.664 498.742 507.192H492.79C491.958 503.16 489.654 500.728 486.39 499.896C485.494 499.704 484.726 499.704 483.83 499.704C476.854 499.704 473.078 505.464 473.078 513.4C473.078 521.4 476.982 527.096 484.022 527.096C489.206 527.096 492.278 523.96 493.238 518.904H499.254ZM505.534 531V482.552H511.486V511.288L526.206 495.8H533.246V496.12L520.19 509.368L534.462 530.68V531H527.934L516.094 512.504L511.486 517.112V531H505.534ZM536.213 495.992V495.8H542.549L553.045 522.488L562.389 495.8H568.533V496.056L551.445 542.2H545.429V541.944L549.845 529.656L536.213 495.992ZM571.004 521.08C571.004 514.424 576.252 511.8 583.996 510.52C587.324 509.944 591.164 509.368 595.196 508.856L595.132 507.256C595.004 503.416 593.084 501.368 590.78 500.408C589.5 499.896 588.156 499.704 586.812 499.704C581.628 499.704 578.62 501.816 577.66 506.232H571.772C572.54 500.216 577.148 494.968 586.684 494.968C595.516 494.968 600.828 498.936 600.828 507.32V531H595.196V526.264H595.004C592.764 529.976 588.22 531.832 583.676 531.832C577.34 531.832 571.004 528.248 571.004 521.08ZM577.404 521.08C577.404 524.728 580.092 527.48 584.635 527.48C588.412 527.48 593.276 525.048 594.812 520.312C595.132 519.224 595.324 518.008 595.26 516.088L595.196 512.824C591.42 513.4 587.772 514.168 584.38 514.872C578.748 516.024 577.404 518.456 577.404 521.08ZM608.407 531V495.8H614.359V502.968H614.615C617.239 497.4 621.783 495.16 626.007 495.16C626.839 495.16 628.183 495.224 629.015 495.544V500.664C628.311 500.472 627.031 500.344 626.135 500.344C623.703 500.344 620.183 501.112 617.111 505.208C616.471 506.104 616.087 506.872 615.639 507.64C614.743 509.496 614.487 511.288 614.487 514.36V531H608.407ZM663.135 531H657.375V526.584H657.119C655.775 529.784 651.935 531.832 646.815 531.832C636.319 531.832 630.495 523.192 630.495 513.4C630.495 503.608 636.319 494.968 646.815 494.968C651.615 494.968 655.199 496.76 656.799 499.576H657.055V482.552H663.135V531ZM636.831 513.4C636.831 521.4 640.927 527.096 647.711 527.096C652.895 527.096 656.223 524.344 657.247 518.968C657.631 516.92 657.631 515.448 657.631 513.4C657.631 511.352 657.631 509.88 657.247 507.832C656.223 502.456 652.895 499.704 647.711 499.704C640.927 499.704 636.831 505.4 636.831 513.4ZM688.922 531V482.552H705.178C709.21 482.552 712.73 482.872 715.418 483.896C720.666 485.944 723.738 490.744 723.738 497.208C723.738 503.864 720.666 508.536 715.546 510.52C712.73 511.608 709.21 511.928 704.538 511.928H695.386V531H688.922ZM695.386 506.872H704.794C707.354 506.872 709.082 506.872 711.322 506.232C714.65 505.272 717.018 502.392 717.018 497.336C717.018 492.152 714.65 489.336 711.13 488.312C709.082 487.736 707.354 487.672 705.434 487.672H695.386V506.872ZM728.379 521.08C728.379 514.424 733.627 511.8 741.371 510.52C744.699 509.944 748.539 509.368 752.571 508.856L752.507 507.256C752.379 503.416 750.459 501.368 748.155 500.408C746.875 499.896 745.531 499.704 744.187 499.704C739.003 499.704 735.995 501.816 735.035 506.232H729.147C729.915 500.216 734.523 494.968 744.059 494.968C752.891 494.968 758.203 498.936 758.203 507.32V531H752.571V526.264H752.379C750.139 529.976 745.595 531.832 741.051 531.832C734.715 531.832 728.379 528.248 728.379 521.08ZM734.779 521.08C734.779 524.728 737.467 527.48 742.01 527.48C745.787 527.48 750.651 525.048 752.187 520.312C752.507 519.224 752.699 518.008 752.635 516.088L752.571 512.824C748.795 513.4 745.147 514.168 741.755 514.872C736.123 516.024 734.779 518.456 734.779 521.08ZM765.782 531V495.8H771.734V502.968H771.99C774.614 497.4 779.158 495.16 783.382 495.16C784.214 495.16 785.558 495.224 786.39 495.544V500.664C785.686 500.472 784.406 500.344 783.51 500.344C781.078 500.344 777.558 501.112 774.486 505.208C773.846 506.104 773.462 506.872 773.014 507.64C772.118 509.496 771.862 511.288 771.862 514.36V531H765.782ZM794.769 524.792V500.344H790.097V495.8H794.769V487.16H800.785V495.8H808.529V500.344H800.785V523.256C800.785 526.968 803.153 527.608 806.289 527.608C807.185 527.608 807.953 527.544 808.529 527.48V531.448C807.057 531.768 805.329 531.96 803.601 531.96C799.185 531.96 794.769 530.552 794.769 524.792ZM811.401 495.992V495.8H817.737L828.233 522.488L837.577 495.8H843.721V496.056L826.633 542.2H820.617V541.944L825.033 529.656L811.401 495.992Z" fill="black"/>
</svg>
