<svg width="1080" height="1080" viewBox="0 0 1080 1080" fill="none" xmlns="http://www.w3.org/2000/svg">
<rect width="1080" height="1080" fill="white"/>
<path d="M467.059 503V466.664H471.907V484.904L487.075 466.664H492.595V466.808L479.875 481.832L494.371 502.712V503H488.947L476.563 485.048L471.907 490.616V503H467.059ZM508.148 503.624C500.276 503.624 495.332 497.72 495.332 489.8C495.332 481.88 500.276 475.976 508.148 475.976C516.02 475.976 520.964 481.88 520.964 489.8C520.964 497.72 516.02 503.624 508.148 503.624ZM500.132 489.8C500.132 495.752 502.868 500.072 508.148 500.072C513.428 500.072 516.164 495.752 516.164 489.8C516.164 483.896 513.428 479.528 508.148 479.528C502.868 479.528 500.132 483.896 500.132 489.8ZM525.877 503V466.664H530.485V503H525.877ZM548.179 503.624C540.307 503.624 535.363 497.72 535.363 489.8C535.363 481.88 540.307 475.976 548.179 475.976C556.051 475.976 560.995 481.88 560.995 489.8C560.995 497.72 556.051 503.624 548.179 503.624ZM540.163 489.8C540.163 495.752 542.899 500.072 548.179 500.072C553.459 500.072 556.195 495.752 556.195 489.8C556.195 483.896 553.459 479.528 548.179 479.528C542.899 479.528 540.163 483.896 540.163 489.8ZM564.714 495.56C564.714 490.568 568.65 488.6 574.458 487.64C576.954 487.208 579.834 486.776 582.858 486.392L582.81 485.192C582.714 482.312 581.274 480.776 579.546 480.056C578.586 479.672 577.578 479.528 576.57 479.528C572.682 479.528 570.426 481.112 569.706 484.424H565.29C565.866 479.912 569.322 475.976 576.474 475.976C583.098 475.976 587.082 478.952 587.082 485.24V503H582.858V499.448H582.714C581.034 502.232 577.626 503.624 574.218 503.624C569.466 503.624 564.714 500.936 564.714 495.56ZM569.514 495.56C569.514 498.296 571.53 500.36 574.938 500.36C577.77 500.36 581.418 498.536 582.57 494.984C582.81 494.168 582.954 493.256 582.906 491.816L582.858 489.368C580.026 489.8 577.29 490.376 574.746 490.904C570.522 491.768 569.514 493.592 569.514 495.56ZM592.814 503V466.664H597.374V480.776H597.566C599.438 477.512 602.318 475.976 605.918 475.976C609.566 475.976 612.686 477.656 614.078 481.064C614.558 482.264 614.798 483.56 614.798 486.008V503H610.238V486.344C610.238 484.952 610.238 483.608 609.758 482.408C609.134 480.824 607.646 479.672 605.39 479.672C603.038 479.672 601.214 480.68 599.726 482.408C597.374 485.096 597.374 486.776 597.374 490.856V503H592.814ZM490.087 559.624C480.391 559.624 472.567 553.576 472.567 541C472.567 528.184 480.391 522.04 490.087 522.04C499.831 522.04 507.607 528.184 507.607 541C507.607 553.576 499.831 559.624 490.087 559.624ZM477.703 541C477.703 548.92 481.351 555.736 489.991 555.736C498.727 555.736 502.471 549.016 502.471 541C502.471 532.888 498.967 525.928 490.087 525.928C481.207 525.928 477.703 532.888 477.703 541ZM536.26 549.928C535.348 556.168 531.076 559.624 524.596 559.624C516.772 559.624 511.972 553.768 511.972 545.8C511.972 537.592 517.06 531.976 524.836 531.976C525.748 531.976 526.756 532.024 527.764 532.216C532.324 533.128 535.204 536.248 535.876 541.144H531.412C530.788 538.12 529.06 536.296 526.612 535.672C525.94 535.528 525.364 535.528 524.692 535.528C519.46 535.528 516.628 539.848 516.628 545.8C516.628 551.8 519.556 556.072 524.836 556.072C528.724 556.072 531.028 553.72 531.748 549.928H536.26ZM540.922 559V532.6H545.386V537.976H545.578C547.546 533.8 550.954 532.12 554.122 532.12C554.746 532.12 555.754 532.168 556.378 532.408V536.248C555.85 536.104 554.89 536.008 554.218 536.008C552.394 536.008 549.754 536.584 547.45 539.656C546.97 540.328 546.682 540.904 546.346 541.48C545.674 542.872 545.482 544.216 545.482 546.52V559H540.922ZM558.292 551.56C558.292 546.568 562.228 544.6 568.036 543.64C570.532 543.208 573.412 542.776 576.436 542.392L576.388 541.192C576.292 538.312 574.852 536.776 573.124 536.056C572.164 535.672 571.156 535.528 570.148 535.528C566.26 535.528 564.004 537.112 563.284 540.424H558.868C559.444 535.912 562.9 531.976 570.052 531.976C576.676 531.976 580.66 534.952 580.66 541.24V559H576.436V555.448H576.292C574.612 558.232 571.204 559.624 567.796 559.624C563.044 559.624 558.292 556.936 558.292 551.56ZM563.092 551.56C563.092 554.296 565.108 556.36 568.516 556.36C571.348 556.36 574.996 554.536 576.148 550.984C576.388 550.168 576.532 549.256 576.484 547.816L576.436 545.368C573.604 545.8 570.868 546.376 568.324 546.904C564.1 547.768 563.092 549.592 563.092 551.56ZM586.344 559V532.6H590.712V537.16H590.904C592.728 533.608 595.704 531.976 599.448 531.976C603.096 531.976 606.216 533.656 607.608 537.064C608.088 538.264 608.328 539.56 608.328 542.008V559H603.768V542.344C603.768 540.952 603.768 539.608 603.288 538.408C602.664 536.824 601.176 535.672 598.92 535.672C596.568 535.672 594.744 536.68 593.256 538.408C590.904 541.096 590.904 542.776 590.904 546.856V559H586.344ZM431.634 615.624C421.938 615.624 414.114 609.576 414.114 597C414.114 584.184 421.938 578.04 431.634 578.04C441.378 578.04 449.154 584.184 449.154 597C449.154 609.576 441.378 615.624 431.634 615.624ZM419.25 597C419.25 604.92 422.898 611.736 431.538 611.736C440.274 611.736 444.018 605.016 444.018 597C444.018 588.888 440.514 581.928 431.634 581.928C422.754 581.928 419.25 588.888 419.25 597ZM454.767 615V578.664H459.375V615H454.767ZM489.166 605.928C488.254 612.168 483.694 615.624 477.118 615.624C469.198 615.624 464.254 609.72 464.254 601.8C464.254 596.328 466.606 591.768 470.686 589.512C472.462 588.504 474.622 587.976 477.022 587.976C478.126 587.976 479.086 587.976 479.998 588.12C481.63 588.408 483.118 589.08 484.462 590.04C487.39 592.152 489.31 596.04 489.262 602.184H468.862C468.814 602.568 468.814 602.952 468.862 603.432C468.958 604.584 469.15 605.64 469.486 606.6C470.734 609.912 473.422 612.024 477.358 612.024C480.382 612.024 482.398 610.824 483.646 608.76C484.126 607.944 484.51 606.984 484.75 605.928H489.166ZM469.054 598.776H484.654C484.366 594.648 482.014 591.816 478.414 591.384C477.886 591.336 477.55 591.336 477.166 591.336C473.134 591.336 470.35 593.784 469.294 597.48C469.198 597.912 469.15 598.344 469.054 598.776ZM516.378 613.416C516.378 620.52 512.442 624.024 504.57 624.024C496.89 624.024 494.058 620.616 493.482 616.584H498.042C498.474 619.272 500.922 620.568 504.666 620.568C509.562 620.568 512.202 618.792 512.202 611.928V610.392H512.01C511.146 612.84 508.218 614.424 504.33 614.424C496.698 614.424 492.426 608.232 492.426 601.224C492.426 594.168 496.698 587.976 504.33 587.976C508.026 587.976 510.81 589.416 511.818 591.768H512.058V588.6H516.378V613.416ZM497.178 601.224C497.178 606.936 500.058 611.064 505.05 611.064C508.89 611.064 511.194 609.096 511.962 605.208C512.25 603.72 512.25 602.664 512.25 601.224C512.25 599.784 512.25 598.776 511.962 597.24C511.194 593.4 508.89 591.288 505.05 591.288C500.058 591.288 497.178 595.416 497.178 601.224ZM535.637 615V578.664H548.213C551.333 578.664 554.309 578.808 556.421 579.528C560.501 580.92 562.613 584.28 562.613 588.936C562.613 594.696 559.109 598.152 553.349 598.968L562.949 614.76V615H557.573L548.261 599.304H540.485V615H535.637ZM540.485 595.608H548.405C550.421 595.608 551.765 595.56 553.541 595.128C556.133 594.504 557.957 592.584 557.957 589.224C557.957 585.48 556.133 583.56 553.589 582.936C551.765 582.456 549.941 582.504 548.453 582.504H540.485V595.608ZM578.788 615.624C570.916 615.624 565.972 609.72 565.972 601.8C565.972 593.88 570.916 587.976 578.788 587.976C586.66 587.976 591.604 593.88 591.604 601.8C591.604 609.72 586.66 615.624 578.788 615.624ZM570.772 601.8C570.772 607.752 573.508 612.072 578.788 612.072C584.068 612.072 586.804 607.752 586.804 601.8C586.804 595.896 584.068 591.528 578.788 591.528C573.508 591.528 570.772 595.896 570.772 601.8ZM593.942 615V611.784L609.398 591.912H594.662V588.6H614.342V592.2L599.174 611.688H614.918V615H593.942ZM630.07 615.624C622.198 615.624 617.254 609.72 617.254 601.8C617.254 593.88 622.198 587.976 630.07 587.976C637.942 587.976 642.886 593.88 642.886 601.8C642.886 609.72 637.942 615.624 630.07 615.624ZM622.054 601.8C622.054 607.752 624.79 612.072 630.07 612.072C635.35 612.072 638.086 607.752 638.086 601.8C638.086 595.896 635.35 591.528 630.07 591.528C624.79 591.528 622.054 595.896 622.054 601.8ZM653.924 615L644.372 588.6H649.076L654.212 603.672C655.604 607.704 655.988 609.432 656.372 610.632H656.564C656.948 609.432 657.332 607.704 658.724 603.672L663.86 588.6H668.564L659.012 615H653.924ZM396.173 671.624C386.477 671.624 378.653 665.576 378.653 653C378.653 640.184 386.477 634.04 396.173 634.04C405.917 634.04 413.693 640.184 413.693 653C413.693 665.576 405.917 671.624 396.173 671.624ZM383.789 653C383.789 660.92 387.437 667.736 396.077 667.736C404.813 667.736 408.557 661.016 408.557 653C408.557 644.888 405.053 637.928 396.173 637.928C387.293 637.928 383.789 644.888 383.789 653ZM419.306 671V634.664H423.914V671H419.306ZM453.705 661.928C452.793 668.168 448.233 671.624 441.657 671.624C433.737 671.624 428.793 665.72 428.793 657.8C428.793 652.328 431.145 647.768 435.225 645.512C437.001 644.504 439.161 643.976 441.561 643.976C442.665 643.976 443.625 643.976 444.537 644.12C446.169 644.408 447.657 645.08 449.001 646.04C451.929 648.152 453.849 652.04 453.801 658.184H433.401C433.353 658.568 433.353 658.952 433.401 659.432C433.497 660.584 433.689 661.64 434.025 662.6C435.273 665.912 437.961 668.024 441.897 668.024C444.921 668.024 446.937 666.824 448.185 664.76C448.665 663.944 449.049 662.984 449.289 661.928H453.705ZM433.593 654.776H449.193C448.905 650.648 446.553 647.816 442.953 647.384C442.425 647.336 442.089 647.336 441.705 647.336C437.673 647.336 434.889 649.784 433.833 653.48C433.737 653.912 433.689 654.344 433.593 654.776ZM480.917 669.416C480.917 676.52 476.981 680.024 469.109 680.024C461.429 680.024 458.597 676.616 458.021 672.584H462.581C463.013 675.272 465.461 676.568 469.205 676.568C474.101 676.568 476.741 674.792 476.741 667.928V666.392H476.549C475.685 668.84 472.757 670.424 468.869 670.424C461.237 670.424 456.965 664.232 456.965 657.224C456.965 650.168 461.237 643.976 468.869 643.976C472.565 643.976 475.349 645.416 476.357 647.768H476.597V644.6H480.917V669.416ZM461.717 657.224C461.717 662.936 464.597 667.064 469.589 667.064C473.429 667.064 475.733 665.096 476.501 661.208C476.789 659.72 476.789 658.664 476.789 657.224C476.789 655.784 476.789 654.776 476.501 653.24C475.733 649.4 473.429 647.288 469.589 647.288C464.597 647.288 461.717 651.416 461.717 657.224ZM513.904 671.672C504.208 671.672 498.88 667.352 498.256 658.904H503.248C504.112 665.24 507.328 667.928 514.432 667.928C520.72 667.928 524.032 665.384 524.032 660.68C524.032 657.464 521.824 655.736 516.544 654.824L510.208 653.72C502.528 652.376 499.6 649.64 499.6 644.168C499.6 637.976 505.216 633.896 514.048 633.896C522.544 633.896 527.68 637.688 528.16 644.36H523.36C522.64 639.944 519.424 637.592 513.76 637.592C508.192 637.592 504.64 640.04 504.64 643.64C504.64 646.712 506.32 648.2 510.64 649.016L518.368 650.456C525.952 651.848 528.928 654.68 528.928 660.44C528.928 667.496 523.648 671.672 513.904 671.672ZM545.156 671.624C537.284 671.624 532.34 665.72 532.34 657.8C532.34 649.88 537.284 643.976 545.156 643.976C553.028 643.976 557.972 649.88 557.972 657.8C557.972 665.72 553.028 671.624 545.156 671.624ZM537.14 657.8C537.14 663.752 539.876 668.072 545.156 668.072C550.436 668.072 553.172 663.752 553.172 657.8C553.172 651.896 550.436 647.528 545.156 647.528C539.876 647.528 537.14 651.896 537.14 657.8ZM564.288 671V648.008H560.208V644.6H564.288V641.144C564.288 635.24 568.704 634.04 572.112 634.04C573.216 634.04 574.224 634.184 574.944 634.328V637.784C574.272 637.736 573.648 637.688 573.072 637.688C570.384 637.688 568.8 638.456 568.8 641.192V644.6H575.328V648.008H568.8V671H564.288ZM579.196 671V644.6H583.66V649.976H583.852C585.82 645.8 589.228 644.12 592.396 644.12C593.02 644.12 594.028 644.168 594.652 644.408V648.248C594.124 648.104 593.164 648.008 592.492 648.008C590.668 648.008 588.028 648.584 585.724 651.656C585.244 652.328 584.956 652.904 584.62 653.48C583.948 654.872 583.756 656.216 583.756 658.52V671H579.196ZM608.578 671.624C600.706 671.624 595.762 665.72 595.762 657.8C595.762 649.88 600.706 643.976 608.578 643.976C616.45 643.976 621.394 649.88 621.394 657.8C621.394 665.72 616.45 671.624 608.578 671.624ZM600.562 657.8C600.562 663.752 603.298 668.072 608.578 668.072C613.858 668.072 616.594 663.752 616.594 657.8C616.594 651.896 613.858 647.528 608.578 647.528C603.298 647.528 600.562 651.896 600.562 657.8ZM626.258 671V644.6H630.626V649.16H630.818C632.642 645.608 635.618 643.976 639.362 643.976C643.01 643.976 646.13 645.656 647.522 649.064C648.002 650.264 648.242 651.56 648.242 654.008V671H643.682V654.344C643.682 652.952 643.682 651.608 643.202 650.408C642.578 648.824 641.09 647.672 638.834 647.672C636.482 647.672 634.658 648.68 633.17 650.408C630.818 653.096 630.818 654.776 630.818 658.856V671H626.258ZM665.531 671.624C657.659 671.624 652.715 665.72 652.715 657.8C652.715 649.88 657.659 643.976 665.531 643.976C673.403 643.976 678.347 649.88 678.347 657.8C678.347 665.72 673.403 671.624 665.531 671.624ZM657.515 657.8C657.515 663.752 660.251 668.072 665.531 668.072C670.811 668.072 673.547 663.752 673.547 657.8C673.547 651.896 670.811 647.528 665.531 647.528C660.251 647.528 657.515 651.896 657.515 657.8ZM689.385 671L679.833 644.6H684.537L689.673 659.672C691.065 663.704 691.449 665.432 691.833 666.632H692.025C692.409 665.432 692.793 663.704 694.185 659.672L699.321 644.6H704.025L694.473 671H689.385Z" fill="black"/>
<path d="M251.949 954V917.664H264.573C268.509 917.664 270.429 917.76 272.589 918.48C276.189 919.68 278.349 922.608 278.349 926.352C278.349 930.432 275.709 933.648 271.725 934.272V934.464C276.285 935.232 279.453 938.352 279.453 943.296C279.453 948.192 277.101 951.552 272.829 953.088C270.861 953.808 268.269 954 264.477 954H251.949ZM256.797 950.112H264.333C266.445 950.112 268.269 950.016 269.709 949.68C272.685 948.96 274.365 946.848 274.365 943.584C274.365 940.224 272.781 938.064 269.997 937.392C268.221 936.96 266.829 936.912 265.293 936.912H256.797V950.112ZM256.797 933.024H263.709C266.205 933.024 267.453 932.976 268.941 932.64C271.773 931.968 273.357 930 273.357 927.072C273.357 924.384 272.157 922.608 269.709 921.936C268.269 921.552 266.349 921.504 263.709 921.504H256.797V933.024ZM296.648 954.624C288.776 954.624 283.832 948.72 283.832 940.8C283.832 932.88 288.776 926.976 296.648 926.976C304.52 926.976 309.464 932.88 309.464 940.8C309.464 948.72 304.52 954.624 296.648 954.624ZM288.632 940.8C288.632 946.752 291.368 951.072 296.648 951.072C301.928 951.072 304.664 946.752 304.664 940.8C304.664 934.896 301.928 930.528 296.648 930.528C291.368 930.528 288.632 934.896 288.632 940.8ZM310.428 954L320.22 940.368L311.1 927.6H316.332L322.908 937.68L329.436 927.6H334.428L325.548 940.032L335.532 954H330.3L322.86 942.624L315.42 954H310.428ZM339.174 954V917.664H343.734V931.776H343.926C345.798 928.512 348.678 926.976 352.278 926.976C355.926 926.976 359.046 928.656 360.438 932.064C360.918 933.264 361.158 934.56 361.158 937.008V954H356.598V937.344C356.598 935.952 356.598 934.608 356.118 933.408C355.494 931.824 354.006 930.672 351.75 930.672C349.398 930.672 347.574 931.68 346.086 933.408C343.734 936.096 343.734 937.776 343.734 941.856V954H339.174ZM365.917 946.56C365.917 941.568 369.853 939.6 375.661 938.64C378.157 938.208 381.037 937.776 384.061 937.392L384.013 936.192C383.917 933.312 382.477 931.776 380.749 931.056C379.789 930.672 378.781 930.528 377.773 930.528C373.885 930.528 371.629 932.112 370.909 935.424H366.493C367.069 930.912 370.525 926.976 377.677 926.976C384.301 926.976 388.285 929.952 388.285 936.24V954H384.061V950.448H383.917C382.237 953.232 378.829 954.624 375.421 954.624C370.669 954.624 365.917 951.936 365.917 946.56ZM370.717 946.56C370.717 949.296 372.733 951.36 376.141 951.36C378.973 951.36 382.621 949.536 383.773 945.984C384.013 945.168 384.157 944.256 384.109 942.816L384.061 940.368C381.229 940.8 378.493 941.376 375.949 941.904C371.725 942.768 370.717 944.592 370.717 946.56ZM416.721 952.416C416.721 959.52 412.785 963.024 404.913 963.024C397.233 963.024 394.401 959.616 393.825 955.584H398.385C398.817 958.272 401.265 959.568 405.009 959.568C409.905 959.568 412.545 957.792 412.545 950.928V949.392H412.353C411.489 951.84 408.561 953.424 404.673 953.424C397.041 953.424 392.769 947.232 392.769 940.224C392.769 933.168 397.041 926.976 404.673 926.976C408.369 926.976 411.153 928.416 412.161 930.768H412.401V927.6H416.721V952.416ZM397.521 940.224C397.521 945.936 400.401 950.064 405.393 950.064C409.233 950.064 411.537 948.096 412.305 944.208C412.593 942.72 412.593 941.664 412.593 940.224C412.593 938.784 412.593 937.776 412.305 936.24C411.537 932.4 409.233 930.288 405.393 930.288C400.401 930.288 397.521 934.416 397.521 940.224ZM446.463 944.928C445.551 951.168 440.991 954.624 434.415 954.624C426.495 954.624 421.551 948.72 421.551 940.8C421.551 935.328 423.903 930.768 427.983 928.512C429.759 927.504 431.919 926.976 434.319 926.976C435.423 926.976 436.383 926.976 437.295 927.12C438.927 927.408 440.415 928.08 441.759 929.04C444.687 931.152 446.607 935.04 446.559 941.184H426.159C426.111 941.568 426.111 941.952 426.159 942.432C426.255 943.584 426.447 944.64 426.783 945.6C428.031 948.912 430.719 951.024 434.655 951.024C437.679 951.024 439.695 949.824 440.943 947.76C441.423 946.944 441.807 945.984 442.047 944.928H446.463ZM426.351 937.776H441.951C441.663 933.648 439.311 930.816 435.711 930.384C435.183 930.336 434.847 930.336 434.463 930.336C430.431 930.336 427.647 932.784 426.591 936.48C426.495 936.912 426.447 937.344 426.351 937.776ZM451.391 954V927.6H455.759V932.16H455.951C457.775 928.608 460.751 926.976 464.495 926.976C468.143 926.976 471.263 928.656 472.655 932.064C473.135 933.264 473.375 934.56 473.375 937.008V954H468.815V937.344C468.815 935.952 468.815 934.608 468.335 933.408C467.711 931.824 466.223 930.672 463.967 930.672C461.615 930.672 459.791 931.68 458.303 933.408C455.951 936.096 455.951 937.776 455.951 941.856V954H451.391ZM502.759 944.928C501.847 951.168 497.287 954.624 490.711 954.624C482.791 954.624 477.847 948.72 477.847 940.8C477.847 935.328 480.199 930.768 484.279 928.512C486.055 927.504 488.215 926.976 490.615 926.976C491.719 926.976 492.679 926.976 493.591 927.12C495.223 927.408 496.711 928.08 498.055 929.04C500.983 931.152 502.903 935.04 502.855 941.184H482.455C482.407 941.568 482.407 941.952 482.455 942.432C482.551 943.584 482.743 944.64 483.079 945.6C484.327 948.912 487.015 951.024 490.951 951.024C493.975 951.024 495.991 949.824 497.239 947.76C497.719 946.944 498.103 945.984 498.343 944.928H502.759ZM482.647 937.776H498.247C497.959 933.648 495.607 930.816 492.007 930.384C491.479 930.336 491.143 930.336 490.759 930.336C486.727 930.336 483.943 932.784 482.887 936.48C482.791 936.912 482.743 937.344 482.647 937.776ZM507.688 954V927.6H512.152V932.976H512.344C514.312 928.8 517.72 927.12 520.888 927.12C521.512 927.12 522.52 927.168 523.144 927.408V931.248C522.616 931.104 521.656 931.008 520.984 931.008C519.16 931.008 516.52 931.584 514.216 934.656C513.736 935.328 513.448 935.904 513.112 936.48C512.44 937.872 512.248 939.216 512.248 941.52V954H507.688ZM553.865 954.672C544.169 954.672 538.841 950.352 538.217 941.904H543.209C544.073 948.24 547.289 950.928 554.393 950.928C560.681 950.928 563.993 948.384 563.993 943.68C563.993 940.464 561.785 938.736 556.505 937.824L550.169 936.72C542.489 935.376 539.561 932.64 539.561 927.168C539.561 920.976 545.177 916.896 554.009 916.896C562.505 916.896 567.641 920.688 568.121 927.36H563.321C562.601 922.944 559.385 920.592 553.721 920.592C548.153 920.592 544.601 923.04 544.601 926.64C544.601 929.712 546.281 931.2 550.601 932.016L558.329 933.456C565.913 934.848 568.889 937.68 568.889 943.44C568.889 950.496 563.609 954.672 553.865 954.672ZM575.085 949.344V931.008H571.581V927.6H575.085V921.12H579.597V927.6H585.405V931.008H579.597V948.192C579.597 950.976 581.373 951.456 583.725 951.456C584.397 951.456 584.973 951.408 585.405 951.36V954.336C584.301 954.576 583.005 954.72 581.709 954.72C578.397 954.72 575.085 953.664 575.085 949.344ZM589.766 954V927.6H594.23V932.976H594.422C596.39 928.8 599.798 927.12 602.966 927.12C603.59 927.12 604.598 927.168 605.222 927.408V931.248C604.694 931.104 603.734 931.008 603.062 931.008C601.238 931.008 598.598 931.584 596.294 934.656C595.814 935.328 595.526 935.904 595.19 936.48C594.518 937.872 594.326 939.216 594.326 941.52V954H589.766ZM603.716 954V948.384H608.756V954H603.716ZM627.326 922.896C630.11 921.648 632.606 919.776 634.142 917.664H638.318V954H633.854V923.76H633.662C631.55 925.536 629.582 926.592 627.326 927.36V922.896ZM657.228 954.624C649.98 954.624 644.364 950.832 644.364 944.352C644.364 939.984 646.716 936.288 652.092 934.944V934.752C647.964 933.408 645.66 930.384 645.66 926.688C645.66 920.544 650.988 917.04 657.228 917.04C663.42 917.04 668.748 920.544 668.748 926.688C668.748 930.384 666.444 933.408 662.316 934.752V934.944C667.692 936.288 670.044 939.984 670.044 944.352C670.044 950.928 664.284 954.624 657.228 954.624ZM649.164 944.064C649.164 948.48 653.004 951.168 657.228 951.168C661.404 951.168 665.292 948.48 665.292 944.064C665.292 939.36 661.884 936.96 657.18 936.96C652.524 936.96 649.164 939.36 649.164 944.064ZM650.412 926.976C650.412 931.584 654.012 933.168 657.228 933.168C660.396 933.168 663.996 931.584 663.996 926.976C663.996 922.752 660.78 920.736 657.228 920.736C653.532 920.736 650.412 922.656 650.412 926.976ZM672.729 960.192L674.457 954V948.384H679.113V954L675.945 960.192H672.729ZM697.686 922.896C700.47 921.648 702.966 919.776 704.502 917.664H708.678V954H704.214V923.76H704.022C701.91 925.536 699.942 926.592 697.686 927.36V922.896ZM728.164 954.624C718.852 954.624 714.724 945.792 714.724 935.808C714.724 925.728 718.9 917.04 728.116 917.04H728.164C737.428 917.04 741.556 925.872 741.556 935.808C741.556 945.936 737.38 954.624 728.164 954.624ZM719.668 935.808C719.668 945.504 722.98 950.784 728.164 950.784C733.348 950.784 736.66 945.504 736.66 935.808C736.66 926.16 733.348 920.88 728.164 920.88C722.98 920.88 719.668 926.16 719.668 935.808ZM746.262 929.28C746.694 924.816 748.134 921.744 750.63 919.728C752.694 918.048 755.526 917.04 758.838 917.04C766.086 917.04 770.646 920.976 770.646 927.504C770.646 932.352 768.486 935.328 763.11 938.112L760.23 939.6C754.518 942.576 751.878 945.408 751.35 949.776H771.03V954H746.31C746.31 945.072 749.478 940.368 756.87 936.576L760.134 934.896C764.262 932.784 765.654 930.72 765.654 927.648C765.654 923.376 762.966 920.88 759.174 920.88C754.566 920.88 751.782 923.856 751.014 929.28H746.262ZM789.636 954L789.732 943.872H772.596V939.936L787.812 917.664H794.34V940.08H798.516V943.872H794.34V954H789.636ZM777.54 940.08H789.732V930.864C789.732 927.552 789.876 923.04 789.972 921.696H789.684C787.908 924.864 785.556 928.608 783.684 931.248L777.54 940.08ZM813.985 954.576C807.649 954.576 802.945 950.592 802.561 944.16H807.601C807.841 948 810.529 950.784 814.465 950.784C819.889 950.784 822.433 945.792 822.433 940.896C822.433 935.376 819.745 931.968 815.137 931.968C811.489 931.968 808.801 934.224 807.937 937.488H803.713L805.345 917.664H825.313V921.792H809.137L808.369 931.2C809.953 929.328 812.545 928.176 815.809 928.176C823.249 928.176 827.281 934.08 827.281 940.608C827.281 948.864 821.713 954.576 813.985 954.576ZM235.824 1010V973.664H241.488L261.168 1003.52H261.408C261.216 1001.46 261.072 997.568 261.072 992.24V973.664H265.872V1010H260.304L240.528 980.048H240.288C240.432 982.496 240.624 989.648 240.624 994.688V1010H235.824ZM296.134 1000.93C295.222 1007.17 290.662 1010.62 284.086 1010.62C276.166 1010.62 271.222 1004.72 271.222 996.8C271.222 991.328 273.574 986.768 277.654 984.512C279.43 983.504 281.59 982.976 283.99 982.976C285.094 982.976 286.054 982.976 286.966 983.12C288.598 983.408 290.086 984.08 291.43 985.04C294.358 987.152 296.278 991.04 296.23 997.184H275.83C275.782 997.568 275.782 997.952 275.83 998.432C275.926 999.584 276.118 1000.64 276.454 1001.6C277.702 1004.91 280.39 1007.02 284.326 1007.02C287.35 1007.02 289.366 1005.82 290.614 1003.76C291.094 1002.94 291.478 1001.98 291.718 1000.93H296.134ZM276.022 993.776H291.622C291.334 989.648 288.982 986.816 285.382 986.384C284.854 986.336 284.518 986.336 284.134 986.336C280.102 986.336 277.318 988.784 276.262 992.48C276.166 992.912 276.118 993.344 276.022 993.776ZM322.663 983.6V1010H318.295V1005.44H318.103C316.279 1008.99 313.303 1010.62 309.559 1010.62C305.911 1010.62 302.791 1008.94 301.399 1005.54C300.919 1004.34 300.679 1003.04 300.679 1000.59V983.6H305.239V1000.26C305.239 1001.65 305.239 1002.99 305.719 1004.19C306.343 1005.78 307.831 1006.93 310.087 1006.93C312.439 1006.93 314.263 1005.92 315.751 1004.19C318.103 1001.5 318.103 999.824 318.103 995.744V983.6H322.663ZM352.431 1000.93C351.519 1007.17 346.959 1010.62 340.383 1010.62C332.463 1010.62 327.519 1004.72 327.519 996.8C327.519 991.328 329.871 986.768 333.951 984.512C335.727 983.504 337.887 982.976 340.287 982.976C341.391 982.976 342.351 982.976 343.263 983.12C344.895 983.408 346.383 984.08 347.727 985.04C350.655 987.152 352.575 991.04 352.527 997.184H332.127C332.079 997.568 332.079 997.952 332.127 998.432C332.223 999.584 332.415 1000.64 332.751 1001.6C333.999 1004.91 336.687 1007.02 340.623 1007.02C343.647 1007.02 345.663 1005.82 346.911 1003.76C347.391 1002.94 347.775 1001.98 348.015 1000.93H352.431ZM332.319 993.776H347.919C347.631 989.648 345.279 986.816 341.679 986.384C341.151 986.336 340.815 986.336 340.431 986.336C336.399 986.336 333.615 988.784 332.559 992.48C332.463 992.912 332.415 993.344 332.319 993.776ZM370.59 1010V973.664H383.214C387.15 973.664 389.07 973.76 391.23 974.48C394.83 975.68 396.99 978.608 396.99 982.352C396.99 986.432 394.35 989.648 390.366 990.272V990.464C394.926 991.232 398.094 994.352 398.094 999.296C398.094 1004.19 395.742 1007.55 391.47 1009.09C389.502 1009.81 386.91 1010 383.118 1010H370.59ZM375.438 1006.11H382.974C385.086 1006.11 386.91 1006.02 388.35 1005.68C391.326 1004.96 393.006 1002.85 393.006 999.584C393.006 996.224 391.422 994.064 388.638 993.392C386.862 992.96 385.47 992.912 383.934 992.912H375.438V1006.11ZM375.438 989.024H382.35C384.846 989.024 386.094 988.976 387.582 988.64C390.414 987.968 391.998 986 391.998 983.072C391.998 980.384 390.798 978.608 388.35 977.936C386.91 977.552 384.99 977.504 382.35 977.504H375.438V989.024ZM425.272 983.6V1010H420.904V1005.44H420.712C418.888 1008.99 415.912 1010.62 412.168 1010.62C408.52 1010.62 405.4 1008.94 404.008 1005.54C403.528 1004.34 403.288 1003.04 403.288 1000.59V983.6H407.848V1000.26C407.848 1001.65 407.848 1002.99 408.328 1004.19C408.952 1005.78 410.44 1006.93 412.696 1006.93C415.048 1006.93 416.872 1005.92 418.36 1004.19C420.712 1001.5 420.712 999.824 420.712 995.744V983.6H425.272ZM431.377 1010V973.664H435.937V987.776H436.129C438.001 984.512 440.881 982.976 444.481 982.976C448.129 982.976 451.249 984.656 452.641 988.064C453.121 989.264 453.361 990.56 453.361 993.008V1010H448.801V993.344C448.801 991.952 448.801 990.608 448.321 989.408C447.697 987.824 446.209 986.672 443.953 986.672C441.601 986.672 439.777 987.68 438.289 989.408C435.937 992.096 435.937 993.776 435.937 997.856V1010H431.377ZM459.032 1010V983.6H463.4V988.16H463.592C465.416 984.608 468.392 982.976 472.136 982.976C475.784 982.976 478.904 984.656 480.296 988.064C480.776 989.264 481.016 990.56 481.016 993.008V1010H476.456V993.344C476.456 991.952 476.456 990.608 475.976 989.408C475.352 987.824 473.864 986.672 471.608 986.672C469.256 986.672 467.432 987.68 465.944 989.408C463.592 992.096 463.592 993.776 463.592 997.856V1010H459.032ZM510.4 1000.93C509.488 1007.17 504.928 1010.62 498.352 1010.62C490.432 1010.62 485.488 1004.72 485.488 996.8C485.488 991.328 487.84 986.768 491.92 984.512C493.696 983.504 495.856 982.976 498.256 982.976C499.36 982.976 500.32 982.976 501.232 983.12C502.864 983.408 504.352 984.08 505.696 985.04C508.624 987.152 510.544 991.04 510.496 997.184H490.096C490.048 997.568 490.048 997.952 490.096 998.432C490.192 999.584 490.384 1000.64 490.72 1001.6C491.968 1004.91 494.656 1007.02 498.592 1007.02C501.616 1007.02 503.632 1005.82 504.88 1003.76C505.36 1002.94 505.744 1001.98 505.984 1000.93H510.4ZM490.288 993.776H505.888C505.6 989.648 503.248 986.816 499.648 986.384C499.12 986.336 498.784 986.336 498.4 986.336C494.368 986.336 491.584 988.784 490.528 992.48C490.432 992.912 490.384 993.344 490.288 993.776ZM528.559 1010V973.664H551.695V977.792H533.407V990.272H550.255V994.256H533.407V1010H528.559ZM555.36 1010V983.6H559.824V988.976H560.016C561.984 984.8 565.392 983.12 568.56 983.12C569.184 983.12 570.192 983.168 570.816 983.408V987.248C570.288 987.104 569.328 987.008 568.656 987.008C566.832 987.008 564.192 987.584 561.888 990.656C561.408 991.328 561.12 991.904 560.784 992.48C560.112 993.872 559.92 995.216 559.92 997.52V1010H555.36ZM574.302 1010V983.6H578.862V1010H574.302ZM574.158 979.76V974.72H579.006V979.76H574.158ZM608.791 1000.93C607.879 1007.17 603.319 1010.62 596.743 1010.62C588.823 1010.62 583.879 1004.72 583.879 996.8C583.879 991.328 586.231 986.768 590.311 984.512C592.087 983.504 594.247 982.976 596.647 982.976C597.751 982.976 598.711 982.976 599.623 983.12C601.255 983.408 602.743 984.08 604.087 985.04C607.015 987.152 608.935 991.04 608.887 997.184H588.487C588.439 997.568 588.439 997.952 588.487 998.432C588.583 999.584 588.775 1000.64 589.111 1001.6C590.359 1004.91 593.047 1007.02 596.983 1007.02C600.007 1007.02 602.023 1005.82 603.271 1003.76C603.751 1002.94 604.135 1001.98 604.375 1000.93H608.791ZM588.679 993.776H604.279C603.991 989.648 601.639 986.816 598.039 986.384C597.511 986.336 597.175 986.336 596.791 986.336C592.759 986.336 589.975 988.784 588.919 992.48C588.823 992.912 588.775 993.344 588.679 993.776ZM636.999 1010H632.679V1006.69H632.487C631.479 1009.09 628.599 1010.62 624.759 1010.62C616.887 1010.62 612.519 1004.14 612.519 996.8C612.519 989.456 616.887 982.976 624.759 982.976C628.359 982.976 631.047 984.32 632.247 986.432H632.439V973.664H636.999V1010ZM617.271 996.8C617.271 1002.8 620.343 1007.07 625.431 1007.07C629.319 1007.07 631.815 1005.01 632.583 1000.98C632.871 999.44 632.871 998.336 632.871 996.8C632.871 995.264 632.871 994.16 632.583 992.624C631.815 988.592 629.319 986.528 625.431 986.528C620.343 986.528 617.271 990.8 617.271 996.8ZM643.11 1010V983.6H647.574V988.976H647.766C649.734 984.8 653.142 983.12 656.31 983.12C656.934 983.12 657.942 983.168 658.566 983.408V987.248C658.038 987.104 657.078 987.008 656.406 987.008C654.582 987.008 651.942 987.584 649.638 990.656C649.158 991.328 648.87 991.904 648.534 992.48C647.862 993.872 647.67 995.216 647.67 997.52V1010H643.11ZM662.052 1010V983.6H666.612V1010H662.052ZM661.908 979.76V974.72H666.756V979.76H661.908ZM695.917 1000.93C695.005 1007.17 690.733 1010.62 684.253 1010.62C676.429 1010.62 671.629 1004.77 671.629 996.8C671.629 988.592 676.717 982.976 684.493 982.976C685.405 982.976 686.413 983.024 687.421 983.216C691.981 984.128 694.861 987.248 695.533 992.144H691.069C690.445 989.12 688.717 987.296 686.269 986.672C685.597 986.528 685.021 986.528 684.349 986.528C679.117 986.528 676.285 990.848 676.285 996.8C676.285 1002.8 679.213 1007.07 684.493 1007.07C688.381 1007.07 690.685 1004.72 691.405 1000.93H695.917ZM700.627 1010V973.664H705.187V987.776H705.379C707.251 984.512 710.131 982.976 713.731 982.976C717.379 982.976 720.499 984.656 721.891 988.064C722.371 989.264 722.611 990.56 722.611 993.008V1010H718.051V993.344C718.051 991.952 718.051 990.608 717.571 989.408C716.947 987.824 715.459 986.672 713.203 986.672C710.851 986.672 709.027 987.68 707.539 989.408C705.187 992.096 705.187 993.776 705.187 997.856V1010H700.627ZM750.17 1001.84C750.17 1007.07 746.282 1010.62 739.082 1010.62C732.458 1010.62 728.138 1007.55 727.418 1001.84H731.882C732.65 1005.34 735.098 1007.02 739.082 1007.02C743.258 1007.02 745.658 1005.15 745.658 1002.32C745.658 1000.16 744.314 998.864 741.242 998.576L736.442 998.096C730.49 997.52 727.898 995.216 727.898 991.328C727.898 986.432 732.362 982.976 739.13 982.976C745.274 982.976 749.354 985.904 749.93 991.424H745.658C745.034 988.112 742.682 986.528 738.938 986.528C735.002 986.528 732.458 988.304 732.458 990.944C732.458 992.768 733.706 993.728 736.682 994.016L741.722 994.544C747.674 995.168 750.17 997.664 750.17 1001.84ZM755.283 1010V973.664H759.843V987.776H760.035C761.907 984.512 764.787 982.976 768.387 982.976C772.035 982.976 775.155 984.656 776.547 988.064C777.027 989.264 777.267 990.56 777.267 993.008V1010H772.707V993.344C772.707 991.952 772.707 990.608 772.227 989.408C771.603 987.824 770.115 986.672 767.859 986.672C765.507 986.672 763.683 987.68 762.195 989.408C759.843 992.096 759.843 993.776 759.843 997.856V1010H755.283ZM782.026 1002.56C782.026 997.568 785.962 995.6 791.77 994.64C794.266 994.208 797.146 993.776 800.17 993.392L800.122 992.192C800.026 989.312 798.586 987.776 796.858 987.056C795.898 986.672 794.89 986.528 793.882 986.528C789.994 986.528 787.738 988.112 787.018 991.424H782.602C783.178 986.912 786.634 982.976 793.786 982.976C800.41 982.976 804.394 985.952 804.394 992.24V1010H800.17V1006.45H800.026C798.346 1009.23 794.938 1010.62 791.53 1010.62C786.778 1010.62 782.026 1007.94 782.026 1002.56ZM786.826 1002.56C786.826 1005.3 788.842 1007.36 792.25 1007.36C795.082 1007.36 798.73 1005.54 799.882 1001.98C800.122 1001.17 800.266 1000.26 800.218 998.816L800.17 996.368C797.338 996.8 794.602 997.376 792.058 997.904C787.834 998.768 786.826 1000.59 786.826 1002.56ZM810.271 1010V983.6H814.831V1010H810.271ZM810.127 979.76V974.72H814.975V979.76H810.127ZM821.047 1010V983.6H825.415V988.16H825.607C827.431 984.608 830.407 982.976 834.151 982.976C837.799 982.976 840.919 984.656 842.311 988.064C842.791 989.264 843.031 990.56 843.031 993.008V1010H838.471V993.344C838.471 991.952 838.471 990.608 837.991 989.408C837.367 987.824 835.879 986.672 833.623 986.672C831.271 986.672 829.447 987.68 827.959 989.408C825.607 992.096 825.607 993.776 825.607 997.856V1010H821.047Z" fill="black"/>
<path d="M373.42 74.896C376.204 73.648 378.7 71.776 380.236 69.664H384.412V106H379.948V75.76H379.756C377.644 77.536 375.676 78.592 373.42 79.36V74.896ZM390.777 81.28C391.209 76.816 392.649 73.744 395.145 71.728C397.209 70.048 400.041 69.04 403.353 69.04C410.601 69.04 415.161 72.976 415.161 79.504C415.161 84.352 413.001 87.328 407.625 90.112L404.745 91.6C399.033 94.576 396.393 97.408 395.865 101.776H415.545V106H390.825C390.825 97.072 393.993 92.368 401.385 88.576L404.649 86.896C408.777 84.784 410.169 82.72 410.169 79.648C410.169 75.376 407.481 72.88 403.689 72.88C399.081 72.88 396.297 75.856 395.529 81.28H390.777ZM431.101 106L444.349 69.664H450.589L463.837 106H458.941L455.005 95.104H439.933L435.997 106H431.101ZM441.373 91.12H453.565L448.909 78.16C448.189 76.144 447.901 75.28 447.565 74.128H447.373C447.037 75.28 446.749 76.144 446.029 78.16L441.373 91.12ZM467.485 106V79.6H471.853V84.16H472.045C473.821 80.608 476.749 78.976 480.397 78.976C482.653 78.976 484.861 79.696 486.445 81.088C487.357 81.904 487.981 82.912 488.605 84.448C490.477 80.704 493.597 78.976 497.533 78.976C499.789 78.976 501.997 79.696 503.581 81.088C504.493 81.904 505.117 82.912 505.645 84.112C506.077 85.264 506.317 86.56 506.317 89.008V106H501.757V89.344C501.757 87.952 501.757 86.608 501.277 85.504C500.653 83.824 499.261 82.672 497.053 82.672C494.797 82.672 492.925 83.68 491.485 85.408C489.181 88.096 489.181 89.776 489.181 93.856V106H484.621V89.344C484.621 87.952 484.621 86.608 484.141 85.504C483.517 83.824 482.125 82.672 479.917 82.672C477.613 82.672 475.789 83.68 474.349 85.408C472.045 88.096 472.045 89.776 472.045 93.856V106H467.485ZM524.239 93.376V89.152H556.159V93.376H524.239ZM573.061 74.896C575.845 73.648 578.341 71.776 579.877 69.664H584.053V106H579.589V75.76H579.397C577.285 77.536 575.317 78.592 573.061 79.36V74.896ZM603.539 106.624C594.227 106.624 590.099 97.792 590.099 87.808C590.099 77.728 594.275 69.04 603.491 69.04H603.539C612.803 69.04 616.931 77.872 616.931 87.808C616.931 97.936 612.755 106.624 603.539 106.624ZM595.043 87.808C595.043 97.504 598.355 102.784 603.539 102.784C608.723 102.784 612.035 97.504 612.035 87.808C612.035 78.16 608.723 72.88 603.539 72.88C598.355 72.88 595.043 78.16 595.043 87.808ZM635.731 106V69.664H647.923C650.947 69.664 653.587 69.904 655.603 70.672C659.539 72.208 661.843 75.808 661.843 80.656C661.843 85.648 659.539 89.152 655.699 90.64C653.587 91.456 650.947 91.696 647.443 91.696H640.579V106H635.731ZM640.579 87.904H647.635C649.555 87.904 650.851 87.904 652.531 87.424C655.027 86.704 656.803 84.544 656.803 80.752C656.803 76.864 655.027 74.752 652.387 73.984C650.851 73.552 649.555 73.504 648.115 73.504H640.579V87.904ZM666.704 106V79.6H671.072V84.16H671.264C673.04 80.608 675.968 78.976 679.616 78.976C681.872 78.976 684.08 79.696 685.664 81.088C686.576 81.904 687.2 82.912 687.824 84.448C689.696 80.704 692.816 78.976 696.752 78.976C699.008 78.976 701.216 79.696 702.8 81.088C703.712 81.904 704.336 82.912 704.864 84.112C705.296 85.264 705.536 86.56 705.536 89.008V106H700.976V89.344C700.976 87.952 700.976 86.608 700.496 85.504C699.872 83.824 698.48 82.672 696.272 82.672C694.016 82.672 692.144 83.68 690.704 85.408C688.4 88.096 688.4 89.776 688.4 93.856V106H683.84V89.344C683.84 87.952 683.84 86.608 683.36 85.504C682.736 83.824 681.344 82.672 679.136 82.672C676.832 82.672 675.008 83.68 673.568 85.408C671.264 88.096 671.264 89.776 671.264 93.856V106H666.704ZM466.678 130.896C469.462 129.648 471.958 127.776 473.494 125.664H477.67V162H473.206V131.76H473.014C470.902 133.536 468.934 134.592 466.678 135.36V130.896ZM495.572 125.04C504.932 125.04 508.58 132.768 508.58 142.56C508.58 153.744 504.548 162.624 494.612 162.624C488.516 162.624 484.628 158.976 484.1 152.736H488.612C489.332 156.768 491.252 158.736 495.044 158.736C501.044 158.736 504.116 152.16 504.212 144.288H503.972C502.148 148.032 498.884 149.808 494.948 149.808C488.9 149.808 483.572 145.2 483.572 137.76C483.572 130.224 488.708 125.04 495.572 125.04ZM488.324 137.616C488.324 143.28 491.972 146.16 495.428 146.16C499.268 146.16 502.916 143.28 502.916 137.568C502.916 132.432 499.94 128.688 495.572 128.688C491.492 128.688 488.324 132.384 488.324 137.616ZM535.731 162.624C528.099 162.624 524.451 157.104 524.355 149.184H529.203C529.443 154.848 531.315 158.688 535.923 158.688C540.867 158.688 542.163 154.944 542.163 149.424V125.664H547.011V149.328C547.011 158.064 543.363 162.624 535.731 162.624ZM575.124 135.6V162H570.756V157.44H570.564C568.74 160.992 565.764 162.624 562.02 162.624C558.372 162.624 555.252 160.944 553.86 157.536C553.38 156.336 553.14 155.04 553.14 152.592V135.6H557.7V152.256C557.7 153.648 557.7 154.992 558.18 156.192C558.804 157.776 560.292 158.928 562.548 158.928C564.9 158.928 566.724 157.92 568.212 156.192C570.564 153.504 570.564 151.824 570.564 147.744V135.6H575.124ZM581.228 162V125.664H585.836V162H581.228ZM589.707 135.744V135.6H594.459L602.331 155.616L609.339 135.6H613.947V135.792L601.131 170.4H596.619V170.208L599.931 160.992L589.707 135.744ZM314.754 218V181.664H327.378C331.314 181.664 333.234 181.76 335.394 182.48C338.994 183.68 341.154 186.608 341.154 190.352C341.154 194.432 338.514 197.648 334.53 198.272V198.464C339.09 199.232 342.258 202.352 342.258 207.296C342.258 212.192 339.906 215.552 335.634 217.088C333.666 217.808 331.074 218 327.282 218H314.754ZM319.602 214.112H327.138C329.25 214.112 331.074 214.016 332.514 213.68C335.49 212.96 337.17 210.848 337.17 207.584C337.17 204.224 335.586 202.064 332.802 201.392C331.026 200.96 329.634 200.912 328.098 200.912H319.602V214.112ZM319.602 197.024H326.514C329.01 197.024 330.258 196.976 331.746 196.64C334.578 195.968 336.162 194 336.162 191.072C336.162 188.384 334.962 186.608 332.514 185.936C331.074 185.552 329.154 185.504 326.514 185.504H319.602V197.024ZM359.453 218.624C351.581 218.624 346.637 212.72 346.637 204.8C346.637 196.88 351.581 190.976 359.453 190.976C367.325 190.976 372.269 196.88 372.269 204.8C372.269 212.72 367.325 218.624 359.453 218.624ZM351.437 204.8C351.437 210.752 354.173 215.072 359.453 215.072C364.733 215.072 367.469 210.752 367.469 204.8C367.469 198.896 364.733 194.528 359.453 194.528C354.173 194.528 351.437 198.896 351.437 204.8ZM373.232 218L383.024 204.368L373.904 191.6H379.136L385.712 201.68L392.24 191.6H397.232L388.352 204.032L398.336 218H393.104L385.664 206.624L378.224 218H373.232ZM402.122 218V191.6H406.682V218H402.122ZM401.978 187.76V182.72H406.826V187.76H401.978ZM426.129 218V181.664H438.753C442.689 181.664 444.609 181.76 446.769 182.48C450.369 183.68 452.529 186.608 452.529 190.352C452.529 194.432 449.889 197.648 445.905 198.272V198.464C450.465 199.232 453.633 202.352 453.633 207.296C453.633 212.192 451.281 215.552 447.009 217.088C445.041 217.808 442.449 218 438.657 218H426.129ZM430.977 214.112H438.513C440.625 214.112 442.449 214.016 443.889 213.68C446.865 212.96 448.545 210.848 448.545 207.584C448.545 204.224 446.961 202.064 444.177 201.392C442.401 200.96 441.009 200.912 439.473 200.912H430.977V214.112ZM430.977 197.024H437.889C440.385 197.024 441.633 196.976 443.121 196.64C445.953 195.968 447.537 194 447.537 191.072C447.537 188.384 446.337 186.608 443.889 185.936C442.449 185.552 440.529 185.504 437.889 185.504H430.977V197.024ZM458.3 210.56C458.3 205.568 462.236 203.6 468.044 202.64C470.54 202.208 473.42 201.776 476.444 201.392L476.396 200.192C476.3 197.312 474.86 195.776 473.132 195.056C472.172 194.672 471.164 194.528 470.156 194.528C466.268 194.528 464.012 196.112 463.292 199.424H458.876C459.452 194.912 462.908 190.976 470.06 190.976C476.684 190.976 480.668 193.952 480.668 200.24V218H476.444V214.448H476.3C474.62 217.232 471.212 218.624 467.804 218.624C463.052 218.624 458.3 215.936 458.3 210.56ZM463.1 210.56C463.1 213.296 465.116 215.36 468.523 215.36C471.356 215.36 475.004 213.536 476.156 209.984C476.396 209.168 476.54 208.256 476.492 206.816L476.444 204.368C473.612 204.8 470.876 205.376 468.332 205.904C464.108 206.768 463.1 208.592 463.1 210.56ZM509.44 208.928C508.528 215.168 504.256 218.624 497.776 218.624C489.952 218.624 485.152 212.768 485.152 204.8C485.152 196.592 490.24 190.976 498.016 190.976C498.928 190.976 499.936 191.024 500.944 191.216C505.504 192.128 508.384 195.248 509.056 200.144H504.592C503.968 197.12 502.24 195.296 499.792 194.672C499.12 194.528 498.544 194.528 497.872 194.528C492.64 194.528 489.808 198.848 489.808 204.8C489.808 210.8 492.736 215.072 498.016 215.072C501.904 215.072 504.208 212.72 504.928 208.928H509.44ZM514.15 218V181.664H518.614V203.216L529.654 191.6H534.934V191.84L525.142 201.776L535.846 217.76V218H530.95L522.07 204.128L518.614 207.584V218H514.15ZM537.16 191.744V191.6H541.912L549.784 211.616L556.792 191.6H561.4V191.792L548.584 226.4H544.072V226.208L547.384 216.992L537.16 191.744ZM563.253 210.56C563.253 205.568 567.189 203.6 572.997 202.64C575.493 202.208 578.373 201.776 581.397 201.392L581.349 200.192C581.253 197.312 579.813 195.776 578.085 195.056C577.125 194.672 576.117 194.528 575.109 194.528C571.221 194.528 568.965 196.112 568.245 199.424H563.829C564.405 194.912 567.861 190.976 575.013 190.976C581.637 190.976 585.621 193.952 585.621 200.24V218H581.397V214.448H581.253C579.573 217.232 576.165 218.624 572.757 218.624C568.005 218.624 563.253 215.936 563.253 210.56ZM568.053 210.56C568.053 213.296 570.069 215.36 573.477 215.36C576.309 215.36 579.957 213.536 581.109 209.984C581.349 209.168 581.493 208.256 581.445 206.816L581.397 204.368C578.565 204.8 575.829 205.376 573.285 205.904C569.061 206.768 568.053 208.592 568.053 210.56ZM591.305 218V191.6H595.769V196.976H595.961C597.929 192.8 601.337 191.12 604.505 191.12C605.129 191.12 606.137 191.168 606.761 191.408V195.248C606.233 195.104 605.273 195.008 604.601 195.008C602.777 195.008 600.137 195.584 597.833 198.656C597.353 199.328 597.065 199.904 596.729 200.48C596.057 201.872 595.865 203.216 595.865 205.52V218H591.305ZM632.351 218H628.031V214.688H627.839C626.831 217.088 623.951 218.624 620.111 218.624C612.239 218.624 607.871 212.144 607.871 204.8C607.871 197.456 612.239 190.976 620.111 190.976C623.711 190.976 626.399 192.32 627.599 194.432H627.791V181.664H632.351V218ZM612.623 204.8C612.623 210.8 615.695 215.072 620.783 215.072C624.671 215.072 627.167 213.008 627.935 208.976C628.223 207.44 628.223 206.336 628.223 204.8C628.223 203.264 628.223 202.16 627.935 200.624C627.167 196.592 624.671 194.528 620.783 194.528C615.695 194.528 612.623 198.8 612.623 204.8ZM651.692 218V181.664H663.884C666.908 181.664 669.548 181.904 671.564 182.672C675.5 184.208 677.804 187.808 677.804 192.656C677.804 197.648 675.5 201.152 671.66 202.64C669.548 203.456 666.908 203.696 663.404 203.696H656.54V218H651.692ZM656.54 199.904H663.596C665.516 199.904 666.812 199.904 668.492 199.424C670.988 198.704 672.764 196.544 672.764 192.752C672.764 188.864 670.988 186.752 668.348 185.984C666.812 185.552 665.516 185.504 664.076 185.504H656.54V199.904ZM681.284 210.56C681.284 205.568 685.22 203.6 691.028 202.64C693.524 202.208 696.404 201.776 699.428 201.392L699.38 200.192C699.284 197.312 697.844 195.776 696.116 195.056C695.156 194.672 694.148 194.528 693.14 194.528C689.252 194.528 686.996 196.112 686.276 199.424H681.86C682.436 194.912 685.892 190.976 693.044 190.976C699.668 190.976 703.652 193.952 703.652 200.24V218H699.428V214.448H699.284C697.604 217.232 694.196 218.624 690.788 218.624C686.036 218.624 681.284 215.936 681.284 210.56ZM686.084 210.56C686.084 213.296 688.1 215.36 691.508 215.36C694.34 215.36 697.988 213.536 699.14 209.984C699.38 209.168 699.524 208.256 699.476 206.816L699.428 204.368C696.596 204.8 693.86 205.376 691.316 205.904C687.092 206.768 686.084 208.592 686.084 210.56ZM709.337 218V191.6H713.801V196.976H713.993C715.961 192.8 719.369 191.12 722.537 191.12C723.161 191.12 724.169 191.168 724.793 191.408V195.248C724.265 195.104 723.305 195.008 722.633 195.008C720.809 195.008 718.169 195.584 715.865 198.656C715.385 199.328 715.097 199.904 714.761 200.48C714.089 201.872 713.897 203.216 713.897 205.52V218H709.337ZM731.077 213.344V195.008H727.573V191.6H731.077V185.12H735.589V191.6H741.397V195.008H735.589V212.192C735.589 214.976 737.365 215.456 739.717 215.456C740.389 215.456 740.965 215.408 741.397 215.36V218.336C740.293 218.576 738.997 218.72 737.701 218.72C734.389 218.72 731.077 217.664 731.077 213.344ZM743.55 191.744V191.6H748.302L756.174 211.616L763.182 191.6H767.79V191.792L754.974 226.4H750.462V226.208L753.774 216.992L743.55 191.744Z" fill="black"/>
</svg>
