<svg width="595" height="842" viewBox="0 0 595 842" fill="none" xmlns="http://www.w3.org/2000/svg">
<g clip-path="url(#clip0_439_13)">
<rect width="595" height="842" fill="white"/>
<path d="M248.539 373V348.776H251.771V360.936L261.883 348.776H265.563V348.872L257.083 358.888L266.747 372.808V373H263.131L254.875 361.032L251.771 364.744V373H248.539ZM275.932 373.416C270.684 373.416 267.388 369.48 267.388 364.2C267.388 358.92 270.684 354.984 275.932 354.984C281.18 354.984 284.476 358.92 284.476 364.2C284.476 369.48 281.18 373.416 275.932 373.416ZM270.588 364.2C270.588 368.168 272.412 371.048 275.932 371.048C279.452 371.048 281.276 368.168 281.276 364.2C281.276 360.264 279.452 357.352 275.932 357.352C272.412 357.352 270.588 360.264 270.588 364.2ZM287.751 373V348.776H290.823V373H287.751ZM302.619 373.416C297.371 373.416 294.075 369.48 294.075 364.2C294.075 358.92 297.371 354.984 302.619 354.984C307.867 354.984 311.163 358.92 311.163 364.2C311.163 369.48 307.867 373.416 302.619 373.416ZM297.275 364.2C297.275 368.168 299.099 371.048 302.619 371.048C306.139 371.048 307.963 368.168 307.963 364.2C307.963 360.264 306.139 357.352 302.619 357.352C299.099 357.352 297.275 360.264 297.275 364.2ZM313.642 368.04C313.642 364.712 316.266 363.4 320.138 362.76C321.802 362.472 323.722 362.184 325.738 361.928L325.706 361.128C325.642 359.208 324.682 358.184 323.53 357.704C322.89 357.448 322.218 357.352 321.546 357.352C318.954 357.352 317.45 358.408 316.97 360.616H314.026C314.41 357.608 316.714 354.984 321.482 354.984C325.898 354.984 328.554 356.968 328.554 361.16V373H325.738V370.632H325.642C324.522 372.488 322.25 373.416 319.978 373.416C316.81 373.416 313.642 371.624 313.642 368.04ZM316.842 368.04C316.842 369.864 318.186 371.24 320.458 371.24C322.346 371.24 324.778 370.024 325.546 367.656C325.706 367.112 325.802 366.504 325.77 365.544L325.738 363.912C323.85 364.2 322.026 364.584 320.33 364.936C317.514 365.512 316.842 366.728 316.842 368.04ZM332.376 373V348.776H335.416V358.184H335.544C336.792 356.008 338.712 354.984 341.112 354.984C343.544 354.984 345.624 356.104 346.552 358.376C346.872 359.176 347.032 360.04 347.032 361.672V373H343.992V361.896C343.992 360.968 343.992 360.072 343.672 359.272C343.256 358.216 342.264 357.448 340.76 357.448C339.192 357.448 337.976 358.12 336.984 359.272C335.416 361.064 335.416 362.184 335.416 364.904V373H332.376ZM263.892 413.416C257.428 413.416 252.212 409.384 252.212 401C252.212 392.456 257.428 388.36 263.892 388.36C270.388 388.36 275.572 392.456 275.572 401C275.572 409.384 270.388 413.416 263.892 413.416ZM255.636 401C255.636 406.28 258.068 410.824 263.828 410.824C269.652 410.824 272.148 406.344 272.148 401C272.148 395.592 269.812 390.952 263.892 390.952C257.972 390.952 255.636 395.592 255.636 401ZM294.674 406.952C294.066 411.112 291.218 413.416 286.898 413.416C281.682 413.416 278.482 409.512 278.482 404.2C278.482 398.728 281.874 394.984 287.058 394.984C287.666 394.984 288.338 395.016 289.01 395.144C292.05 395.752 293.97 397.832 294.418 401.096H291.442C291.026 399.08 289.874 397.864 288.242 397.448C287.794 397.352 287.41 397.352 286.962 397.352C283.474 397.352 281.586 400.232 281.586 404.2C281.586 408.2 283.538 411.048 287.058 411.048C289.65 411.048 291.186 409.48 291.666 406.952H294.674ZM297.782 413V395.4H300.758V398.984H300.886C302.198 396.2 304.47 395.08 306.582 395.08C306.998 395.08 307.67 395.112 308.086 395.272V397.832C307.734 397.736 307.094 397.672 306.646 397.672C305.43 397.672 303.67 398.056 302.134 400.104C301.814 400.552 301.622 400.936 301.398 401.32C300.95 402.248 300.822 403.144 300.822 404.68V413H297.782ZM309.361 408.04C309.361 404.712 311.985 403.4 315.857 402.76C317.521 402.472 319.441 402.184 321.457 401.928L321.425 401.128C321.361 399.208 320.401 398.184 319.249 397.704C318.609 397.448 317.937 397.352 317.265 397.352C314.673 397.352 313.169 398.408 312.689 400.616H309.745C310.129 397.608 312.433 394.984 317.201 394.984C321.617 394.984 324.273 396.968 324.273 401.16V413H321.457V410.632H321.361C320.241 412.488 317.969 413.416 315.697 413.416C312.529 413.416 309.361 411.624 309.361 408.04ZM312.561 408.04C312.561 409.864 313.905 411.24 316.177 411.24C318.065 411.24 320.497 410.024 321.265 407.656C321.425 407.112 321.521 406.504 321.489 405.544L321.457 403.912C319.569 404.2 317.745 404.584 316.049 404.936C313.233 405.512 312.561 406.728 312.561 408.04ZM328.063 413V395.4H330.975V398.44H331.103C332.319 396.072 334.303 394.984 336.799 394.984C339.231 394.984 341.311 396.104 342.239 398.376C342.559 399.176 342.719 400.04 342.719 401.672V413H339.679V401.896C339.679 400.968 339.679 400.072 339.359 399.272C338.943 398.216 337.951 397.448 336.447 397.448C334.879 397.448 333.663 398.12 332.671 399.272C331.103 401.064 331.103 402.184 331.103 404.904V413H328.063ZM224.923 453.416C218.459 453.416 213.243 449.384 213.243 441C213.243 432.456 218.459 428.36 224.923 428.36C231.419 428.36 236.603 432.456 236.603 441C236.603 449.384 231.419 453.416 224.923 453.416ZM216.667 441C216.667 446.28 219.099 450.824 224.859 450.824C230.683 450.824 233.179 446.344 233.179 441C233.179 435.592 230.843 430.952 224.923 430.952C219.003 430.952 216.667 435.592 216.667 441ZM240.345 453V428.776H243.417V453H240.345ZM263.277 446.952C262.669 451.112 259.629 453.416 255.245 453.416C249.965 453.416 246.669 449.48 246.669 444.2C246.669 440.552 248.237 437.512 250.957 436.008C252.141 435.336 253.581 434.984 255.181 434.984C255.917 434.984 256.557 434.984 257.165 435.08C258.253 435.272 259.245 435.72 260.141 436.36C262.093 437.768 263.373 440.36 263.341 444.456H249.741C249.709 444.712 249.709 444.968 249.741 445.288C249.805 446.056 249.933 446.76 250.157 447.4C250.989 449.608 252.781 451.016 255.405 451.016C257.421 451.016 258.765 450.216 259.597 448.84C259.917 448.296 260.173 447.656 260.333 446.952H263.277ZM249.869 442.184H260.269C260.077 439.432 258.509 437.544 256.109 437.256C255.757 437.224 255.533 437.224 255.277 437.224C252.589 437.224 250.733 438.856 250.029 441.32C249.965 441.608 249.933 441.896 249.869 442.184ZM281.418 451.944C281.418 456.68 278.794 459.016 273.546 459.016C268.426 459.016 266.538 456.744 266.154 454.056H269.194C269.482 455.848 271.114 456.712 273.61 456.712C276.874 456.712 278.634 455.528 278.634 450.952V449.928H278.506C277.93 451.56 275.978 452.616 273.386 452.616C268.298 452.616 265.45 448.488 265.45 443.816C265.45 439.112 268.298 434.984 273.386 434.984C275.85 434.984 277.706 435.944 278.378 437.512H278.538V435.4H281.418V451.944ZM268.618 443.816C268.618 447.624 270.538 450.376 273.866 450.376C276.426 450.376 277.962 449.064 278.474 446.472C278.666 445.48 278.666 444.776 278.666 443.816C278.666 442.856 278.666 442.184 278.474 441.16C277.962 438.6 276.426 437.192 273.866 437.192C270.538 437.192 268.618 439.944 268.618 443.816ZM294.258 453V428.776H302.642C304.722 428.776 306.706 428.872 308.114 429.352C310.834 430.28 312.242 432.52 312.242 435.624C312.242 439.464 309.906 441.768 306.066 442.312L312.466 452.84V453H308.882L302.674 442.536H297.49V453H294.258ZM297.49 440.072H302.77C304.114 440.072 305.01 440.04 306.194 439.752C307.922 439.336 309.138 438.056 309.138 435.816C309.138 433.32 307.922 432.04 306.226 431.624C305.01 431.304 303.794 431.336 302.802 431.336H297.49V440.072ZM323.026 453.416C317.778 453.416 314.482 449.48 314.482 444.2C314.482 438.92 317.778 434.984 323.026 434.984C328.274 434.984 331.57 438.92 331.57 444.2C331.57 449.48 328.274 453.416 323.026 453.416ZM317.682 444.2C317.682 448.168 319.506 451.048 323.026 451.048C326.546 451.048 328.37 448.168 328.37 444.2C328.37 440.264 326.546 437.352 323.026 437.352C319.506 437.352 317.682 440.264 317.682 444.2ZM333.128 453V450.856L343.432 437.608H333.608V435.4H346.728V437.8L336.616 450.792H347.112V453H333.128ZM357.213 453.416C351.965 453.416 348.669 449.48 348.669 444.2C348.669 438.92 351.965 434.984 357.213 434.984C362.461 434.984 365.757 438.92 365.757 444.2C365.757 449.48 362.461 453.416 357.213 453.416ZM351.869 444.2C351.869 448.168 353.693 451.048 357.213 451.048C360.733 451.048 362.557 448.168 362.557 444.2C362.557 440.264 360.733 437.352 357.213 437.352C353.693 437.352 351.869 440.264 351.869 444.2ZM373.116 453L366.748 435.4H369.884L373.308 445.448C374.236 448.136 374.492 449.288 374.748 450.088H374.876C375.132 449.288 375.388 448.136 376.316 445.448L379.74 435.4H382.876L376.508 453H373.116ZM201.282 493.416C194.818 493.416 189.602 489.384 189.602 481C189.602 472.456 194.818 468.36 201.282 468.36C207.778 468.36 212.962 472.456 212.962 481C212.962 489.384 207.778 493.416 201.282 493.416ZM193.026 481C193.026 486.28 195.458 490.824 201.218 490.824C207.042 490.824 209.538 486.344 209.538 481C209.538 475.592 207.202 470.952 201.282 470.952C195.362 470.952 193.026 475.592 193.026 481ZM216.704 493V468.776H219.776V493H216.704ZM239.637 486.952C239.029 491.112 235.989 493.416 231.605 493.416C226.325 493.416 223.029 489.48 223.029 484.2C223.029 480.552 224.597 477.512 227.317 476.008C228.501 475.336 229.941 474.984 231.541 474.984C232.277 474.984 232.917 474.984 233.525 475.08C234.613 475.272 235.605 475.72 236.501 476.36C238.453 477.768 239.733 480.36 239.701 484.456H226.101C226.069 484.712 226.069 484.968 226.101 485.288C226.165 486.056 226.293 486.76 226.516 487.4C227.349 489.608 229.141 491.016 231.765 491.016C233.781 491.016 235.125 490.216 235.957 488.84C236.277 488.296 236.533 487.656 236.693 486.952H239.637ZM226.229 482.184H236.629C236.437 479.432 234.869 477.544 232.469 477.256C232.117 477.224 231.893 477.224 231.637 477.224C228.949 477.224 227.093 478.856 226.389 481.32C226.325 481.608 226.293 481.896 226.229 482.184ZM257.778 491.944C257.778 496.68 255.154 499.016 249.906 499.016C244.786 499.016 242.898 496.744 242.514 494.056H245.554C245.842 495.848 247.474 496.712 249.97 496.712C253.234 496.712 254.994 495.528 254.994 490.952V489.928H254.866C254.29 491.56 252.338 492.616 249.746 492.616C244.658 492.616 241.81 488.488 241.81 483.816C241.81 479.112 244.658 474.984 249.746 474.984C252.21 474.984 254.066 475.944 254.738 477.512H254.898V475.4H257.778V491.944ZM244.978 483.816C244.978 487.624 246.898 490.376 250.226 490.376C252.786 490.376 254.322 489.064 254.834 486.472C255.026 485.48 255.026 484.776 255.026 483.816C255.026 482.856 255.026 482.184 254.834 481.16C254.322 478.6 252.786 477.192 250.226 477.192C246.898 477.192 244.978 479.944 244.978 483.816ZM279.769 493.448C273.305 493.448 269.753 490.568 269.337 484.936H272.665C273.241 489.16 275.385 490.952 280.121 490.952C284.313 490.952 286.521 489.256 286.521 486.12C286.521 483.976 285.049 482.824 281.529 482.216L277.305 481.48C272.185 480.584 270.233 478.76 270.233 475.112C270.233 470.984 273.977 468.264 279.865 468.264C285.529 468.264 288.953 470.792 289.273 475.24H286.073C285.593 472.296 283.449 470.728 279.673 470.728C275.961 470.728 273.593 472.36 273.593 474.76C273.593 476.808 274.713 477.8 277.593 478.344L282.745 479.304C287.801 480.232 289.785 482.12 289.785 485.96C289.785 490.664 286.265 493.448 279.769 493.448ZM300.604 493.416C295.356 493.416 292.06 489.48 292.06 484.2C292.06 478.92 295.356 474.984 300.604 474.984C305.852 474.984 309.148 478.92 309.148 484.2C309.148 489.48 305.852 493.416 300.604 493.416ZM295.26 484.2C295.26 488.168 297.084 491.048 300.604 491.048C304.124 491.048 305.948 488.168 305.948 484.2C305.948 480.264 304.124 477.352 300.604 477.352C297.084 477.352 295.26 480.264 295.26 484.2ZM313.359 493V477.672H310.639V475.4H313.359V473.096C313.359 469.16 316.303 468.36 318.575 468.36C319.311 468.36 319.983 468.456 320.463 468.552V470.856C320.015 470.824 319.599 470.792 319.215 470.792C317.423 470.792 316.367 471.304 316.367 473.128V475.4H320.719V477.672H316.367V493H313.359ZM323.297 493V475.4H326.273V478.984H326.401C327.713 476.2 329.985 475.08 332.097 475.08C332.513 475.08 333.185 475.112 333.601 475.272V477.832C333.249 477.736 332.609 477.672 332.161 477.672C330.945 477.672 329.185 478.056 327.649 480.104C327.329 480.552 327.137 480.936 326.913 481.32C326.465 482.248 326.337 483.144 326.337 484.68V493H323.297ZM342.885 493.416C337.637 493.416 334.341 489.48 334.341 484.2C334.341 478.92 337.637 474.984 342.885 474.984C348.133 474.984 351.429 478.92 351.429 484.2C351.429 489.48 348.133 493.416 342.885 493.416ZM337.541 484.2C337.541 488.168 339.365 491.048 342.885 491.048C346.405 491.048 348.229 488.168 348.229 484.2C348.229 480.264 346.405 477.352 342.885 477.352C339.365 477.352 337.541 480.264 337.541 484.2ZM354.672 493V475.4H357.584V478.44H357.712C358.928 476.072 360.912 474.984 363.408 474.984C365.84 474.984 367.92 476.104 368.848 478.376C369.168 479.176 369.328 480.04 369.328 481.672V493H366.288V481.896C366.288 480.968 366.288 480.072 365.968 479.272C365.552 478.216 364.56 477.448 363.056 477.448C361.488 477.448 360.272 478.12 359.28 479.272C357.712 481.064 357.712 482.184 357.712 484.904V493H354.672ZM380.854 493.416C375.606 493.416 372.31 489.48 372.31 484.2C372.31 478.92 375.606 474.984 380.854 474.984C386.102 474.984 389.398 478.92 389.398 484.2C389.398 489.48 386.102 493.416 380.854 493.416ZM375.51 484.2C375.51 488.168 377.334 491.048 380.854 491.048C384.374 491.048 386.198 488.168 386.198 484.2C386.198 480.264 384.374 477.352 380.854 477.352C377.334 477.352 375.51 480.264 375.51 484.2ZM396.757 493L390.389 475.4H393.525L396.949 485.448C397.877 488.136 398.133 489.288 398.389 490.088H398.517C398.773 489.288 399.029 488.136 399.957 485.448L403.381 475.4H406.517L400.149 493H396.757Z" fill="black"/>
<path d="M105.133 702V677.776H113.549C116.173 677.776 117.453 677.84 118.893 678.32C121.293 679.12 122.733 681.072 122.733 683.568C122.733 686.288 120.973 688.432 118.317 688.848V688.976C121.357 689.488 123.469 691.568 123.469 694.864C123.469 698.128 121.901 700.368 119.053 701.392C117.741 701.872 116.013 702 113.485 702H105.133ZM108.365 699.408H113.389C114.797 699.408 116.013 699.344 116.973 699.12C118.957 698.64 120.077 697.232 120.077 695.056C120.077 692.816 119.021 691.376 117.165 690.928C115.981 690.64 115.053 690.608 114.029 690.608H108.365V699.408ZM108.365 688.016H112.973C114.637 688.016 115.469 687.984 116.461 687.76C118.349 687.312 119.405 686 119.405 684.048C119.405 682.256 118.605 681.072 116.973 680.624C116.013 680.368 114.733 680.336 112.973 680.336H108.365V688.016ZM134.932 702.416C129.684 702.416 126.388 698.48 126.388 693.2C126.388 687.92 129.684 683.984 134.932 683.984C140.18 683.984 143.476 687.92 143.476 693.2C143.476 698.48 140.18 702.416 134.932 702.416ZM129.588 693.2C129.588 697.168 131.412 700.048 134.932 700.048C138.452 700.048 140.276 697.168 140.276 693.2C140.276 689.264 138.452 686.352 134.932 686.352C131.412 686.352 129.588 689.264 129.588 693.2ZM144.118 702L150.646 692.912L144.566 684.4H148.054L152.438 691.12L156.79 684.4H160.118L154.198 692.688L160.854 702H157.366L152.406 694.416L147.446 702H144.118ZM163.282 702V677.776H166.322V687.184H166.45C167.698 685.008 169.618 683.984 172.018 683.984C174.45 683.984 176.53 685.104 177.458 687.376C177.778 688.176 177.938 689.04 177.938 690.672V702H174.898V690.896C174.898 689.968 174.898 689.072 174.578 688.272C174.162 687.216 173.17 686.448 171.666 686.448C170.098 686.448 168.882 687.12 167.89 688.272C166.322 690.064 166.322 691.184 166.322 693.904V702H163.282ZM181.111 697.04C181.111 693.712 183.735 692.4 187.607 691.76C189.271 691.472 191.191 691.184 193.207 690.928L193.175 690.128C193.111 688.208 192.151 687.184 190.999 686.704C190.359 686.448 189.687 686.352 189.015 686.352C186.423 686.352 184.919 687.408 184.439 689.616H181.495C181.879 686.608 184.183 683.984 188.951 683.984C193.367 683.984 196.023 685.968 196.023 690.16V702H193.207V699.632H193.111C191.991 701.488 189.719 702.416 187.447 702.416C184.279 702.416 181.111 700.624 181.111 697.04ZM184.311 697.04C184.311 698.864 185.655 700.24 187.927 700.24C189.815 700.24 192.247 699.024 193.015 696.656C193.175 696.112 193.271 695.504 193.239 694.544L193.207 692.912C191.319 693.2 189.495 693.584 187.799 693.936C184.983 694.512 184.311 695.728 184.311 697.04ZM214.981 700.944C214.981 705.68 212.357 708.016 207.109 708.016C201.989 708.016 200.101 705.744 199.717 703.056H202.757C203.045 704.848 204.677 705.712 207.173 705.712C210.437 705.712 212.197 704.528 212.197 699.952V698.928H212.069C211.493 700.56 209.541 701.616 206.949 701.616C201.861 701.616 199.013 697.488 199.013 692.816C199.013 688.112 201.861 683.984 206.949 683.984C209.413 683.984 211.269 684.944 211.941 686.512H212.101V684.4H214.981V700.944ZM202.181 692.816C202.181 696.624 204.101 699.376 207.429 699.376C209.989 699.376 211.525 698.064 212.037 695.472C212.229 694.48 212.229 693.776 212.229 692.816C212.229 691.856 212.229 691.184 212.037 690.16C211.525 687.6 209.989 686.192 207.429 686.192C204.101 686.192 202.181 688.944 202.181 692.816ZM234.808 695.952C234.2 700.112 231.16 702.416 226.776 702.416C221.496 702.416 218.2 698.48 218.2 693.2C218.2 689.552 219.768 686.512 222.488 685.008C223.672 684.336 225.112 683.984 226.712 683.984C227.448 683.984 228.088 683.984 228.696 684.08C229.784 684.272 230.776 684.72 231.672 685.36C233.624 686.768 234.904 689.36 234.872 693.456H221.272C221.24 693.712 221.24 693.968 221.272 694.288C221.336 695.056 221.464 695.76 221.688 696.4C222.52 698.608 224.312 700.016 226.936 700.016C228.952 700.016 230.296 699.216 231.128 697.84C231.448 697.296 231.704 696.656 231.864 695.952H234.808ZM221.4 691.184H231.8C231.608 688.432 230.04 686.544 227.64 686.256C227.288 686.224 227.064 686.224 226.808 686.224C224.12 686.224 222.264 687.856 221.56 690.32C221.496 690.608 221.464 690.896 221.4 691.184ZM238.094 702V684.4H241.006V687.44H241.134C242.35 685.072 244.334 683.984 246.83 683.984C249.262 683.984 251.342 685.104 252.27 687.376C252.59 688.176 252.75 689.04 252.75 690.672V702H249.71V690.896C249.71 689.968 249.71 689.072 249.39 688.272C248.974 687.216 247.982 686.448 246.478 686.448C244.91 686.448 243.694 687.12 242.702 688.272C241.134 690.064 241.134 691.184 241.134 693.904V702H238.094ZM272.34 695.952C271.732 700.112 268.692 702.416 264.308 702.416C259.028 702.416 255.732 698.48 255.732 693.2C255.732 689.552 257.3 686.512 260.02 685.008C261.204 684.336 262.644 683.984 264.244 683.984C264.98 683.984 265.62 683.984 266.228 684.08C267.316 684.272 268.308 684.72 269.204 685.36C271.156 686.768 272.436 689.36 272.404 693.456H258.804C258.772 693.712 258.772 693.968 258.804 694.288C258.868 695.056 258.996 695.76 259.22 696.4C260.052 698.608 261.844 700.016 264.468 700.016C266.484 700.016 267.828 699.216 268.66 697.84C268.98 697.296 269.236 696.656 269.396 695.952H272.34ZM258.932 691.184H269.332C269.14 688.432 267.572 686.544 265.172 686.256C264.82 686.224 264.596 686.224 264.34 686.224C261.652 686.224 259.796 687.856 259.092 690.32C259.028 690.608 258.996 690.896 258.932 691.184ZM275.625 702V684.4H278.601V687.984H278.729C280.041 685.2 282.313 684.08 284.425 684.08C284.841 684.08 285.513 684.112 285.929 684.272V686.832C285.577 686.736 284.937 686.672 284.489 686.672C283.273 686.672 281.513 687.056 279.977 689.104C279.657 689.552 279.465 689.936 279.241 690.32C278.793 691.248 278.665 692.144 278.665 693.68V702H275.625ZM306.41 702.448C299.946 702.448 296.394 699.568 295.978 693.936H299.306C299.882 698.16 302.026 699.952 306.762 699.952C310.954 699.952 313.162 698.256 313.162 695.12C313.162 692.976 311.69 691.824 308.17 691.216L303.946 690.48C298.826 689.584 296.874 687.76 296.874 684.112C296.874 679.984 300.618 677.264 306.506 677.264C312.17 677.264 315.594 679.792 315.914 684.24H312.714C312.234 681.296 310.09 679.728 306.314 679.728C302.602 679.728 300.234 681.36 300.234 683.76C300.234 685.808 301.354 686.8 304.234 687.344L309.386 688.304C314.442 689.232 316.426 691.12 316.426 694.96C316.426 699.664 312.906 702.448 306.41 702.448ZM320.556 698.896V686.672H318.22V684.4H320.556V680.08H323.564V684.4H327.436V686.672H323.564V698.128C323.564 699.984 324.748 700.304 326.316 700.304C326.764 700.304 327.148 700.272 327.436 700.24V702.224C326.7 702.384 325.836 702.48 324.972 702.48C322.764 702.48 320.556 701.776 320.556 698.896ZM330.344 702V684.4H333.32V687.984H333.448C334.76 685.2 337.032 684.08 339.144 684.08C339.56 684.08 340.232 684.112 340.648 684.272V686.832C340.296 686.736 339.656 686.672 339.208 686.672C337.992 686.672 336.232 687.056 334.696 689.104C334.376 689.552 334.184 689.936 333.96 690.32C333.512 691.248 333.384 692.144 333.384 693.68V702H330.344ZM339.644 702V698.256H343.004V702H339.644ZM355.384 681.264C357.24 680.432 358.904 679.184 359.928 677.776H362.712V702H359.736V681.84H359.608C358.2 683.024 356.888 683.728 355.384 684.24V681.264ZM375.319 702.416C370.487 702.416 366.743 699.888 366.743 695.568C366.743 692.656 368.311 690.192 371.895 689.296V689.168C369.143 688.272 367.607 686.256 367.607 683.792C367.607 679.696 371.159 677.36 375.319 677.36C379.447 677.36 382.999 679.696 382.999 683.792C382.999 686.256 381.463 688.272 378.711 689.168V689.296C382.295 690.192 383.863 692.656 383.863 695.568C383.863 699.952 380.023 702.416 375.319 702.416ZM369.943 695.376C369.943 698.32 372.503 700.112 375.319 700.112C378.103 700.112 380.695 698.32 380.695 695.376C380.695 692.24 378.423 690.64 375.287 690.64C372.183 690.64 369.943 692.24 369.943 695.376ZM370.775 683.984C370.775 687.056 373.175 688.112 375.319 688.112C377.431 688.112 379.831 687.056 379.831 683.984C379.831 681.168 377.687 679.824 375.319 679.824C372.855 679.824 370.775 681.104 370.775 683.984ZM385.653 706.128L386.805 702V698.256H389.909V702L387.797 706.128H385.653ZM402.29 681.264C404.146 680.432 405.81 679.184 406.834 677.776H409.618V702H406.642V681.84H406.514C405.106 683.024 403.794 683.728 402.29 684.24V681.264ZM422.609 702.416C416.401 702.416 413.649 696.528 413.649 689.872C413.649 683.152 416.433 677.36 422.577 677.36H422.609C428.785 677.36 431.537 683.248 431.537 689.872C431.537 696.624 428.753 702.416 422.609 702.416ZM416.945 689.872C416.945 696.336 419.153 699.856 422.609 699.856C426.065 699.856 428.273 696.336 428.273 689.872C428.273 683.44 426.065 679.92 422.609 679.92C419.153 679.92 416.945 683.44 416.945 689.872ZM434.674 685.52C434.962 682.544 435.922 680.496 437.586 679.152C438.962 678.032 440.85 677.36 443.058 677.36C447.89 677.36 450.93 679.984 450.93 684.336C450.93 687.568 449.49 689.552 445.906 691.408L443.986 692.4C440.178 694.384 438.418 696.272 438.066 699.184H451.186V702H434.706C434.706 696.048 436.818 692.912 441.746 690.384L443.922 689.264C446.674 687.856 447.602 686.48 447.602 684.432C447.602 681.584 445.81 679.92 443.282 679.92C440.21 679.92 438.354 681.904 437.842 685.52H434.674ZM463.591 702L463.655 695.248H452.231V692.624L462.375 677.776H466.727V692.72H469.511V695.248H466.727V702H463.591ZM455.527 692.72H463.655V686.576C463.655 684.368 463.751 681.36 463.815 680.464H463.623C462.439 682.576 460.871 685.072 459.623 686.832L455.527 692.72ZM479.823 702.384C475.599 702.384 472.463 699.728 472.207 695.44H475.567C475.727 698 477.519 699.856 480.143 699.856C483.759 699.856 485.455 696.528 485.455 693.264C485.455 689.584 483.663 687.312 480.591 687.312C478.159 687.312 476.367 688.816 475.791 690.992H472.975L474.063 677.776H487.375V680.528H476.591L476.079 686.8C477.135 685.552 478.863 684.784 481.039 684.784C485.999 684.784 488.687 688.72 488.687 693.072C488.687 698.576 484.975 702.384 479.823 702.384ZM94.3829 742V717.776H98.1589L111.279 737.68H111.439C111.311 736.304 111.215 733.712 111.215 730.16V717.776H114.415V742H110.703L97.5189 722.032H97.3589C97.4549 723.664 97.5829 728.432 97.5829 731.792V742H94.3829ZM134.59 735.952C133.982 740.112 130.942 742.416 126.558 742.416C121.278 742.416 117.982 738.48 117.982 733.2C117.982 729.552 119.55 726.512 122.27 725.008C123.454 724.336 124.894 723.984 126.494 723.984C127.23 723.984 127.87 723.984 128.478 724.08C129.566 724.272 130.558 724.72 131.454 725.36C133.406 726.768 134.686 729.36 134.654 733.456H121.054C121.022 733.712 121.022 733.968 121.054 734.288C121.118 735.056 121.246 735.76 121.47 736.4C122.302 738.608 124.094 740.016 126.718 740.016C128.734 740.016 130.078 739.216 130.91 737.84C131.23 737.296 131.486 736.656 131.646 735.952H134.59ZM121.182 731.184H131.582C131.39 728.432 129.822 726.544 127.422 726.256C127.07 726.224 126.846 726.224 126.59 726.224C123.902 726.224 122.046 727.856 121.342 730.32C121.278 730.608 121.246 730.896 121.182 731.184ZM152.275 724.4V742H149.363V738.96H149.235C148.019 741.328 146.035 742.416 143.539 742.416C141.107 742.416 139.027 741.296 138.099 739.024C137.779 738.224 137.619 737.36 137.619 735.728V724.4H140.659V735.504C140.659 736.432 140.659 737.328 140.979 738.128C141.395 739.184 142.387 739.952 143.891 739.952C145.459 739.952 146.675 739.28 147.667 738.128C149.235 736.336 149.235 735.216 149.235 732.496V724.4H152.275ZM172.121 735.952C171.513 740.112 168.473 742.416 164.089 742.416C158.809 742.416 155.513 738.48 155.513 733.2C155.513 729.552 157.081 726.512 159.801 725.008C160.985 724.336 162.425 723.984 164.025 723.984C164.761 723.984 165.401 723.984 166.009 724.08C167.097 724.272 168.089 724.72 168.985 725.36C170.937 726.768 172.217 729.36 172.185 733.456H158.585C158.553 733.712 158.553 733.968 158.585 734.288C158.649 735.056 158.777 735.76 159.001 736.4C159.833 738.608 161.625 740.016 164.249 740.016C166.265 740.016 167.609 739.216 168.441 737.84C168.761 737.296 169.017 736.656 169.177 735.952H172.121ZM158.713 731.184H169.113C168.921 728.432 167.353 726.544 164.953 726.256C164.601 726.224 164.377 726.224 164.121 726.224C161.433 726.224 159.577 727.856 158.873 730.32C158.809 730.608 158.777 730.896 158.713 731.184ZM184.227 742V717.776H192.643C195.267 717.776 196.547 717.84 197.987 718.32C200.387 719.12 201.827 721.072 201.827 723.568C201.827 726.288 200.067 728.432 197.411 728.848V728.976C200.451 729.488 202.563 731.568 202.563 734.864C202.563 738.128 200.995 740.368 198.147 741.392C196.835 741.872 195.107 742 192.579 742H184.227ZM187.459 739.408H192.483C193.891 739.408 195.107 739.344 196.067 739.12C198.051 738.64 199.171 737.232 199.171 735.056C199.171 732.816 198.115 731.376 196.259 730.928C195.075 730.64 194.147 730.608 193.123 730.608H187.459V739.408ZM187.459 728.016H192.067C193.731 728.016 194.563 727.984 195.555 727.76C197.443 727.312 198.499 726 198.499 724.048C198.499 722.256 197.699 721.072 196.067 720.624C195.107 720.368 193.827 720.336 192.067 720.336H187.459V728.016ZM220.682 724.4V742H217.77V738.96H217.642C216.426 741.328 214.442 742.416 211.946 742.416C209.514 742.416 207.434 741.296 206.506 739.024C206.186 738.224 206.026 737.36 206.026 735.728V724.4H209.066V735.504C209.066 736.432 209.066 737.328 209.386 738.128C209.802 739.184 210.794 739.952 212.298 739.952C213.866 739.952 215.082 739.28 216.074 738.128C217.642 736.336 217.642 735.216 217.642 732.496V724.4H220.682ZM224.751 742V717.776H227.791V727.184H227.919C229.167 725.008 231.087 723.984 233.487 723.984C235.919 723.984 237.999 725.104 238.927 727.376C239.247 728.176 239.407 729.04 239.407 730.672V742H236.367V730.896C236.367 729.968 236.367 729.072 236.047 728.272C235.631 727.216 234.639 726.448 233.135 726.448C231.567 726.448 230.351 727.12 229.359 728.272C227.791 730.064 227.791 731.184 227.791 733.904V742H224.751ZM243.188 742V724.4H246.1V727.44H246.228C247.444 725.072 249.428 723.984 251.924 723.984C254.356 723.984 256.436 725.104 257.364 727.376C257.684 728.176 257.844 729.04 257.844 730.672V742H254.804V730.896C254.804 729.968 254.804 729.072 254.484 728.272C254.068 727.216 253.076 726.448 251.572 726.448C250.004 726.448 248.788 727.12 247.796 728.272C246.228 730.064 246.228 731.184 246.228 733.904V742H243.188ZM277.433 735.952C276.825 740.112 273.785 742.416 269.401 742.416C264.121 742.416 260.825 738.48 260.825 733.2C260.825 729.552 262.393 726.512 265.113 725.008C266.297 724.336 267.737 723.984 269.337 723.984C270.073 723.984 270.713 723.984 271.321 724.08C272.409 724.272 273.401 724.72 274.297 725.36C276.249 726.768 277.529 729.36 277.497 733.456H263.897C263.865 733.712 263.865 733.968 263.897 734.288C263.961 735.056 264.089 735.76 264.313 736.4C265.145 738.608 266.937 740.016 269.561 740.016C271.577 740.016 272.921 739.216 273.753 737.84C274.073 737.296 274.329 736.656 274.489 735.952H277.433ZM264.025 731.184H274.425C274.233 728.432 272.665 726.544 270.265 726.256C269.913 726.224 269.689 726.224 269.433 726.224C266.745 726.224 264.889 727.856 264.185 730.32C264.121 730.608 264.089 730.896 264.025 731.184ZM289.539 742V717.776H304.963V720.528H292.771V728.848H304.003V731.504H292.771V742H289.539ZM307.407 742V724.4H310.383V727.984H310.511C311.823 725.2 314.095 724.08 316.207 724.08C316.623 724.08 317.295 724.112 317.711 724.272V726.832C317.359 726.736 316.719 726.672 316.271 726.672C315.055 726.672 313.295 727.056 311.759 729.104C311.439 729.552 311.247 729.936 311.023 730.32C310.575 731.248 310.447 732.144 310.447 733.68V742H307.407ZM320.035 742V724.4H323.075V742H320.035ZM319.939 721.84V718.48H323.171V721.84H319.939ZM343.027 735.952C342.419 740.112 339.379 742.416 334.995 742.416C329.715 742.416 326.419 738.48 326.419 733.2C326.419 729.552 327.987 726.512 330.707 725.008C331.891 724.336 333.331 723.984 334.931 723.984C335.667 723.984 336.307 723.984 336.915 724.08C338.003 724.272 338.995 724.72 339.891 725.36C341.843 726.768 343.123 729.36 343.091 733.456H329.491C329.459 733.712 329.459 733.968 329.491 734.288C329.555 735.056 329.683 735.76 329.907 736.4C330.739 738.608 332.531 740.016 335.155 740.016C337.171 740.016 338.515 739.216 339.347 737.84C339.667 737.296 339.923 736.656 340.083 735.952H343.027ZM329.619 731.184H340.019C339.827 728.432 338.259 726.544 335.859 726.256C335.507 726.224 335.283 726.224 335.027 726.224C332.339 726.224 330.483 727.856 329.779 730.32C329.715 730.608 329.683 730.896 329.619 731.184ZM361.833 742H358.953V739.792H358.825C358.153 741.392 356.233 742.416 353.673 742.416C348.425 742.416 345.513 738.096 345.513 733.2C345.513 728.304 348.425 723.984 353.673 723.984C356.073 723.984 357.865 724.88 358.665 726.288H358.793V717.776H361.833V742ZM348.681 733.2C348.681 737.2 350.729 740.048 354.121 740.048C356.713 740.048 358.377 738.672 358.889 735.984C359.081 734.96 359.081 734.224 359.081 733.2C359.081 732.176 359.081 731.44 358.889 730.416C358.377 727.728 356.713 726.352 354.121 726.352C350.729 726.352 348.681 729.2 348.681 733.2ZM365.907 742V724.4H368.883V727.984H369.011C370.323 725.2 372.595 724.08 374.707 724.08C375.123 724.08 375.795 724.112 376.211 724.272V726.832C375.859 726.736 375.219 726.672 374.771 726.672C373.555 726.672 371.795 727.056 370.259 729.104C369.939 729.552 369.747 729.936 369.523 730.32C369.075 731.248 368.947 732.144 368.947 733.68V742H365.907ZM378.535 742V724.4H381.575V742H378.535ZM378.439 721.84V718.48H381.671V721.84H378.439ZM401.111 735.952C400.503 740.112 397.655 742.416 393.335 742.416C388.119 742.416 384.919 738.512 384.919 733.2C384.919 727.728 388.311 723.984 393.495 723.984C394.103 723.984 394.775 724.016 395.447 724.144C398.487 724.752 400.407 726.832 400.855 730.096H397.879C397.463 728.08 396.311 726.864 394.679 726.448C394.231 726.352 393.847 726.352 393.399 726.352C389.911 726.352 388.023 729.232 388.023 733.2C388.023 737.2 389.975 740.048 393.495 740.048C396.087 740.048 397.623 738.48 398.103 735.952H401.111ZM404.251 742V717.776H407.291V727.184H407.419C408.667 725.008 410.587 723.984 412.987 723.984C415.419 723.984 417.499 725.104 418.427 727.376C418.747 728.176 418.907 729.04 418.907 730.672V742H415.867V730.896C415.867 729.968 415.867 729.072 415.547 728.272C415.131 727.216 414.139 726.448 412.635 726.448C411.067 726.448 409.851 727.12 408.859 728.272C407.291 730.064 407.291 731.184 407.291 733.904V742H404.251ZM437.28 736.56C437.28 740.048 434.688 742.416 429.888 742.416C425.472 742.416 422.592 740.368 422.112 736.56H425.088C425.6 738.896 427.232 740.016 429.888 740.016C432.672 740.016 434.272 738.768 434.272 736.88C434.272 735.44 433.376 734.576 431.328 734.384L428.128 734.064C424.16 733.68 422.432 732.144 422.432 729.552C422.432 726.288 425.408 723.984 429.92 723.984C434.016 723.984 436.736 725.936 437.12 729.616H434.272C433.856 727.408 432.288 726.352 429.792 726.352C427.168 726.352 425.472 727.536 425.472 729.296C425.472 730.512 426.304 731.152 428.288 731.344L431.648 731.696C435.616 732.112 437.28 733.776 437.28 736.56ZM440.689 742V717.776H443.729V727.184H443.857C445.105 725.008 447.025 723.984 449.425 723.984C451.857 723.984 453.937 725.104 454.865 727.376C455.185 728.176 455.345 729.04 455.345 730.672V742H452.305V730.896C452.305 729.968 452.305 729.072 451.985 728.272C451.569 727.216 450.577 726.448 449.073 726.448C447.505 726.448 446.289 727.12 445.297 728.272C443.729 730.064 443.729 731.184 443.729 733.904V742H440.689ZM458.517 737.04C458.517 733.712 461.141 732.4 465.013 731.76C466.677 731.472 468.597 731.184 470.613 730.928L470.581 730.128C470.517 728.208 469.557 727.184 468.405 726.704C467.765 726.448 467.093 726.352 466.421 726.352C463.829 726.352 462.325 727.408 461.845 729.616H458.901C459.285 726.608 461.589 723.984 466.357 723.984C470.773 723.984 473.429 725.968 473.429 730.16V742H470.613V739.632H470.517C469.397 741.488 467.125 742.416 464.853 742.416C461.685 742.416 458.517 740.624 458.517 737.04ZM461.717 737.04C461.717 738.864 463.061 740.24 465.333 740.24C467.221 740.24 469.653 739.024 470.421 736.656C470.581 736.112 470.677 735.504 470.645 734.544L470.613 732.912C468.725 733.2 466.901 733.584 465.205 733.936C462.389 734.512 461.717 735.728 461.717 737.04ZM477.347 742V724.4H480.387V742H477.347ZM477.251 721.84V718.48H480.483V721.84H477.251ZM484.532 742V724.4H487.444V727.44H487.572C488.788 725.072 490.772 723.984 493.268 723.984C495.7 723.984 497.78 725.104 498.708 727.376C499.028 728.176 499.188 729.04 499.188 730.672V742H496.148V730.896C496.148 729.968 496.148 729.072 495.828 728.272C495.412 727.216 494.42 726.448 492.916 726.448C491.348 726.448 490.132 727.12 489.14 728.272C487.572 730.064 487.572 731.184 487.572 733.904V742H484.532Z" fill="black"/>
<path d="M186.447 103.264C188.303 102.432 189.967 101.184 190.991 99.776H193.775V124H190.799V103.84H190.671C189.263 105.024 187.951 105.728 186.447 106.24V103.264ZM198.018 107.52C198.306 104.544 199.266 102.496 200.93 101.152C202.306 100.032 204.194 99.36 206.402 99.36C211.234 99.36 214.274 101.984 214.274 106.336C214.274 109.568 212.834 111.552 209.25 113.408L207.33 114.4C203.522 116.384 201.762 118.272 201.41 121.184H214.53V124H198.05C198.05 118.048 200.162 114.912 205.09 112.384L207.266 111.264C210.018 109.856 210.946 108.48 210.946 106.432C210.946 103.584 209.154 101.92 206.626 101.92C203.554 101.92 201.698 103.904 201.186 107.52H198.018ZM224.9 124L233.732 99.776H237.892L246.724 124H243.46L240.836 116.736H230.788L228.164 124H224.9ZM231.748 114.08H239.876L236.772 105.44C236.292 104.096 236.1 103.52 235.876 102.752H235.748C235.524 103.52 235.332 104.096 234.852 105.44L231.748 114.08ZM249.157 124V106.4H252.069V109.44H252.197C253.381 107.072 255.333 105.984 257.765 105.984C259.269 105.984 260.741 106.464 261.797 107.392C262.405 107.936 262.821 108.608 263.237 109.632C264.485 107.136 266.565 105.984 269.189 105.984C270.693 105.984 272.165 106.464 273.221 107.392C273.829 107.936 274.245 108.608 274.597 109.408C274.885 110.176 275.045 111.04 275.045 112.672V124H272.005V112.896C272.005 111.968 272.005 111.072 271.685 110.336C271.269 109.216 270.341 108.448 268.869 108.448C267.365 108.448 266.117 109.12 265.157 110.272C263.621 112.064 263.621 113.184 263.621 115.904V124H260.581V112.896C260.581 111.968 260.581 111.072 260.261 110.336C259.845 109.216 258.917 108.448 257.445 108.448C255.909 108.448 254.693 109.12 253.733 110.272C252.197 112.064 252.197 113.184 252.197 115.904V124H249.157ZM286.993 115.584V112.768H308.273V115.584H286.993ZM319.54 103.264C321.396 102.432 323.06 101.184 324.084 99.776H326.868V124H323.892V103.84H323.764C322.356 105.024 321.044 105.728 319.54 106.24V103.264ZM339.859 124.416C333.651 124.416 330.899 118.528 330.899 111.872C330.899 105.152 333.683 99.36 339.827 99.36H339.859C346.035 99.36 348.787 105.248 348.787 111.872C348.787 118.624 346.003 124.416 339.859 124.416ZM334.195 111.872C334.195 118.336 336.403 121.856 339.859 121.856C343.315 121.856 345.523 118.336 345.523 111.872C345.523 105.44 343.315 101.92 339.859 101.92C336.403 101.92 334.195 105.44 334.195 111.872ZM361.32 124V99.776H369.448C371.464 99.776 373.224 99.936 374.568 100.448C377.192 101.472 378.728 103.872 378.728 107.104C378.728 110.432 377.192 112.768 374.632 113.76C373.224 114.304 371.464 114.464 369.128 114.464H364.552V124H361.32ZM364.552 111.936H369.256C370.536 111.936 371.4 111.936 372.52 111.616C374.184 111.136 375.368 109.696 375.368 107.168C375.368 104.576 374.184 103.168 372.424 102.656C371.4 102.368 370.536 102.336 369.576 102.336H364.552V111.936ZM381.969 124V106.4H384.881V109.44H385.009C386.193 107.072 388.145 105.984 390.577 105.984C392.081 105.984 393.553 106.464 394.609 107.392C395.217 107.936 395.633 108.608 396.049 109.632C397.297 107.136 399.377 105.984 402.001 105.984C403.505 105.984 404.977 106.464 406.033 107.392C406.641 107.936 407.057 108.608 407.409 109.408C407.697 110.176 407.857 111.04 407.857 112.672V124H404.817V112.896C404.817 111.968 404.817 111.072 404.497 110.336C404.081 109.216 403.153 108.448 401.681 108.448C400.177 108.448 398.929 109.12 397.969 110.272C396.433 112.064 396.433 113.184 396.433 115.904V124H393.393V112.896C393.393 111.968 393.393 111.072 393.073 110.336C392.657 109.216 391.729 108.448 390.257 108.448C388.721 108.448 387.505 109.12 386.545 110.272C385.009 112.064 385.009 113.184 385.009 115.904V124H381.969ZM248.618 143.264C250.475 142.432 252.139 141.184 253.163 139.776H255.947V164H252.971V143.84H252.843C251.435 145.024 250.123 145.728 248.618 146.24V143.264ZM267.881 139.36C274.121 139.36 276.553 144.512 276.553 151.04C276.553 158.496 273.865 164.416 267.241 164.416C263.177 164.416 260.585 161.984 260.233 157.824H263.241C263.721 160.512 265.001 161.824 267.529 161.824C271.529 161.824 273.577 157.44 273.641 152.192H273.481C272.265 154.688 270.089 155.872 267.465 155.872C263.433 155.872 259.881 152.8 259.881 147.84C259.881 142.816 263.305 139.36 267.881 139.36ZM263.049 147.744C263.049 151.52 265.481 153.44 267.785 153.44C270.345 153.44 272.777 151.52 272.777 147.712C272.777 144.288 270.793 141.792 267.881 141.792C265.161 141.792 263.049 144.256 263.049 147.744ZM294.654 164.416C289.566 164.416 287.134 160.736 287.07 155.456H290.302C290.462 159.232 291.71 161.792 294.782 161.792C298.078 161.792 298.942 159.296 298.942 155.616V139.776H302.174V155.552C302.174 161.376 299.742 164.416 294.654 164.416ZM320.916 146.4V164H318.004V160.96H317.876C316.66 163.328 314.676 164.416 312.18 164.416C309.748 164.416 307.668 163.296 306.74 161.024C306.42 160.224 306.26 159.36 306.26 157.728V146.4H309.3V157.504C309.3 158.432 309.3 159.328 309.62 160.128C310.036 161.184 311.028 161.952 312.532 161.952C314.1 161.952 315.316 161.28 316.308 160.128C317.876 158.336 317.876 157.216 317.876 154.496V146.4H320.916ZM324.986 164V139.776H328.058V164H324.986ZM330.638 146.496V146.4H333.806L339.054 159.744L343.726 146.4H346.798V146.528L338.254 169.6H335.246V169.472L337.454 163.328L330.638 146.496ZM147.336 204V179.776H155.752C158.376 179.776 159.656 179.84 161.096 180.32C163.496 181.12 164.936 183.072 164.936 185.568C164.936 188.288 163.176 190.432 160.52 190.848V190.976C163.56 191.488 165.672 193.568 165.672 196.864C165.672 200.128 164.104 202.368 161.256 203.392C159.944 203.872 158.216 204 155.688 204H147.336ZM150.568 201.408H155.592C157 201.408 158.216 201.344 159.176 201.12C161.16 200.64 162.28 199.232 162.28 197.056C162.28 194.816 161.224 193.376 159.368 192.928C158.184 192.64 157.256 192.608 156.232 192.608H150.568V201.408ZM150.568 190.016H155.176C156.84 190.016 157.672 189.984 158.664 189.76C160.552 189.312 161.608 188 161.608 186.048C161.608 184.256 160.808 183.072 159.176 182.624C158.216 182.368 156.936 182.336 155.176 182.336H150.568V190.016ZM177.135 204.416C171.887 204.416 168.591 200.48 168.591 195.2C168.591 189.92 171.887 185.984 177.135 185.984C182.383 185.984 185.679 189.92 185.679 195.2C185.679 200.48 182.383 204.416 177.135 204.416ZM171.791 195.2C171.791 199.168 173.615 202.048 177.135 202.048C180.655 202.048 182.479 199.168 182.479 195.2C182.479 191.264 180.655 188.352 177.135 188.352C173.615 188.352 171.791 191.264 171.791 195.2ZM186.322 204L192.85 194.912L186.77 186.4H190.258L194.642 193.12L198.994 186.4H202.322L196.402 194.688L203.058 204H199.57L194.61 196.416L189.65 204H186.322ZM205.582 204V186.4H208.622V204H205.582ZM205.486 183.84V180.48H208.718V183.84H205.486ZM221.586 204V179.776H230.002C232.626 179.776 233.906 179.84 235.346 180.32C237.746 181.12 239.186 183.072 239.186 185.568C239.186 188.288 237.426 190.432 234.77 190.848V190.976C237.81 191.488 239.922 193.568 239.922 196.864C239.922 200.128 238.354 202.368 235.506 203.392C234.194 203.872 232.466 204 229.938 204H221.586ZM224.818 201.408H229.842C231.25 201.408 232.466 201.344 233.426 201.12C235.41 200.64 236.53 199.232 236.53 197.056C236.53 194.816 235.474 193.376 233.618 192.928C232.434 192.64 231.506 192.608 230.482 192.608H224.818V201.408ZM224.818 190.016H229.426C231.09 190.016 231.922 189.984 232.914 189.76C234.802 189.312 235.858 188 235.858 186.048C235.858 184.256 235.058 183.072 233.426 182.624C232.466 182.368 231.186 182.336 229.426 182.336H224.818V190.016ZM243.033 199.04C243.033 195.712 245.657 194.4 249.529 193.76C251.193 193.472 253.113 193.184 255.129 192.928L255.097 192.128C255.033 190.208 254.073 189.184 252.921 188.704C252.281 188.448 251.609 188.352 250.937 188.352C248.345 188.352 246.841 189.408 246.361 191.616H243.417C243.801 188.608 246.105 185.984 250.873 185.984C255.289 185.984 257.945 187.968 257.945 192.16V204H255.129V201.632H255.033C253.913 203.488 251.641 204.416 249.369 204.416C246.201 204.416 243.033 202.624 243.033 199.04ZM246.233 199.04C246.233 200.864 247.577 202.24 249.849 202.24C251.737 202.24 254.169 201.024 254.937 198.656C255.097 198.112 255.193 197.504 255.161 196.544L255.129 194.912C253.241 195.2 251.417 195.584 249.721 195.936C246.905 196.512 246.233 197.728 246.233 199.04ZM277.127 197.952C276.519 202.112 273.671 204.416 269.351 204.416C264.135 204.416 260.935 200.512 260.935 195.2C260.935 189.728 264.327 185.984 269.511 185.984C270.119 185.984 270.791 186.016 271.463 186.144C274.503 186.752 276.423 188.832 276.871 192.096H273.895C273.479 190.08 272.327 188.864 270.695 188.448C270.247 188.352 269.863 188.352 269.415 188.352C265.927 188.352 264.039 191.232 264.039 195.2C264.039 199.2 265.991 202.048 269.511 202.048C272.103 202.048 273.639 200.48 274.119 197.952H277.127ZM280.267 204V179.776H283.243V194.144L290.603 186.4H294.123V186.56L287.595 193.184L294.731 203.84V204H291.467L285.547 194.752L283.243 197.056V204H280.267ZM295.607 186.496V186.4H298.775L304.023 199.744L308.695 186.4H311.767V186.528L303.223 209.6H300.215V209.472L302.423 203.328L295.607 186.496ZM313.002 199.04C313.002 195.712 315.626 194.4 319.498 193.76C321.162 193.472 323.082 193.184 325.098 192.928L325.066 192.128C325.002 190.208 324.042 189.184 322.89 188.704C322.25 188.448 321.578 188.352 320.906 188.352C318.314 188.352 316.81 189.408 316.33 191.616H313.386C313.77 188.608 316.074 185.984 320.842 185.984C325.258 185.984 327.914 187.968 327.914 192.16V204H325.098V201.632H325.002C323.882 203.488 321.61 204.416 319.338 204.416C316.17 204.416 313.002 202.624 313.002 199.04ZM316.202 199.04C316.202 200.864 317.546 202.24 319.818 202.24C321.706 202.24 324.138 201.024 324.906 198.656C325.066 198.112 325.162 197.504 325.13 196.544L325.098 194.912C323.21 195.2 321.386 195.584 319.69 195.936C316.874 196.512 316.202 197.728 316.202 199.04ZM331.704 204V186.4H334.68V189.984H334.808C336.12 187.2 338.392 186.08 340.504 186.08C340.92 186.08 341.592 186.112 342.008 186.272V188.832C341.656 188.736 341.016 188.672 340.568 188.672C339.352 188.672 337.592 189.056 336.056 191.104C335.736 191.552 335.544 191.936 335.32 192.32C334.872 193.248 334.744 194.144 334.744 195.68V204H331.704ZM359.067 204H356.187V201.792H356.059C355.387 203.392 353.467 204.416 350.907 204.416C345.659 204.416 342.747 200.096 342.747 195.2C342.747 190.304 345.659 185.984 350.907 185.984C353.307 185.984 355.099 186.88 355.899 188.288H356.027V179.776H359.067V204ZM345.915 195.2C345.915 199.2 347.963 202.048 351.355 202.048C353.947 202.048 355.611 200.672 356.123 197.984C356.315 196.96 356.315 196.224 356.315 195.2C356.315 194.176 356.315 193.44 356.123 192.416C355.611 189.728 353.947 188.352 351.355 188.352C347.963 188.352 345.915 191.2 345.915 195.2ZM371.961 204V179.776H380.089C382.105 179.776 383.865 179.936 385.209 180.448C387.833 181.472 389.369 183.872 389.369 187.104C389.369 190.432 387.833 192.768 385.273 193.76C383.865 194.304 382.105 194.464 379.769 194.464H375.193V204H371.961ZM375.193 191.936H379.897C381.177 191.936 382.041 191.936 383.161 191.616C384.825 191.136 386.009 189.696 386.009 187.168C386.009 184.576 384.825 183.168 383.065 182.656C382.041 182.368 381.177 182.336 380.217 182.336H375.193V191.936ZM391.689 199.04C391.689 195.712 394.313 194.4 398.185 193.76C399.849 193.472 401.769 193.184 403.785 192.928L403.753 192.128C403.689 190.208 402.729 189.184 401.577 188.704C400.937 188.448 400.265 188.352 399.593 188.352C397.001 188.352 395.497 189.408 395.017 191.616H392.073C392.457 188.608 394.761 185.984 399.529 185.984C403.945 185.984 406.601 187.968 406.601 192.16V204H403.785V201.632H403.689C402.569 203.488 400.297 204.416 398.025 204.416C394.857 204.416 391.689 202.624 391.689 199.04ZM394.889 199.04C394.889 200.864 396.233 202.24 398.505 202.24C400.393 202.24 402.825 201.024 403.593 198.656C403.753 198.112 403.849 197.504 403.817 196.544L403.785 194.912C401.897 195.2 400.073 195.584 398.377 195.936C395.561 196.512 394.889 197.728 394.889 199.04ZM410.391 204V186.4H413.367V189.984H413.495C414.807 187.2 417.079 186.08 419.191 186.08C419.607 186.08 420.279 186.112 420.695 186.272V188.832C420.343 188.736 419.703 188.672 419.255 188.672C418.039 188.672 416.279 189.056 414.743 191.104C414.423 191.552 414.231 191.936 414.007 192.32C413.559 193.248 413.431 194.144 413.431 195.68V204H410.391ZM424.885 200.896V188.672H422.549V186.4H424.885V182.08H427.893V186.4H431.765V188.672H427.893V200.128C427.893 201.984 429.077 202.304 430.645 202.304C431.093 202.304 431.477 202.272 431.765 202.24V204.224C431.029 204.384 430.165 204.48 429.301 204.48C427.093 204.48 424.885 203.776 424.885 200.896ZM433.2 186.496V186.4H436.368L441.616 199.744L446.288 186.4H449.36V186.528L440.816 209.6H437.808V209.472L440.016 203.328L433.2 186.496Z" fill="black"/>
</g>
<defs>
<clipPath id="clip0_439_13">
<rect width="595" height="842" fill="white"/>
</clipPath>
</defs>
</svg>
