<svg width="1080" height="1080" viewBox="0 0 1080 1080" fill="none" xmlns="http://www.w3.org/2000/svg">
<rect width="1080" height="1080" fill="white"/>
<path d="M500.209 491.672C500.209 492.632 500.315 493.571 500.529 494.488C500.763 495.384 501.126 496.195 501.617 496.92C502.107 497.645 502.747 498.232 503.537 498.68C504.326 499.107 505.286 499.32 506.417 499.32C507.547 499.32 508.507 499.107 509.297 498.68C510.086 498.232 510.726 497.645 511.217 496.92C511.707 496.195 512.059 495.384 512.273 494.488C512.507 493.571 512.625 492.632 512.625 491.672C512.625 490.669 512.507 489.699 512.273 488.76C512.059 487.821 511.707 486.989 511.217 486.264C510.726 485.517 510.086 484.931 509.297 484.504C508.507 484.056 507.547 483.832 506.417 483.832C505.286 483.832 504.326 484.056 503.537 484.504C502.747 484.931 502.107 485.517 501.617 486.264C501.126 486.989 500.763 487.821 500.529 488.76C500.315 489.699 500.209 490.669 500.209 491.672ZM495.185 491.672C495.185 489.965 495.441 488.387 495.953 486.936C496.465 485.464 497.201 484.184 498.161 483.096C499.121 482.008 500.294 481.155 501.681 480.536C503.089 479.917 504.667 479.608 506.417 479.608C508.187 479.608 509.766 479.917 511.153 480.536C512.539 481.155 513.713 482.008 514.673 483.096C515.633 484.184 516.369 485.464 516.881 486.936C517.393 488.387 517.649 489.965 517.649 491.672C517.649 493.336 517.393 494.893 516.881 496.344C516.369 497.773 515.633 499.021 514.673 500.088C513.713 501.155 512.539 501.997 511.153 502.616C509.766 503.213 508.187 503.512 506.417 503.512C504.667 503.512 503.089 503.213 501.681 502.616C500.294 501.997 499.121 501.155 498.161 500.088C497.201 499.021 496.465 497.773 495.953 496.344C495.441 494.893 495.185 493.336 495.185 491.672ZM521.019 480.152H525.563V492.408L531.291 486.456H536.667L530.427 492.536L537.371 503H531.867L527.323 495.608L525.563 497.304V503H521.019V480.152ZM538.978 486.456H543.298V489.528H543.362C543.575 489.016 543.863 488.547 544.226 488.12C544.589 487.672 545.005 487.299 545.474 487C545.943 486.68 546.445 486.435 546.978 486.264C547.511 486.093 548.066 486.008 548.642 486.008C548.941 486.008 549.271 486.061 549.634 486.168V490.392C549.421 490.349 549.165 490.317 548.866 490.296C548.567 490.253 548.279 490.232 548.002 490.232C547.17 490.232 546.466 490.371 545.89 490.648C545.314 490.925 544.845 491.309 544.482 491.8C544.141 492.269 543.895 492.824 543.746 493.464C543.597 494.104 543.522 494.797 543.522 495.544V503H538.978V486.456ZM551.224 491.544C551.288 490.477 551.554 489.592 552.024 488.888C552.493 488.184 553.09 487.619 553.816 487.192C554.541 486.765 555.352 486.467 556.248 486.296C557.165 486.104 558.082 486.008 559 486.008C559.832 486.008 560.674 486.072 561.528 486.2C562.381 486.307 563.16 486.531 563.864 486.872C564.568 487.213 565.144 487.693 565.592 488.312C566.04 488.909 566.264 489.709 566.264 490.712V499.32C566.264 500.067 566.306 500.781 566.392 501.464C566.477 502.147 566.626 502.659 566.84 503H562.232C562.146 502.744 562.072 502.488 562.008 502.232C561.965 501.955 561.933 501.677 561.912 501.4C561.186 502.147 560.333 502.669 559.352 502.968C558.37 503.267 557.368 503.416 556.344 503.416C555.554 503.416 554.818 503.32 554.136 503.128C553.453 502.936 552.856 502.637 552.344 502.232C551.832 501.827 551.426 501.315 551.128 500.696C550.85 500.077 550.712 499.341 550.712 498.488C550.712 497.549 550.872 496.781 551.192 496.184C551.533 495.565 551.96 495.075 552.472 494.712C553.005 494.349 553.602 494.083 554.264 493.912C554.946 493.72 555.629 493.571 556.312 493.464C556.994 493.357 557.666 493.272 558.328 493.208C558.989 493.144 559.576 493.048 560.088 492.92C560.6 492.792 561.005 492.611 561.304 492.376C561.602 492.12 561.741 491.757 561.72 491.288C561.72 490.797 561.634 490.413 561.464 490.136C561.314 489.837 561.101 489.613 560.824 489.464C560.568 489.293 560.258 489.187 559.896 489.144C559.554 489.08 559.181 489.048 558.776 489.048C557.88 489.048 557.176 489.24 556.664 489.624C556.152 490.008 555.853 490.648 555.768 491.544H551.224ZM561.72 494.904C561.528 495.075 561.282 495.213 560.984 495.32C560.706 495.405 560.397 495.48 560.056 495.544C559.736 495.608 559.394 495.661 559.032 495.704C558.669 495.747 558.306 495.8 557.944 495.864C557.602 495.928 557.261 496.013 556.92 496.12C556.6 496.227 556.312 496.376 556.056 496.568C555.821 496.739 555.629 496.963 555.48 497.24C555.33 497.517 555.256 497.869 555.256 498.296C555.256 498.701 555.33 499.043 555.48 499.32C555.629 499.597 555.832 499.821 556.088 499.992C556.344 500.141 556.642 500.248 556.984 500.312C557.325 500.376 557.677 500.408 558.04 500.408C558.936 500.408 559.629 500.259 560.12 499.96C560.61 499.661 560.973 499.309 561.208 498.904C561.442 498.477 561.581 498.051 561.624 497.624C561.688 497.197 561.72 496.856 561.72 496.6V494.904ZM569.791 486.456H574.111V488.76H574.207C574.783 487.8 575.529 487.107 576.447 486.68C577.364 486.232 578.303 486.008 579.263 486.008C580.479 486.008 581.471 486.179 582.239 486.52C583.028 486.84 583.647 487.299 584.095 487.896C584.543 488.472 584.852 489.187 585.023 490.04C585.215 490.872 585.311 491.8 585.311 492.824V503H580.767V493.656C580.767 492.291 580.553 491.277 580.127 490.616C579.7 489.933 578.943 489.592 577.855 489.592C576.617 489.592 575.721 489.965 575.167 490.712C574.612 491.437 574.335 492.643 574.335 494.328V503H569.791V486.456ZM437.943 523.672C437.943 524.632 438.05 525.571 438.263 526.488C438.498 527.384 438.86 528.195 439.351 528.92C439.842 529.645 440.482 530.232 441.271 530.68C442.06 531.107 443.02 531.32 444.151 531.32C445.282 531.32 446.242 531.107 447.031 530.68C447.82 530.232 448.46 529.645 448.951 528.92C449.442 528.195 449.794 527.384 450.007 526.488C450.242 525.571 450.359 524.632 450.359 523.672C450.359 522.669 450.242 521.699 450.007 520.76C449.794 519.821 449.442 518.989 448.951 518.264C448.46 517.517 447.82 516.931 447.031 516.504C446.242 516.056 445.282 515.832 444.151 515.832C443.02 515.832 442.06 516.056 441.271 516.504C440.482 516.931 439.842 517.517 439.351 518.264C438.86 518.989 438.498 519.821 438.263 520.76C438.05 521.699 437.943 522.669 437.943 523.672ZM432.919 523.672C432.919 521.965 433.175 520.387 433.687 518.936C434.199 517.464 434.935 516.184 435.895 515.096C436.855 514.008 438.028 513.155 439.415 512.536C440.823 511.917 442.402 511.608 444.151 511.608C445.922 511.608 447.5 511.917 448.887 512.536C450.274 513.155 451.447 514.008 452.407 515.096C453.367 516.184 454.103 517.464 454.615 518.936C455.127 520.387 455.383 521.965 455.383 523.672C455.383 525.336 455.127 526.893 454.615 528.344C454.103 529.773 453.367 531.021 452.407 532.088C451.447 533.155 450.274 533.997 448.887 534.616C447.5 535.213 445.922 535.512 444.151 535.512C442.402 535.512 440.823 535.213 439.415 534.616C438.028 533.997 436.855 533.155 435.895 532.088C434.935 531.021 434.199 529.773 433.687 528.344C433.175 526.893 432.919 525.336 432.919 523.672ZM458.465 512.152H463.009V535H458.465V512.152ZM477.723 524.952C477.51 523.8 477.126 522.925 476.571 522.328C476.038 521.731 475.217 521.432 474.107 521.432C473.382 521.432 472.774 521.56 472.283 521.816C471.814 522.051 471.43 522.349 471.131 522.712C470.854 523.075 470.651 523.459 470.523 523.864C470.417 524.269 470.353 524.632 470.331 524.952H477.723ZM470.331 527.832C470.395 529.304 470.769 530.371 471.451 531.032C472.134 531.693 473.115 532.024 474.395 532.024C475.313 532.024 476.102 531.8 476.763 531.352C477.425 530.883 477.83 530.392 477.979 529.88H481.979C481.339 531.864 480.358 533.283 479.035 534.136C477.713 534.989 476.113 535.416 474.235 535.416C472.934 535.416 471.761 535.213 470.715 534.808C469.67 534.381 468.785 533.784 468.059 533.016C467.334 532.248 466.769 531.331 466.363 530.264C465.979 529.197 465.787 528.024 465.787 526.744C465.787 525.507 465.99 524.355 466.395 523.288C466.801 522.221 467.377 521.304 468.123 520.536C468.87 519.747 469.755 519.128 470.779 518.68C471.825 518.232 472.977 518.008 474.235 518.008C475.643 518.008 476.87 518.285 477.915 518.84C478.961 519.373 479.814 520.099 480.475 521.016C481.158 521.933 481.649 522.979 481.947 524.152C482.246 525.325 482.353 526.552 482.267 527.832H470.331ZM492.674 531.096C493.314 531.096 493.88 530.968 494.37 530.712C494.861 530.456 495.266 530.115 495.586 529.688C495.906 529.261 496.141 528.781 496.29 528.248C496.461 527.693 496.546 527.117 496.546 526.52C496.546 525.837 496.482 525.197 496.354 524.6C496.226 523.981 496.013 523.437 495.714 522.968C495.416 522.499 495.021 522.125 494.53 521.848C494.04 521.571 493.421 521.432 492.674 521.432C492.034 521.432 491.48 521.56 491.01 521.816C490.562 522.072 490.178 522.424 489.858 522.872C489.56 523.299 489.336 523.8 489.186 524.376C489.058 524.931 488.994 525.517 488.994 526.136C488.994 526.733 489.048 527.331 489.154 527.928C489.282 528.504 489.485 529.027 489.762 529.496C490.061 529.965 490.445 530.349 490.914 530.648C491.384 530.947 491.97 531.096 492.674 531.096ZM500.866 533.944C500.866 534.605 500.77 535.363 500.578 536.216C500.408 537.069 500.024 537.859 499.426 538.584C498.829 539.331 497.965 539.96 496.834 540.472C495.704 540.984 494.189 541.24 492.29 541.24C491.48 541.24 490.648 541.133 489.794 540.92C488.962 540.728 488.194 540.419 487.49 539.992C486.808 539.565 486.232 539.011 485.762 538.328C485.314 537.667 485.058 536.867 484.994 535.928H489.506C489.72 536.781 490.136 537.368 490.754 537.688C491.373 538.029 492.088 538.2 492.898 538.2C494.178 538.2 495.106 537.816 495.682 537.048C496.28 536.28 496.568 535.309 496.546 534.136V531.96H496.482C495.992 532.835 495.288 533.485 494.37 533.912C493.474 534.317 492.525 534.52 491.522 534.52C490.285 534.52 489.218 534.307 488.322 533.88C487.426 533.432 486.69 532.835 486.114 532.088C485.538 531.32 485.112 530.435 484.834 529.432C484.578 528.408 484.45 527.331 484.45 526.2C484.45 525.133 484.6 524.109 484.898 523.128C485.218 522.125 485.677 521.251 486.274 520.504C486.872 519.736 487.608 519.128 488.482 518.68C489.378 518.232 490.402 518.008 491.554 518.008C492.642 518.008 493.592 518.211 494.402 518.616C495.234 519.021 495.928 519.704 496.482 520.664H496.546V518.456H500.866V533.944ZM517.335 527.416C517.335 528.184 517.474 528.835 517.751 529.368C518.028 529.901 518.391 530.339 518.839 530.68C519.308 531 519.852 531.245 520.471 531.416C521.09 531.565 521.73 531.64 522.391 531.64C522.839 531.64 523.319 531.608 523.831 531.544C524.343 531.459 524.823 531.309 525.271 531.096C525.719 530.883 526.092 530.595 526.391 530.232C526.69 529.848 526.839 529.368 526.839 528.792C526.839 528.173 526.636 527.672 526.231 527.288C525.847 526.904 525.335 526.584 524.695 526.328C524.055 526.072 523.33 525.848 522.519 525.656C521.708 525.464 520.887 525.251 520.055 525.016C519.202 524.803 518.37 524.547 517.559 524.248C516.748 523.928 516.023 523.523 515.383 523.032C514.743 522.541 514.22 521.933 513.815 521.208C513.431 520.461 513.239 519.565 513.239 518.52C513.239 517.347 513.484 516.333 513.975 515.48C514.487 514.605 515.148 513.88 515.959 513.304C516.77 512.728 517.687 512.301 518.711 512.024C519.735 511.747 520.759 511.608 521.783 511.608C522.978 511.608 524.119 511.747 525.207 512.024C526.316 512.28 527.298 512.707 528.151 513.304C529.004 513.901 529.676 514.669 530.167 515.608C530.679 516.525 530.935 517.645 530.935 518.968H526.071C526.028 518.285 525.879 517.72 525.623 517.272C525.388 516.824 525.068 516.472 524.663 516.216C524.258 515.96 523.788 515.779 523.255 515.672C522.743 515.565 522.178 515.512 521.559 515.512C521.154 515.512 520.748 515.555 520.343 515.64C519.938 515.725 519.564 515.875 519.223 516.088C518.903 516.301 518.636 516.568 518.423 516.888C518.21 517.208 518.103 517.613 518.103 518.104C518.103 518.552 518.188 518.915 518.359 519.192C518.53 519.469 518.86 519.725 519.351 519.96C519.863 520.195 520.556 520.429 521.431 520.664C522.327 520.899 523.49 521.197 524.919 521.56C525.346 521.645 525.932 521.805 526.679 522.04C527.447 522.253 528.204 522.605 528.951 523.096C529.698 523.587 530.338 524.248 530.871 525.08C531.426 525.891 531.703 526.936 531.703 528.216C531.703 529.261 531.5 530.232 531.095 531.128C530.69 532.024 530.082 532.803 529.271 533.464C528.482 534.104 527.49 534.605 526.295 534.968C525.122 535.331 523.756 535.512 522.199 535.512C520.94 535.512 519.714 535.352 518.519 535.032C517.346 534.733 516.3 534.253 515.383 533.592C514.487 532.931 513.772 532.088 513.239 531.064C512.706 530.04 512.45 528.824 512.471 527.416H517.335ZM538.244 526.744C538.244 527.405 538.308 528.056 538.436 528.696C538.564 529.315 538.778 529.88 539.076 530.392C539.396 530.883 539.812 531.277 540.324 531.576C540.836 531.875 541.476 532.024 542.244 532.024C543.012 532.024 543.652 531.875 544.164 531.576C544.698 531.277 545.114 530.883 545.412 530.392C545.732 529.88 545.956 529.315 546.084 528.696C546.212 528.056 546.276 527.405 546.276 526.744C546.276 526.083 546.212 525.432 546.084 524.792C545.956 524.152 545.732 523.587 545.412 523.096C545.114 522.605 544.698 522.211 544.164 521.912C543.652 521.592 543.012 521.432 542.244 521.432C541.476 521.432 540.836 521.592 540.324 521.912C539.812 522.211 539.396 522.605 539.076 523.096C538.778 523.587 538.564 524.152 538.436 524.792C538.308 525.432 538.244 526.083 538.244 526.744ZM533.7 526.744C533.7 525.421 533.903 524.227 534.308 523.16C534.714 522.072 535.29 521.155 536.036 520.408C536.783 519.64 537.679 519.053 538.724 518.648C539.77 518.221 540.943 518.008 542.244 518.008C543.546 518.008 544.719 518.221 545.764 518.648C546.831 519.053 547.738 519.64 548.484 520.408C549.231 521.155 549.807 522.072 550.212 523.16C550.618 524.227 550.82 525.421 550.82 526.744C550.82 528.067 550.618 529.261 550.212 530.328C549.807 531.395 549.231 532.312 548.484 533.08C547.738 533.827 546.831 534.403 545.764 534.808C544.719 535.213 543.546 535.416 542.244 535.416C540.943 535.416 539.77 535.213 538.724 534.808C537.679 534.403 536.783 533.827 536.036 533.08C535.29 532.312 534.714 531.395 534.308 530.328C533.903 529.261 533.7 528.067 533.7 526.744ZM554.767 521.496H552.047V518.456H554.767V517.176C554.767 515.704 555.226 514.499 556.143 513.56C557.06 512.621 558.447 512.152 560.303 512.152C560.708 512.152 561.114 512.173 561.519 512.216C561.924 512.237 562.319 512.259 562.703 512.28V515.672C562.17 515.608 561.615 515.576 561.039 515.576C560.42 515.576 559.972 515.725 559.695 516.024C559.439 516.301 559.311 516.781 559.311 517.464V518.456H562.447V521.496H559.311V535H554.767V521.496ZM564.431 518.456H568.751V521.528H568.815C569.028 521.016 569.316 520.547 569.679 520.12C570.042 519.672 570.458 519.299 570.927 519C571.396 518.68 571.898 518.435 572.431 518.264C572.964 518.093 573.519 518.008 574.095 518.008C574.394 518.008 574.724 518.061 575.087 518.168V522.392C574.874 522.349 574.618 522.317 574.319 522.296C574.02 522.253 573.732 522.232 573.455 522.232C572.623 522.232 571.919 522.371 571.343 522.648C570.767 522.925 570.298 523.309 569.935 523.8C569.594 524.269 569.348 524.824 569.199 525.464C569.05 526.104 568.975 526.797 568.975 527.544V535H564.431V518.456ZM580.338 526.744C580.338 527.405 580.402 528.056 580.53 528.696C580.658 529.315 580.871 529.88 581.17 530.392C581.49 530.883 581.906 531.277 582.418 531.576C582.93 531.875 583.57 532.024 584.338 532.024C585.106 532.024 585.746 531.875 586.258 531.576C586.791 531.277 587.207 530.883 587.506 530.392C587.826 529.88 588.05 529.315 588.178 528.696C588.306 528.056 588.37 527.405 588.37 526.744C588.37 526.083 588.306 525.432 588.178 524.792C588.05 524.152 587.826 523.587 587.506 523.096C587.207 522.605 586.791 522.211 586.258 521.912C585.746 521.592 585.106 521.432 584.338 521.432C583.57 521.432 582.93 521.592 582.418 521.912C581.906 522.211 581.49 522.605 581.17 523.096C580.871 523.587 580.658 524.152 580.53 524.792C580.402 525.432 580.338 526.083 580.338 526.744ZM575.794 526.744C575.794 525.421 575.997 524.227 576.402 523.16C576.807 522.072 577.383 521.155 578.13 520.408C578.877 519.64 579.773 519.053 580.818 518.648C581.863 518.221 583.037 518.008 584.338 518.008C585.639 518.008 586.813 518.221 587.858 518.648C588.925 519.053 589.831 519.64 590.578 520.408C591.325 521.155 591.901 522.072 592.306 523.16C592.711 524.227 592.914 525.421 592.914 526.744C592.914 528.067 592.711 529.261 592.306 530.328C591.901 531.395 591.325 532.312 590.578 533.08C589.831 533.827 588.925 534.403 587.858 534.808C586.813 535.213 585.639 535.416 584.338 535.416C583.037 535.416 581.863 535.213 580.818 534.808C579.773 534.403 578.877 533.827 578.13 533.08C577.383 532.312 576.807 531.395 576.402 530.328C575.997 529.261 575.794 528.067 575.794 526.744ZM595.869 518.456H600.189V520.76H600.285C600.861 519.8 601.607 519.107 602.525 518.68C603.442 518.232 604.381 518.008 605.341 518.008C606.557 518.008 607.549 518.179 608.317 518.52C609.106 518.84 609.725 519.299 610.173 519.896C610.621 520.472 610.93 521.187 611.101 522.04C611.293 522.872 611.389 523.8 611.389 524.824V535H606.845V525.656C606.845 524.291 606.631 523.277 606.205 522.616C605.778 521.933 605.021 521.592 603.933 521.592C602.695 521.592 601.799 521.965 601.245 522.712C600.69 523.437 600.413 524.643 600.413 526.328V535H595.869V518.456ZM618.869 526.744C618.869 527.405 618.933 528.056 619.061 528.696C619.189 529.315 619.403 529.88 619.701 530.392C620.021 530.883 620.437 531.277 620.949 531.576C621.461 531.875 622.101 532.024 622.869 532.024C623.637 532.024 624.277 531.875 624.789 531.576C625.323 531.277 625.739 530.883 626.037 530.392C626.357 529.88 626.581 529.315 626.709 528.696C626.837 528.056 626.901 527.405 626.901 526.744C626.901 526.083 626.837 525.432 626.709 524.792C626.581 524.152 626.357 523.587 626.037 523.096C625.739 522.605 625.323 522.211 624.789 521.912C624.277 521.592 623.637 521.432 622.869 521.432C622.101 521.432 621.461 521.592 620.949 521.912C620.437 522.211 620.021 522.605 619.701 523.096C619.403 523.587 619.189 524.152 619.061 524.792C618.933 525.432 618.869 526.083 618.869 526.744ZM614.325 526.744C614.325 525.421 614.528 524.227 614.933 523.16C615.339 522.072 615.915 521.155 616.661 520.408C617.408 519.64 618.304 519.053 619.349 518.648C620.395 518.221 621.568 518.008 622.869 518.008C624.171 518.008 625.344 518.221 626.389 518.648C627.456 519.053 628.363 519.64 629.109 520.408C629.856 521.155 630.432 522.072 630.837 523.16C631.243 524.227 631.445 525.421 631.445 526.744C631.445 528.067 631.243 529.261 630.837 530.328C630.432 531.395 629.856 532.312 629.109 533.08C628.363 533.827 627.456 534.403 626.389 534.808C625.344 535.213 624.171 535.416 622.869 535.416C621.568 535.416 620.395 535.213 619.349 534.808C618.304 534.403 617.408 533.827 616.661 533.08C615.915 532.312 615.339 531.395 614.933 530.328C614.528 529.261 614.325 528.067 614.325 526.744ZM643.552 535H638.496L632.832 518.456H637.6L641.088 529.752H641.152L644.64 518.456H649.152L643.552 535ZM451.716 562.776H456.196C456.922 562.776 457.626 562.659 458.308 562.424C458.991 562.189 459.599 561.805 460.132 561.272C460.666 560.717 461.092 560.003 461.412 559.128C461.732 558.253 461.892 557.187 461.892 555.928C461.892 554.776 461.775 553.741 461.54 552.824C461.327 551.885 460.964 551.085 460.452 550.424C459.94 549.763 459.258 549.261 458.404 548.92C457.572 548.557 456.538 548.376 455.3 548.376H451.716V562.776ZM446.692 544.152H456.548C458.02 544.152 459.386 544.387 460.644 544.856C461.924 545.325 463.023 546.029 463.94 546.968C464.879 547.907 465.604 549.08 466.116 550.488C466.65 551.896 466.916 553.549 466.916 555.448C466.916 557.112 466.703 558.648 466.276 560.056C465.85 561.464 465.199 562.68 464.324 563.704C463.471 564.728 462.394 565.539 461.092 566.136C459.812 566.712 458.298 567 456.548 567H446.692V544.152ZM483.787 559.8C483.787 560.547 483.712 561.368 483.563 562.264C483.414 563.16 483.072 564.003 482.539 564.792C482.006 565.56 481.238 566.211 480.235 566.744C479.232 567.256 477.878 567.512 476.171 567.512C475.211 567.512 474.283 567.373 473.387 567.096C472.491 566.84 471.691 566.435 470.987 565.88C470.283 565.304 469.718 564.579 469.291 563.704C468.864 562.808 468.651 561.731 468.651 560.472V558.488H473.195V559.512C473.195 560.067 473.238 560.579 473.323 561.048C473.408 561.517 473.558 561.923 473.771 562.264C473.984 562.584 474.272 562.84 474.635 563.032C475.019 563.224 475.51 563.32 476.107 563.32C476.768 563.32 477.28 563.203 477.643 562.968C478.006 562.733 478.262 562.435 478.411 562.072C478.582 561.688 478.678 561.283 478.699 560.856C478.742 560.408 478.763 559.981 478.763 559.576V544.152H483.787V559.8ZM501.131 555.672C501.131 556.632 501.237 557.571 501.451 558.488C501.685 559.384 502.048 560.195 502.539 560.92C503.029 561.645 503.669 562.232 504.459 562.68C505.248 563.107 506.208 563.32 507.339 563.32C508.469 563.32 509.429 563.107 510.219 562.68C511.008 562.232 511.648 561.645 512.139 560.92C512.629 560.195 512.981 559.384 513.195 558.488C513.429 557.571 513.547 556.632 513.547 555.672C513.547 554.669 513.429 553.699 513.195 552.76C512.981 551.821 512.629 550.989 512.139 550.264C511.648 549.517 511.008 548.931 510.219 548.504C509.429 548.056 508.469 547.832 507.339 547.832C506.208 547.832 505.248 548.056 504.459 548.504C503.669 548.931 503.029 549.517 502.539 550.264C502.048 550.989 501.685 551.821 501.451 552.76C501.237 553.699 501.131 554.669 501.131 555.672ZM496.107 555.672C496.107 553.965 496.363 552.387 496.875 550.936C497.387 549.464 498.123 548.184 499.083 547.096C500.043 546.008 501.216 545.155 502.603 544.536C504.011 543.917 505.589 543.608 507.339 543.608C509.109 543.608 510.688 543.917 512.075 544.536C513.461 545.155 514.635 546.008 515.595 547.096C516.555 548.184 517.291 549.464 517.803 550.936C518.315 552.387 518.571 553.965 518.571 555.672C518.571 557.336 518.315 558.893 517.803 560.344C517.291 561.773 516.555 563.021 515.595 564.088C514.635 565.155 513.461 565.997 512.075 566.616C510.688 567.213 509.109 567.512 507.339 567.512C505.589 567.512 504.011 567.213 502.603 566.616C501.216 565.997 500.043 565.155 499.083 564.088C498.123 563.021 497.387 561.773 496.875 560.344C496.363 558.893 496.107 557.336 496.107 555.672ZM521.653 544.152H526.197V567H521.653V544.152ZM540.911 556.952C540.698 555.8 540.314 554.925 539.759 554.328C539.226 553.731 538.404 553.432 537.295 553.432C536.57 553.432 535.962 553.56 535.471 553.816C535.002 554.051 534.618 554.349 534.319 554.712C534.042 555.075 533.839 555.459 533.711 555.864C533.604 556.269 533.54 556.632 533.519 556.952H540.911ZM533.519 559.832C533.583 561.304 533.956 562.371 534.639 563.032C535.322 563.693 536.303 564.024 537.583 564.024C538.5 564.024 539.29 563.8 539.951 563.352C540.612 562.883 541.018 562.392 541.167 561.88H545.167C544.527 563.864 543.546 565.283 542.223 566.136C540.9 566.989 539.3 567.416 537.423 567.416C536.122 567.416 534.948 567.213 533.903 566.808C532.858 566.381 531.972 565.784 531.247 565.016C530.522 564.248 529.956 563.331 529.551 562.264C529.167 561.197 528.975 560.024 528.975 558.744C528.975 557.507 529.178 556.355 529.583 555.288C529.988 554.221 530.564 553.304 531.311 552.536C532.058 551.747 532.943 551.128 533.967 550.68C535.012 550.232 536.164 550.008 537.423 550.008C538.831 550.008 540.058 550.285 541.103 550.84C542.148 551.373 543.002 552.099 543.663 553.016C544.346 553.933 544.836 554.979 545.135 556.152C545.434 557.325 545.54 558.552 545.455 559.832H533.519ZM555.862 563.096C556.502 563.096 557.067 562.968 557.558 562.712C558.049 562.456 558.454 562.115 558.774 561.688C559.094 561.261 559.329 560.781 559.478 560.248C559.649 559.693 559.734 559.117 559.734 558.52C559.734 557.837 559.67 557.197 559.542 556.6C559.414 555.981 559.201 555.437 558.902 554.968C558.603 554.499 558.209 554.125 557.718 553.848C557.227 553.571 556.609 553.432 555.862 553.432C555.222 553.432 554.667 553.56 554.198 553.816C553.75 554.072 553.366 554.424 553.046 554.872C552.747 555.299 552.523 555.8 552.374 556.376C552.246 556.931 552.182 557.517 552.182 558.136C552.182 558.733 552.235 559.331 552.342 559.928C552.47 560.504 552.673 561.027 552.95 561.496C553.249 561.965 553.633 562.349 554.102 562.648C554.571 562.947 555.158 563.096 555.862 563.096ZM564.054 565.944C564.054 566.605 563.958 567.363 563.766 568.216C563.595 569.069 563.211 569.859 562.614 570.584C562.017 571.331 561.153 571.96 560.022 572.472C558.891 572.984 557.377 573.24 555.478 573.24C554.667 573.24 553.835 573.133 552.982 572.92C552.15 572.728 551.382 572.419 550.678 571.992C549.995 571.565 549.419 571.011 548.95 570.328C548.502 569.667 548.246 568.867 548.182 567.928H552.694C552.907 568.781 553.323 569.368 553.942 569.688C554.561 570.029 555.275 570.2 556.086 570.2C557.366 570.2 558.294 569.816 558.87 569.048C559.467 568.28 559.755 567.309 559.734 566.136V563.96H559.67C559.179 564.835 558.475 565.485 557.558 565.912C556.662 566.317 555.713 566.52 554.71 566.52C553.473 566.52 552.406 566.307 551.51 565.88C550.614 565.432 549.878 564.835 549.302 564.088C548.726 563.32 548.299 562.435 548.022 561.432C547.766 560.408 547.638 559.331 547.638 558.2C547.638 557.133 547.787 556.109 548.086 555.128C548.406 554.125 548.865 553.251 549.462 552.504C550.059 551.736 550.795 551.128 551.67 550.68C552.566 550.232 553.59 550.008 554.742 550.008C555.83 550.008 556.779 550.211 557.59 550.616C558.422 551.021 559.115 551.704 559.67 552.664H559.734V550.456H564.054V565.944ZM567.52 555.544C567.584 554.477 567.851 553.592 568.32 552.888C568.79 552.184 569.387 551.619 570.112 551.192C570.838 550.765 571.648 550.467 572.544 550.296C573.462 550.104 574.379 550.008 575.296 550.008C576.128 550.008 576.971 550.072 577.824 550.2C578.678 550.307 579.456 550.531 580.16 550.872C580.864 551.213 581.44 551.693 581.888 552.312C582.336 552.909 582.56 553.709 582.56 554.712V563.32C582.56 564.067 582.603 564.781 582.688 565.464C582.774 566.147 582.923 566.659 583.136 567H578.528C578.443 566.744 578.368 566.488 578.304 566.232C578.262 565.955 578.23 565.677 578.208 565.4C577.483 566.147 576.63 566.669 575.648 566.968C574.667 567.267 573.664 567.416 572.64 567.416C571.851 567.416 571.115 567.32 570.432 567.128C569.75 566.936 569.152 566.637 568.64 566.232C568.128 565.827 567.723 565.315 567.424 564.696C567.147 564.077 567.008 563.341 567.008 562.488C567.008 561.549 567.168 560.781 567.488 560.184C567.83 559.565 568.256 559.075 568.768 558.712C569.302 558.349 569.899 558.083 570.56 557.912C571.243 557.72 571.926 557.571 572.608 557.464C573.291 557.357 573.963 557.272 574.624 557.208C575.286 557.144 575.872 557.048 576.384 556.92C576.896 556.792 577.302 556.611 577.6 556.376C577.899 556.12 578.038 555.757 578.016 555.288C578.016 554.797 577.931 554.413 577.76 554.136C577.611 553.837 577.398 553.613 577.12 553.464C576.864 553.293 576.555 553.187 576.192 553.144C575.851 553.08 575.478 553.048 575.072 553.048C574.176 553.048 573.472 553.24 572.96 553.624C572.448 554.008 572.15 554.648 572.064 555.544H567.52ZM578.016 558.904C577.824 559.075 577.579 559.213 577.28 559.32C577.003 559.405 576.694 559.48 576.352 559.544C576.032 559.608 575.691 559.661 575.328 559.704C574.966 559.747 574.603 559.8 574.24 559.864C573.899 559.928 573.558 560.013 573.216 560.12C572.896 560.227 572.608 560.376 572.352 560.568C572.118 560.739 571.926 560.963 571.776 561.24C571.627 561.517 571.552 561.869 571.552 562.296C571.552 562.701 571.627 563.043 571.776 563.32C571.926 563.597 572.128 563.821 572.384 563.992C572.64 564.141 572.939 564.248 573.28 564.312C573.622 564.376 573.974 564.408 574.336 564.408C575.232 564.408 575.926 564.259 576.416 563.96C576.907 563.661 577.27 563.309 577.504 562.904C577.739 562.477 577.878 562.051 577.92 561.624C577.984 561.197 578.016 560.856 578.016 560.6V558.904ZM591.847 550.456H595.175V553.496H591.847V561.688C591.847 562.456 591.975 562.968 592.231 563.224C592.487 563.48 592.999 563.608 593.767 563.608C594.023 563.608 594.269 563.597 594.503 563.576C594.738 563.555 594.962 563.523 595.175 563.48V567C594.791 567.064 594.365 567.107 593.895 567.128C593.426 567.149 592.967 567.16 592.519 567.16C591.815 567.16 591.143 567.107 590.503 567C589.885 566.915 589.33 566.733 588.839 566.456C588.37 566.179 587.997 565.784 587.719 565.272C587.442 564.76 587.303 564.088 587.303 563.256V553.496H584.551V550.456H587.303V545.496H591.847V550.456ZM601.369 558.744C601.369 559.405 601.433 560.056 601.561 560.696C601.689 561.315 601.903 561.88 602.201 562.392C602.521 562.883 602.937 563.277 603.449 563.576C603.961 563.875 604.601 564.024 605.369 564.024C606.137 564.024 606.777 563.875 607.289 563.576C607.823 563.277 608.239 562.883 608.537 562.392C608.857 561.88 609.081 561.315 609.209 560.696C609.337 560.056 609.401 559.405 609.401 558.744C609.401 558.083 609.337 557.432 609.209 556.792C609.081 556.152 608.857 555.587 608.537 555.096C608.239 554.605 607.823 554.211 607.289 553.912C606.777 553.592 606.137 553.432 605.369 553.432C604.601 553.432 603.961 553.592 603.449 553.912C602.937 554.211 602.521 554.605 602.201 555.096C601.903 555.587 601.689 556.152 601.561 556.792C601.433 557.432 601.369 558.083 601.369 558.744ZM596.825 558.744C596.825 557.421 597.028 556.227 597.433 555.16C597.839 554.072 598.415 553.155 599.161 552.408C599.908 551.64 600.804 551.053 601.849 550.648C602.895 550.221 604.068 550.008 605.369 550.008C606.671 550.008 607.844 550.221 608.889 550.648C609.956 551.053 610.863 551.64 611.609 552.408C612.356 553.155 612.932 554.072 613.337 555.16C613.743 556.227 613.945 557.421 613.945 558.744C613.945 560.067 613.743 561.261 613.337 562.328C612.932 563.395 612.356 564.312 611.609 565.08C610.863 565.827 609.956 566.403 608.889 566.808C607.844 567.213 606.671 567.416 605.369 567.416C604.068 567.416 602.895 567.213 601.849 566.808C600.804 566.403 599.908 565.827 599.161 565.08C598.415 564.312 597.839 563.395 597.433 562.328C597.028 561.261 596.825 560.067 596.825 558.744ZM616.9 550.456H621.22V553.528H621.284C621.497 553.016 621.785 552.547 622.148 552.12C622.511 551.672 622.927 551.299 623.396 551C623.865 550.68 624.367 550.435 624.9 550.264C625.433 550.093 625.988 550.008 626.564 550.008C626.863 550.008 627.193 550.061 627.556 550.168V554.392C627.343 554.349 627.087 554.317 626.788 554.296C626.489 554.253 626.201 554.232 625.924 554.232C625.092 554.232 624.388 554.371 623.812 554.648C623.236 554.925 622.767 555.309 622.404 555.8C622.063 556.269 621.817 556.824 621.668 557.464C621.519 558.104 621.444 558.797 621.444 559.544V567H616.9V550.456ZM488.802 576.152H493.826V585.624L502.754 576.152H509.026L500.098 585.176L509.89 599H503.586L496.706 588.728L493.826 591.64V599H488.802V576.152ZM515.448 590.744C515.448 591.405 515.512 592.056 515.64 592.696C515.768 593.315 515.981 593.88 516.28 594.392C516.6 594.883 517.016 595.277 517.528 595.576C518.04 595.875 518.68 596.024 519.448 596.024C520.216 596.024 520.856 595.875 521.368 595.576C521.901 595.277 522.317 594.883 522.616 594.392C522.936 593.88 523.16 593.315 523.288 592.696C523.416 592.056 523.48 591.405 523.48 590.744C523.48 590.083 523.416 589.432 523.288 588.792C523.16 588.152 522.936 587.587 522.616 587.096C522.317 586.605 521.901 586.211 521.368 585.912C520.856 585.592 520.216 585.432 519.448 585.432C518.68 585.432 518.04 585.592 517.528 585.912C517.016 586.211 516.6 586.605 516.28 587.096C515.981 587.587 515.768 588.152 515.64 588.792C515.512 589.432 515.448 590.083 515.448 590.744ZM510.904 590.744C510.904 589.421 511.106 588.227 511.512 587.16C511.917 586.072 512.493 585.155 513.24 584.408C513.986 583.64 514.882 583.053 515.928 582.648C516.973 582.221 518.146 582.008 519.448 582.008C520.749 582.008 521.922 582.221 522.968 582.648C524.034 583.053 524.941 583.64 525.688 584.408C526.434 585.155 527.01 586.072 527.416 587.16C527.821 588.227 528.024 589.421 528.024 590.744C528.024 592.067 527.821 593.261 527.416 594.328C527.01 595.395 526.434 596.312 525.688 597.08C524.941 597.827 524.034 598.403 522.968 598.808C521.922 599.213 520.749 599.416 519.448 599.416C518.146 599.416 516.973 599.213 515.928 598.808C514.882 598.403 513.986 597.827 513.24 597.08C512.493 596.312 511.917 595.395 511.512 594.328C511.106 593.261 510.904 592.067 510.904 590.744ZM531.106 576.152H535.65V599H531.106V576.152ZM543.26 590.744C543.26 591.405 543.324 592.056 543.452 592.696C543.58 593.315 543.793 593.88 544.092 594.392C544.412 594.883 544.828 595.277 545.34 595.576C545.852 595.875 546.492 596.024 547.26 596.024C548.028 596.024 548.668 595.875 549.18 595.576C549.713 595.277 550.129 594.883 550.428 594.392C550.748 593.88 550.972 593.315 551.1 592.696C551.228 592.056 551.292 591.405 551.292 590.744C551.292 590.083 551.228 589.432 551.1 588.792C550.972 588.152 550.748 587.587 550.428 587.096C550.129 586.605 549.713 586.211 549.18 585.912C548.668 585.592 548.028 585.432 547.26 585.432C546.492 585.432 545.852 585.592 545.34 585.912C544.828 586.211 544.412 586.605 544.092 587.096C543.793 587.587 543.58 588.152 543.452 588.792C543.324 589.432 543.26 590.083 543.26 590.744ZM538.716 590.744C538.716 589.421 538.919 588.227 539.324 587.16C539.729 586.072 540.305 585.155 541.052 584.408C541.799 583.64 542.695 583.053 543.74 582.648C544.785 582.221 545.959 582.008 547.26 582.008C548.561 582.008 549.735 582.221 550.78 582.648C551.847 583.053 552.753 583.64 553.5 584.408C554.247 585.155 554.823 586.072 555.228 587.16C555.633 588.227 555.836 589.421 555.836 590.744C555.836 592.067 555.633 593.261 555.228 594.328C554.823 595.395 554.247 596.312 553.5 597.08C552.753 597.827 551.847 598.403 550.78 598.808C549.735 599.213 548.561 599.416 547.26 599.416C545.959 599.416 544.785 599.213 543.74 598.808C542.695 598.403 541.799 597.827 541.052 597.08C540.305 596.312 539.729 595.395 539.324 594.328C538.919 593.261 538.716 592.067 538.716 590.744ZM558.599 587.544C558.663 586.477 558.929 585.592 559.399 584.888C559.868 584.184 560.465 583.619 561.191 583.192C561.916 582.765 562.727 582.467 563.623 582.296C564.54 582.104 565.457 582.008 566.375 582.008C567.207 582.008 568.049 582.072 568.903 582.2C569.756 582.307 570.535 582.531 571.239 582.872C571.943 583.213 572.519 583.693 572.967 584.312C573.415 584.909 573.639 585.709 573.639 586.712V595.32C573.639 596.067 573.681 596.781 573.767 597.464C573.852 598.147 574.001 598.659 574.215 599H569.607C569.521 598.744 569.447 598.488 569.383 598.232C569.34 597.955 569.308 597.677 569.287 597.4C568.561 598.147 567.708 598.669 566.727 598.968C565.745 599.267 564.743 599.416 563.719 599.416C562.929 599.416 562.193 599.32 561.511 599.128C560.828 598.936 560.231 598.637 559.719 598.232C559.207 597.827 558.801 597.315 558.503 596.696C558.225 596.077 558.087 595.341 558.087 594.488C558.087 593.549 558.247 592.781 558.567 592.184C558.908 591.565 559.335 591.075 559.847 590.712C560.38 590.349 560.977 590.083 561.639 589.912C562.321 589.72 563.004 589.571 563.687 589.464C564.369 589.357 565.041 589.272 565.703 589.208C566.364 589.144 566.951 589.048 567.463 588.92C567.975 588.792 568.38 588.611 568.679 588.376C568.977 588.12 569.116 587.757 569.095 587.288C569.095 586.797 569.009 586.413 568.839 586.136C568.689 585.837 568.476 585.613 568.199 585.464C567.943 585.293 567.633 585.187 567.271 585.144C566.929 585.08 566.556 585.048 566.151 585.048C565.255 585.048 564.551 585.24 564.039 585.624C563.527 586.008 563.228 586.648 563.143 587.544H558.599ZM569.095 590.904C568.903 591.075 568.657 591.213 568.359 591.32C568.081 591.405 567.772 591.48 567.431 591.544C567.111 591.608 566.769 591.661 566.407 591.704C566.044 591.747 565.681 591.8 565.319 591.864C564.977 591.928 564.636 592.013 564.295 592.12C563.975 592.227 563.687 592.376 563.431 592.568C563.196 592.739 563.004 592.963 562.855 593.24C562.705 593.517 562.631 593.869 562.631 594.296C562.631 594.701 562.705 595.043 562.855 595.32C563.004 595.597 563.207 595.821 563.463 595.992C563.719 596.141 564.017 596.248 564.359 596.312C564.7 596.376 565.052 596.408 565.415 596.408C566.311 596.408 567.004 596.259 567.495 595.96C567.985 595.661 568.348 595.309 568.583 594.904C568.817 594.477 568.956 594.051 568.999 593.624C569.063 593.197 569.095 592.856 569.095 592.6V590.904ZM577.166 576.152H581.71V584.76H581.806C582.382 583.8 583.118 583.107 584.014 582.68C584.91 582.232 585.784 582.008 586.638 582.008C587.854 582.008 588.846 582.179 589.614 582.52C590.403 582.84 591.022 583.299 591.47 583.896C591.918 584.472 592.227 585.187 592.398 586.04C592.59 586.872 592.686 587.8 592.686 588.824V599H588.142V589.656C588.142 588.291 587.928 587.277 587.502 586.616C587.075 585.933 586.318 585.592 585.23 585.592C583.992 585.592 583.096 585.965 582.542 586.712C581.987 587.437 581.71 588.643 581.71 590.328V599H577.166V576.152Z" fill="black"/>
<path d="M158.78 755.25H163.55C164.39 755.25 165.08 755.05 165.62 754.65C166.16 754.25 166.43 753.6 166.43 752.7C166.43 752.2 166.34 751.79 166.16 751.47C165.98 751.15 165.74 750.9 165.44 750.72C165.14 750.54 164.79 750.42 164.39 750.36C164.01 750.28 163.61 750.24 163.19 750.24H158.78V755.25ZM154.07 746.58H164.15C165.17 746.58 166.1 746.67 166.94 746.85C167.78 747.03 168.5 747.33 169.1 747.75C169.7 748.15 170.16 748.69 170.48 749.37C170.82 750.05 170.99 750.89 170.99 751.89C170.99 752.97 170.74 753.87 170.24 754.59C169.76 755.31 169.04 755.9 168.08 756.36C169.4 756.74 170.38 757.41 171.02 758.37C171.68 759.31 172.01 760.45 172.01 761.79C172.01 762.87 171.8 763.81 171.38 764.61C170.96 765.39 170.39 766.03 169.67 766.53C168.97 767.03 168.16 767.4 167.24 767.64C166.34 767.88 165.41 768 164.45 768H154.07V746.58ZM158.78 764.34H163.82C164.28 764.34 164.72 764.3 165.14 764.22C165.56 764.12 165.93 763.97 166.25 763.77C166.57 763.55 166.82 763.26 167 762.9C167.2 762.54 167.3 762.08 167.3 761.52C167.3 760.42 166.99 759.64 166.37 759.18C165.75 758.7 164.93 758.46 163.91 758.46H158.78V764.34ZM178.523 760.26C178.523 760.88 178.583 761.49 178.703 762.09C178.823 762.67 179.023 763.2 179.303 763.68C179.603 764.14 179.993 764.51 180.473 764.79C180.953 765.07 181.553 765.21 182.273 765.21C182.993 765.21 183.593 765.07 184.073 764.79C184.573 764.51 184.963 764.14 185.243 763.68C185.543 763.2 185.753 762.67 185.873 762.09C185.993 761.49 186.053 760.88 186.053 760.26C186.053 759.64 185.993 759.03 185.873 758.43C185.753 757.83 185.543 757.3 185.243 756.84C184.963 756.38 184.573 756.01 184.073 755.73C183.593 755.43 182.993 755.28 182.273 755.28C181.553 755.28 180.953 755.43 180.473 755.73C179.993 756.01 179.603 756.38 179.303 756.84C179.023 757.3 178.823 757.83 178.703 758.43C178.583 759.03 178.523 759.64 178.523 760.26ZM174.263 760.26C174.263 759.02 174.453 757.9 174.833 756.9C175.213 755.88 175.753 755.02 176.453 754.32C177.153 753.6 177.993 753.05 178.973 752.67C179.953 752.27 181.053 752.07 182.273 752.07C183.493 752.07 184.593 752.27 185.573 752.67C186.573 753.05 187.423 753.6 188.123 754.32C188.823 755.02 189.363 755.88 189.743 756.9C190.123 757.9 190.313 759.02 190.313 760.26C190.313 761.5 190.123 762.62 189.743 763.62C189.363 764.62 188.823 765.48 188.123 766.2C187.423 766.9 186.573 767.44 185.573 767.82C184.593 768.2 183.493 768.39 182.273 768.39C181.053 768.39 179.953 768.2 178.973 767.82C177.993 767.44 177.153 766.9 176.453 766.2C175.753 765.48 175.213 764.62 174.833 763.62C174.453 762.62 174.263 761.5 174.263 760.26ZM197.043 759.84L191.943 752.49H196.803L199.533 756.54L202.233 752.49H206.943L201.843 759.75L207.573 768H202.713L199.473 763.11L196.233 768H191.463L197.043 759.84ZM209.196 746.58H213.456V754.65H213.546C214.086 753.75 214.776 753.1 215.616 752.7C216.456 752.28 217.276 752.07 218.076 752.07C219.216 752.07 220.146 752.23 220.866 752.55C221.606 752.85 222.186 753.28 222.606 753.84C223.026 754.38 223.316 755.05 223.476 755.85C223.656 756.63 223.746 757.5 223.746 758.46V768H219.486V759.24C219.486 757.96 219.286 757.01 218.886 756.39C218.486 755.75 217.776 755.43 216.756 755.43C215.596 755.43 214.756 755.78 214.236 756.48C213.716 757.16 213.456 758.29 213.456 759.87V768H209.196V746.58ZM226.799 757.26C226.859 756.26 227.109 755.43 227.549 754.77C227.989 754.11 228.549 753.58 229.229 753.18C229.909 752.78 230.669 752.5 231.509 752.34C232.369 752.16 233.229 752.07 234.089 752.07C234.869 752.07 235.659 752.13 236.459 752.25C237.259 752.35 237.989 752.56 238.649 752.88C239.309 753.2 239.849 753.65 240.269 754.23C240.689 754.79 240.899 755.54 240.899 756.48V764.55C240.899 765.25 240.939 765.92 241.019 766.56C241.099 767.2 241.239 767.68 241.439 768H237.119C237.039 767.76 236.969 767.52 236.909 767.28C236.869 767.02 236.839 766.76 236.819 766.5C236.139 767.2 235.339 767.69 234.419 767.97C233.499 768.25 232.559 768.39 231.599 768.39C230.859 768.39 230.169 768.3 229.529 768.12C228.889 767.94 228.329 767.66 227.849 767.28C227.369 766.9 226.989 766.42 226.709 765.84C226.449 765.26 226.319 764.57 226.319 763.77C226.319 762.89 226.469 762.17 226.769 761.61C227.089 761.03 227.489 760.57 227.969 760.23C228.469 759.89 229.029 759.64 229.649 759.48C230.289 759.3 230.929 759.16 231.569 759.06C232.209 758.96 232.839 758.88 233.459 758.82C234.079 758.76 234.629 758.67 235.109 758.55C235.589 758.43 235.969 758.26 236.249 758.04C236.529 757.8 236.659 757.46 236.639 757.02C236.639 756.56 236.559 756.2 236.399 755.94C236.259 755.66 236.059 755.45 235.799 755.31C235.559 755.15 235.269 755.05 234.929 755.01C234.609 754.95 234.259 754.92 233.879 754.92C233.039 754.92 232.379 755.1 231.899 755.46C231.419 755.82 231.139 756.42 231.059 757.26H226.799ZM236.639 760.41C236.459 760.57 236.229 760.7 235.949 760.8C235.689 760.88 235.399 760.95 235.079 761.01C234.779 761.07 234.459 761.12 234.119 761.16C233.779 761.2 233.439 761.25 233.099 761.31C232.779 761.37 232.459 761.45 232.139 761.55C231.839 761.65 231.569 761.79 231.329 761.97C231.109 762.13 230.929 762.34 230.789 762.6C230.649 762.86 230.579 763.19 230.579 763.59C230.579 763.97 230.649 764.29 230.789 764.55C230.929 764.81 231.119 765.02 231.359 765.18C231.599 765.32 231.879 765.42 232.199 765.48C232.519 765.54 232.849 765.57 233.189 765.57C234.029 765.57 234.679 765.43 235.139 765.15C235.599 764.87 235.939 764.54 236.159 764.16C236.379 763.76 236.509 763.36 236.549 762.96C236.609 762.56 236.639 762.24 236.639 762V760.41ZM251.436 764.34C252.036 764.34 252.566 764.22 253.026 763.98C253.486 763.74 253.866 763.42 254.166 763.02C254.466 762.62 254.686 762.17 254.826 761.67C254.986 761.15 255.066 760.61 255.066 760.05C255.066 759.41 255.006 758.81 254.886 758.25C254.766 757.67 254.566 757.16 254.286 756.72C254.006 756.28 253.636 755.93 253.176 755.67C252.716 755.41 252.136 755.28 251.436 755.28C250.836 755.28 250.316 755.4 249.876 755.64C249.456 755.88 249.096 756.21 248.796 756.63C248.516 757.03 248.306 757.5 248.166 758.04C248.046 758.56 247.986 759.11 247.986 759.69C247.986 760.25 248.036 760.81 248.136 761.37C248.256 761.91 248.446 762.4 248.706 762.84C248.986 763.28 249.346 763.64 249.786 763.92C250.226 764.2 250.776 764.34 251.436 764.34ZM259.116 767.01C259.116 767.63 259.026 768.34 258.846 769.14C258.686 769.94 258.326 770.68 257.766 771.36C257.206 772.06 256.396 772.65 255.336 773.13C254.276 773.61 252.856 773.85 251.076 773.85C250.316 773.85 249.536 773.75 248.736 773.55C247.956 773.37 247.236 773.08 246.576 772.68C245.936 772.28 245.396 771.76 244.956 771.12C244.536 770.5 244.296 769.75 244.236 768.87H248.466C248.666 769.67 249.056 770.22 249.636 770.52C250.216 770.84 250.886 771 251.646 771C252.846 771 253.716 770.64 254.256 769.92C254.816 769.2 255.086 768.29 255.066 767.19V765.15H255.006C254.546 765.97 253.886 766.58 253.026 766.98C252.186 767.36 251.296 767.55 250.356 767.55C249.196 767.55 248.196 767.35 247.356 766.95C246.516 766.53 245.826 765.97 245.286 765.27C244.746 764.55 244.346 763.72 244.086 762.78C243.846 761.82 243.726 760.81 243.726 759.75C243.726 758.75 243.866 757.79 244.146 756.87C244.446 755.93 244.876 755.11 245.436 754.41C245.996 753.69 246.686 753.12 247.506 752.7C248.346 752.28 249.306 752.07 250.386 752.07C251.406 752.07 252.296 752.26 253.056 752.64C253.836 753.02 254.486 753.66 255.006 754.56H255.066V752.49H259.116V767.01ZM272.986 758.58C272.786 757.5 272.426 756.68 271.906 756.12C271.406 755.56 270.636 755.28 269.596 755.28C268.916 755.28 268.346 755.4 267.886 755.64C267.446 755.86 267.086 756.14 266.806 756.48C266.546 756.82 266.356 757.18 266.236 757.56C266.136 757.94 266.076 758.28 266.056 758.58H272.986ZM266.056 761.28C266.116 762.66 266.466 763.66 267.106 764.28C267.746 764.9 268.666 765.21 269.866 765.21C270.726 765.21 271.466 765 272.086 764.58C272.706 764.14 273.086 763.68 273.226 763.2H276.976C276.376 765.06 275.456 766.39 274.216 767.19C272.976 767.99 271.476 768.39 269.716 768.39C268.496 768.39 267.396 768.2 266.416 767.82C265.436 767.42 264.606 766.86 263.926 766.14C263.246 765.42 262.716 764.56 262.336 763.56C261.976 762.56 261.796 761.46 261.796 760.26C261.796 759.1 261.986 758.02 262.366 757.02C262.746 756.02 263.286 755.16 263.986 754.44C264.686 753.7 265.516 753.12 266.476 752.7C267.456 752.28 268.536 752.07 269.716 752.07C271.036 752.07 272.186 752.33 273.166 752.85C274.146 753.35 274.946 754.03 275.566 754.89C276.206 755.75 276.666 756.73 276.946 757.83C277.226 758.93 277.326 760.08 277.246 761.28H266.056ZM279.772 752.49H283.822V754.65H283.912C284.452 753.75 285.152 753.1 286.012 752.7C286.872 752.28 287.752 752.07 288.652 752.07C289.792 752.07 290.722 752.23 291.442 752.55C292.182 752.85 292.762 753.28 293.182 753.84C293.602 754.38 293.892 755.05 294.052 755.85C294.232 756.63 294.322 757.5 294.322 758.46V768H290.062V759.24C290.062 757.96 289.862 757.01 289.462 756.39C289.062 755.75 288.352 755.43 287.332 755.43C286.172 755.43 285.332 755.78 284.812 756.48C284.292 757.16 284.032 758.29 284.032 759.87V768H279.772V752.49ZM307.996 758.58C307.796 757.5 307.436 756.68 306.916 756.12C306.416 755.56 305.646 755.28 304.606 755.28C303.926 755.28 303.356 755.4 302.896 755.64C302.456 755.86 302.096 756.14 301.816 756.48C301.556 756.82 301.366 757.18 301.246 757.56C301.146 757.94 301.086 758.28 301.066 758.58H307.996ZM301.066 761.28C301.126 762.66 301.476 763.66 302.116 764.28C302.756 764.9 303.676 765.21 304.876 765.21C305.736 765.21 306.476 765 307.096 764.58C307.716 764.14 308.096 763.68 308.236 763.2H311.986C311.386 765.06 310.466 766.39 309.226 767.19C307.986 767.99 306.486 768.39 304.726 768.39C303.506 768.39 302.406 768.2 301.426 767.82C300.446 767.42 299.616 766.86 298.936 766.14C298.256 765.42 297.726 764.56 297.346 763.56C296.986 762.56 296.806 761.46 296.806 760.26C296.806 759.1 296.996 758.02 297.376 757.02C297.756 756.02 298.296 755.16 298.996 754.44C299.696 753.7 300.526 753.12 301.486 752.7C302.466 752.28 303.546 752.07 304.726 752.07C306.046 752.07 307.196 752.33 308.176 752.85C309.156 753.35 309.956 754.03 310.576 754.89C311.216 755.75 311.676 756.73 311.956 757.83C312.236 758.93 312.336 760.08 312.256 761.28H301.066ZM314.782 752.49H318.832V755.37H318.892C319.092 754.89 319.362 754.45 319.702 754.05C320.042 753.63 320.432 753.28 320.872 753C321.312 752.7 321.782 752.47 322.282 752.31C322.782 752.15 323.302 752.07 323.842 752.07C324.122 752.07 324.432 752.12 324.772 752.22V756.18C324.572 756.14 324.332 756.11 324.052 756.09C323.772 756.05 323.502 756.03 323.242 756.03C322.462 756.03 321.802 756.16 321.262 756.42C320.722 756.68 320.282 757.04 319.942 757.5C319.622 757.94 319.392 758.46 319.252 759.06C319.112 759.66 319.042 760.31 319.042 761.01V768H314.782V752.49ZM338.452 760.89C338.452 761.61 338.582 762.22 338.842 762.72C339.102 763.22 339.442 763.63 339.862 763.95C340.302 764.25 340.812 764.48 341.392 764.64C341.972 764.78 342.572 764.85 343.192 764.85C343.612 764.85 344.062 764.82 344.542 764.76C345.022 764.68 345.472 764.54 345.892 764.34C346.312 764.14 346.662 763.87 346.942 763.53C347.222 763.17 347.362 762.72 347.362 762.18C347.362 761.6 347.172 761.13 346.792 760.77C346.432 760.41 345.952 760.11 345.352 759.87C344.752 759.63 344.072 759.42 343.312 759.24C342.552 759.06 341.782 758.86 341.002 758.64C340.202 758.44 339.422 758.2 338.662 757.92C337.902 757.62 337.222 757.24 336.622 756.78C336.022 756.32 335.532 755.75 335.152 755.07C334.792 754.37 334.612 753.53 334.612 752.55C334.612 751.45 334.842 750.5 335.302 749.7C335.782 748.88 336.402 748.2 337.162 747.66C337.922 747.12 338.782 746.72 339.742 746.46C340.702 746.2 341.662 746.07 342.622 746.07C343.742 746.07 344.812 746.2 345.832 746.46C346.872 746.7 347.792 747.1 348.592 747.66C349.392 748.22 350.022 748.94 350.482 749.82C350.962 750.68 351.202 751.73 351.202 752.97H346.642C346.602 752.33 346.462 751.8 346.222 751.38C346.002 750.96 345.702 750.63 345.322 750.39C344.942 750.15 344.502 749.98 344.002 749.88C343.522 749.78 342.992 749.73 342.412 749.73C342.032 749.73 341.652 749.77 341.272 749.85C340.892 749.93 340.542 750.07 340.222 750.27C339.922 750.47 339.672 750.72 339.472 751.02C339.272 751.32 339.172 751.7 339.172 752.16C339.172 752.58 339.252 752.92 339.412 753.18C339.572 753.44 339.882 753.68 340.342 753.9C340.822 754.12 341.472 754.34 342.292 754.56C343.132 754.78 344.222 755.06 345.562 755.4C345.962 755.48 346.512 755.63 347.212 755.85C347.932 756.05 348.642 756.38 349.342 756.84C350.042 757.3 350.642 757.92 351.142 758.7C351.662 759.46 351.922 760.44 351.922 761.64C351.922 762.62 351.732 763.53 351.352 764.37C350.972 765.21 350.402 765.94 349.642 766.56C348.902 767.16 347.972 767.63 346.852 767.97C345.752 768.31 344.472 768.48 343.012 768.48C341.832 768.48 340.682 768.33 339.562 768.03C338.462 767.75 337.482 767.3 336.622 766.68C335.782 766.06 335.112 765.27 334.612 764.31C334.112 763.35 333.872 762.21 333.892 760.89H338.452ZM359.674 752.49H362.794V755.34H359.674V763.02C359.674 763.74 359.794 764.22 360.034 764.46C360.274 764.7 360.754 764.82 361.474 764.82C361.714 764.82 361.944 764.81 362.164 764.79C362.384 764.77 362.594 764.74 362.794 764.7V768C362.434 768.06 362.034 768.1 361.594 768.12C361.154 768.14 360.724 768.15 360.304 768.15C359.644 768.15 359.014 768.1 358.414 768C357.834 767.92 357.314 767.75 356.854 767.49C356.414 767.23 356.064 766.86 355.804 766.38C355.544 765.9 355.414 765.27 355.414 764.49V755.34H352.834V752.49H355.414V747.84H359.674V752.49ZM364.821 752.49H368.871V755.37H368.931C369.131 754.89 369.401 754.45 369.741 754.05C370.081 753.63 370.471 753.28 370.911 753C371.351 752.7 371.821 752.47 372.321 752.31C372.821 752.15 373.341 752.07 373.881 752.07C374.161 752.07 374.471 752.12 374.811 752.22V756.18C374.611 756.14 374.371 756.11 374.091 756.09C373.811 756.05 373.541 756.03 373.281 756.03C372.501 756.03 371.841 756.16 371.301 756.42C370.761 756.68 370.321 757.04 369.981 757.5C369.661 757.94 369.431 758.46 369.291 759.06C369.151 759.66 369.081 760.31 369.081 761.01V768H364.821V752.49ZM373.907 763.38H378.617V768H373.907V763.38ZM392.217 768H387.957V754.38H382.677V751.17C383.417 751.19 384.127 751.14 384.807 751.02C385.507 750.88 386.127 750.65 386.667 750.33C387.227 749.99 387.697 749.55 388.077 749.01C388.457 748.47 388.707 747.8 388.827 747H392.217V768ZM402.287 752.7C402.287 753.6 402.607 754.29 403.247 754.77C403.887 755.23 404.637 755.46 405.497 755.46C406.397 755.46 407.147 755.23 407.747 754.77C408.347 754.29 408.647 753.6 408.647 752.7C408.647 752.42 408.607 752.12 408.527 751.8C408.447 751.46 408.287 751.14 408.047 750.84C407.827 750.54 407.507 750.29 407.087 750.09C406.687 749.89 406.157 749.79 405.497 749.79C405.077 749.79 404.667 749.86 404.267 750C403.887 750.12 403.547 750.3 403.247 750.54C402.947 750.78 402.707 751.08 402.527 751.44C402.367 751.8 402.287 752.22 402.287 752.7ZM398.417 752.31C398.417 751.37 398.627 750.54 399.047 749.82C399.467 749.1 400.007 748.5 400.667 748.02C401.347 747.54 402.107 747.18 402.947 746.94C403.787 746.7 404.637 746.58 405.497 746.58C406.797 746.58 407.897 746.78 408.797 747.18C409.697 747.58 410.417 748.07 410.957 748.65C411.517 749.21 411.917 749.82 412.157 750.48C412.397 751.12 412.517 751.7 412.517 752.22C412.517 753.26 412.257 754.17 411.737 754.95C411.237 755.73 410.477 756.29 409.457 756.63V756.69C410.717 756.97 411.687 757.57 412.367 758.49C413.047 759.39 413.387 760.5 413.387 761.82C413.387 762.94 413.157 763.91 412.697 764.73C412.257 765.55 411.667 766.23 410.927 766.77C410.187 767.31 409.347 767.72 408.407 768C407.467 768.26 406.507 768.39 405.527 768.39C404.507 768.39 403.517 768.26 402.557 768C401.617 767.76 400.767 767.37 400.007 766.83C399.267 766.29 398.667 765.61 398.207 764.79C397.767 763.97 397.547 762.99 397.547 761.85C397.547 760.51 397.887 759.39 398.567 758.49C399.267 757.59 400.247 756.99 401.507 756.69V756.63C400.487 756.35 399.717 755.82 399.197 755.04C398.677 754.26 398.417 753.35 398.417 752.31ZM401.807 761.64C401.807 762.18 401.907 762.67 402.107 763.11C402.307 763.55 402.567 763.93 402.887 764.25C403.227 764.55 403.627 764.79 404.087 764.97C404.547 765.13 405.027 765.21 405.527 765.21C406.047 765.21 406.517 765.13 406.937 764.97C407.377 764.79 407.757 764.55 408.077 764.25C408.417 763.93 408.677 763.55 408.857 763.11C409.037 762.67 409.127 762.19 409.127 761.67C409.127 761.17 409.027 760.72 408.827 760.32C408.647 759.9 408.387 759.54 408.047 759.24C407.727 758.94 407.347 758.71 406.907 758.55C406.487 758.39 406.027 758.31 405.527 758.31C404.487 758.31 403.607 758.6 402.887 759.18C402.167 759.74 401.807 760.56 401.807 761.64ZM415.627 763.38H420.337V768C420.337 768.68 420.207 769.3 419.947 769.86C419.707 770.44 419.377 770.94 418.957 771.36C418.537 771.78 418.037 772.12 417.457 772.38C416.897 772.66 416.297 772.85 415.657 772.95V770.79C415.957 770.73 416.237 770.61 416.497 770.43C416.777 770.25 417.017 770.03 417.217 769.77C417.417 769.53 417.567 769.25 417.667 768.93C417.767 768.63 417.807 768.32 417.787 768H415.627V763.38ZM442.256 768H437.996V754.38H432.716V751.17C433.456 751.19 434.166 751.14 434.846 751.02C435.546 750.88 436.166 750.65 436.706 750.33C437.266 749.99 437.736 749.55 438.116 749.01C438.496 748.47 438.746 747.8 438.866 747H442.256V768ZM452.056 757.41C452.056 758.01 452.076 758.74 452.116 759.6C452.156 760.44 452.276 761.26 452.476 762.06C452.696 762.84 453.036 763.51 453.496 764.07C453.956 764.63 454.616 764.91 455.476 764.91C456.356 764.91 457.026 764.63 457.486 764.07C457.966 763.51 458.306 762.84 458.506 762.06C458.726 761.26 458.856 760.44 458.896 759.6C458.936 758.74 458.956 758.01 458.956 757.41C458.956 757.05 458.946 756.62 458.926 756.12C458.926 755.6 458.886 755.07 458.806 754.53C458.746 753.99 458.646 753.46 458.506 752.94C458.386 752.4 458.196 751.92 457.936 751.5C457.676 751.08 457.346 750.74 456.946 750.48C456.546 750.22 456.056 750.09 455.476 750.09C454.896 750.09 454.406 750.22 454.006 750.48C453.626 750.74 453.306 751.08 453.046 751.5C452.806 751.92 452.616 752.4 452.476 752.94C452.336 753.46 452.236 753.99 452.176 754.53C452.116 755.07 452.076 755.6 452.056 756.12C452.056 756.62 452.056 757.05 452.056 757.41ZM447.796 757.41C447.796 755.37 447.996 753.66 448.396 752.28C448.816 750.88 449.376 749.76 450.076 748.92C450.776 748.08 451.586 747.48 452.506 747.12C453.446 746.76 454.436 746.58 455.476 746.58C456.536 746.58 457.526 746.76 458.446 747.12C459.386 747.48 460.206 748.08 460.906 748.92C461.626 749.76 462.186 750.88 462.586 752.28C463.006 753.66 463.216 755.37 463.216 757.41C463.216 759.51 463.006 761.27 462.586 762.69C462.186 764.09 461.626 765.21 460.906 766.05C460.206 766.89 459.386 767.49 458.446 767.85C457.526 768.21 456.536 768.39 455.476 768.39C454.436 768.39 453.446 768.21 452.506 767.85C451.586 767.49 450.776 766.89 450.076 766.05C449.376 765.21 448.816 764.09 448.396 762.69C447.996 761.27 447.796 759.51 447.796 757.41ZM464.946 755.07C464.906 753.87 465.046 752.76 465.366 751.74C465.686 750.7 466.166 749.8 466.806 749.04C467.446 748.26 468.246 747.66 469.206 747.24C470.186 746.8 471.306 746.58 472.566 746.58C473.526 746.58 474.436 746.73 475.296 747.03C476.176 747.33 476.946 747.76 477.606 748.32C478.266 748.88 478.786 749.57 479.166 750.39C479.566 751.21 479.766 752.13 479.766 753.15C479.766 754.21 479.596 755.12 479.256 755.88C478.916 756.64 478.466 757.32 477.906 757.92C477.346 758.5 476.706 759.03 475.986 759.51C475.286 759.99 474.576 760.47 473.856 760.95C473.136 761.41 472.436 761.91 471.756 762.45C471.076 762.99 470.476 763.62 469.956 764.34H479.886V768H464.466C464.466 766.78 464.636 765.72 464.976 764.82C465.336 763.92 465.816 763.12 466.416 762.42C467.016 761.7 467.716 761.04 468.516 760.44C469.336 759.84 470.196 759.23 471.096 758.61C471.556 758.29 472.046 757.97 472.566 757.65C473.086 757.31 473.556 756.94 473.976 756.54C474.416 756.14 474.776 755.69 475.056 755.19C475.356 754.69 475.506 754.12 475.506 753.48C475.506 752.46 475.206 751.67 474.606 751.11C474.026 750.53 473.276 750.24 472.356 750.24C471.736 750.24 471.206 750.39 470.766 750.69C470.346 750.97 470.006 751.35 469.746 751.83C469.486 752.29 469.296 752.81 469.176 753.39C469.076 753.95 469.026 754.51 469.026 755.07H464.946ZM489.866 752.34H489.776L484.346 759.63H489.866V752.34ZM489.866 763.14H480.986V759.24L490.106 747H493.916V759.63H496.706V763.14H493.916V768H489.866V763.14ZM512.176 750.51H503.506L502.666 755.28L502.726 755.34C503.306 754.76 503.926 754.35 504.586 754.11C505.246 753.85 505.996 753.72 506.836 753.72C507.876 753.72 508.796 753.91 509.596 754.29C510.396 754.67 511.066 755.18 511.606 755.82C512.166 756.46 512.586 757.22 512.866 758.1C513.166 758.96 513.316 759.88 513.316 760.86C513.316 761.94 513.106 762.95 512.686 763.89C512.266 764.81 511.696 765.61 510.976 766.29C510.276 766.97 509.456 767.5 508.516 767.88C507.576 768.24 506.576 768.41 505.516 768.39C504.496 768.39 503.516 768.26 502.576 768C501.656 767.72 500.836 767.3 500.116 766.74C499.396 766.18 498.816 765.49 498.376 764.67C497.956 763.83 497.736 762.86 497.716 761.76H501.976C502.076 762.72 502.436 763.49 503.056 764.07C503.676 764.63 504.466 764.91 505.426 764.91C505.986 764.91 506.486 764.8 506.926 764.58C507.386 764.34 507.766 764.04 508.066 763.68C508.386 763.3 508.626 762.87 508.786 762.39C508.966 761.89 509.056 761.38 509.056 760.86C509.056 760.32 508.976 759.81 508.816 759.33C508.656 758.85 508.416 758.43 508.096 758.07C507.776 757.71 507.396 757.43 506.956 757.23C506.516 757.03 506.006 756.93 505.426 756.93C504.666 756.93 504.046 757.07 503.566 757.35C503.086 757.61 502.636 758.03 502.216 758.61H498.376L500.446 747H512.176V750.51ZM530.235 746.07H533.655L525.285 768.48H521.895L530.235 746.07ZM543.748 746.58H548.428L557.368 760.95H557.428V746.58H561.838V768H557.128L548.218 753.66H548.158V768H543.748V746.58ZM575.974 758.58C575.774 757.5 575.414 756.68 574.894 756.12C574.394 755.56 573.624 755.28 572.584 755.28C571.904 755.28 571.334 755.4 570.874 755.64C570.434 755.86 570.074 756.14 569.794 756.48C569.534 756.82 569.344 757.18 569.224 757.56C569.124 757.94 569.064 758.28 569.044 758.58H575.974ZM569.044 761.28C569.104 762.66 569.454 763.66 570.094 764.28C570.734 764.9 571.654 765.21 572.854 765.21C573.714 765.21 574.454 765 575.074 764.58C575.694 764.14 576.074 763.68 576.214 763.2H579.964C579.364 765.06 578.444 766.39 577.204 767.19C575.964 767.99 574.464 768.39 572.704 768.39C571.484 768.39 570.384 768.2 569.404 767.82C568.424 767.42 567.594 766.86 566.914 766.14C566.234 765.42 565.704 764.56 565.324 763.56C564.964 762.56 564.784 761.46 564.784 760.26C564.784 759.1 564.974 758.02 565.354 757.02C565.734 756.02 566.274 755.16 566.974 754.44C567.674 753.7 568.504 753.12 569.464 752.7C570.444 752.28 571.524 752.07 572.704 752.07C574.024 752.07 575.174 752.33 576.154 752.85C577.134 753.35 577.934 754.03 578.554 754.89C579.194 755.75 579.654 756.73 579.934 757.83C580.214 758.93 580.314 760.08 580.234 761.28H569.044ZM597.311 768H593.261V765.84H593.171C592.631 766.74 591.931 767.39 591.071 767.79C590.211 768.19 589.331 768.39 588.431 768.39C587.291 768.39 586.351 768.24 585.611 767.94C584.891 767.64 584.321 767.22 583.901 766.68C583.481 766.12 583.181 765.45 583.001 764.67C582.841 763.87 582.761 762.99 582.761 762.03V752.49H587.021V761.25C587.021 762.53 587.221 763.49 587.621 764.13C588.021 764.75 588.731 765.06 589.751 765.06C590.911 765.06 591.751 764.72 592.271 764.04C592.791 763.34 593.051 762.2 593.051 760.62V752.49H597.311V768ZM610.984 758.58C610.784 757.5 610.424 756.68 609.904 756.12C609.404 755.56 608.634 755.28 607.594 755.28C606.914 755.28 606.344 755.4 605.884 755.64C605.444 755.86 605.084 756.14 604.804 756.48C604.544 756.82 604.354 757.18 604.234 757.56C604.134 757.94 604.074 758.28 604.054 758.58H610.984ZM604.054 761.28C604.114 762.66 604.464 763.66 605.104 764.28C605.744 764.9 606.664 765.21 607.864 765.21C608.724 765.21 609.464 765 610.084 764.58C610.704 764.14 611.084 763.68 611.224 763.2H614.974C614.374 765.06 613.454 766.39 612.214 767.19C610.974 767.99 609.474 768.39 607.714 768.39C606.494 768.39 605.394 768.2 604.414 767.82C603.434 767.42 602.604 766.86 601.924 766.14C601.244 765.42 600.714 764.56 600.334 763.56C599.974 762.56 599.794 761.46 599.794 760.26C599.794 759.1 599.984 758.02 600.364 757.02C600.744 756.02 601.284 755.16 601.984 754.44C602.684 753.7 603.514 753.12 604.474 752.7C605.454 752.28 606.534 752.07 607.714 752.07C609.034 752.07 610.184 752.33 611.164 752.85C612.144 753.35 612.944 754.03 613.564 754.89C614.204 755.75 614.664 756.73 614.944 757.83C615.224 758.93 615.324 760.08 615.244 761.28H604.054ZM631.28 755.25H636.05C636.89 755.25 637.58 755.05 638.12 754.65C638.66 754.25 638.93 753.6 638.93 752.7C638.93 752.2 638.84 751.79 638.66 751.47C638.48 751.15 638.24 750.9 637.94 750.72C637.64 750.54 637.29 750.42 636.89 750.36C636.51 750.28 636.11 750.24 635.69 750.24H631.28V755.25ZM626.57 746.58H636.65C637.67 746.58 638.6 746.67 639.44 746.85C640.28 747.03 641 747.33 641.6 747.75C642.2 748.15 642.66 748.69 642.98 749.37C643.32 750.05 643.49 750.89 643.49 751.89C643.49 752.97 643.24 753.87 642.74 754.59C642.26 755.31 641.54 755.9 640.58 756.36C641.9 756.74 642.88 757.41 643.52 758.37C644.18 759.31 644.51 760.45 644.51 761.79C644.51 762.87 644.3 763.81 643.88 764.61C643.46 765.39 642.89 766.03 642.17 766.53C641.47 767.03 640.66 767.4 639.74 767.64C638.84 767.88 637.91 768 636.95 768H626.57V746.58ZM631.28 764.34H636.32C636.78 764.34 637.22 764.3 637.64 764.22C638.06 764.12 638.43 763.97 638.75 763.77C639.07 763.55 639.32 763.26 639.5 762.9C639.7 762.54 639.8 762.08 639.8 761.52C639.8 760.42 639.49 759.64 638.87 759.18C638.25 758.7 637.43 758.46 636.41 758.46H631.28V764.34ZM661.793 768H657.743V765.84H657.653C657.113 766.74 656.413 767.39 655.553 767.79C654.693 768.19 653.813 768.39 652.913 768.39C651.773 768.39 650.833 768.24 650.093 767.94C649.373 767.64 648.803 767.22 648.383 766.68C647.963 766.12 647.663 765.45 647.483 764.67C647.323 763.87 647.243 762.99 647.243 762.03V752.49H651.503V761.25C651.503 762.53 651.703 763.49 652.103 764.13C652.503 764.75 653.213 765.06 654.233 765.06C655.393 765.06 656.233 764.72 656.753 764.04C657.273 763.34 657.533 762.2 657.533 760.62V752.49H661.793V768ZM665.026 746.58H669.286V754.65H669.376C669.916 753.75 670.606 753.1 671.446 752.7C672.286 752.28 673.106 752.07 673.906 752.07C675.046 752.07 675.976 752.23 676.696 752.55C677.436 752.85 678.016 753.28 678.436 753.84C678.856 754.38 679.146 755.05 679.306 755.85C679.486 756.63 679.576 757.5 679.576 758.46V768H675.316V759.24C675.316 757.96 675.116 757.01 674.716 756.39C674.316 755.75 673.606 755.43 672.586 755.43C671.426 755.43 670.586 755.78 670.066 756.48C669.546 757.16 669.286 758.29 669.286 759.87V768H665.026V746.58ZM682.809 752.49H686.859V754.65H686.949C687.489 753.75 688.189 753.1 689.049 752.7C689.909 752.28 690.789 752.07 691.689 752.07C692.829 752.07 693.759 752.23 694.479 752.55C695.219 752.85 695.799 753.28 696.219 753.84C696.639 754.38 696.929 755.05 697.089 755.85C697.269 756.63 697.359 757.5 697.359 758.46V768H693.099V759.24C693.099 757.96 692.899 757.01 692.499 756.39C692.099 755.75 691.389 755.43 690.369 755.43C689.209 755.43 688.369 755.78 687.849 756.48C687.329 757.16 687.069 758.29 687.069 759.87V768H682.809V752.49ZM711.033 758.58C710.833 757.5 710.473 756.68 709.953 756.12C709.453 755.56 708.683 755.28 707.643 755.28C706.963 755.28 706.393 755.4 705.933 755.64C705.493 755.86 705.133 756.14 704.853 756.48C704.593 756.82 704.403 757.18 704.283 757.56C704.183 757.94 704.123 758.28 704.103 758.58H711.033ZM704.103 761.28C704.163 762.66 704.513 763.66 705.153 764.28C705.793 764.9 706.713 765.21 707.913 765.21C708.773 765.21 709.513 765 710.133 764.58C710.753 764.14 711.133 763.68 711.273 763.2H715.023C714.423 765.06 713.503 766.39 712.263 767.19C711.023 767.99 709.523 768.39 707.763 768.39C706.543 768.39 705.443 768.2 704.463 767.82C703.483 767.42 702.653 766.86 701.973 766.14C701.293 765.42 700.763 764.56 700.383 763.56C700.023 762.56 699.843 761.46 699.843 760.26C699.843 759.1 700.033 758.02 700.413 757.02C700.793 756.02 701.333 755.16 702.033 754.44C702.733 753.7 703.563 753.12 704.523 752.7C705.503 752.28 706.583 752.07 707.763 752.07C709.083 752.07 710.233 752.33 711.213 752.85C712.193 753.35 712.993 754.03 713.613 754.89C714.253 755.75 714.713 756.73 714.993 757.83C715.273 758.93 715.373 760.08 715.293 761.28H704.103ZM726.619 746.58H741.679V750.54H731.329V755.49H740.299V759.15H731.329V768H726.619V746.58ZM743.952 752.49H748.002V755.37H748.062C748.262 754.89 748.532 754.45 748.872 754.05C749.212 753.63 749.602 753.28 750.042 753C750.482 752.7 750.952 752.47 751.452 752.31C751.952 752.15 752.472 752.07 753.012 752.07C753.292 752.07 753.602 752.12 753.942 752.22V756.18C753.742 756.14 753.502 756.11 753.222 756.09C752.942 756.05 752.672 756.03 752.412 756.03C751.632 756.03 750.972 756.16 750.432 756.42C749.892 756.68 749.452 757.04 749.112 757.5C748.792 757.94 748.562 758.46 748.422 759.06C748.282 759.66 748.212 760.31 748.212 761.01V768H743.952V752.49ZM759.992 750.09H755.732V746.58H759.992V750.09ZM755.732 752.49H759.992V768H755.732V752.49ZM773.787 758.58C773.587 757.5 773.227 756.68 772.707 756.12C772.207 755.56 771.437 755.28 770.397 755.28C769.717 755.28 769.147 755.4 768.687 755.64C768.247 755.86 767.887 756.14 767.607 756.48C767.347 756.82 767.157 757.18 767.037 757.56C766.937 757.94 766.877 758.28 766.857 758.58H773.787ZM766.857 761.28C766.917 762.66 767.267 763.66 767.907 764.28C768.547 764.9 769.467 765.21 770.667 765.21C771.527 765.21 772.267 765 772.887 764.58C773.507 764.14 773.887 763.68 774.027 763.2H777.777C777.177 765.06 776.257 766.39 775.017 767.19C773.777 767.99 772.277 768.39 770.517 768.39C769.297 768.39 768.197 768.2 767.217 767.82C766.237 767.42 765.407 766.86 764.727 766.14C764.047 765.42 763.517 764.56 763.137 763.56C762.777 762.56 762.597 761.46 762.597 760.26C762.597 759.1 762.787 758.02 763.167 757.02C763.547 756.02 764.087 755.16 764.787 754.44C765.487 753.7 766.317 753.12 767.277 752.7C768.257 752.28 769.337 752.07 770.517 752.07C771.837 752.07 772.987 752.33 773.967 752.85C774.947 753.35 775.747 754.03 776.367 754.89C777.007 755.75 777.467 756.73 777.747 757.83C778.027 758.93 778.127 760.08 778.047 761.28H766.857ZM791.583 760.2C791.583 759.56 791.523 758.95 791.403 758.37C791.283 757.77 791.073 757.25 790.773 756.81C790.493 756.35 790.123 755.98 789.663 755.7C789.203 755.42 788.623 755.28 787.923 755.28C787.223 755.28 786.633 755.42 786.153 755.7C785.673 755.98 785.283 756.35 784.983 756.81C784.703 757.27 784.493 757.8 784.353 758.4C784.233 758.98 784.173 759.59 784.173 760.23C784.173 760.83 784.243 761.43 784.383 762.03C784.523 762.63 784.743 763.17 785.043 763.65C785.363 764.11 785.753 764.49 786.213 764.79C786.693 765.07 787.263 765.21 787.923 765.21C788.623 765.21 789.203 765.07 789.663 764.79C790.143 764.51 790.523 764.14 790.803 763.68C791.083 763.2 791.283 762.66 791.403 762.06C791.523 761.46 791.583 760.84 791.583 760.2ZM791.643 766.02H791.583C791.083 766.86 790.423 767.47 789.603 767.85C788.803 768.21 787.893 768.39 786.873 768.39C785.713 768.39 784.693 768.17 783.813 767.73C782.933 767.27 782.203 766.66 781.623 765.9C781.063 765.12 780.633 764.23 780.333 763.23C780.053 762.23 779.913 761.19 779.913 760.11C779.913 759.07 780.053 758.07 780.333 757.11C780.633 756.13 781.063 755.27 781.623 754.53C782.203 753.79 782.923 753.2 783.783 752.76C784.643 752.3 785.643 752.07 786.783 752.07C787.703 752.07 788.573 752.27 789.393 752.67C790.233 753.05 790.893 753.62 791.373 754.38H791.433V746.58H795.693V768H791.643V766.02ZM798.913 752.49H802.963V755.37H803.023C803.223 754.89 803.493 754.45 803.833 754.05C804.173 753.63 804.563 753.28 805.003 753C805.443 752.7 805.913 752.47 806.413 752.31C806.913 752.15 807.433 752.07 807.973 752.07C808.253 752.07 808.563 752.12 808.903 752.22V756.18C808.703 756.14 808.463 756.11 808.183 756.09C807.903 756.05 807.633 756.03 807.373 756.03C806.593 756.03 805.933 756.16 805.393 756.42C804.853 756.68 804.413 757.04 804.073 757.5C803.753 757.94 803.523 758.46 803.383 759.06C803.243 759.66 803.173 760.31 803.173 761.01V768H798.913V752.49ZM814.953 750.09H810.693V746.58H814.953V750.09ZM810.693 752.49H814.953V768H810.693V752.49ZM828.868 757.95C828.588 756.17 827.538 755.28 825.718 755.28C825.038 755.28 824.468 755.44 824.008 755.76C823.548 756.06 823.168 756.46 822.868 756.96C822.588 757.44 822.388 757.98 822.268 758.58C822.148 759.16 822.088 759.74 822.088 760.32C822.088 760.88 822.148 761.45 822.268 762.03C822.388 762.61 822.578 763.14 822.838 763.62C823.118 764.08 823.488 764.46 823.948 764.76C824.408 765.06 824.968 765.21 825.628 765.21C826.648 765.21 827.428 764.93 827.968 764.37C828.528 763.79 828.878 763.02 829.018 762.06H833.128C832.848 764.12 832.048 765.69 830.728 766.77C829.408 767.85 827.718 768.39 825.658 768.39C824.498 768.39 823.428 768.2 822.448 767.82C821.488 767.42 820.668 766.87 819.988 766.17C819.308 765.47 818.778 764.64 818.398 763.68C818.018 762.7 817.828 761.63 817.828 760.47C817.828 759.27 817.998 758.16 818.338 757.14C818.698 756.1 819.218 755.21 819.898 754.47C820.578 753.71 821.408 753.12 822.388 752.7C823.368 752.28 824.488 752.07 825.748 752.07C826.668 752.07 827.548 752.19 828.388 752.43C829.248 752.67 830.008 753.04 830.668 753.54C831.348 754.02 831.898 754.63 832.318 755.37C832.738 756.09 832.978 756.95 833.038 757.95H828.868ZM835.534 746.58H839.794V754.65H839.884C840.424 753.75 841.114 753.1 841.954 752.7C842.794 752.28 843.614 752.07 844.414 752.07C845.554 752.07 846.484 752.23 847.204 752.55C847.944 752.85 848.524 753.28 848.944 753.84C849.364 754.38 849.654 755.05 849.814 755.85C849.994 756.63 850.084 757.5 850.084 758.46V768H845.824V759.24C845.824 757.96 845.624 757.01 845.224 756.39C844.824 755.75 844.114 755.43 843.094 755.43C841.934 755.43 841.094 755.78 840.574 756.48C840.054 757.16 839.794 758.29 839.794 759.87V768H835.534V746.58ZM856.617 762.96C856.617 763.42 856.707 763.82 856.887 764.16C857.087 764.48 857.337 764.75 857.637 764.97C857.937 765.17 858.277 765.32 858.657 765.42C859.057 765.52 859.467 765.57 859.887 765.57C860.187 765.57 860.497 765.54 860.817 765.48C861.157 765.4 861.457 765.29 861.717 765.15C861.997 764.99 862.227 764.79 862.407 764.55C862.587 764.29 862.677 763.97 862.677 763.59C862.677 762.95 862.247 762.47 861.387 762.15C860.547 761.83 859.367 761.51 857.847 761.19C857.227 761.05 856.617 760.89 856.017 760.71C855.437 760.51 854.917 760.26 854.457 759.96C853.997 759.64 853.627 759.25 853.347 758.79C853.067 758.31 852.927 757.73 852.927 757.05C852.927 756.05 853.117 755.23 853.497 754.59C853.897 753.95 854.417 753.45 855.057 753.09C855.697 752.71 856.417 752.45 857.217 752.31C858.017 752.15 858.837 752.07 859.677 752.07C860.517 752.07 861.327 752.15 862.107 752.31C862.907 752.47 863.617 752.74 864.237 753.12C864.857 753.5 865.367 754.01 865.767 754.65C866.187 755.27 866.437 756.06 866.517 757.02H862.467C862.407 756.2 862.097 755.65 861.537 755.37C860.977 755.07 860.317 754.92 859.557 754.92C859.317 754.92 859.057 754.94 858.777 754.98C858.497 755 858.237 755.06 857.997 755.16C857.777 755.26 857.587 755.41 857.427 755.61C857.267 755.79 857.187 756.04 857.187 756.36C857.187 756.74 857.327 757.05 857.607 757.29C857.887 757.53 858.247 757.73 858.687 757.89C859.147 758.03 859.667 758.16 860.247 758.28C860.827 758.4 861.417 758.53 862.017 758.67C862.637 758.81 863.237 758.98 863.817 759.18C864.417 759.38 864.947 759.65 865.407 759.99C865.867 760.31 866.237 760.72 866.517 761.22C866.797 761.7 866.937 762.3 866.937 763.02C866.937 764.04 866.727 764.9 866.307 765.6C865.907 766.28 865.377 766.83 864.717 767.25C864.057 767.67 863.297 767.96 862.437 768.12C861.597 768.3 860.737 768.39 859.857 768.39C858.957 768.39 858.077 768.3 857.217 768.12C856.357 767.94 855.587 767.64 854.907 767.22C854.247 766.8 853.697 766.25 853.257 765.57C852.837 764.87 852.607 764 852.567 762.96H856.617ZM869.431 746.58H873.691V754.65H873.781C874.321 753.75 875.011 753.1 875.851 752.7C876.691 752.28 877.511 752.07 878.311 752.07C879.451 752.07 880.381 752.23 881.101 752.55C881.841 752.85 882.421 753.28 882.841 753.84C883.261 754.38 883.551 755.05 883.711 755.85C883.891 756.63 883.981 757.5 883.981 758.46V768H879.721V759.24C879.721 757.96 879.521 757.01 879.121 756.39C878.721 755.75 878.011 755.43 876.991 755.43C875.831 755.43 874.991 755.78 874.471 756.48C873.951 757.16 873.691 758.29 873.691 759.87V768H869.431V746.58ZM887.034 757.26C887.094 756.26 887.344 755.43 887.784 754.77C888.224 754.11 888.784 753.58 889.464 753.18C890.144 752.78 890.904 752.5 891.744 752.34C892.604 752.16 893.464 752.07 894.324 752.07C895.104 752.07 895.894 752.13 896.694 752.25C897.494 752.35 898.224 752.56 898.884 752.88C899.544 753.2 900.084 753.65 900.504 754.23C900.924 754.79 901.134 755.54 901.134 756.48V764.55C901.134 765.25 901.174 765.92 901.254 766.56C901.334 767.2 901.474 767.68 901.674 768H897.354C897.274 767.76 897.204 767.52 897.144 767.28C897.104 767.02 897.074 766.76 897.054 766.5C896.374 767.2 895.574 767.69 894.654 767.97C893.734 768.25 892.794 768.39 891.834 768.39C891.094 768.39 890.404 768.3 889.764 768.12C889.124 767.94 888.564 767.66 888.084 767.28C887.604 766.9 887.224 766.42 886.944 765.84C886.684 765.26 886.554 764.57 886.554 763.77C886.554 762.89 886.704 762.17 887.004 761.61C887.324 761.03 887.724 760.57 888.204 760.23C888.704 759.89 889.264 759.64 889.884 759.48C890.524 759.3 891.164 759.16 891.804 759.06C892.444 758.96 893.074 758.88 893.694 758.82C894.314 758.76 894.864 758.67 895.344 758.55C895.824 758.43 896.204 758.26 896.484 758.04C896.764 757.8 896.894 757.46 896.874 757.02C896.874 756.56 896.794 756.2 896.634 755.94C896.494 755.66 896.294 755.45 896.034 755.31C895.794 755.15 895.504 755.05 895.164 755.01C894.844 754.95 894.494 754.92 894.114 754.92C893.274 754.92 892.614 755.1 892.134 755.46C891.654 755.82 891.374 756.42 891.294 757.26H887.034ZM896.874 760.41C896.694 760.57 896.464 760.7 896.184 760.8C895.924 760.88 895.634 760.95 895.314 761.01C895.014 761.07 894.694 761.12 894.354 761.16C894.014 761.2 893.674 761.25 893.334 761.31C893.014 761.37 892.694 761.45 892.374 761.55C892.074 761.65 891.804 761.79 891.564 761.97C891.344 762.13 891.164 762.34 891.024 762.6C890.884 762.86 890.814 763.19 890.814 763.59C890.814 763.97 890.884 764.29 891.024 764.55C891.164 764.81 891.354 765.02 891.594 765.18C891.834 765.32 892.114 765.42 892.434 765.48C892.754 765.54 893.084 765.57 893.424 765.57C894.264 765.57 894.914 765.43 895.374 765.15C895.834 764.87 896.174 764.54 896.394 764.16C896.614 763.76 896.744 763.36 896.784 762.96C896.844 762.56 896.874 762.24 896.874 762V760.41ZM908.82 750.09H904.56V746.58H908.82V750.09ZM904.56 752.49H908.82V768H904.56V752.49ZM912.175 752.49H916.225V754.65H916.315C916.855 753.75 917.555 753.1 918.415 752.7C919.275 752.28 920.155 752.07 921.055 752.07C922.195 752.07 923.125 752.23 923.845 752.55C924.585 752.85 925.165 753.28 925.585 753.84C926.005 754.38 926.295 755.05 926.455 755.85C926.635 756.63 926.725 757.5 926.725 758.46V768H922.465V759.24C922.465 757.96 922.265 757.01 921.865 756.39C921.465 755.75 920.755 755.43 919.735 755.43C918.575 755.43 917.735 755.78 917.215 756.48C916.695 757.16 916.435 758.29 916.435 759.87V768H912.175V752.49Z" fill="black"/>
<path d="M164.544 332H160V317.472H154.368V314.048C155.157 314.069 155.915 314.016 156.64 313.888C157.387 313.739 158.048 313.493 158.624 313.152C159.221 312.789 159.723 312.32 160.128 311.744C160.533 311.168 160.8 310.453 160.928 309.6H164.544V332ZM170.965 318.208C170.923 316.928 171.072 315.744 171.413 314.656C171.755 313.547 172.267 312.587 172.949 311.776C173.632 310.944 174.485 310.304 175.509 309.856C176.555 309.387 177.749 309.152 179.093 309.152C180.117 309.152 181.088 309.312 182.005 309.632C182.944 309.952 183.765 310.411 184.469 311.008C185.173 311.605 185.728 312.341 186.133 313.216C186.56 314.091 186.773 315.072 186.773 316.16C186.773 317.291 186.592 318.261 186.229 319.072C185.867 319.883 185.387 320.608 184.789 321.248C184.192 321.867 183.509 322.432 182.741 322.944C181.995 323.456 181.237 323.968 180.469 324.48C179.701 324.971 178.955 325.504 178.229 326.08C177.504 326.656 176.864 327.328 176.309 328.096H186.901V332H170.453C170.453 330.699 170.635 329.568 170.997 328.608C171.381 327.648 171.893 326.795 172.533 326.048C173.173 325.28 173.92 324.576 174.773 323.936C175.648 323.296 176.565 322.645 177.525 321.984C178.016 321.643 178.539 321.301 179.093 320.96C179.648 320.597 180.149 320.203 180.597 319.776C181.067 319.349 181.451 318.869 181.749 318.336C182.069 317.803 182.229 317.195 182.229 316.512C182.229 315.424 181.909 314.581 181.269 313.984C180.651 313.365 179.851 313.056 178.869 313.056C178.208 313.056 177.643 313.216 177.173 313.536C176.725 313.835 176.363 314.24 176.085 314.752C175.808 315.243 175.605 315.797 175.477 316.416C175.371 317.013 175.317 317.611 175.317 318.208H170.965ZM204.437 323.168H210.357L207.477 314.784H207.413L204.437 323.168ZM204.917 309.152H210.069L218.613 332H213.397L211.669 326.912H203.125L201.333 332H196.277L204.917 309.152ZM220.231 315.456H224.519V317.696H224.583C225.18 316.843 225.895 316.181 226.727 315.712C227.58 315.243 228.551 315.008 229.639 315.008C230.684 315.008 231.634 315.211 232.487 315.616C233.362 316.021 234.023 316.736 234.471 317.76C234.962 317.035 235.623 316.395 236.455 315.84C237.308 315.285 238.311 315.008 239.463 315.008C240.338 315.008 241.148 315.115 241.895 315.328C242.642 315.541 243.282 315.883 243.815 316.352C244.348 316.821 244.764 317.44 245.063 318.208C245.362 318.955 245.511 319.861 245.511 320.928V332H240.967V322.624C240.967 322.069 240.946 321.547 240.903 321.056C240.86 320.565 240.743 320.139 240.551 319.776C240.359 319.413 240.071 319.125 239.687 318.912C239.324 318.699 238.823 318.592 238.183 318.592C237.543 318.592 237.02 318.72 236.615 318.976C236.231 319.211 235.922 319.531 235.687 319.936C235.474 320.32 235.324 320.768 235.239 321.28C235.175 321.771 235.143 322.272 235.143 322.784V332H230.599V322.72C230.599 322.229 230.588 321.749 230.567 321.28C230.546 320.789 230.45 320.341 230.279 319.936C230.13 319.531 229.863 319.211 229.479 318.976C229.116 318.72 228.572 318.592 227.847 318.592C227.634 318.592 227.346 318.645 226.983 318.752C226.642 318.837 226.3 319.019 225.959 319.296C225.639 319.552 225.362 319.936 225.127 320.448C224.892 320.939 224.775 321.589 224.775 322.4V332H220.231V315.456ZM260.441 321.312H284.121V325.216H260.441V321.312ZM309.732 332H305.188V317.472H299.556V314.048C300.345 314.069 301.102 314.016 301.828 313.888C302.574 313.739 303.236 313.493 303.812 313.152C304.409 312.789 304.91 312.32 305.316 311.744C305.721 311.168 305.988 310.453 306.116 309.6H309.732V332ZM320.185 320.704C320.185 321.344 320.206 322.123 320.249 323.04C320.291 323.936 320.419 324.811 320.633 325.664C320.867 326.496 321.23 327.211 321.721 327.808C322.211 328.405 322.915 328.704 323.833 328.704C324.771 328.704 325.486 328.405 325.977 327.808C326.489 327.211 326.851 326.496 327.065 325.664C327.299 324.811 327.438 323.936 327.481 323.04C327.523 322.123 327.545 321.344 327.545 320.704C327.545 320.32 327.534 319.861 327.513 319.328C327.513 318.773 327.47 318.208 327.385 317.632C327.321 317.056 327.214 316.491 327.065 315.936C326.937 315.36 326.734 314.848 326.457 314.4C326.179 313.952 325.827 313.589 325.401 313.312C324.974 313.035 324.451 312.896 323.833 312.896C323.214 312.896 322.691 313.035 322.265 313.312C321.859 313.589 321.518 313.952 321.241 314.4C320.985 314.848 320.782 315.36 320.633 315.936C320.483 316.491 320.377 317.056 320.313 317.632C320.249 318.208 320.206 318.773 320.185 319.328C320.185 319.861 320.185 320.32 320.185 320.704ZM315.641 320.704C315.641 318.528 315.854 316.704 316.281 315.232C316.729 313.739 317.326 312.544 318.073 311.648C318.819 310.752 319.683 310.112 320.665 309.728C321.667 309.344 322.723 309.152 323.833 309.152C324.963 309.152 326.019 309.344 327.001 309.728C328.003 310.112 328.878 310.752 329.625 311.648C330.393 312.544 330.99 313.739 331.417 315.232C331.865 316.704 332.089 318.528 332.089 320.704C332.089 322.944 331.865 324.821 331.417 326.336C330.99 327.829 330.393 329.024 329.625 329.92C328.878 330.816 328.003 331.456 327.001 331.84C326.019 332.224 324.963 332.416 323.833 332.416C322.723 332.416 321.667 332.224 320.665 331.84C319.683 331.456 318.819 330.816 318.073 329.92C317.326 329.024 316.729 327.829 316.281 326.336C315.854 324.821 315.641 322.944 315.641 320.704ZM348.888 319.904H352.792C353.368 319.904 353.923 319.861 354.456 319.776C354.99 319.691 355.459 319.531 355.864 319.296C356.27 319.04 356.59 318.688 356.824 318.24C357.08 317.792 357.208 317.205 357.208 316.48C357.208 315.755 357.08 315.168 356.824 314.72C356.59 314.272 356.27 313.931 355.864 313.696C355.459 313.44 354.99 313.269 354.456 313.184C353.923 313.099 353.368 313.056 352.792 313.056H348.888V319.904ZM343.864 309.152H354.168C355.598 309.152 356.814 309.365 357.816 309.792C358.819 310.197 359.63 310.741 360.248 311.424C360.888 312.107 361.347 312.885 361.624 313.76C361.923 314.635 362.072 315.541 362.072 316.48C362.072 317.397 361.923 318.304 361.624 319.2C361.347 320.075 360.888 320.853 360.248 321.536C359.63 322.219 358.819 322.773 357.816 323.2C356.814 323.605 355.598 323.808 354.168 323.808H348.888V332H343.864V309.152ZM364.856 315.456H369.144V317.696H369.208C369.805 316.843 370.52 316.181 371.352 315.712C372.205 315.243 373.176 315.008 374.264 315.008C375.309 315.008 376.259 315.211 377.112 315.616C377.987 316.021 378.648 316.736 379.096 317.76C379.587 317.035 380.248 316.395 381.08 315.84C381.933 315.285 382.936 315.008 384.088 315.008C384.963 315.008 385.773 315.115 386.52 315.328C387.267 315.541 387.907 315.883 388.44 316.352C388.973 316.821 389.389 317.44 389.688 318.208C389.987 318.955 390.136 319.861 390.136 320.928V332H385.592V322.624C385.592 322.069 385.571 321.547 385.528 321.056C385.485 320.565 385.368 320.139 385.176 319.776C384.984 319.413 384.696 319.125 384.312 318.912C383.949 318.699 383.448 318.592 382.808 318.592C382.168 318.592 381.645 318.72 381.24 318.976C380.856 319.211 380.547 319.531 380.312 319.936C380.099 320.32 379.949 320.768 379.864 321.28C379.8 321.771 379.768 322.272 379.768 322.784V332H375.224V322.72C375.224 322.229 375.213 321.749 375.192 321.28C375.171 320.789 375.075 320.341 374.904 319.936C374.755 319.531 374.488 319.211 374.104 318.976C373.741 318.72 373.197 318.592 372.472 318.592C372.259 318.592 371.971 318.645 371.608 318.752C371.267 318.837 370.925 319.019 370.584 319.296C370.264 319.552 369.987 319.936 369.752 320.448C369.517 320.939 369.4 321.589 369.4 322.4V332H364.856V315.456Z" fill="black"/>
<path d="M829.544 332.365H825V317.837H819.368V314.413C820.157 314.435 820.915 314.381 821.64 314.253C822.387 314.104 823.048 313.859 823.624 313.517C824.221 313.155 824.723 312.685 825.128 312.109C825.533 311.533 825.8 310.819 825.928 309.965H829.544V332.365ZM843.421 321.581C844.04 321.581 844.573 321.475 845.021 321.261C845.469 321.027 845.843 320.717 846.141 320.333C846.44 319.949 846.664 319.512 846.813 319.021C846.963 318.509 847.037 317.976 847.037 317.421C847.037 316.909 846.952 316.408 846.781 315.917C846.632 315.405 846.397 314.957 846.077 314.573C845.779 314.168 845.405 313.848 844.957 313.613C844.509 313.379 843.997 313.261 843.421 313.261C842.888 313.261 842.408 313.379 841.981 313.613C841.555 313.848 841.192 314.157 840.893 314.541C840.595 314.925 840.371 315.363 840.221 315.853C840.072 316.344 839.997 316.845 839.997 317.357C839.997 317.891 840.061 318.413 840.189 318.925C840.339 319.416 840.552 319.864 840.829 320.269C841.107 320.653 841.459 320.973 841.885 321.229C842.333 321.464 842.845 321.581 843.421 321.581ZM840.157 326.605C840.307 327.352 840.648 328.003 841.181 328.557C841.715 329.112 842.376 329.389 843.165 329.389C843.997 329.389 844.68 329.155 845.213 328.685C845.747 328.195 846.173 327.608 846.493 326.925C846.813 326.221 847.037 325.475 847.165 324.685C847.315 323.896 847.411 323.192 847.453 322.573L847.389 322.509C846.771 323.405 846.045 324.045 845.213 324.429C844.381 324.813 843.421 325.005 842.333 325.005C841.373 325.005 840.435 324.803 839.517 324.397C838.6 323.971 837.821 323.405 837.181 322.701C836.584 322.019 836.147 321.24 835.869 320.365C835.592 319.491 835.453 318.605 835.453 317.709C835.453 316.557 835.635 315.491 835.997 314.509C836.381 313.507 836.915 312.643 837.597 311.917C838.301 311.171 839.133 310.584 840.093 310.157C841.053 309.731 842.12 309.517 843.293 309.517C845 309.517 846.397 309.859 847.485 310.541C848.595 311.203 849.48 312.088 850.141 313.197C850.803 314.285 851.261 315.523 851.517 316.909C851.773 318.296 851.901 319.693 851.901 321.101C851.901 322.488 851.741 323.875 851.421 325.261C851.101 326.648 850.589 327.907 849.885 329.037C849.181 330.147 848.275 331.053 847.165 331.757C846.056 332.44 844.701 332.781 843.101 332.781C842.141 332.781 841.245 332.643 840.413 332.365C839.581 332.109 838.845 331.715 838.205 331.181C837.565 330.648 837.043 329.997 836.637 329.229C836.232 328.461 835.965 327.587 835.837 326.605H840.157ZM877.053 325.165C877.053 325.912 876.978 326.733 876.829 327.629C876.679 328.525 876.338 329.368 875.805 330.157C875.271 330.925 874.503 331.576 873.501 332.109C872.498 332.621 871.143 332.877 869.437 332.877C868.477 332.877 867.549 332.739 866.653 332.461C865.757 332.205 864.957 331.8 864.253 331.245C863.549 330.669 862.983 329.944 862.557 329.069C862.13 328.173 861.917 327.096 861.917 325.837V323.853H866.461V324.877C866.461 325.432 866.503 325.944 866.589 326.413C866.674 326.883 866.823 327.288 867.037 327.629C867.25 327.949 867.538 328.205 867.901 328.397C868.285 328.589 868.775 328.685 869.373 328.685C870.034 328.685 870.546 328.568 870.909 328.333C871.271 328.099 871.527 327.8 871.677 327.437C871.847 327.053 871.943 326.648 871.965 326.221C872.007 325.773 872.029 325.347 872.029 324.941V309.517H877.053V325.165ZM896.498 332.365H892.178V330.061H892.082C891.506 331.021 890.759 331.715 889.842 332.141C888.925 332.568 887.986 332.781 887.026 332.781C885.81 332.781 884.807 332.621 884.018 332.301C883.25 331.981 882.642 331.533 882.194 330.957C881.746 330.36 881.426 329.645 881.234 328.813C881.063 327.96 880.978 327.021 880.978 325.997V315.821H885.522V325.165C885.522 326.531 885.735 327.555 886.162 328.237C886.589 328.899 887.346 329.229 888.434 329.229C889.671 329.229 890.567 328.867 891.122 328.141C891.677 327.395 891.954 326.179 891.954 324.493V315.821H896.498V332.365ZM900.075 309.517H904.619V332.365H900.075V309.517ZM916.357 334.413C915.866 335.757 915.183 336.717 914.309 337.293C913.434 337.869 912.218 338.157 910.661 338.157C910.191 338.157 909.722 338.136 909.253 338.093C908.805 338.072 908.346 338.04 907.877 337.997V334.253C908.303 334.296 908.741 334.339 909.189 334.381C909.637 334.424 910.085 334.435 910.533 334.413C911.13 334.349 911.567 334.115 911.845 333.709C912.143 333.304 912.293 332.856 912.293 332.365C912.293 332.003 912.229 331.661 912.101 331.341L906.309 315.821H911.141L914.885 327.149H914.949L918.565 315.821H923.269L916.357 334.413Z" fill="black"/>
</svg>
