<svg width="1080" height="1080" viewBox="0 0 1080 1080" fill="none" xmlns="http://www.w3.org/2000/svg">
<rect width="1080" height="1080" fill="white"/>
<path d="M492.06 450.808C490.236 450.808 488.652 451.176 487.308 451.912C485.996 452.648 484.924 453.64 484.092 454.888C483.26 456.104 482.636 457.496 482.22 459.064C481.836 460.632 481.644 462.232 481.644 463.864C481.644 465.496 481.836 467.096 482.22 468.664C482.636 470.232 483.26 471.64 484.092 472.888C484.924 474.104 485.996 475.08 487.308 475.816C488.652 476.552 490.236 476.92 492.06 476.92C493.884 476.92 495.452 476.552 496.764 475.816C498.108 475.08 499.196 474.104 500.028 472.888C500.86 471.64 501.468 470.232 501.852 468.664C502.268 467.096 502.476 465.496 502.476 463.864C502.476 462.232 502.268 460.632 501.852 459.064C501.468 457.496 500.86 456.104 500.028 454.888C499.196 453.64 498.108 452.648 496.764 451.912C495.452 451.176 493.884 450.808 492.06 450.808ZM492.06 445.912C494.62 445.912 496.908 446.392 498.924 447.352C500.972 448.312 502.7 449.608 504.108 451.24C505.516 452.872 506.588 454.776 507.324 456.952C508.092 459.128 508.476 461.432 508.476 463.864C508.476 466.328 508.092 468.648 507.324 470.824C506.588 473 505.516 474.904 504.108 476.536C502.7 478.168 500.972 479.464 498.924 480.424C496.908 481.352 494.62 481.816 492.06 481.816C489.5 481.816 487.196 481.352 485.148 480.424C483.132 479.464 481.42 478.168 480.012 476.536C478.604 474.904 477.516 473 476.748 470.824C476.012 468.648 475.644 466.328 475.644 463.864C475.644 461.432 476.012 459.128 476.748 456.952C477.516 454.776 478.604 452.872 480.012 451.24C481.42 449.608 483.132 448.312 485.148 447.352C487.196 446.392 489.5 445.912 492.06 445.912ZM513.313 446.728H518.785V466.216L528.673 456.184H535.393L525.889 465.304L536.305 481H529.633L522.049 468.952L518.785 472.12V481H513.313V446.728ZM538.95 456.184H544.086V460.984H544.182C544.342 460.312 544.646 459.656 545.094 459.016C545.574 458.376 546.134 457.8 546.774 457.288C547.446 456.744 548.182 456.312 548.982 455.992C549.782 455.672 550.598 455.512 551.43 455.512C552.07 455.512 552.502 455.528 552.726 455.56C552.982 455.592 553.238 455.624 553.494 455.656V460.936C553.11 460.872 552.71 460.824 552.294 460.792C551.91 460.728 551.526 460.696 551.142 460.696C550.214 460.696 549.334 460.888 548.502 461.272C547.702 461.624 546.998 462.168 546.39 462.904C545.782 463.608 545.302 464.488 544.95 465.544C544.598 466.6 544.422 467.816 544.422 469.192V481H538.95V456.184ZM576.609 475.48C576.609 476.152 576.689 476.632 576.849 476.92C577.041 477.208 577.393 477.352 577.905 477.352C578.065 477.352 578.257 477.352 578.481 477.352C578.705 477.352 578.961 477.32 579.249 477.256V481.048C579.057 481.112 578.801 481.176 578.481 481.24C578.193 481.336 577.889 481.416 577.569 481.48C577.249 481.544 576.929 481.592 576.609 481.624C576.289 481.656 576.017 481.672 575.793 481.672C574.673 481.672 573.745 481.448 573.009 481C572.273 480.552 571.793 479.768 571.569 478.648C570.481 479.704 569.137 480.472 567.537 480.952C565.969 481.432 564.449 481.672 562.977 481.672C561.857 481.672 560.785 481.512 559.761 481.192C558.737 480.904 557.825 480.472 557.025 479.896C556.257 479.288 555.633 478.536 555.153 477.64C554.705 476.712 554.481 475.64 554.481 474.424C554.481 472.888 554.753 471.64 555.297 470.68C555.873 469.72 556.609 468.968 557.505 468.424C558.433 467.88 559.457 467.496 560.577 467.272C561.729 467.016 562.881 466.824 564.033 466.696C565.025 466.504 565.969 466.376 566.865 466.312C567.761 466.216 568.545 466.072 569.217 465.88C569.921 465.688 570.465 465.4 570.849 465.016C571.265 464.6 571.473 463.992 571.473 463.192C571.473 462.488 571.297 461.912 570.945 461.464C570.625 461.016 570.209 460.68 569.697 460.456C569.217 460.2 568.673 460.04 568.065 459.976C567.457 459.88 566.881 459.832 566.337 459.832C564.801 459.832 563.537 460.152 562.545 460.792C561.553 461.432 560.993 462.424 560.865 463.768H555.393C555.489 462.168 555.873 460.84 556.545 459.784C557.217 458.728 558.065 457.88 559.089 457.24C560.145 456.6 561.329 456.152 562.641 455.896C563.953 455.64 565.297 455.512 566.673 455.512C567.889 455.512 569.089 455.64 570.273 455.896C571.457 456.152 572.513 456.568 573.441 457.144C574.401 457.72 575.169 458.472 575.745 459.4C576.321 460.296 576.609 461.4 576.609 462.712V475.48ZM571.137 468.568C570.305 469.112 569.281 469.448 568.065 469.576C566.849 469.672 565.633 469.832 564.417 470.056C563.841 470.152 563.281 470.296 562.737 470.488C562.193 470.648 561.713 470.888 561.297 471.208C560.881 471.496 560.545 471.896 560.289 472.408C560.065 472.888 559.953 473.48 559.953 474.184C559.953 474.792 560.129 475.304 560.481 475.72C560.833 476.136 561.249 476.472 561.729 476.728C562.241 476.952 562.785 477.112 563.361 477.208C563.969 477.304 564.513 477.352 564.993 477.352C565.601 477.352 566.257 477.272 566.961 477.112C567.665 476.952 568.321 476.68 568.929 476.296C569.569 475.912 570.097 475.432 570.513 474.856C570.929 474.248 571.137 473.512 571.137 472.648V468.568ZM582.497 456.184H587.681V459.832L587.777 459.928C588.609 458.552 589.697 457.48 591.041 456.712C592.385 455.912 593.873 455.512 595.505 455.512C598.225 455.512 600.369 456.216 601.937 457.624C603.505 459.032 604.289 461.144 604.289 463.96V481H598.817V465.4C598.753 463.448 598.337 462.04 597.569 461.176C596.801 460.28 595.601 459.832 593.969 459.832C593.041 459.832 592.209 460.008 591.473 460.36C590.737 460.68 590.113 461.144 589.601 461.752C589.089 462.328 588.689 463.016 588.401 463.816C588.113 464.616 587.969 465.464 587.969 466.36V481H582.497V456.184ZM400.42 506.808C398.596 506.808 397.012 507.176 395.668 507.912C394.356 508.648 393.284 509.64 392.452 510.888C391.62 512.104 390.996 513.496 390.58 515.064C390.196 516.632 390.004 518.232 390.004 519.864C390.004 521.496 390.196 523.096 390.58 524.664C390.996 526.232 391.62 527.64 392.452 528.888C393.284 530.104 394.356 531.08 395.668 531.816C397.012 532.552 398.596 532.92 400.42 532.92C402.244 532.92 403.812 532.552 405.124 531.816C406.468 531.08 407.556 530.104 408.388 528.888C409.22 527.64 409.828 526.232 410.212 524.664C410.628 523.096 410.836 521.496 410.836 519.864C410.836 518.232 410.628 516.632 410.212 515.064C409.828 513.496 409.22 512.104 408.388 510.888C407.556 509.64 406.468 508.648 405.124 507.912C403.812 507.176 402.244 506.808 400.42 506.808ZM400.42 501.912C402.98 501.912 405.268 502.392 407.284 503.352C409.332 504.312 411.06 505.608 412.468 507.24C413.876 508.872 414.948 510.776 415.684 512.952C416.452 515.128 416.836 517.432 416.836 519.864C416.836 522.328 416.452 524.648 415.684 526.824C414.948 529 413.876 530.904 412.468 532.536C411.06 534.168 409.332 535.464 407.284 536.424C405.268 537.352 402.98 537.816 400.42 537.816C397.86 537.816 395.556 537.352 393.508 536.424C391.492 535.464 389.78 534.168 388.372 532.536C386.964 530.904 385.876 529 385.108 526.824C384.372 524.648 384.004 522.328 384.004 519.864C384.004 517.432 384.372 515.128 385.108 512.952C385.876 510.776 386.964 508.872 388.372 507.24C389.78 505.608 391.492 504.312 393.508 503.352C395.556 502.392 397.86 501.912 400.42 501.912ZM421.672 502.728H427.144V537H421.672V502.728ZM450.147 522.408C450.083 521.544 449.891 520.712 449.571 519.912C449.283 519.112 448.867 518.424 448.323 517.848C447.811 517.24 447.171 516.76 446.403 516.408C445.667 516.024 444.835 515.832 443.907 515.832C442.947 515.832 442.067 516.008 441.267 516.36C440.499 516.68 439.827 517.144 439.251 517.752C438.707 518.328 438.259 519.016 437.907 519.816C437.587 520.616 437.411 521.48 437.379 522.408H450.147ZM437.379 526.008C437.379 526.968 437.507 527.896 437.763 528.792C438.051 529.688 438.467 530.472 439.011 531.144C439.555 531.816 440.243 532.36 441.075 532.776C441.907 533.16 442.899 533.352 444.051 533.352C445.651 533.352 446.931 533.016 447.891 532.344C448.883 531.64 449.619 530.6 450.099 529.224H455.283C454.995 530.568 454.499 531.768 453.795 532.824C453.091 533.88 452.243 534.776 451.251 535.512C450.259 536.216 449.139 536.744 447.891 537.096C446.675 537.48 445.395 537.672 444.051 537.672C442.099 537.672 440.371 537.352 438.867 536.712C437.363 536.072 436.083 535.176 435.027 534.024C434.003 532.872 433.219 531.496 432.675 529.896C432.163 528.296 431.907 526.536 431.907 524.616C431.907 522.856 432.179 521.192 432.723 519.624C433.299 518.024 434.099 516.632 435.123 515.448C436.179 514.232 437.443 513.272 438.915 512.568C440.387 511.864 442.051 511.512 443.907 511.512C445.859 511.512 447.603 511.928 449.139 512.76C450.707 513.56 452.003 514.632 453.027 515.976C454.051 517.32 454.787 518.872 455.235 520.632C455.715 522.36 455.843 524.152 455.619 526.008H437.379ZM482.722 535.704C482.722 539.448 481.666 542.232 479.554 544.056C477.474 545.912 474.466 546.84 470.53 546.84C469.282 546.84 468.018 546.712 466.738 546.456C465.49 546.2 464.338 545.768 463.282 545.16C462.258 544.552 461.394 543.752 460.69 542.76C459.986 541.768 459.57 540.552 459.442 539.112H464.914C465.074 539.88 465.346 540.504 465.73 540.984C466.114 541.464 466.562 541.832 467.074 542.088C467.618 542.376 468.21 542.552 468.85 542.616C469.49 542.712 470.162 542.76 470.866 542.76C473.074 542.76 474.69 542.216 475.714 541.128C476.738 540.04 477.25 538.472 477.25 536.424V532.632H477.154C476.386 534.008 475.33 535.08 473.986 535.848C472.674 536.616 471.25 537 469.714 537C467.73 537 466.034 536.664 464.626 535.992C463.25 535.288 462.098 534.344 461.17 533.16C460.274 531.944 459.618 530.552 459.202 528.984C458.786 527.416 458.578 525.736 458.578 523.944C458.578 522.28 458.834 520.696 459.346 519.192C459.858 517.688 460.594 516.376 461.554 515.256C462.514 514.104 463.682 513.192 465.058 512.52C466.466 511.848 468.05 511.512 469.81 511.512C471.378 511.512 472.818 511.848 474.13 512.52C475.442 513.16 476.45 514.184 477.154 515.592H477.25V512.184H482.722V535.704ZM470.578 532.68C471.794 532.68 472.818 532.44 473.65 531.96C474.514 531.448 475.202 530.792 475.714 529.992C476.258 529.16 476.642 528.232 476.866 527.208C477.122 526.152 477.25 525.096 477.25 524.04C477.25 522.984 477.122 521.96 476.866 520.968C476.61 519.976 476.21 519.096 475.666 518.328C475.154 517.56 474.466 516.952 473.602 516.504C472.77 516.056 471.762 515.832 470.578 515.832C469.362 515.832 468.338 516.088 467.506 516.6C466.674 517.112 466.002 517.784 465.49 518.616C464.978 519.416 464.61 520.344 464.386 521.4C464.162 522.424 464.05 523.448 464.05 524.472C464.05 525.496 464.178 526.504 464.434 527.496C464.69 528.456 465.074 529.32 465.586 530.088C466.13 530.856 466.802 531.48 467.602 531.96C468.434 532.44 469.426 532.68 470.578 532.68ZM506.295 525.576C506.295 526.888 506.519 528.008 506.967 528.936C507.415 529.864 508.039 530.632 508.839 531.24C509.639 531.816 510.551 532.248 511.575 532.536C512.631 532.792 513.767 532.92 514.983 532.92C516.295 532.92 517.415 532.776 518.343 532.488C519.271 532.168 520.023 531.768 520.599 531.288C521.175 530.808 521.591 530.264 521.847 529.656C522.103 529.016 522.231 528.376 522.231 527.736C522.231 526.424 521.927 525.464 521.319 524.856C520.743 524.216 520.103 523.768 519.399 523.512C518.183 523.064 516.759 522.648 515.127 522.264C513.527 521.848 511.543 521.32 509.175 520.68C507.703 520.296 506.471 519.8 505.479 519.192C504.519 518.552 503.751 517.848 503.175 517.08C502.599 516.312 502.183 515.496 501.927 514.632C501.703 513.768 501.591 512.888 501.591 511.992C501.591 510.264 501.943 508.776 502.647 507.528C503.383 506.248 504.343 505.192 505.527 504.36C506.711 503.528 508.055 502.92 509.559 502.536C511.063 502.12 512.583 501.912 514.119 501.912C515.911 501.912 517.591 502.152 519.159 502.632C520.759 503.08 522.151 503.768 523.335 504.696C524.551 505.624 525.511 506.776 526.215 508.152C526.919 509.496 527.271 511.064 527.271 512.856H521.271C521.111 510.648 520.359 509.096 519.015 508.2C517.671 507.272 515.959 506.808 513.879 506.808C513.175 506.808 512.455 506.888 511.719 507.048C510.983 507.176 510.311 507.416 509.703 507.768C509.095 508.088 508.583 508.536 508.167 509.112C507.783 509.688 507.591 510.408 507.591 511.272C507.591 512.488 507.959 513.448 508.695 514.152C509.463 514.824 510.455 515.336 511.671 515.688C511.799 515.72 512.295 515.864 513.159 516.12C514.055 516.344 515.047 516.6 516.135 516.888C517.223 517.176 518.279 517.464 519.303 517.752C520.359 518.008 521.111 518.2 521.559 518.328C522.679 518.68 523.655 519.16 524.487 519.768C525.319 520.376 526.007 521.08 526.551 521.88C527.127 522.648 527.543 523.48 527.799 524.376C528.087 525.272 528.231 526.168 528.231 527.064C528.231 528.984 527.831 530.632 527.031 532.008C526.263 533.352 525.239 534.456 523.959 535.32C522.679 536.184 521.223 536.808 519.591 537.192C517.959 537.608 516.295 537.816 514.599 537.816C512.647 537.816 510.807 537.576 509.079 537.096C507.351 536.616 505.847 535.88 504.567 534.888C503.287 533.896 502.263 532.632 501.495 531.096C500.727 529.528 500.327 527.688 500.295 525.576H506.295ZM544.092 537.672C542.108 537.672 540.332 537.352 538.764 536.712C537.228 536.04 535.916 535.128 534.828 533.976C533.772 532.824 532.956 531.448 532.38 529.848C531.836 528.248 531.564 526.488 531.564 524.568C531.564 522.68 531.836 520.936 532.38 519.336C532.956 517.736 533.772 516.36 534.828 515.208C535.916 514.056 537.228 513.16 538.764 512.52C540.332 511.848 542.108 511.512 544.092 511.512C546.076 511.512 547.836 511.848 549.372 512.52C550.94 513.16 552.252 514.056 553.308 515.208C554.396 516.36 555.212 517.736 555.756 519.336C556.332 520.936 556.62 522.68 556.62 524.568C556.62 526.488 556.332 528.248 555.756 529.848C555.212 531.448 554.396 532.824 553.308 533.976C552.252 535.128 550.94 536.04 549.372 536.712C547.836 537.352 546.076 537.672 544.092 537.672ZM544.092 533.352C545.308 533.352 546.364 533.096 547.26 532.584C548.156 532.072 548.892 531.4 549.468 530.568C550.044 529.736 550.46 528.808 550.716 527.784C551.004 526.728 551.148 525.656 551.148 524.568C551.148 523.512 551.004 522.456 550.716 521.4C550.46 520.344 550.044 519.416 549.468 518.616C548.892 517.784 548.156 517.112 547.26 516.6C546.364 516.088 545.308 515.832 544.092 515.832C542.876 515.832 541.82 516.088 540.924 516.6C540.028 517.112 539.292 517.784 538.716 518.616C538.14 519.416 537.708 520.344 537.42 521.4C537.164 522.456 537.036 523.512 537.036 524.568C537.036 525.656 537.164 526.728 537.42 527.784C537.708 528.808 538.14 529.736 538.716 530.568C539.292 531.4 540.028 532.072 540.924 532.584C541.82 533.096 542.876 533.352 544.092 533.352ZM558.721 512.184H562.801V510.12C562.801 508.552 562.993 507.288 563.377 506.328C563.761 505.336 564.273 504.584 564.913 504.072C565.553 503.528 566.273 503.176 567.073 503.016C567.905 502.824 568.769 502.728 569.665 502.728C571.425 502.728 572.705 502.84 573.505 503.064V507.336C573.153 507.24 572.769 507.176 572.353 507.144C571.969 507.08 571.505 507.048 570.961 507.048C570.225 507.048 569.585 507.224 569.041 507.576C568.529 507.928 568.273 508.616 568.273 509.64V512.184H572.929V516.264H568.273V537H562.801V516.264H558.721V512.184ZM576.31 512.184H581.446V516.984H581.542C581.702 516.312 582.006 515.656 582.454 515.016C582.934 514.376 583.494 513.8 584.134 513.288C584.806 512.744 585.542 512.312 586.342 511.992C587.142 511.672 587.958 511.512 588.79 511.512C589.43 511.512 589.862 511.528 590.086 511.56C590.342 511.592 590.598 511.624 590.854 511.656V516.936C590.47 516.872 590.07 516.824 589.654 516.792C589.27 516.728 588.886 516.696 588.502 516.696C587.574 516.696 586.694 516.888 585.862 517.272C585.062 517.624 584.358 518.168 583.75 518.904C583.142 519.608 582.662 520.488 582.31 521.544C581.958 522.6 581.782 523.816 581.782 525.192V537H576.31V512.184ZM603.717 537.672C601.733 537.672 599.957 537.352 598.389 536.712C596.853 536.04 595.541 535.128 594.453 533.976C593.397 532.824 592.581 531.448 592.005 529.848C591.461 528.248 591.189 526.488 591.189 524.568C591.189 522.68 591.461 520.936 592.005 519.336C592.581 517.736 593.397 516.36 594.453 515.208C595.541 514.056 596.853 513.16 598.389 512.52C599.957 511.848 601.733 511.512 603.717 511.512C605.701 511.512 607.461 511.848 608.997 512.52C610.565 513.16 611.877 514.056 612.933 515.208C614.021 516.36 614.837 517.736 615.381 519.336C615.957 520.936 616.245 522.68 616.245 524.568C616.245 526.488 615.957 528.248 615.381 529.848C614.837 531.448 614.021 532.824 612.933 533.976C611.877 535.128 610.565 536.04 608.997 536.712C607.461 537.352 605.701 537.672 603.717 537.672ZM603.717 533.352C604.933 533.352 605.989 533.096 606.885 532.584C607.781 532.072 608.517 531.4 609.093 530.568C609.669 529.736 610.085 528.808 610.341 527.784C610.629 526.728 610.773 525.656 610.773 524.568C610.773 523.512 610.629 522.456 610.341 521.4C610.085 520.344 609.669 519.416 609.093 518.616C608.517 517.784 607.781 517.112 606.885 516.6C605.989 516.088 604.933 515.832 603.717 515.832C602.501 515.832 601.445 516.088 600.549 516.6C599.653 517.112 598.917 517.784 598.341 518.616C597.765 519.416 597.333 520.344 597.045 521.4C596.789 522.456 596.661 523.512 596.661 524.568C596.661 525.656 596.789 526.728 597.045 527.784C597.333 528.808 597.765 529.736 598.341 530.568C598.917 531.4 599.653 532.072 600.549 532.584C601.445 533.096 602.501 533.352 603.717 533.352ZM620.794 512.184H625.978V515.832L626.074 515.928C626.906 514.552 627.994 513.48 629.338 512.712C630.682 511.912 632.17 511.512 633.802 511.512C636.522 511.512 638.666 512.216 640.234 513.624C641.802 515.032 642.586 517.144 642.586 519.96V537H637.114V521.4C637.05 519.448 636.634 518.04 635.866 517.176C635.098 516.28 633.898 515.832 632.266 515.832C631.338 515.832 630.506 516.008 629.77 516.36C629.034 516.68 628.41 517.144 627.898 517.752C627.386 518.328 626.986 519.016 626.698 519.816C626.41 520.616 626.266 521.464 626.266 522.36V537H620.794V512.184ZM659.733 537.672C657.749 537.672 655.973 537.352 654.405 536.712C652.869 536.04 651.557 535.128 650.469 533.976C649.413 532.824 648.597 531.448 648.021 529.848C647.477 528.248 647.205 526.488 647.205 524.568C647.205 522.68 647.477 520.936 648.021 519.336C648.597 517.736 649.413 516.36 650.469 515.208C651.557 514.056 652.869 513.16 654.405 512.52C655.973 511.848 657.749 511.512 659.733 511.512C661.717 511.512 663.477 511.848 665.013 512.52C666.581 513.16 667.893 514.056 668.949 515.208C670.037 516.36 670.853 517.736 671.397 519.336C671.973 520.936 672.261 522.68 672.261 524.568C672.261 526.488 671.973 528.248 671.397 529.848C670.853 531.448 670.037 532.824 668.949 533.976C667.893 535.128 666.581 536.04 665.013 536.712C663.477 537.352 661.717 537.672 659.733 537.672ZM659.733 533.352C660.949 533.352 662.005 533.096 662.901 532.584C663.797 532.072 664.533 531.4 665.109 530.568C665.685 529.736 666.101 528.808 666.357 527.784C666.645 526.728 666.789 525.656 666.789 524.568C666.789 523.512 666.645 522.456 666.357 521.4C666.101 520.344 665.685 519.416 665.109 518.616C664.533 517.784 663.797 517.112 662.901 516.6C662.005 516.088 660.949 515.832 659.733 515.832C658.517 515.832 657.461 516.088 656.565 516.6C655.669 517.112 654.933 517.784 654.357 518.616C653.781 519.416 653.349 520.344 653.061 521.4C652.805 522.456 652.677 523.512 652.677 524.568C652.677 525.656 652.805 526.728 653.061 527.784C653.349 528.808 653.781 529.736 654.357 530.568C654.933 531.4 655.669 532.072 656.565 532.584C657.461 533.096 658.517 533.352 659.733 533.352ZM674.362 512.184H680.314L686.602 531.24H686.698L692.746 512.184H698.41L689.53 537H683.386L674.362 512.184ZM405 558.728H419.208C421.832 558.728 424.104 559.176 426.024 560.072C427.944 560.968 429.512 562.2 430.728 563.768C431.944 565.304 432.84 567.112 433.416 569.192C434.024 571.272 434.328 573.496 434.328 575.864C434.328 578.232 434.024 580.456 433.416 582.536C432.84 584.616 431.944 586.44 430.728 588.008C429.512 589.544 427.944 590.76 426.024 591.656C424.104 592.552 421.832 593 419.208 593H405V558.728ZM411 588.104H416.904C419.24 588.104 421.144 587.8 422.616 587.192C424.12 586.552 425.288 585.688 426.12 584.6C426.984 583.48 427.56 582.184 427.848 580.712C428.168 579.208 428.328 577.592 428.328 575.864C428.328 574.136 428.168 572.536 427.848 571.064C427.56 569.56 426.984 568.264 426.12 567.176C425.288 566.056 424.12 565.192 422.616 564.584C421.144 563.944 419.24 563.624 416.904 563.624H411V588.104ZM458.12 581.96C458.12 583.464 457.992 584.92 457.736 586.328C457.48 587.736 456.952 589 456.152 590.12C455.384 591.24 454.248 592.136 452.744 592.808C451.272 593.48 449.304 593.816 446.84 593.816C445.016 593.816 443.464 593.544 442.184 593C440.904 592.424 439.848 591.656 439.016 590.696C438.184 589.704 437.576 588.536 437.192 587.192C436.808 585.848 436.616 584.392 436.616 582.824V581H442.616V582.776C442.616 584.728 442.936 586.248 443.576 587.336C444.248 588.392 445.496 588.92 447.32 588.92C448.28 588.92 449.064 588.776 449.672 588.488C450.312 588.2 450.808 587.784 451.16 587.24C451.544 586.664 451.8 585.96 451.928 585.128C452.056 584.296 452.12 583.352 452.12 582.296V558.728H458.12V581.96ZM493.373 562.808C491.549 562.808 489.965 563.176 488.621 563.912C487.309 564.648 486.237 565.64 485.405 566.888C484.573 568.104 483.949 569.496 483.533 571.064C483.149 572.632 482.957 574.232 482.957 575.864C482.957 577.496 483.149 579.096 483.533 580.664C483.949 582.232 484.573 583.64 485.405 584.888C486.237 586.104 487.309 587.08 488.621 587.816C489.965 588.552 491.549 588.92 493.373 588.92C495.197 588.92 496.765 588.552 498.077 587.816C499.421 587.08 500.509 586.104 501.341 584.888C502.173 583.64 502.781 582.232 503.165 580.664C503.581 579.096 503.789 577.496 503.789 575.864C503.789 574.232 503.581 572.632 503.165 571.064C502.781 569.496 502.173 568.104 501.341 566.888C500.509 565.64 499.421 564.648 498.077 563.912C496.765 563.176 495.197 562.808 493.373 562.808ZM493.373 557.912C495.933 557.912 498.221 558.392 500.237 559.352C502.285 560.312 504.013 561.608 505.421 563.24C506.829 564.872 507.901 566.776 508.637 568.952C509.405 571.128 509.789 573.432 509.789 575.864C509.789 578.328 509.405 580.648 508.637 582.824C507.901 585 506.829 586.904 505.421 588.536C504.013 590.168 502.285 591.464 500.237 592.424C498.221 593.352 495.933 593.816 493.373 593.816C490.813 593.816 488.509 593.352 486.461 592.424C484.445 591.464 482.733 590.168 481.325 588.536C479.917 586.904 478.829 585 478.061 582.824C477.325 580.648 476.957 578.328 476.957 575.864C476.957 573.432 477.325 571.128 478.061 568.952C478.829 566.776 479.917 564.872 481.325 563.24C482.733 561.608 484.445 560.312 486.461 559.352C488.509 558.392 490.813 557.912 493.373 557.912ZM514.626 558.728H520.098V593H514.626V558.728ZM543.1 578.408C543.036 577.544 542.844 576.712 542.524 575.912C542.236 575.112 541.82 574.424 541.276 573.848C540.764 573.24 540.124 572.76 539.356 572.408C538.62 572.024 537.788 571.832 536.86 571.832C535.9 571.832 535.02 572.008 534.22 572.36C533.452 572.68 532.78 573.144 532.204 573.752C531.66 574.328 531.212 575.016 530.86 575.816C530.54 576.616 530.364 577.48 530.332 578.408H543.1ZM530.332 582.008C530.332 582.968 530.46 583.896 530.716 584.792C531.004 585.688 531.42 586.472 531.964 587.144C532.508 587.816 533.196 588.36 534.028 588.776C534.86 589.16 535.852 589.352 537.004 589.352C538.604 589.352 539.884 589.016 540.844 588.344C541.836 587.64 542.572 586.6 543.052 585.224H548.236C547.948 586.568 547.452 587.768 546.748 588.824C546.044 589.88 545.196 590.776 544.204 591.512C543.212 592.216 542.092 592.744 540.844 593.096C539.628 593.48 538.348 593.672 537.004 593.672C535.052 593.672 533.324 593.352 531.82 592.712C530.316 592.072 529.036 591.176 527.98 590.024C526.956 588.872 526.172 587.496 525.628 585.896C525.116 584.296 524.86 582.536 524.86 580.616C524.86 578.856 525.132 577.192 525.676 575.624C526.252 574.024 527.052 572.632 528.076 571.448C529.132 570.232 530.396 569.272 531.868 568.568C533.34 567.864 535.004 567.512 536.86 567.512C538.812 567.512 540.556 567.928 542.092 568.76C543.66 569.56 544.956 570.632 545.98 571.976C547.004 573.32 547.74 574.872 548.188 576.632C548.668 578.36 548.796 580.152 548.572 582.008H530.332ZM575.676 591.704C575.676 595.448 574.62 598.232 572.508 600.056C570.428 601.912 567.42 602.84 563.484 602.84C562.236 602.84 560.972 602.712 559.692 602.456C558.444 602.2 557.292 601.768 556.236 601.16C555.212 600.552 554.348 599.752 553.644 598.76C552.94 597.768 552.524 596.552 552.396 595.112H557.868C558.028 595.88 558.3 596.504 558.684 596.984C559.068 597.464 559.516 597.832 560.028 598.088C560.572 598.376 561.164 598.552 561.804 598.616C562.444 598.712 563.116 598.76 563.82 598.76C566.028 598.76 567.644 598.216 568.668 597.128C569.692 596.04 570.204 594.472 570.204 592.424V588.632H570.108C569.34 590.008 568.284 591.08 566.94 591.848C565.628 592.616 564.204 593 562.668 593C560.684 593 558.988 592.664 557.58 591.992C556.204 591.288 555.052 590.344 554.124 589.16C553.228 587.944 552.572 586.552 552.156 584.984C551.74 583.416 551.532 581.736 551.532 579.944C551.532 578.28 551.788 576.696 552.3 575.192C552.812 573.688 553.548 572.376 554.508 571.256C555.468 570.104 556.636 569.192 558.012 568.52C559.42 567.848 561.004 567.512 562.764 567.512C564.332 567.512 565.772 567.848 567.084 568.52C568.396 569.16 569.404 570.184 570.108 571.592H570.204V568.184H575.676V591.704ZM563.532 588.68C564.748 588.68 565.772 588.44 566.604 587.96C567.468 587.448 568.156 586.792 568.668 585.992C569.212 585.16 569.596 584.232 569.82 583.208C570.076 582.152 570.204 581.096 570.204 580.04C570.204 578.984 570.076 577.96 569.82 576.968C569.564 575.976 569.164 575.096 568.62 574.328C568.108 573.56 567.42 572.952 566.556 572.504C565.724 572.056 564.716 571.832 563.532 571.832C562.316 571.832 561.292 572.088 560.46 572.6C559.628 573.112 558.956 573.784 558.444 574.616C557.932 575.416 557.564 576.344 557.34 577.4C557.116 578.424 557.004 579.448 557.004 580.472C557.004 581.496 557.132 582.504 557.388 583.496C557.644 584.456 558.028 585.32 558.54 586.088C559.084 586.856 559.756 587.48 560.556 587.96C561.388 588.44 562.38 588.68 563.532 588.68ZM601.969 587.48C601.969 588.152 602.049 588.632 602.209 588.92C602.401 589.208 602.753 589.352 603.265 589.352C603.425 589.352 603.617 589.352 603.841 589.352C604.065 589.352 604.321 589.32 604.609 589.256V593.048C604.417 593.112 604.161 593.176 603.841 593.24C603.553 593.336 603.249 593.416 602.929 593.48C602.609 593.544 602.289 593.592 601.969 593.624C601.649 593.656 601.377 593.672 601.153 593.672C600.033 593.672 599.105 593.448 598.369 593C597.633 592.552 597.153 591.768 596.929 590.648C595.841 591.704 594.497 592.472 592.897 592.952C591.329 593.432 589.809 593.672 588.337 593.672C587.217 593.672 586.145 593.512 585.121 593.192C584.097 592.904 583.185 592.472 582.385 591.896C581.617 591.288 580.993 590.536 580.513 589.64C580.065 588.712 579.841 587.64 579.841 586.424C579.841 584.888 580.113 583.64 580.657 582.68C581.233 581.72 581.969 580.968 582.865 580.424C583.793 579.88 584.817 579.496 585.937 579.272C587.089 579.016 588.241 578.824 589.393 578.696C590.385 578.504 591.329 578.376 592.225 578.312C593.121 578.216 593.905 578.072 594.577 577.88C595.281 577.688 595.825 577.4 596.209 577.016C596.625 576.6 596.833 575.992 596.833 575.192C596.833 574.488 596.657 573.912 596.305 573.464C595.985 573.016 595.569 572.68 595.057 572.456C594.577 572.2 594.033 572.04 593.425 571.976C592.817 571.88 592.241 571.832 591.697 571.832C590.161 571.832 588.897 572.152 587.905 572.792C586.913 573.432 586.353 574.424 586.225 575.768H580.753C580.849 574.168 581.233 572.84 581.905 571.784C582.577 570.728 583.425 569.88 584.449 569.24C585.505 568.6 586.689 568.152 588.001 567.896C589.313 567.64 590.657 567.512 592.033 567.512C593.249 567.512 594.449 567.64 595.633 567.896C596.817 568.152 597.873 568.568 598.801 569.144C599.761 569.72 600.529 570.472 601.105 571.4C601.681 572.296 601.969 573.4 601.969 574.712V587.48ZM596.497 580.568C595.665 581.112 594.641 581.448 593.425 581.576C592.209 581.672 590.993 581.832 589.777 582.056C589.201 582.152 588.641 582.296 588.097 582.488C587.553 582.648 587.073 582.888 586.657 583.208C586.241 583.496 585.905 583.896 585.649 584.408C585.425 584.888 585.313 585.48 585.313 586.184C585.313 586.792 585.489 587.304 585.841 587.72C586.193 588.136 586.609 588.472 587.089 588.728C587.601 588.952 588.145 589.112 588.721 589.208C589.329 589.304 589.873 589.352 590.353 589.352C590.961 589.352 591.617 589.272 592.321 589.112C593.025 588.952 593.681 588.68 594.289 588.296C594.929 587.912 595.457 587.432 595.873 586.856C596.289 586.248 596.497 585.512 596.497 584.648V580.568ZM605.361 568.184H609.489V560.744H614.961V568.184H619.905V572.264H614.961V585.512C614.961 586.088 614.977 586.584 615.009 587C615.073 587.416 615.185 587.768 615.345 588.056C615.537 588.344 615.809 588.568 616.161 588.728C616.513 588.856 616.993 588.92 617.601 588.92C617.985 588.92 618.369 588.92 618.753 588.92C619.137 588.888 619.521 588.824 619.905 588.728V592.952C619.297 593.016 618.705 593.08 618.129 593.144C617.553 593.208 616.961 593.24 616.353 593.24C614.913 593.24 613.745 593.112 612.849 592.856C611.985 592.568 611.297 592.168 610.785 591.656C610.305 591.112 609.969 590.44 609.777 589.64C609.617 588.84 609.521 587.928 609.489 586.904V572.264H605.361V568.184ZM635.217 593.672C633.233 593.672 631.457 593.352 629.889 592.712C628.353 592.04 627.041 591.128 625.953 589.976C624.897 588.824 624.081 587.448 623.505 585.848C622.961 584.248 622.689 582.488 622.689 580.568C622.689 578.68 622.961 576.936 623.505 575.336C624.081 573.736 624.897 572.36 625.953 571.208C627.041 570.056 628.353 569.16 629.889 568.52C631.457 567.848 633.233 567.512 635.217 567.512C637.201 567.512 638.961 567.848 640.497 568.52C642.065 569.16 643.377 570.056 644.433 571.208C645.521 572.36 646.337 573.736 646.881 575.336C647.457 576.936 647.745 578.68 647.745 580.568C647.745 582.488 647.457 584.248 646.881 585.848C646.337 587.448 645.521 588.824 644.433 589.976C643.377 591.128 642.065 592.04 640.497 592.712C638.961 593.352 637.201 593.672 635.217 593.672ZM635.217 589.352C636.433 589.352 637.489 589.096 638.385 588.584C639.281 588.072 640.017 587.4 640.593 586.568C641.169 585.736 641.585 584.808 641.841 583.784C642.129 582.728 642.273 581.656 642.273 580.568C642.273 579.512 642.129 578.456 641.841 577.4C641.585 576.344 641.169 575.416 640.593 574.616C640.017 573.784 639.281 573.112 638.385 572.6C637.489 572.088 636.433 571.832 635.217 571.832C634.001 571.832 632.945 572.088 632.049 572.6C631.153 573.112 630.417 573.784 629.841 574.616C629.265 575.416 628.833 576.344 628.545 577.4C628.289 578.456 628.161 579.512 628.161 580.568C628.161 581.656 628.289 582.728 628.545 583.784C628.833 584.808 629.265 585.736 629.841 586.568C630.417 587.4 631.153 588.072 632.049 588.584C632.945 589.096 634.001 589.352 635.217 589.352ZM652.294 568.184H657.43V572.984H657.526C657.686 572.312 657.99 571.656 658.438 571.016C658.918 570.376 659.478 569.8 660.118 569.288C660.79 568.744 661.526 568.312 662.326 567.992C663.126 567.672 663.942 567.512 664.774 567.512C665.414 567.512 665.846 567.528 666.07 567.56C666.326 567.592 666.582 567.624 666.838 567.656V572.936C666.454 572.872 666.054 572.824 665.638 572.792C665.254 572.728 664.87 572.696 664.486 572.696C663.558 572.696 662.678 572.888 661.846 573.272C661.046 573.624 660.342 574.168 659.734 574.904C659.126 575.608 658.646 576.488 658.294 577.544C657.942 578.6 657.766 579.816 657.766 581.192V593H652.294V568.184ZM466.359 614.728H472.359V630.328L487.623 614.728H495.015L481.335 628.408L495.975 649H488.487L477.255 632.632L472.359 637.48V649H466.359V614.728ZM509.826 649.672C507.842 649.672 506.066 649.352 504.498 648.712C502.962 648.04 501.65 647.128 500.562 645.976C499.506 644.824 498.69 643.448 498.114 641.848C497.57 640.248 497.298 638.488 497.298 636.568C497.298 634.68 497.57 632.936 498.114 631.336C498.69 629.736 499.506 628.36 500.562 627.208C501.65 626.056 502.962 625.16 504.498 624.52C506.066 623.848 507.842 623.512 509.826 623.512C511.81 623.512 513.57 623.848 515.106 624.52C516.674 625.16 517.986 626.056 519.042 627.208C520.13 628.36 520.946 629.736 521.49 631.336C522.066 632.936 522.354 634.68 522.354 636.568C522.354 638.488 522.066 640.248 521.49 641.848C520.946 643.448 520.13 644.824 519.042 645.976C517.986 647.128 516.674 648.04 515.106 648.712C513.57 649.352 511.81 649.672 509.826 649.672ZM509.826 645.352C511.042 645.352 512.098 645.096 512.994 644.584C513.89 644.072 514.626 643.4 515.202 642.568C515.778 641.736 516.194 640.808 516.45 639.784C516.738 638.728 516.882 637.656 516.882 636.568C516.882 635.512 516.738 634.456 516.45 633.4C516.194 632.344 515.778 631.416 515.202 630.616C514.626 629.784 513.89 629.112 512.994 628.6C512.098 628.088 511.042 627.832 509.826 627.832C508.61 627.832 507.554 628.088 506.658 628.6C505.762 629.112 505.026 629.784 504.45 630.616C503.874 631.416 503.442 632.344 503.154 633.4C502.898 634.456 502.77 635.512 502.77 636.568C502.77 637.656 502.898 638.728 503.154 639.784C503.442 640.808 503.874 641.736 504.45 642.568C505.026 643.4 505.762 644.072 506.658 644.584C507.554 645.096 508.61 645.352 509.826 645.352ZM527.047 614.728H532.519V649H527.047V614.728ZM549.858 649.672C547.874 649.672 546.098 649.352 544.53 648.712C542.994 648.04 541.682 647.128 540.594 645.976C539.538 644.824 538.722 643.448 538.146 641.848C537.602 640.248 537.33 638.488 537.33 636.568C537.33 634.68 537.602 632.936 538.146 631.336C538.722 629.736 539.538 628.36 540.594 627.208C541.682 626.056 542.994 625.16 544.53 624.52C546.098 623.848 547.874 623.512 549.858 623.512C551.842 623.512 553.602 623.848 555.138 624.52C556.706 625.16 558.018 626.056 559.074 627.208C560.162 628.36 560.978 629.736 561.522 631.336C562.098 632.936 562.386 634.68 562.386 636.568C562.386 638.488 562.098 640.248 561.522 641.848C560.978 643.448 560.162 644.824 559.074 645.976C558.018 647.128 556.706 648.04 555.138 648.712C553.602 649.352 551.842 649.672 549.858 649.672ZM549.858 645.352C551.074 645.352 552.13 645.096 553.026 644.584C553.922 644.072 554.658 643.4 555.234 642.568C555.81 641.736 556.226 640.808 556.482 639.784C556.77 638.728 556.914 637.656 556.914 636.568C556.914 635.512 556.77 634.456 556.482 633.4C556.226 632.344 555.81 631.416 555.234 630.616C554.658 629.784 553.922 629.112 553.026 628.6C552.13 628.088 551.074 627.832 549.858 627.832C548.642 627.832 547.586 628.088 546.69 628.6C545.794 629.112 545.058 629.784 544.482 630.616C543.906 631.416 543.474 632.344 543.186 633.4C542.93 634.456 542.802 635.512 542.802 636.568C542.802 637.656 542.93 638.728 543.186 639.784C543.474 640.808 543.906 641.736 544.482 642.568C545.058 643.4 545.794 644.072 546.69 644.584C547.586 645.096 548.642 645.352 549.858 645.352ZM587.719 643.48C587.719 644.152 587.799 644.632 587.959 644.92C588.151 645.208 588.503 645.352 589.015 645.352C589.175 645.352 589.367 645.352 589.591 645.352C589.815 645.352 590.071 645.32 590.359 645.256V649.048C590.167 649.112 589.911 649.176 589.591 649.24C589.303 649.336 588.999 649.416 588.679 649.48C588.359 649.544 588.039 649.592 587.719 649.624C587.399 649.656 587.127 649.672 586.903 649.672C585.783 649.672 584.855 649.448 584.119 649C583.383 648.552 582.903 647.768 582.679 646.648C581.591 647.704 580.247 648.472 578.647 648.952C577.079 649.432 575.559 649.672 574.087 649.672C572.967 649.672 571.895 649.512 570.871 649.192C569.847 648.904 568.935 648.472 568.135 647.896C567.367 647.288 566.743 646.536 566.263 645.64C565.815 644.712 565.591 643.64 565.591 642.424C565.591 640.888 565.863 639.64 566.407 638.68C566.983 637.72 567.719 636.968 568.615 636.424C569.543 635.88 570.567 635.496 571.687 635.272C572.839 635.016 573.991 634.824 575.143 634.696C576.135 634.504 577.079 634.376 577.975 634.312C578.871 634.216 579.655 634.072 580.327 633.88C581.031 633.688 581.575 633.4 581.959 633.016C582.375 632.6 582.583 631.992 582.583 631.192C582.583 630.488 582.407 629.912 582.055 629.464C581.735 629.016 581.319 628.68 580.807 628.456C580.327 628.2 579.783 628.04 579.175 627.976C578.567 627.88 577.991 627.832 577.447 627.832C575.911 627.832 574.647 628.152 573.655 628.792C572.663 629.432 572.103 630.424 571.975 631.768H566.503C566.599 630.168 566.983 628.84 567.655 627.784C568.327 626.728 569.175 625.88 570.199 625.24C571.255 624.6 572.439 624.152 573.751 623.896C575.063 623.64 576.407 623.512 577.783 623.512C578.999 623.512 580.199 623.64 581.383 623.896C582.567 624.152 583.623 624.568 584.551 625.144C585.511 625.72 586.279 626.472 586.855 627.4C587.431 628.296 587.719 629.4 587.719 630.712V643.48ZM582.247 636.568C581.415 637.112 580.391 637.448 579.175 637.576C577.959 637.672 576.743 637.832 575.527 638.056C574.951 638.152 574.391 638.296 573.847 638.488C573.303 638.648 572.823 638.888 572.407 639.208C571.991 639.496 571.655 639.896 571.399 640.408C571.175 640.888 571.063 641.48 571.063 642.184C571.063 642.792 571.239 643.304 571.591 643.72C571.943 644.136 572.359 644.472 572.839 644.728C573.351 644.952 573.895 645.112 574.471 645.208C575.079 645.304 575.623 645.352 576.103 645.352C576.711 645.352 577.367 645.272 578.071 645.112C578.775 644.952 579.431 644.68 580.039 644.296C580.679 643.912 581.207 643.432 581.623 642.856C582.039 642.248 582.247 641.512 582.247 640.648V636.568ZM593.607 614.728H599.079V627.448H599.175C599.847 626.328 600.839 625.4 602.151 624.664C603.495 623.896 604.983 623.512 606.615 623.512C609.335 623.512 611.479 624.216 613.047 625.624C614.615 627.032 615.399 629.144 615.399 631.96V649H609.927V633.4C609.863 631.448 609.447 630.04 608.679 629.176C607.911 628.28 606.711 627.832 605.079 627.832C604.151 627.832 603.319 628.008 602.583 628.36C601.847 628.68 601.223 629.144 600.711 629.752C600.199 630.328 599.799 631.016 599.511 631.816C599.223 632.616 599.079 633.464 599.079 634.36V649H593.607V614.728Z" fill="black"/>
<path d="M264.539 896.08H274.331C275.771 896.08 276.971 895.68 277.931 894.88C278.891 894.048 279.371 892.864 279.371 891.328C279.371 889.6 278.939 888.384 278.075 887.68C277.211 886.976 275.963 886.624 274.331 886.624H264.539V896.08ZM258.539 881.728H275.195C278.267 881.728 280.731 882.432 282.587 883.84C284.443 885.248 285.371 887.376 285.371 890.224C285.371 891.952 284.939 893.44 284.075 894.688C283.243 895.904 282.043 896.848 280.475 897.52V897.616C282.587 898.064 284.187 899.072 285.275 900.64C286.363 902.176 286.907 904.112 286.907 906.448C286.907 907.792 286.667 909.056 286.187 910.24C285.707 911.392 284.955 912.4 283.931 913.264C282.907 914.096 281.595 914.768 279.995 915.28C278.395 915.76 276.491 916 274.283 916H258.539V881.728ZM264.539 911.104H275.147C276.971 911.104 278.379 910.64 279.371 909.712C280.395 908.752 280.907 907.408 280.907 905.68C280.907 903.984 280.395 902.688 279.371 901.792C278.379 900.864 276.971 900.4 275.147 900.4H264.539V911.104ZM302.944 916.672C300.96 916.672 299.184 916.352 297.616 915.712C296.08 915.04 294.768 914.128 293.68 912.976C292.624 911.824 291.808 910.448 291.232 908.848C290.688 907.248 290.416 905.488 290.416 903.568C290.416 901.68 290.688 899.936 291.232 898.336C291.808 896.736 292.624 895.36 293.68 894.208C294.768 893.056 296.08 892.16 297.616 891.52C299.184 890.848 300.96 890.512 302.944 890.512C304.928 890.512 306.688 890.848 308.224 891.52C309.792 892.16 311.104 893.056 312.16 894.208C313.248 895.36 314.064 896.736 314.608 898.336C315.184 899.936 315.472 901.68 315.472 903.568C315.472 905.488 315.184 907.248 314.608 908.848C314.064 910.448 313.248 911.824 312.16 912.976C311.104 914.128 309.792 915.04 308.224 915.712C306.688 916.352 304.928 916.672 302.944 916.672ZM302.944 912.352C304.16 912.352 305.216 912.096 306.112 911.584C307.008 911.072 307.744 910.4 308.32 909.568C308.896 908.736 309.312 907.808 309.568 906.784C309.856 905.728 310 904.656 310 903.568C310 902.512 309.856 901.456 309.568 900.4C309.312 899.344 308.896 898.416 308.32 897.616C307.744 896.784 307.008 896.112 306.112 895.6C305.216 895.088 304.16 894.832 302.944 894.832C301.728 894.832 300.672 895.088 299.776 895.6C298.88 896.112 298.144 896.784 297.568 897.616C296.992 898.416 296.56 899.344 296.272 900.4C296.016 901.456 295.888 902.512 295.888 903.568C295.888 904.656 296.016 905.728 296.272 906.784C296.56 907.808 296.992 908.736 297.568 909.568C298.144 910.4 298.88 911.072 299.776 911.584C300.672 912.096 301.728 912.352 302.944 912.352ZM326.693 902.944L318.101 891.184H324.725L329.909 898.816L335.333 891.184H341.669L333.221 902.656L342.725 916H336.149L329.861 906.832L323.765 916H317.333L326.693 902.944ZM345.802 881.728H351.274V894.448H351.37C352.042 893.328 353.034 892.4 354.346 891.664C355.69 890.896 357.178 890.512 358.81 890.512C361.53 890.512 363.674 891.216 365.242 892.624C366.81 894.032 367.594 896.144 367.594 898.96V916H362.122V900.4C362.058 898.448 361.642 897.04 360.874 896.176C360.106 895.28 358.906 894.832 357.274 894.832C356.346 894.832 355.514 895.008 354.778 895.36C354.042 895.68 353.418 896.144 352.906 896.752C352.394 897.328 351.994 898.016 351.706 898.816C351.418 899.616 351.274 900.464 351.274 901.36V916H345.802V881.728ZM394.148 910.48C394.148 911.152 394.228 911.632 394.388 911.92C394.58 912.208 394.932 912.352 395.444 912.352C395.604 912.352 395.796 912.352 396.02 912.352C396.244 912.352 396.5 912.32 396.788 912.256V916.048C396.596 916.112 396.34 916.176 396.02 916.24C395.732 916.336 395.428 916.416 395.108 916.48C394.788 916.544 394.468 916.592 394.148 916.624C393.828 916.656 393.556 916.672 393.332 916.672C392.212 916.672 391.284 916.448 390.548 916C389.812 915.552 389.332 914.768 389.108 913.648C388.02 914.704 386.676 915.472 385.076 915.952C383.508 916.432 381.988 916.672 380.516 916.672C379.396 916.672 378.324 916.512 377.3 916.192C376.276 915.904 375.364 915.472 374.564 914.896C373.796 914.288 373.172 913.536 372.692 912.64C372.244 911.712 372.02 910.64 372.02 909.424C372.02 907.888 372.292 906.64 372.836 905.68C373.412 904.72 374.148 903.968 375.044 903.424C375.972 902.88 376.996 902.496 378.116 902.272C379.268 902.016 380.42 901.824 381.572 901.696C382.564 901.504 383.508 901.376 384.404 901.312C385.3 901.216 386.084 901.072 386.756 900.88C387.46 900.688 388.004 900.4 388.388 900.016C388.804 899.6 389.012 898.992 389.012 898.192C389.012 897.488 388.836 896.912 388.484 896.464C388.164 896.016 387.748 895.68 387.236 895.456C386.756 895.2 386.212 895.04 385.604 894.976C384.996 894.88 384.42 894.832 383.876 894.832C382.34 894.832 381.076 895.152 380.084 895.792C379.092 896.432 378.532 897.424 378.404 898.768H372.932C373.028 897.168 373.412 895.84 374.084 894.784C374.756 893.728 375.604 892.88 376.628 892.24C377.684 891.6 378.868 891.152 380.18 890.896C381.492 890.64 382.836 890.512 384.212 890.512C385.428 890.512 386.628 890.64 387.812 890.896C388.996 891.152 390.052 891.568 390.98 892.144C391.94 892.72 392.708 893.472 393.284 894.4C393.86 895.296 394.148 896.4 394.148 897.712V910.48ZM388.676 903.568C387.844 904.112 386.82 904.448 385.604 904.576C384.388 904.672 383.172 904.832 381.956 905.056C381.38 905.152 380.82 905.296 380.276 905.488C379.732 905.648 379.252 905.888 378.836 906.208C378.42 906.496 378.084 906.896 377.828 907.408C377.604 907.888 377.492 908.48 377.492 909.184C377.492 909.792 377.668 910.304 378.02 910.72C378.372 911.136 378.788 911.472 379.268 911.728C379.78 911.952 380.324 912.112 380.9 912.208C381.508 912.304 382.052 912.352 382.532 912.352C383.14 912.352 383.796 912.272 384.5 912.112C385.204 911.952 385.86 911.68 386.468 911.296C387.108 910.912 387.636 910.432 388.052 909.856C388.468 909.248 388.676 908.512 388.676 907.648V903.568ZM422.98 914.704C422.98 918.448 421.924 921.232 419.812 923.056C417.732 924.912 414.724 925.84 410.788 925.84C409.54 925.84 408.276 925.712 406.996 925.456C405.748 925.2 404.596 924.768 403.54 924.16C402.516 923.552 401.652 922.752 400.948 921.76C400.244 920.768 399.828 919.552 399.7 918.112H405.172C405.332 918.88 405.604 919.504 405.988 919.984C406.372 920.464 406.82 920.832 407.332 921.088C407.876 921.376 408.468 921.552 409.108 921.616C409.748 921.712 410.42 921.76 411.124 921.76C413.332 921.76 414.948 921.216 415.972 920.128C416.996 919.04 417.508 917.472 417.508 915.424V911.632H417.412C416.644 913.008 415.588 914.08 414.244 914.848C412.932 915.616 411.508 916 409.972 916C407.988 916 406.292 915.664 404.884 914.992C403.508 914.288 402.356 913.344 401.428 912.16C400.532 910.944 399.876 909.552 399.46 907.984C399.044 906.416 398.836 904.736 398.836 902.944C398.836 901.28 399.092 899.696 399.604 898.192C400.116 896.688 400.852 895.376 401.812 894.256C402.772 893.104 403.94 892.192 405.316 891.52C406.724 890.848 408.308 890.512 410.068 890.512C411.636 890.512 413.076 890.848 414.388 891.52C415.7 892.16 416.708 893.184 417.412 894.592H417.508V891.184H422.98V914.704ZM410.836 911.68C412.052 911.68 413.076 911.44 413.908 910.96C414.772 910.448 415.46 909.792 415.972 908.992C416.516 908.16 416.9 907.232 417.124 906.208C417.38 905.152 417.508 904.096 417.508 903.04C417.508 901.984 417.38 900.96 417.124 899.968C416.868 898.976 416.468 898.096 415.924 897.328C415.412 896.56 414.724 895.952 413.86 895.504C413.028 895.056 412.02 894.832 410.836 894.832C409.62 894.832 408.596 895.088 407.764 895.6C406.932 896.112 406.26 896.784 405.748 897.616C405.236 898.416 404.868 899.344 404.644 900.4C404.42 901.424 404.308 902.448 404.308 903.472C404.308 904.496 404.436 905.504 404.692 906.496C404.948 907.456 405.332 908.32 405.844 909.088C406.388 909.856 407.06 910.48 407.86 910.96C408.692 911.44 409.684 911.68 410.836 911.68ZM445.529 901.408C445.465 900.544 445.273 899.712 444.953 898.912C444.665 898.112 444.249 897.424 443.705 896.848C443.193 896.24 442.553 895.76 441.785 895.408C441.049 895.024 440.217 894.832 439.289 894.832C438.329 894.832 437.449 895.008 436.649 895.36C435.881 895.68 435.209 896.144 434.633 896.752C434.089 897.328 433.641 898.016 433.289 898.816C432.969 899.616 432.793 900.48 432.761 901.408H445.529ZM432.761 905.008C432.761 905.968 432.889 906.896 433.145 907.792C433.433 908.688 433.849 909.472 434.393 910.144C434.937 910.816 435.625 911.36 436.457 911.776C437.289 912.16 438.281 912.352 439.433 912.352C441.033 912.352 442.313 912.016 443.273 911.344C444.265 910.64 445.001 909.6 445.481 908.224H450.665C450.377 909.568 449.881 910.768 449.177 911.824C448.473 912.88 447.625 913.776 446.633 914.512C445.641 915.216 444.521 915.744 443.273 916.096C442.057 916.48 440.777 916.672 439.433 916.672C437.481 916.672 435.753 916.352 434.249 915.712C432.745 915.072 431.465 914.176 430.409 913.024C429.385 911.872 428.601 910.496 428.057 908.896C427.545 907.296 427.289 905.536 427.289 903.616C427.289 901.856 427.561 900.192 428.105 898.624C428.681 897.024 429.481 895.632 430.505 894.448C431.561 893.232 432.825 892.272 434.297 891.568C435.769 890.864 437.433 890.512 439.289 890.512C441.241 890.512 442.985 890.928 444.521 891.76C446.089 892.56 447.385 893.632 448.409 894.976C449.433 896.32 450.169 897.872 450.617 899.632C451.097 901.36 451.225 903.152 451.001 905.008H432.761ZM455.161 891.184H460.345V894.832L460.441 894.928C461.273 893.552 462.361 892.48 463.705 891.712C465.049 890.912 466.537 890.512 468.169 890.512C470.889 890.512 473.033 891.216 474.601 892.624C476.169 894.032 476.953 896.144 476.953 898.96V916H471.481V900.4C471.417 898.448 471.001 897.04 470.233 896.176C469.465 895.28 468.265 894.832 466.633 894.832C465.705 894.832 464.873 895.008 464.137 895.36C463.401 895.68 462.777 896.144 462.265 896.752C461.753 897.328 461.353 898.016 461.065 898.816C460.777 899.616 460.633 900.464 460.633 901.36V916H455.161V891.184ZM499.764 901.408C499.7 900.544 499.508 899.712 499.188 898.912C498.9 898.112 498.484 897.424 497.94 896.848C497.428 896.24 496.788 895.76 496.02 895.408C495.284 895.024 494.452 894.832 493.524 894.832C492.564 894.832 491.684 895.008 490.884 895.36C490.116 895.68 489.444 896.144 488.868 896.752C488.324 897.328 487.876 898.016 487.524 898.816C487.204 899.616 487.028 900.48 486.996 901.408H499.764ZM486.996 905.008C486.996 905.968 487.124 906.896 487.38 907.792C487.668 908.688 488.084 909.472 488.628 910.144C489.172 910.816 489.86 911.36 490.692 911.776C491.524 912.16 492.516 912.352 493.668 912.352C495.268 912.352 496.548 912.016 497.508 911.344C498.5 910.64 499.236 909.6 499.716 908.224H504.9C504.612 909.568 504.116 910.768 503.412 911.824C502.708 912.88 501.86 913.776 500.868 914.512C499.876 915.216 498.756 915.744 497.508 916.096C496.292 916.48 495.012 916.672 493.668 916.672C491.716 916.672 489.988 916.352 488.484 915.712C486.98 915.072 485.7 914.176 484.644 913.024C483.62 911.872 482.836 910.496 482.292 908.896C481.78 907.296 481.524 905.536 481.524 903.616C481.524 901.856 481.796 900.192 482.34 898.624C482.916 897.024 483.716 895.632 484.74 894.448C485.796 893.232 487.06 892.272 488.532 891.568C490.004 890.864 491.668 890.512 493.524 890.512C495.476 890.512 497.22 890.928 498.756 891.76C500.324 892.56 501.62 893.632 502.644 894.976C503.668 896.32 504.404 897.872 504.852 899.632C505.332 901.36 505.46 903.152 505.236 905.008H486.996ZM509.396 891.184H514.532V895.984H514.628C514.788 895.312 515.092 894.656 515.54 894.016C516.02 893.376 516.58 892.8 517.22 892.288C517.892 891.744 518.628 891.312 519.428 890.992C520.228 890.672 521.044 890.512 521.876 890.512C522.516 890.512 522.948 890.528 523.172 890.56C523.428 890.592 523.684 890.624 523.94 890.656V895.936C523.556 895.872 523.156 895.824 522.74 895.792C522.356 895.728 521.972 895.696 521.588 895.696C520.66 895.696 519.78 895.888 518.948 896.272C518.148 896.624 517.444 897.168 516.836 897.904C516.228 898.608 515.748 899.488 515.396 900.544C515.044 901.6 514.868 902.816 514.868 904.192V916H509.396V891.184ZM544.334 904.576C544.334 905.888 544.558 907.008 545.006 907.936C545.454 908.864 546.078 909.632 546.878 910.24C547.678 910.816 548.59 911.248 549.614 911.536C550.67 911.792 551.806 911.92 553.022 911.92C554.334 911.92 555.454 911.776 556.382 911.488C557.31 911.168 558.062 910.768 558.638 910.288C559.214 909.808 559.63 909.264 559.886 908.656C560.142 908.016 560.27 907.376 560.27 906.736C560.27 905.424 559.966 904.464 559.358 903.856C558.782 903.216 558.142 902.768 557.438 902.512C556.222 902.064 554.798 901.648 553.166 901.264C551.566 900.848 549.582 900.32 547.214 899.68C545.742 899.296 544.51 898.8 543.518 898.192C542.558 897.552 541.79 896.848 541.214 896.08C540.638 895.312 540.222 894.496 539.966 893.632C539.742 892.768 539.63 891.888 539.63 890.992C539.63 889.264 539.982 887.776 540.686 886.528C541.422 885.248 542.382 884.192 543.566 883.36C544.75 882.528 546.094 881.92 547.598 881.536C549.102 881.12 550.622 880.912 552.158 880.912C553.95 880.912 555.63 881.152 557.198 881.632C558.798 882.08 560.19 882.768 561.374 883.696C562.59 884.624 563.55 885.776 564.254 887.152C564.958 888.496 565.31 890.064 565.31 891.856H559.31C559.15 889.648 558.398 888.096 557.054 887.2C555.71 886.272 553.998 885.808 551.918 885.808C551.214 885.808 550.494 885.888 549.758 886.048C549.022 886.176 548.35 886.416 547.742 886.768C547.134 887.088 546.622 887.536 546.206 888.112C545.822 888.688 545.63 889.408 545.63 890.272C545.63 891.488 545.998 892.448 546.734 893.152C547.502 893.824 548.494 894.336 549.71 894.688C549.838 894.72 550.334 894.864 551.198 895.12C552.094 895.344 553.086 895.6 554.174 895.888C555.262 896.176 556.318 896.464 557.342 896.752C558.398 897.008 559.15 897.2 559.598 897.328C560.718 897.68 561.694 898.16 562.526 898.768C563.358 899.376 564.046 900.08 564.59 900.88C565.166 901.648 565.582 902.48 565.838 903.376C566.126 904.272 566.27 905.168 566.27 906.064C566.27 907.984 565.87 909.632 565.07 911.008C564.302 912.352 563.278 913.456 561.998 914.32C560.718 915.184 559.262 915.808 557.63 916.192C555.998 916.608 554.334 916.816 552.638 916.816C550.686 916.816 548.846 916.576 547.118 916.096C545.39 915.616 543.886 914.88 542.606 913.888C541.326 912.896 540.302 911.632 539.534 910.096C538.766 908.528 538.366 906.688 538.334 904.576H544.334ZM568.259 891.184H572.387V883.744H577.859V891.184H582.803V895.264H577.859V908.512C577.859 909.088 577.875 909.584 577.907 910C577.971 910.416 578.083 910.768 578.243 911.056C578.435 911.344 578.707 911.568 579.059 911.728C579.411 911.856 579.891 911.92 580.499 911.92C580.883 911.92 581.267 911.92 581.651 911.92C582.035 911.888 582.419 911.824 582.803 911.728V915.952C582.195 916.016 581.603 916.08 581.027 916.144C580.451 916.208 579.859 916.24 579.251 916.24C577.811 916.24 576.643 916.112 575.747 915.856C574.883 915.568 574.195 915.168 573.683 914.656C573.203 914.112 572.867 913.44 572.675 912.64C572.515 911.84 572.419 910.928 572.387 909.904V895.264H568.259V891.184ZM586.739 891.184H591.875V895.984H591.971C592.131 895.312 592.435 894.656 592.883 894.016C593.363 893.376 593.923 892.8 594.563 892.288C595.235 891.744 595.971 891.312 596.771 890.992C597.571 890.672 598.387 890.512 599.219 890.512C599.859 890.512 600.291 890.528 600.515 890.56C600.771 890.592 601.027 890.624 601.283 890.656V895.936C600.899 895.872 600.499 895.824 600.083 895.792C599.699 895.728 599.315 895.696 598.931 895.696C598.003 895.696 597.123 895.888 596.291 896.272C595.491 896.624 594.787 897.168 594.179 897.904C593.571 898.608 593.091 899.488 592.739 900.544C592.387 901.6 592.211 902.816 592.211 904.192V916H586.739V891.184ZM599.64 909.52H606.312V916H599.64V909.52ZM612.232 887.968C613.384 887.968 614.504 887.872 615.592 887.68C616.68 887.488 617.656 887.168 618.52 886.72C619.416 886.272 620.168 885.696 620.776 884.992C621.416 884.288 621.832 883.424 622.023 882.4H626.488V916H620.488V892.288H612.232V887.968ZM649.703 886.048C648.231 886.048 646.983 886.496 645.959 887.392C644.935 888.256 644.423 889.52 644.423 891.184C644.423 892.784 644.919 894.016 645.911 894.88C646.903 895.712 648.167 896.128 649.703 896.128C651.239 896.128 652.503 895.712 653.495 894.88C654.487 894.016 654.983 892.784 654.983 891.184C654.983 889.52 654.471 888.256 653.447 887.392C652.423 886.496 651.175 886.048 649.703 886.048ZM649.703 916.672C648.007 916.672 646.423 916.432 644.951 915.952C643.511 915.472 642.263 914.784 641.207 913.888C640.151 912.96 639.319 911.84 638.711 910.528C638.135 909.216 637.847 907.744 637.847 906.112C637.847 904 638.391 902.224 639.479 900.784C640.599 899.344 642.103 898.384 643.991 897.904V897.808C642.455 897.232 641.271 896.352 640.439 895.168C639.639 893.952 639.239 892.528 639.239 890.896C639.239 888.016 640.135 885.776 641.927 884.176C643.751 882.544 646.343 881.728 649.703 881.728C653.063 881.728 655.639 882.544 657.431 884.176C659.255 885.776 660.167 888.016 660.167 890.896C660.167 892.528 659.751 893.952 658.919 895.168C658.119 896.352 656.951 897.232 655.415 897.808V897.904C657.303 898.384 658.791 899.344 659.879 900.784C660.999 902.224 661.559 904 661.559 906.112C661.559 907.744 661.255 909.216 660.647 910.528C660.071 911.84 659.255 912.96 658.199 913.888C657.143 914.784 655.879 915.472 654.407 915.952C652.967 916.432 651.399 916.672 649.703 916.672ZM649.703 912.352C651.527 912.352 653.047 911.808 654.263 910.72C655.479 909.632 656.087 908.096 656.087 906.112C656.087 904.256 655.479 902.816 654.263 901.792C653.047 900.736 651.527 900.208 649.703 900.208C647.879 900.208 646.359 900.736 645.143 901.792C643.927 902.816 643.319 904.256 643.319 906.112C643.319 908.096 643.927 909.632 645.143 910.72C646.359 911.808 647.879 912.352 649.703 912.352ZM666.343 909.52H673.015V916C672.983 917.984 672.375 919.648 671.191 920.992C670.007 922.336 668.455 923.2 666.535 923.584V920.656C667.591 920.4 668.375 919.808 668.887 918.88C669.431 917.984 669.687 917.024 669.655 916H666.343V909.52ZM692.294 887.968C693.446 887.968 694.566 887.872 695.654 887.68C696.742 887.488 697.718 887.168 698.582 886.72C699.478 886.272 700.23 885.696 700.838 884.992C701.478 884.288 701.894 883.424 702.086 882.4H706.55V916H700.55V892.288H692.294V887.968ZM729.766 881.728C732.166 881.728 734.118 882.288 735.622 883.408C737.158 884.496 738.342 885.904 739.174 887.632C740.038 889.328 740.614 891.2 740.902 893.248C741.222 895.296 741.382 897.28 741.382 899.2C741.382 901.12 741.222 903.104 740.902 905.152C740.614 907.2 740.038 909.088 739.174 910.816C738.342 912.512 737.158 913.92 735.622 915.04C734.118 916.128 732.166 916.672 729.766 916.672C727.366 916.672 725.398 916.128 723.862 915.04C722.358 913.92 721.174 912.512 720.31 910.816C719.478 909.088 718.902 907.2 718.582 905.152C718.294 903.104 718.15 901.12 718.15 899.2C718.15 897.28 718.294 895.296 718.582 893.248C718.902 891.2 719.478 889.328 720.31 887.632C721.174 885.904 722.358 884.496 723.862 883.408C725.398 882.288 727.366 881.728 729.766 881.728ZM729.766 912.112C730.95 912.112 731.942 911.776 732.742 911.104C733.542 910.4 734.166 909.472 734.614 908.32C735.094 907.136 735.43 905.76 735.622 904.192C735.814 902.624 735.91 900.96 735.91 899.2C735.91 897.44 735.814 895.792 735.622 894.256C735.43 892.688 735.094 891.312 734.614 890.128C734.166 888.944 733.542 888.016 732.742 887.344C731.942 886.64 730.95 886.288 729.766 886.288C728.55 886.288 727.542 886.64 726.742 887.344C725.974 888.016 725.35 888.944 724.87 890.128C724.422 891.312 724.102 892.688 723.91 894.256C723.718 895.792 723.622 897.44 723.622 899.2C723.622 900.96 723.718 902.624 723.91 904.192C724.102 905.76 724.422 907.136 724.87 908.32C725.35 909.472 725.974 910.4 726.742 911.104C727.542 911.776 728.55 912.112 729.766 912.112ZM767.91 916H744.966C744.998 913.216 745.67 910.784 746.982 908.704C748.294 906.624 750.086 904.816 752.358 903.28C753.446 902.48 754.582 901.712 755.766 900.976C756.95 900.208 758.038 899.392 759.03 898.528C760.022 897.664 760.838 896.736 761.478 895.744C762.118 894.72 762.454 893.552 762.486 892.24C762.486 891.632 762.406 890.992 762.246 890.32C762.118 889.616 761.846 888.976 761.43 888.4C761.014 887.792 760.438 887.296 759.702 886.912C758.966 886.496 758.006 886.288 756.822 886.288C755.734 886.288 754.822 886.512 754.086 886.96C753.382 887.376 752.806 887.968 752.358 888.736C751.942 889.472 751.622 890.352 751.398 891.376C751.206 892.4 751.094 893.504 751.062 894.688H745.59C745.59 892.832 745.83 891.12 746.31 889.552C746.822 887.952 747.574 886.576 748.566 885.424C749.558 884.272 750.758 883.376 752.166 882.736C753.606 882.064 755.27 881.728 757.158 881.728C759.206 881.728 760.918 882.064 762.294 882.736C763.67 883.408 764.774 884.256 765.606 885.28C766.47 886.304 767.078 887.424 767.43 888.64C767.782 889.824 767.958 890.96 767.958 892.048C767.958 893.392 767.75 894.608 767.334 895.696C766.918 896.784 766.358 897.792 765.654 898.72C764.95 899.616 764.15 900.448 763.254 901.216C762.358 901.984 761.43 902.704 760.47 903.376C759.51 904.048 758.55 904.688 757.59 905.296C756.63 905.904 755.734 906.512 754.902 907.12C754.102 907.728 753.398 908.368 752.79 909.04C752.182 909.68 751.766 910.368 751.542 911.104H767.91V916ZM775.142 903.712H785.318V888.928H785.222L775.142 903.712ZM794.822 908.032H790.502V916H785.318V908.032H770.918V902.608L785.318 882.4H790.502V903.712H794.822V908.032ZM802.342 882.4H819.718V887.296H806.422L804.694 895.84L804.79 895.936C805.526 895.104 806.454 894.48 807.574 894.064C808.726 893.616 809.862 893.392 810.982 893.392C812.646 893.392 814.134 893.68 815.446 894.256C816.758 894.8 817.862 895.584 818.758 896.608C819.654 897.6 820.326 898.784 820.774 900.16C821.254 901.536 821.494 903.024 821.494 904.624C821.494 905.968 821.27 907.36 820.822 908.8C820.406 910.208 819.718 911.504 818.758 912.688C817.83 913.84 816.63 914.8 815.158 915.568C813.686 916.304 811.926 916.672 809.878 916.672C808.246 916.672 806.726 916.448 805.318 916C803.942 915.584 802.726 914.944 801.67 914.08C800.614 913.216 799.766 912.16 799.126 910.912C798.518 909.632 798.182 908.144 798.118 906.448H803.59C803.75 908.272 804.374 909.68 805.462 910.672C806.55 911.632 807.99 912.112 809.782 912.112C810.934 912.112 811.91 911.92 812.71 911.536C813.51 911.152 814.15 910.624 814.63 909.952C815.142 909.28 815.494 908.496 815.686 907.6C815.91 906.704 816.022 905.744 816.022 904.72C816.022 903.792 815.894 902.912 815.638 902.08C815.382 901.216 814.998 900.464 814.486 899.824C813.974 899.184 813.302 898.672 812.47 898.288C811.67 897.904 810.726 897.712 809.638 897.712C808.486 897.712 807.398 897.936 806.374 898.384C805.382 898.8 804.662 899.6 804.214 900.784H798.742L802.342 882.4ZM242.76 937.728H249.096L264.744 962.976H264.84V937.728H270.552V972H264.216L248.616 946.8H248.472V972H242.76V937.728ZM293.912 957.408C293.848 956.544 293.656 955.712 293.336 954.912C293.048 954.112 292.632 953.424 292.088 952.848C291.576 952.24 290.936 951.76 290.168 951.408C289.432 951.024 288.6 950.832 287.672 950.832C286.712 950.832 285.832 951.008 285.032 951.36C284.264 951.68 283.592 952.144 283.016 952.752C282.472 953.328 282.024 954.016 281.672 954.816C281.352 955.616 281.176 956.48 281.144 957.408H293.912ZM281.144 961.008C281.144 961.968 281.272 962.896 281.528 963.792C281.816 964.688 282.232 965.472 282.776 966.144C283.32 966.816 284.008 967.36 284.84 967.776C285.672 968.16 286.664 968.352 287.816 968.352C289.416 968.352 290.696 968.016 291.656 967.344C292.648 966.64 293.384 965.6 293.864 964.224H299.048C298.76 965.568 298.264 966.768 297.56 967.824C296.856 968.88 296.008 969.776 295.016 970.512C294.024 971.216 292.904 971.744 291.656 972.096C290.44 972.48 289.16 972.672 287.816 972.672C285.864 972.672 284.136 972.352 282.632 971.712C281.128 971.072 279.848 970.176 278.792 969.024C277.768 967.872 276.984 966.496 276.44 964.896C275.928 963.296 275.672 961.536 275.672 959.616C275.672 957.856 275.944 956.192 276.488 954.624C277.064 953.024 277.864 951.632 278.888 950.448C279.944 949.232 281.208 948.272 282.68 947.568C284.152 946.864 285.816 946.512 287.672 946.512C289.624 946.512 291.368 946.928 292.904 947.76C294.472 948.56 295.768 949.632 296.792 950.976C297.816 952.32 298.552 953.872 299 955.632C299.48 957.36 299.608 959.152 299.384 961.008H281.144ZM325.336 972H319.96V968.544H319.864C319.192 969.792 318.184 970.8 316.84 971.568C315.528 972.304 314.184 972.672 312.808 972.672C309.544 972.672 307.176 971.872 305.704 970.272C304.264 968.64 303.544 966.192 303.544 962.928V947.184H309.016V962.4C309.016 964.576 309.432 966.112 310.264 967.008C311.096 967.904 312.264 968.352 313.768 968.352C314.92 968.352 315.88 968.176 316.648 967.824C317.416 967.472 318.04 967.008 318.52 966.432C319 965.824 319.336 965.104 319.528 964.272C319.752 963.44 319.864 962.544 319.864 961.584V947.184H325.336V972ZM348.147 957.408C348.083 956.544 347.891 955.712 347.571 954.912C347.283 954.112 346.867 953.424 346.323 952.848C345.811 952.24 345.171 951.76 344.403 951.408C343.667 951.024 342.835 950.832 341.907 950.832C340.947 950.832 340.067 951.008 339.267 951.36C338.499 951.68 337.827 952.144 337.251 952.752C336.707 953.328 336.259 954.016 335.907 954.816C335.587 955.616 335.411 956.48 335.379 957.408H348.147ZM335.379 961.008C335.379 961.968 335.507 962.896 335.763 963.792C336.051 964.688 336.467 965.472 337.011 966.144C337.555 966.816 338.243 967.36 339.075 967.776C339.907 968.16 340.899 968.352 342.051 968.352C343.651 968.352 344.931 968.016 345.891 967.344C346.883 966.64 347.619 965.6 348.099 964.224H353.283C352.995 965.568 352.499 966.768 351.795 967.824C351.091 968.88 350.243 969.776 349.251 970.512C348.259 971.216 347.139 971.744 345.891 972.096C344.675 972.48 343.395 972.672 342.051 972.672C340.099 972.672 338.371 972.352 336.867 971.712C335.363 971.072 334.083 970.176 333.027 969.024C332.003 967.872 331.219 966.496 330.675 964.896C330.163 963.296 329.907 961.536 329.907 959.616C329.907 957.856 330.179 956.192 330.723 954.624C331.299 953.024 332.099 951.632 333.123 950.448C334.179 949.232 335.443 948.272 336.915 947.568C338.387 946.864 340.051 946.512 341.907 946.512C343.859 946.512 345.603 946.928 347.139 947.76C348.707 948.56 350.003 949.632 351.027 950.976C352.051 952.32 352.787 953.872 353.235 955.632C353.715 957.36 353.843 959.152 353.619 961.008H335.379ZM377.906 952.08H387.698C389.138 952.08 390.338 951.68 391.298 950.88C392.258 950.048 392.738 948.864 392.738 947.328C392.738 945.6 392.306 944.384 391.442 943.68C390.578 942.976 389.33 942.624 387.698 942.624H377.906V952.08ZM371.906 937.728H388.562C391.634 937.728 394.098 938.432 395.954 939.84C397.81 941.248 398.738 943.376 398.738 946.224C398.738 947.952 398.306 949.44 397.442 950.688C396.61 951.904 395.41 952.848 393.842 953.52V953.616C395.954 954.064 397.554 955.072 398.642 956.64C399.73 958.176 400.274 960.112 400.274 962.448C400.274 963.792 400.034 965.056 399.554 966.24C399.074 967.392 398.322 968.4 397.298 969.264C396.274 970.096 394.962 970.768 393.362 971.28C391.762 971.76 389.858 972 387.65 972H371.906V937.728ZM377.906 967.104H388.514C390.338 967.104 391.746 966.64 392.738 965.712C393.762 964.752 394.274 963.408 394.274 961.68C394.274 959.984 393.762 958.688 392.738 957.792C391.746 956.864 390.338 956.4 388.514 956.4H377.906V967.104ZM426.727 972H421.351V968.544H421.255C420.583 969.792 419.575 970.8 418.231 971.568C416.919 972.304 415.575 972.672 414.199 972.672C410.935 972.672 408.567 971.872 407.095 970.272C405.655 968.64 404.935 966.192 404.935 962.928V947.184H410.407V962.4C410.407 964.576 410.823 966.112 411.655 967.008C412.487 967.904 413.655 968.352 415.159 968.352C416.311 968.352 417.271 968.176 418.039 967.824C418.807 967.472 419.431 967.008 419.911 966.432C420.391 965.824 420.727 965.104 420.919 964.272C421.143 963.44 421.255 962.544 421.255 961.584V947.184H426.727V972ZM432.497 937.728H437.969V950.448H438.065C438.737 949.328 439.729 948.4 441.041 947.664C442.385 946.896 443.873 946.512 445.505 946.512C448.225 946.512 450.369 947.216 451.937 948.624C453.505 950.032 454.289 952.144 454.289 954.96V972H448.817V956.4C448.753 954.448 448.337 953.04 447.569 952.176C446.801 951.28 445.601 950.832 443.969 950.832C443.041 950.832 442.209 951.008 441.473 951.36C440.737 951.68 440.113 952.144 439.601 952.752C439.089 953.328 438.689 954.016 438.401 954.816C438.113 955.616 437.969 956.464 437.969 957.36V972H432.497V937.728ZM460.06 947.184H465.244V950.832L465.34 950.928C466.172 949.552 467.26 948.48 468.604 947.712C469.948 946.912 471.436 946.512 473.068 946.512C475.788 946.512 477.932 947.216 479.5 948.624C481.068 950.032 481.852 952.144 481.852 954.96V972H476.38V956.4C476.316 954.448 475.9 953.04 475.132 952.176C474.364 951.28 473.164 950.832 471.532 950.832C470.604 950.832 469.772 951.008 469.036 951.36C468.3 951.68 467.676 952.144 467.164 952.752C466.652 953.328 466.252 954.016 465.964 954.816C465.676 955.616 465.532 956.464 465.532 957.36V972H460.06V947.184ZM504.662 957.408C504.598 956.544 504.406 955.712 504.086 954.912C503.798 954.112 503.382 953.424 502.838 952.848C502.326 952.24 501.686 951.76 500.918 951.408C500.182 951.024 499.35 950.832 498.422 950.832C497.462 950.832 496.582 951.008 495.782 951.36C495.014 951.68 494.342 952.144 493.766 952.752C493.222 953.328 492.774 954.016 492.422 954.816C492.102 955.616 491.926 956.48 491.894 957.408H504.662ZM491.894 961.008C491.894 961.968 492.022 962.896 492.278 963.792C492.566 964.688 492.982 965.472 493.526 966.144C494.07 966.816 494.758 967.36 495.59 967.776C496.422 968.16 497.414 968.352 498.566 968.352C500.166 968.352 501.446 968.016 502.406 967.344C503.398 966.64 504.134 965.6 504.614 964.224H509.798C509.51 965.568 509.014 966.768 508.31 967.824C507.606 968.88 506.758 969.776 505.766 970.512C504.774 971.216 503.654 971.744 502.406 972.096C501.19 972.48 499.91 972.672 498.566 972.672C496.614 972.672 494.886 972.352 493.382 971.712C491.878 971.072 490.598 970.176 489.542 969.024C488.518 967.872 487.734 966.496 487.19 964.896C486.678 963.296 486.422 961.536 486.422 959.616C486.422 957.856 486.694 956.192 487.238 954.624C487.814 953.024 488.614 951.632 489.638 950.448C490.694 949.232 491.958 948.272 493.43 947.568C494.902 946.864 496.566 946.512 498.422 946.512C500.374 946.512 502.118 946.928 503.654 947.76C505.222 948.56 506.518 949.632 507.542 950.976C508.566 952.32 509.302 953.872 509.75 955.632C510.23 957.36 510.358 959.152 510.134 961.008H491.894ZM528.421 937.728H552.085V942.912H534.421V951.888H549.925V956.784H534.421V972H528.421V937.728ZM556.107 947.184H561.243V951.984H561.339C561.499 951.312 561.803 950.656 562.251 950.016C562.731 949.376 563.291 948.8 563.931 948.288C564.603 947.744 565.339 947.312 566.139 946.992C566.939 946.672 567.755 946.512 568.587 946.512C569.227 946.512 569.659 946.528 569.883 946.56C570.139 946.592 570.395 946.624 570.651 946.656V951.936C570.267 951.872 569.867 951.824 569.451 951.792C569.067 951.728 568.683 951.696 568.299 951.696C567.371 951.696 566.491 951.888 565.659 952.272C564.859 952.624 564.155 953.168 563.547 953.904C562.939 954.608 562.459 955.488 562.107 956.544C561.755 957.6 561.579 958.816 561.579 960.192V972H556.107V947.184ZM573.126 937.728H578.598V942.912H573.126V937.728ZM573.126 947.184H578.598V972H573.126V947.184ZM601.6 957.408C601.536 956.544 601.344 955.712 601.024 954.912C600.736 954.112 600.32 953.424 599.776 952.848C599.264 952.24 598.624 951.76 597.856 951.408C597.12 951.024 596.288 950.832 595.36 950.832C594.4 950.832 593.52 951.008 592.72 951.36C591.952 951.68 591.28 952.144 590.704 952.752C590.16 953.328 589.712 954.016 589.36 954.816C589.04 955.616 588.864 956.48 588.832 957.408H601.6ZM588.832 961.008C588.832 961.968 588.96 962.896 589.216 963.792C589.504 964.688 589.92 965.472 590.464 966.144C591.008 966.816 591.696 967.36 592.528 967.776C593.36 968.16 594.352 968.352 595.504 968.352C597.104 968.352 598.384 968.016 599.344 967.344C600.336 966.64 601.072 965.6 601.552 964.224H606.736C606.448 965.568 605.952 966.768 605.248 967.824C604.544 968.88 603.696 969.776 602.704 970.512C601.712 971.216 600.592 971.744 599.344 972.096C598.128 972.48 596.848 972.672 595.504 972.672C593.552 972.672 591.824 972.352 590.32 971.712C588.816 971.072 587.536 970.176 586.48 969.024C585.456 967.872 584.672 966.496 584.128 964.896C583.616 963.296 583.36 961.536 583.36 959.616C583.36 957.856 583.632 956.192 584.176 954.624C584.752 953.024 585.552 951.632 586.576 950.448C587.632 949.232 588.896 948.272 590.368 947.568C591.84 946.864 593.504 946.512 595.36 946.512C597.312 946.512 599.056 946.928 600.592 947.76C602.16 948.56 603.456 949.632 604.48 950.976C605.504 952.32 606.24 953.872 606.688 955.632C607.168 957.36 607.296 959.152 607.072 961.008H588.832ZM634.608 972H629.424V968.64H629.328C628.592 970.08 627.52 971.12 626.112 971.76C624.704 972.368 623.216 972.672 621.648 972.672C619.696 972.672 617.984 972.336 616.512 971.664C615.072 970.96 613.872 970.016 612.912 968.832C611.952 967.648 611.232 966.256 610.752 964.656C610.272 963.024 610.032 961.28 610.032 959.424C610.032 957.184 610.336 955.248 610.944 953.616C611.552 951.984 612.352 950.64 613.344 949.584C614.368 948.528 615.52 947.76 616.8 947.28C618.112 946.768 619.44 946.512 620.784 946.512C621.552 946.512 622.336 946.592 623.136 946.752C623.936 946.88 624.704 947.104 625.44 947.424C626.176 947.744 626.848 948.16 627.456 948.672C628.096 949.152 628.624 949.728 629.04 950.4H629.136V937.728H634.608V972ZM615.504 959.856C615.504 960.912 615.632 961.952 615.888 962.976C616.176 964 616.592 964.912 617.136 965.712C617.712 966.512 618.432 967.152 619.296 967.632C620.16 968.112 621.184 968.352 622.368 968.352C623.584 968.352 624.624 968.096 625.488 967.584C626.384 967.072 627.104 966.4 627.648 965.568C628.224 964.736 628.64 963.808 628.896 962.784C629.184 961.728 629.328 960.656 629.328 959.568C629.328 956.816 628.704 954.672 627.456 953.136C626.24 951.6 624.576 950.832 622.464 950.832C621.184 950.832 620.096 951.104 619.2 951.648C618.336 952.16 617.616 952.848 617.04 953.712C616.496 954.544 616.096 955.504 615.84 956.592C615.616 957.648 615.504 958.736 615.504 959.856ZM640.575 947.184H645.711V951.984H645.807C645.967 951.312 646.271 950.656 646.719 950.016C647.199 949.376 647.759 948.8 648.399 948.288C649.071 947.744 649.807 947.312 650.607 946.992C651.407 946.672 652.223 946.512 653.055 946.512C653.695 946.512 654.127 946.528 654.351 946.56C654.607 946.592 654.863 946.624 655.119 946.656V951.936C654.735 951.872 654.335 951.824 653.919 951.792C653.535 951.728 653.151 951.696 652.767 951.696C651.839 951.696 650.959 951.888 650.127 952.272C649.327 952.624 648.623 953.168 648.015 953.904C647.407 954.608 646.927 955.488 646.575 956.544C646.223 957.6 646.047 958.816 646.047 960.192V972H640.575V947.184ZM657.594 937.728H663.066V942.912H657.594V937.728ZM657.594 947.184H663.066V972H657.594V947.184ZM685.78 955.488C685.556 953.952 684.932 952.8 683.908 952.032C682.916 951.232 681.652 950.832 680.116 950.832C679.412 950.832 678.66 950.96 677.86 951.216C677.06 951.44 676.324 951.888 675.652 952.56C674.98 953.2 674.42 954.112 673.972 955.296C673.524 956.448 673.3 957.968 673.3 959.856C673.3 960.88 673.412 961.904 673.636 962.928C673.892 963.952 674.276 964.864 674.788 965.664C675.332 966.464 676.02 967.12 676.852 967.632C677.684 968.112 678.692 968.352 679.876 968.352C681.476 968.352 682.788 967.856 683.812 966.864C684.868 965.872 685.524 964.48 685.78 962.688H691.252C690.74 965.92 689.508 968.4 687.556 970.128C685.636 971.824 683.076 972.672 679.876 972.672C677.924 972.672 676.196 972.352 674.692 971.712C673.22 971.04 671.972 970.144 670.948 969.024C669.924 967.872 669.14 966.512 668.596 964.944C668.084 963.376 667.828 961.68 667.828 959.856C667.828 958 668.084 956.256 668.596 954.624C669.108 952.992 669.876 951.584 670.9 950.4C671.924 949.184 673.188 948.24 674.692 947.568C676.228 946.864 678.02 946.512 680.068 946.512C681.508 946.512 682.868 946.704 684.148 947.088C685.46 947.44 686.612 947.984 687.604 948.72C688.628 949.456 689.46 950.384 690.1 951.504C690.74 952.624 691.124 953.952 691.252 955.488H685.78ZM695.7 937.728H701.172V950.448H701.268C701.94 949.328 702.932 948.4 704.244 947.664C705.588 946.896 707.076 946.512 708.708 946.512C711.428 946.512 713.572 947.216 715.14 948.624C716.708 950.032 717.492 952.144 717.492 954.96V972H712.02V956.4C711.956 954.448 711.54 953.04 710.772 952.176C710.004 951.28 708.804 950.832 707.172 950.832C706.244 950.832 705.412 951.008 704.676 951.36C703.94 951.68 703.316 952.144 702.804 952.752C702.292 953.328 701.892 954.016 701.604 954.816C701.316 955.616 701.172 956.464 701.172 957.36V972H695.7V937.728ZM727.391 964.032C727.551 965.632 728.159 966.752 729.215 967.392C730.271 968.032 731.535 968.352 733.007 968.352C733.519 968.352 734.095 968.32 734.735 968.256C735.407 968.16 736.031 968 736.607 967.776C737.183 967.552 737.647 967.232 737.999 966.816C738.383 966.368 738.559 965.792 738.527 965.088C738.495 964.384 738.239 963.808 737.759 963.36C737.279 962.912 736.655 962.56 735.887 962.304C735.151 962.016 734.303 961.776 733.343 961.584C732.383 961.392 731.407 961.184 730.415 960.96C729.391 960.736 728.399 960.464 727.439 960.144C726.511 959.824 725.663 959.392 724.895 958.848C724.159 958.304 723.567 957.616 723.119 956.784C722.671 955.92 722.447 954.864 722.447 953.616C722.447 952.272 722.767 951.152 723.407 950.256C724.079 949.328 724.911 948.592 725.903 948.048C726.927 947.472 728.047 947.072 729.263 946.848C730.511 946.624 731.695 946.512 732.815 946.512C734.095 946.512 735.311 946.656 736.463 946.944C737.647 947.2 738.703 947.632 739.631 948.24C740.591 948.848 741.375 949.648 741.983 950.64C742.623 951.6 743.023 952.768 743.183 954.144H737.471C737.215 952.832 736.607 951.952 735.647 951.504C734.719 951.056 733.647 950.832 732.431 950.832C732.047 950.832 731.583 950.864 731.039 950.928C730.527 950.992 730.031 951.12 729.551 951.312C729.103 951.472 728.719 951.728 728.399 952.08C728.079 952.4 727.919 952.832 727.919 953.376C727.919 954.048 728.143 954.592 728.591 955.008C729.071 955.424 729.679 955.776 730.415 956.064C731.183 956.32 732.047 956.544 733.007 956.736C733.967 956.928 734.959 957.136 735.983 957.36C736.975 957.584 737.951 957.856 738.911 958.176C739.871 958.496 740.719 958.928 741.455 959.472C742.223 960.016 742.831 960.704 743.279 961.536C743.759 962.368 743.999 963.392 743.999 964.608C743.999 966.08 743.663 967.328 742.991 968.352C742.319 969.376 741.439 970.208 740.351 970.848C739.295 971.488 738.111 971.952 736.799 972.24C735.487 972.528 734.191 972.672 732.911 972.672C731.343 972.672 729.887 972.496 728.543 972.144C727.231 971.792 726.079 971.264 725.087 970.56C724.127 969.824 723.359 968.928 722.783 967.872C722.239 966.784 721.951 965.504 721.919 964.032H727.391ZM748.153 937.728H753.625V950.448H753.721C754.393 949.328 755.385 948.4 756.697 947.664C758.041 946.896 759.529 946.512 761.161 946.512C763.881 946.512 766.025 947.216 767.593 948.624C769.161 950.032 769.945 952.144 769.945 954.96V972H764.473V956.4C764.409 954.448 763.993 953.04 763.225 952.176C762.457 951.28 761.257 950.832 759.625 950.832C758.697 950.832 757.865 951.008 757.129 951.36C756.393 951.68 755.769 952.144 755.257 952.752C754.745 953.328 754.345 954.016 754.057 954.816C753.769 955.616 753.625 956.464 753.625 957.36V972H748.153V937.728ZM796.5 966.48C796.5 967.152 796.58 967.632 796.74 967.92C796.932 968.208 797.284 968.352 797.796 968.352C797.956 968.352 798.148 968.352 798.372 968.352C798.596 968.352 798.852 968.32 799.14 968.256V972.048C798.948 972.112 798.692 972.176 798.372 972.24C798.084 972.336 797.78 972.416 797.46 972.48C797.14 972.544 796.82 972.592 796.5 972.624C796.18 972.656 795.908 972.672 795.684 972.672C794.564 972.672 793.636 972.448 792.9 972C792.164 971.552 791.684 970.768 791.46 969.648C790.372 970.704 789.028 971.472 787.428 971.952C785.86 972.432 784.34 972.672 782.868 972.672C781.748 972.672 780.676 972.512 779.652 972.192C778.628 971.904 777.716 971.472 776.916 970.896C776.148 970.288 775.524 969.536 775.044 968.64C774.596 967.712 774.372 966.64 774.372 965.424C774.372 963.888 774.644 962.64 775.188 961.68C775.764 960.72 776.5 959.968 777.396 959.424C778.324 958.88 779.348 958.496 780.468 958.272C781.62 958.016 782.772 957.824 783.924 957.696C784.916 957.504 785.86 957.376 786.756 957.312C787.652 957.216 788.436 957.072 789.108 956.88C789.812 956.688 790.356 956.4 790.74 956.016C791.156 955.6 791.364 954.992 791.364 954.192C791.364 953.488 791.188 952.912 790.836 952.464C790.516 952.016 790.1 951.68 789.588 951.456C789.108 951.2 788.564 951.04 787.956 950.976C787.348 950.88 786.772 950.832 786.228 950.832C784.692 950.832 783.428 951.152 782.436 951.792C781.444 952.432 780.884 953.424 780.756 954.768H775.284C775.38 953.168 775.764 951.84 776.436 950.784C777.108 949.728 777.956 948.88 778.98 948.24C780.036 947.6 781.22 947.152 782.532 946.896C783.844 946.64 785.188 946.512 786.564 946.512C787.78 946.512 788.98 946.64 790.164 946.896C791.348 947.152 792.404 947.568 793.332 948.144C794.292 948.72 795.06 949.472 795.636 950.4C796.212 951.296 796.5 952.4 796.5 953.712V966.48ZM791.028 959.568C790.196 960.112 789.172 960.448 787.956 960.576C786.74 960.672 785.524 960.832 784.308 961.056C783.732 961.152 783.172 961.296 782.628 961.488C782.084 961.648 781.604 961.888 781.188 962.208C780.772 962.496 780.436 962.896 780.18 963.408C779.956 963.888 779.844 964.48 779.844 965.184C779.844 965.792 780.02 966.304 780.372 966.72C780.724 967.136 781.14 967.472 781.62 967.728C782.132 967.952 782.676 968.112 783.252 968.208C783.86 968.304 784.404 968.352 784.884 968.352C785.492 968.352 786.148 968.272 786.852 968.112C787.556 967.952 788.212 967.68 788.82 967.296C789.46 966.912 789.988 966.432 790.404 965.856C790.82 965.248 791.028 964.512 791.028 963.648V959.568ZM802.532 937.728H808.004V942.912H802.532V937.728ZM802.532 947.184H808.004V972H802.532V947.184ZM813.966 947.184H819.15V950.832L819.246 950.928C820.078 949.552 821.166 948.48 822.51 947.712C823.854 946.912 825.342 946.512 826.974 946.512C829.694 946.512 831.838 947.216 833.406 948.624C834.974 950.032 835.758 952.144 835.758 954.96V972H830.286V956.4C830.222 954.448 829.806 953.04 829.038 952.176C828.27 951.28 827.07 950.832 825.438 950.832C824.51 950.832 823.678 951.008 822.942 951.36C822.206 951.68 821.582 952.144 821.07 952.752C820.558 953.328 820.158 954.016 819.87 954.816C819.582 955.616 819.438 956.464 819.438 957.36V972H813.966V947.184Z" fill="black"/>
<path d="M364.7 113.968C365.852 113.968 366.972 113.872 368.06 113.68C369.148 113.488 370.124 113.168 370.988 112.72C371.884 112.272 372.636 111.696 373.244 110.992C373.884 110.288 374.3 109.424 374.492 108.4H378.956V142H372.956V118.288H364.7V113.968ZM413.644 142H390.7C390.732 139.216 391.404 136.784 392.716 134.704C394.028 132.624 395.82 130.816 398.092 129.28C399.18 128.48 400.316 127.712 401.5 126.976C402.684 126.208 403.772 125.392 404.764 124.528C405.756 123.664 406.572 122.736 407.212 121.744C407.852 120.72 408.188 119.552 408.22 118.24C408.22 117.632 408.14 116.992 407.98 116.32C407.852 115.616 407.58 114.976 407.164 114.4C406.748 113.792 406.172 113.296 405.436 112.912C404.7 112.496 403.74 112.288 402.556 112.288C401.468 112.288 400.556 112.512 399.82 112.96C399.116 113.376 398.54 113.968 398.092 114.736C397.676 115.472 397.356 116.352 397.132 117.376C396.94 118.4 396.828 119.504 396.796 120.688H391.324C391.324 118.832 391.564 117.12 392.044 115.552C392.556 113.952 393.308 112.576 394.3 111.424C395.292 110.272 396.492 109.376 397.9 108.736C399.34 108.064 401.004 107.728 402.892 107.728C404.94 107.728 406.652 108.064 408.028 108.736C409.404 109.408 410.508 110.256 411.34 111.28C412.204 112.304 412.812 113.424 413.164 114.64C413.516 115.824 413.692 116.96 413.692 118.048C413.692 119.392 413.484 120.608 413.068 121.696C412.652 122.784 412.092 123.792 411.388 124.72C410.684 125.616 409.884 126.448 408.988 127.216C408.092 127.984 407.164 128.704 406.204 129.376C405.244 130.048 404.284 130.688 403.324 131.296C402.364 131.904 401.468 132.512 400.636 133.12C399.836 133.728 399.132 134.368 398.524 135.04C397.916 135.68 397.5 136.368 397.276 137.104H413.644V142ZM441.675 107.728H448.059L461.259 142H454.827L451.611 132.928H437.931L434.715 142H428.523L441.675 107.728ZM439.563 128.368H450.027L444.891 113.632H444.747L439.563 128.368ZM463.755 117.184H468.939V120.64H469.083C469.499 120.032 469.947 119.472 470.427 118.96C470.907 118.448 471.435 118.016 472.011 117.664C472.619 117.312 473.307 117.04 474.075 116.848C474.843 116.624 475.723 116.512 476.715 116.512C478.219 116.512 479.611 116.848 480.891 117.52C482.203 118.192 483.131 119.232 483.675 120.64C484.603 119.36 485.675 118.352 486.891 117.616C488.107 116.88 489.627 116.512 491.451 116.512C494.075 116.512 496.107 117.152 497.547 118.432C499.019 119.712 499.755 121.856 499.755 124.864V142H494.283V127.504C494.283 126.512 494.251 125.616 494.187 124.816C494.123 123.984 493.931 123.28 493.611 122.704C493.323 122.096 492.875 121.632 492.267 121.312C491.659 120.992 490.827 120.832 489.771 120.832C487.915 120.832 486.571 121.408 485.739 122.56C484.907 123.712 484.491 125.344 484.491 127.456V142H479.019V126.064C479.019 124.336 478.699 123.04 478.059 122.176C477.451 121.28 476.315 120.832 474.651 120.832C473.947 120.832 473.259 120.976 472.587 121.264C471.947 121.552 471.371 121.968 470.859 122.512C470.379 123.056 469.979 123.728 469.659 124.528C469.371 125.328 469.227 126.24 469.227 127.264V142H463.755V117.184ZM522.24 126.352H557.76V131.536H522.24V126.352ZM579.903 113.968C581.055 113.968 582.175 113.872 583.263 113.68C584.351 113.488 585.327 113.168 586.191 112.72C587.087 112.272 587.839 111.696 588.447 110.992C589.087 110.288 589.503 109.424 589.695 108.4H594.159V142H588.159V118.288H579.903V113.968ZM617.375 107.728C619.775 107.728 621.727 108.288 623.231 109.408C624.767 110.496 625.951 111.904 626.783 113.632C627.647 115.328 628.223 117.2 628.511 119.248C628.831 121.296 628.991 123.28 628.991 125.2C628.991 127.12 628.831 129.104 628.511 131.152C628.223 133.2 627.647 135.088 626.783 136.816C625.951 138.512 624.767 139.92 623.231 141.04C621.727 142.128 619.775 142.672 617.375 142.672C614.975 142.672 613.007 142.128 611.471 141.04C609.967 139.92 608.783 138.512 607.919 136.816C607.087 135.088 606.511 133.2 606.191 131.152C605.903 129.104 605.759 127.12 605.759 125.2C605.759 123.28 605.903 121.296 606.191 119.248C606.511 117.2 607.087 115.328 607.919 113.632C608.783 111.904 609.967 110.496 611.471 109.408C613.007 108.288 614.975 107.728 617.375 107.728ZM617.375 138.112C618.559 138.112 619.551 137.776 620.351 137.104C621.151 136.4 621.775 135.472 622.223 134.32C622.703 133.136 623.039 131.76 623.231 130.192C623.423 128.624 623.519 126.96 623.519 125.2C623.519 123.44 623.423 121.792 623.231 120.256C623.039 118.688 622.703 117.312 622.223 116.128C621.775 114.944 621.151 114.016 620.351 113.344C619.551 112.64 618.559 112.288 617.375 112.288C616.159 112.288 615.151 112.64 614.351 113.344C613.583 114.016 612.959 114.944 612.479 116.128C612.031 117.312 611.711 118.688 611.519 120.256C611.327 121.792 611.231 123.44 611.231 125.2C611.231 126.96 611.327 128.624 611.519 130.192C611.711 131.76 612.031 133.136 612.479 134.32C612.959 135.472 613.583 136.4 614.351 137.104C615.151 137.776 616.159 138.112 617.375 138.112ZM647.711 107.728H662.831C665.263 107.728 667.247 108.08 668.783 108.784C670.319 109.488 671.503 110.368 672.335 111.424C673.167 112.48 673.727 113.632 674.015 114.88C674.335 116.128 674.495 117.28 674.495 118.336C674.495 119.392 674.335 120.544 674.015 121.792C673.727 123.008 673.167 124.144 672.335 125.2C671.503 126.256 670.319 127.136 668.783 127.84C667.247 128.512 665.263 128.848 662.831 128.848H653.711V142H647.711V107.728ZM653.711 123.952H662.495C663.167 123.952 663.855 123.856 664.559 123.664C665.263 123.472 665.903 123.168 666.479 122.752C667.087 122.304 667.567 121.728 667.919 121.024C668.303 120.288 668.495 119.376 668.495 118.288C668.495 117.168 668.335 116.24 668.015 115.504C667.695 114.768 667.263 114.192 666.719 113.776C666.175 113.328 665.551 113.024 664.847 112.864C664.143 112.704 663.391 112.624 662.591 112.624H653.711V123.952ZM678.958 117.184H684.142V120.64H684.286C684.702 120.032 685.15 119.472 685.63 118.96C686.11 118.448 686.638 118.016 687.214 117.664C687.822 117.312 688.51 117.04 689.278 116.848C690.046 116.624 690.926 116.512 691.918 116.512C693.422 116.512 694.814 116.848 696.094 117.52C697.406 118.192 698.334 119.232 698.878 120.64C699.806 119.36 700.878 118.352 702.094 117.616C703.31 116.88 704.83 116.512 706.654 116.512C709.278 116.512 711.31 117.152 712.75 118.432C714.222 119.712 714.958 121.856 714.958 124.864V142H709.486V127.504C709.486 126.512 709.454 125.616 709.39 124.816C709.326 123.984 709.134 123.28 708.814 122.704C708.526 122.096 708.078 121.632 707.47 121.312C706.862 120.992 706.03 120.832 704.974 120.832C703.118 120.832 701.774 121.408 700.942 122.56C700.11 123.712 699.694 125.344 699.694 127.456V142H694.222V126.064C694.222 124.336 693.902 123.04 693.262 122.176C692.654 121.28 691.518 120.832 689.854 120.832C689.15 120.832 688.462 120.976 687.79 121.264C687.15 121.552 686.574 121.968 686.062 122.512C685.582 123.056 685.182 123.728 684.862 124.528C684.574 125.328 684.43 126.24 684.43 127.264V142H678.958V117.184ZM464.286 169.968C465.438 169.968 466.558 169.872 467.646 169.68C468.734 169.488 469.71 169.168 470.574 168.72C471.47 168.272 472.222 167.696 472.83 166.992C473.47 166.288 473.886 165.424 474.078 164.4H478.542V198H472.542V174.288H464.286V169.968ZM496.142 189.504C496.27 190.88 496.75 192 497.582 192.864C498.446 193.696 499.598 194.112 501.038 194.112C502.51 194.112 503.678 193.728 504.542 192.96C505.438 192.16 506.126 191.184 506.606 190.032C507.086 188.848 507.406 187.6 507.566 186.288C507.758 184.944 507.902 183.712 507.998 182.592L507.902 182.496C507.166 183.808 506.158 184.816 504.878 185.52C503.598 186.192 502.19 186.528 500.654 186.528C499.054 186.528 497.598 186.256 496.286 185.712C495.006 185.168 493.902 184.416 492.974 183.456C492.046 182.464 491.326 181.28 490.814 179.904C490.302 178.496 490.046 176.928 490.046 175.2C490.046 173.568 490.302 172.064 490.814 170.688C491.326 169.28 492.078 168.064 493.07 167.04C494.062 165.984 495.278 165.168 496.718 164.592C498.158 164.016 499.79 163.728 501.614 163.728C503.982 163.728 505.934 164.192 507.47 165.12C509.006 166.016 510.206 167.264 511.07 168.864C511.966 170.432 512.59 172.288 512.942 174.432C513.294 176.576 513.47 178.864 513.47 181.296C513.47 183.312 513.246 185.344 512.798 187.392C512.382 189.44 511.678 191.312 510.686 193.008C509.694 194.672 508.382 196.032 506.75 197.088C505.15 198.144 503.166 198.672 500.798 198.672C499.454 198.672 498.19 198.448 497.006 198C495.822 197.552 494.766 196.928 493.838 196.128C492.942 195.328 492.206 194.368 491.63 193.248C491.054 192.128 490.734 190.88 490.67 189.504H496.142ZM501.374 168.288C500.382 168.288 499.518 168.48 498.782 168.864C498.046 169.216 497.438 169.712 496.958 170.352C496.478 170.992 496.11 171.728 495.854 172.56C495.63 173.392 495.518 174.256 495.518 175.152C495.518 176.08 495.63 176.976 495.854 177.84C496.11 178.672 496.478 179.408 496.958 180.048C497.438 180.688 498.046 181.216 498.782 181.632C499.518 182.016 500.382 182.208 501.374 182.208C502.398 182.208 503.294 182.016 504.062 181.632C504.83 181.248 505.454 180.736 505.934 180.096C506.446 179.424 506.83 178.672 507.086 177.84C507.342 176.976 507.47 176.08 507.47 175.152C507.47 174.256 507.342 173.392 507.086 172.56C506.83 171.728 506.446 171.008 505.934 170.4C505.454 169.76 504.83 169.248 504.062 168.864C503.294 168.48 502.398 168.288 501.374 168.288ZM550.573 186.96C550.573 188.464 550.445 189.92 550.189 191.328C549.933 192.736 549.405 194 548.605 195.12C547.837 196.24 546.701 197.136 545.197 197.808C543.725 198.48 541.757 198.816 539.293 198.816C537.469 198.816 535.917 198.544 534.637 198C533.357 197.424 532.301 196.656 531.469 195.696C530.637 194.704 530.029 193.536 529.645 192.192C529.261 190.848 529.069 189.392 529.069 187.824V186H535.069V187.776C535.069 189.728 535.389 191.248 536.029 192.336C536.701 193.392 537.949 193.92 539.773 193.92C540.733 193.92 541.517 193.776 542.125 193.488C542.765 193.2 543.261 192.784 543.613 192.24C543.997 191.664 544.253 190.96 544.381 190.128C544.509 189.296 544.573 188.352 544.573 187.296V163.728H550.573V186.96ZM578.899 198H573.523V194.544H573.427C572.755 195.792 571.747 196.8 570.403 197.568C569.091 198.304 567.747 198.672 566.371 198.672C563.107 198.672 560.739 197.872 559.267 196.272C557.827 194.64 557.107 192.192 557.107 188.928V173.184H562.579V188.4C562.579 190.576 562.995 192.112 563.827 193.008C564.659 193.904 565.827 194.352 567.331 194.352C568.483 194.352 569.443 194.176 570.211 193.824C570.979 193.472 571.603 193.008 572.083 192.432C572.563 191.824 572.899 191.104 573.091 190.272C573.315 189.44 573.427 188.544 573.427 187.584V173.184H578.899V198ZM584.813 163.728H590.285V198H584.813V163.728ZM593.511 173.184H599.511L605.991 191.712H606.087L612.375 173.184H618.087L608.439 199.344C607.991 200.464 607.543 201.536 607.095 202.56C606.679 203.584 606.151 204.48 605.511 205.248C604.903 206.048 604.135 206.672 603.207 207.12C602.279 207.6 601.095 207.84 599.655 207.84C598.375 207.84 597.111 207.744 595.863 207.552V202.944C596.311 203.008 596.743 203.072 597.159 203.136C597.575 203.232 598.007 203.28 598.455 203.28C599.095 203.28 599.623 203.2 600.039 203.04C600.455 202.88 600.791 202.64 601.047 202.32C601.335 202.032 601.575 201.68 601.767 201.264C601.959 200.848 602.135 200.368 602.295 199.824L602.919 197.904L593.511 173.184Z" fill="black"/>
</svg>
