<svg width="1080" height="1080" viewBox="0 0 1080 1080" fill="none" xmlns="http://www.w3.org/2000/svg">
<rect width="1080" height="1080" fill="white"/>
<path d="M467.059 503V466.664H471.907V484.904L487.075 466.664H492.595V466.808L479.875 481.832L494.371 502.712V503H488.947L476.563 485.048L471.907 490.616V503H467.059ZM508.148 503.624C500.276 503.624 495.332 497.72 495.332 489.8C495.332 481.88 500.276 475.976 508.148 475.976C516.02 475.976 520.964 481.88 520.964 489.8C520.964 497.72 516.02 503.624 508.148 503.624ZM500.132 489.8C500.132 495.752 502.868 500.072 508.148 500.072C513.428 500.072 516.164 495.752 516.164 489.8C516.164 483.896 513.428 479.528 508.148 479.528C502.868 479.528 500.132 483.896 500.132 489.8ZM525.877 503V466.664H530.485V503H525.877ZM548.179 503.624C540.307 503.624 535.363 497.72 535.363 489.8C535.363 481.88 540.307 475.976 548.179 475.976C556.051 475.976 560.995 481.88 560.995 489.8C560.995 497.72 556.051 503.624 548.179 503.624ZM540.163 489.8C540.163 495.752 542.899 500.072 548.179 500.072C553.459 500.072 556.195 495.752 556.195 489.8C556.195 483.896 553.459 479.528 548.179 479.528C542.899 479.528 540.163 483.896 540.163 489.8ZM564.714 495.56C564.714 490.568 568.65 488.6 574.458 487.64C576.954 487.208 579.834 486.776 582.858 486.392L582.81 485.192C582.714 482.312 581.274 480.776 579.546 480.056C578.586 479.672 577.578 479.528 576.57 479.528C572.682 479.528 570.426 481.112 569.706 484.424H565.29C565.866 479.912 569.322 475.976 576.474 475.976C583.098 475.976 587.082 478.952 587.082 485.24V503H582.858V499.448H582.714C581.034 502.232 577.626 503.624 574.218 503.624C569.466 503.624 564.714 500.936 564.714 495.56ZM569.514 495.56C569.514 498.296 571.53 500.36 574.938 500.36C577.77 500.36 581.418 498.536 582.57 494.984C582.81 494.168 582.954 493.256 582.906 491.816L582.858 489.368C580.026 489.8 577.29 490.376 574.746 490.904C570.522 491.768 569.514 493.592 569.514 495.56ZM592.814 503V466.664H597.374V480.776H597.566C599.438 477.512 602.318 475.976 605.918 475.976C609.566 475.976 612.686 477.656 614.078 481.064C614.558 482.264 614.798 483.56 614.798 486.008V503H610.238V486.344C610.238 484.952 610.238 483.608 609.758 482.408C609.134 480.824 607.646 479.672 605.39 479.672C603.038 479.672 601.214 480.68 599.726 482.408C597.374 485.096 597.374 486.776 597.374 490.856V503H592.814ZM490.087 559.624C480.391 559.624 472.567 553.576 472.567 541C472.567 528.184 480.391 522.04 490.087 522.04C499.831 522.04 507.607 528.184 507.607 541C507.607 553.576 499.831 559.624 490.087 559.624ZM477.703 541C477.703 548.92 481.351 555.736 489.991 555.736C498.727 555.736 502.471 549.016 502.471 541C502.471 532.888 498.967 525.928 490.087 525.928C481.207 525.928 477.703 532.888 477.703 541ZM536.26 549.928C535.348 556.168 531.076 559.624 524.596 559.624C516.772 559.624 511.972 553.768 511.972 545.8C511.972 537.592 517.06 531.976 524.836 531.976C525.748 531.976 526.756 532.024 527.764 532.216C532.324 533.128 535.204 536.248 535.876 541.144H531.412C530.788 538.12 529.06 536.296 526.612 535.672C525.94 535.528 525.364 535.528 524.692 535.528C519.46 535.528 516.628 539.848 516.628 545.8C516.628 551.8 519.556 556.072 524.836 556.072C528.724 556.072 531.028 553.72 531.748 549.928H536.26ZM540.922 559V532.6H545.386V537.976H545.578C547.546 533.8 550.954 532.12 554.122 532.12C554.746 532.12 555.754 532.168 556.378 532.408V536.248C555.85 536.104 554.89 536.008 554.218 536.008C552.394 536.008 549.754 536.584 547.45 539.656C546.97 540.328 546.682 540.904 546.346 541.48C545.674 542.872 545.482 544.216 545.482 546.52V559H540.922ZM558.292 551.56C558.292 546.568 562.228 544.6 568.036 543.64C570.532 543.208 573.412 542.776 576.436 542.392L576.388 541.192C576.292 538.312 574.852 536.776 573.124 536.056C572.164 535.672 571.156 535.528 570.148 535.528C566.26 535.528 564.004 537.112 563.284 540.424H558.868C559.444 535.912 562.9 531.976 570.052 531.976C576.676 531.976 580.66 534.952 580.66 541.24V559H576.436V555.448H576.292C574.612 558.232 571.204 559.624 567.796 559.624C563.044 559.624 558.292 556.936 558.292 551.56ZM563.092 551.56C563.092 554.296 565.108 556.36 568.516 556.36C571.348 556.36 574.996 554.536 576.148 550.984C576.388 550.168 576.532 549.256 576.484 547.816L576.436 545.368C573.604 545.8 570.868 546.376 568.324 546.904C564.1 547.768 563.092 549.592 563.092 551.56ZM586.344 559V532.6H590.712V537.16H590.904C592.728 533.608 595.704 531.976 599.448 531.976C603.096 531.976 606.216 533.656 607.608 537.064C608.088 538.264 608.328 539.56 608.328 542.008V559H603.768V542.344C603.768 540.952 603.768 539.608 603.288 538.408C602.664 536.824 601.176 535.672 598.92 535.672C596.568 535.672 594.744 536.68 593.256 538.408C590.904 541.096 590.904 542.776 590.904 546.856V559H586.344ZM431.634 615.624C421.938 615.624 414.114 609.576 414.114 597C414.114 584.184 421.938 578.04 431.634 578.04C441.378 578.04 449.154 584.184 449.154 597C449.154 609.576 441.378 615.624 431.634 615.624ZM419.25 597C419.25 604.92 422.898 611.736 431.538 611.736C440.274 611.736 444.018 605.016 444.018 597C444.018 588.888 440.514 581.928 431.634 581.928C422.754 581.928 419.25 588.888 419.25 597ZM454.767 615V578.664H459.375V615H454.767ZM489.166 605.928C488.254 612.168 483.694 615.624 477.118 615.624C469.198 615.624 464.254 609.72 464.254 601.8C464.254 596.328 466.606 591.768 470.686 589.512C472.462 588.504 474.622 587.976 477.022 587.976C478.126 587.976 479.086 587.976 479.998 588.12C481.63 588.408 483.118 589.08 484.462 590.04C487.39 592.152 489.31 596.04 489.262 602.184H468.862C468.814 602.568 468.814 602.952 468.862 603.432C468.958 604.584 469.15 605.64 469.486 606.6C470.734 609.912 473.422 612.024 477.358 612.024C480.382 612.024 482.398 610.824 483.646 608.76C484.126 607.944 484.51 606.984 484.75 605.928H489.166ZM469.054 598.776H484.654C484.366 594.648 482.014 591.816 478.414 591.384C477.886 591.336 477.55 591.336 477.166 591.336C473.134 591.336 470.35 593.784 469.294 597.48C469.198 597.912 469.15 598.344 469.054 598.776ZM516.378 613.416C516.378 620.52 512.442 624.024 504.57 624.024C496.89 624.024 494.058 620.616 493.482 616.584H498.042C498.474 619.272 500.922 620.568 504.666 620.568C509.562 620.568 512.202 618.792 512.202 611.928V610.392H512.01C511.146 612.84 508.218 614.424 504.33 614.424C496.698 614.424 492.426 608.232 492.426 601.224C492.426 594.168 496.698 587.976 504.33 587.976C508.026 587.976 510.81 589.416 511.818 591.768H512.058V588.6H516.378V613.416ZM497.178 601.224C497.178 606.936 500.058 611.064 505.05 611.064C508.89 611.064 511.194 609.096 511.962 605.208C512.25 603.72 512.25 602.664 512.25 601.224C512.25 599.784 512.25 598.776 511.962 597.24C511.194 593.4 508.89 591.288 505.05 591.288C500.058 591.288 497.178 595.416 497.178 601.224ZM535.637 615V578.664H548.213C551.333 578.664 554.309 578.808 556.421 579.528C560.501 580.92 562.613 584.28 562.613 588.936C562.613 594.696 559.109 598.152 553.349 598.968L562.949 614.76V615H557.573L548.261 599.304H540.485V615H535.637ZM540.485 595.608H548.405C550.421 595.608 551.765 595.56 553.541 595.128C556.133 594.504 557.957 592.584 557.957 589.224C557.957 585.48 556.133 583.56 553.589 582.936C551.765 582.456 549.941 582.504 548.453 582.504H540.485V595.608ZM578.788 615.624C570.916 615.624 565.972 609.72 565.972 601.8C565.972 593.88 570.916 587.976 578.788 587.976C586.66 587.976 591.604 593.88 591.604 601.8C591.604 609.72 586.66 615.624 578.788 615.624ZM570.772 601.8C570.772 607.752 573.508 612.072 578.788 612.072C584.068 612.072 586.804 607.752 586.804 601.8C586.804 595.896 584.068 591.528 578.788 591.528C573.508 591.528 570.772 595.896 570.772 601.8ZM593.942 615V611.784L609.398 591.912H594.662V588.6H614.342V592.2L599.174 611.688H614.918V615H593.942ZM630.07 615.624C622.198 615.624 617.254 609.72 617.254 601.8C617.254 593.88 622.198 587.976 630.07 587.976C637.942 587.976 642.886 593.88 642.886 601.8C642.886 609.72 637.942 615.624 630.07 615.624ZM622.054 601.8C622.054 607.752 624.79 612.072 630.07 612.072C635.35 612.072 638.086 607.752 638.086 601.8C638.086 595.896 635.35 591.528 630.07 591.528C624.79 591.528 622.054 595.896 622.054 601.8ZM653.924 615L644.372 588.6H649.076L654.212 603.672C655.604 607.704 655.988 609.432 656.372 610.632H656.564C656.948 609.432 657.332 607.704 658.724 603.672L663.86 588.6H668.564L659.012 615H653.924ZM396.173 671.624C386.477 671.624 378.653 665.576 378.653 653C378.653 640.184 386.477 634.04 396.173 634.04C405.917 634.04 413.693 640.184 413.693 653C413.693 665.576 405.917 671.624 396.173 671.624ZM383.789 653C383.789 660.92 387.437 667.736 396.077 667.736C404.813 667.736 408.557 661.016 408.557 653C408.557 644.888 405.053 637.928 396.173 637.928C387.293 637.928 383.789 644.888 383.789 653ZM419.306 671V634.664H423.914V671H419.306ZM453.705 661.928C452.793 668.168 448.233 671.624 441.657 671.624C433.737 671.624 428.793 665.72 428.793 657.8C428.793 652.328 431.145 647.768 435.225 645.512C437.001 644.504 439.161 643.976 441.561 643.976C442.665 643.976 443.625 643.976 444.537 644.12C446.169 644.408 447.657 645.08 449.001 646.04C451.929 648.152 453.849 652.04 453.801 658.184H433.401C433.353 658.568 433.353 658.952 433.401 659.432C433.497 660.584 433.689 661.64 434.025 662.6C435.273 665.912 437.961 668.024 441.897 668.024C444.921 668.024 446.937 666.824 448.185 664.76C448.665 663.944 449.049 662.984 449.289 661.928H453.705ZM433.593 654.776H449.193C448.905 650.648 446.553 647.816 442.953 647.384C442.425 647.336 442.089 647.336 441.705 647.336C437.673 647.336 434.889 649.784 433.833 653.48C433.737 653.912 433.689 654.344 433.593 654.776ZM480.917 669.416C480.917 676.52 476.981 680.024 469.109 680.024C461.429 680.024 458.597 676.616 458.021 672.584H462.581C463.013 675.272 465.461 676.568 469.205 676.568C474.101 676.568 476.741 674.792 476.741 667.928V666.392H476.549C475.685 668.84 472.757 670.424 468.869 670.424C461.237 670.424 456.965 664.232 456.965 657.224C456.965 650.168 461.237 643.976 468.869 643.976C472.565 643.976 475.349 645.416 476.357 647.768H476.597V644.6H480.917V669.416ZM461.717 657.224C461.717 662.936 464.597 667.064 469.589 667.064C473.429 667.064 475.733 665.096 476.501 661.208C476.789 659.72 476.789 658.664 476.789 657.224C476.789 655.784 476.789 654.776 476.501 653.24C475.733 649.4 473.429 647.288 469.589 647.288C464.597 647.288 461.717 651.416 461.717 657.224ZM513.904 671.672C504.208 671.672 498.88 667.352 498.256 658.904H503.248C504.112 665.24 507.328 667.928 514.432 667.928C520.72 667.928 524.032 665.384 524.032 660.68C524.032 657.464 521.824 655.736 516.544 654.824L510.208 653.72C502.528 652.376 499.6 649.64 499.6 644.168C499.6 637.976 505.216 633.896 514.048 633.896C522.544 633.896 527.68 637.688 528.16 644.36H523.36C522.64 639.944 519.424 637.592 513.76 637.592C508.192 637.592 504.64 640.04 504.64 643.64C504.64 646.712 506.32 648.2 510.64 649.016L518.368 650.456C525.952 651.848 528.928 654.68 528.928 660.44C528.928 667.496 523.648 671.672 513.904 671.672ZM545.156 671.624C537.284 671.624 532.34 665.72 532.34 657.8C532.34 649.88 537.284 643.976 545.156 643.976C553.028 643.976 557.972 649.88 557.972 657.8C557.972 665.72 553.028 671.624 545.156 671.624ZM537.14 657.8C537.14 663.752 539.876 668.072 545.156 668.072C550.436 668.072 553.172 663.752 553.172 657.8C553.172 651.896 550.436 647.528 545.156 647.528C539.876 647.528 537.14 651.896 537.14 657.8ZM564.288 671V648.008H560.208V644.6H564.288V641.144C564.288 635.24 568.704 634.04 572.112 634.04C573.216 634.04 574.224 634.184 574.944 634.328V637.784C574.272 637.736 573.648 637.688 573.072 637.688C570.384 637.688 568.8 638.456 568.8 641.192V644.6H575.328V648.008H568.8V671H564.288ZM579.196 671V644.6H583.66V649.976H583.852C585.82 645.8 589.228 644.12 592.396 644.12C593.02 644.12 594.028 644.168 594.652 644.408V648.248C594.124 648.104 593.164 648.008 592.492 648.008C590.668 648.008 588.028 648.584 585.724 651.656C585.244 652.328 584.956 652.904 584.62 653.48C583.948 654.872 583.756 656.216 583.756 658.52V671H579.196ZM608.578 671.624C600.706 671.624 595.762 665.72 595.762 657.8C595.762 649.88 600.706 643.976 608.578 643.976C616.45 643.976 621.394 649.88 621.394 657.8C621.394 665.72 616.45 671.624 608.578 671.624ZM600.562 657.8C600.562 663.752 603.298 668.072 608.578 668.072C613.858 668.072 616.594 663.752 616.594 657.8C616.594 651.896 613.858 647.528 608.578 647.528C603.298 647.528 600.562 651.896 600.562 657.8ZM626.258 671V644.6H630.626V649.16H630.818C632.642 645.608 635.618 643.976 639.362 643.976C643.01 643.976 646.13 645.656 647.522 649.064C648.002 650.264 648.242 651.56 648.242 654.008V671H643.682V654.344C643.682 652.952 643.682 651.608 643.202 650.408C642.578 648.824 641.09 647.672 638.834 647.672C636.482 647.672 634.658 648.68 633.17 650.408C630.818 653.096 630.818 654.776 630.818 658.856V671H626.258ZM665.531 671.624C657.659 671.624 652.715 665.72 652.715 657.8C652.715 649.88 657.659 643.976 665.531 643.976C673.403 643.976 678.347 649.88 678.347 657.8C678.347 665.72 673.403 671.624 665.531 671.624ZM657.515 657.8C657.515 663.752 660.251 668.072 665.531 668.072C670.811 668.072 673.547 663.752 673.547 657.8C673.547 651.896 670.811 647.528 665.531 647.528C660.251 647.528 657.515 651.896 657.515 657.8ZM689.385 671L679.833 644.6H684.537L689.673 659.672C691.065 663.704 691.449 665.432 691.833 666.632H692.025C692.409 665.432 692.793 663.704 694.185 659.672L699.321 644.6H704.025L694.473 671H689.385Z" fill="black"/>
<path d="M251.949 944V907.664H264.573C268.509 907.664 270.429 907.76 272.589 908.48C276.189 909.68 278.349 912.608 278.349 916.352C278.349 920.432 275.709 923.648 271.725 924.272V924.464C276.285 925.232 279.453 928.352 279.453 933.296C279.453 938.192 277.101 941.552 272.829 943.088C270.861 943.808 268.269 944 264.477 944H251.949ZM256.797 940.112H264.333C266.445 940.112 268.269 940.016 269.709 939.68C272.685 938.96 274.365 936.848 274.365 933.584C274.365 930.224 272.781 928.064 269.997 927.392C268.221 926.96 266.829 926.912 265.293 926.912H256.797V940.112ZM256.797 923.024H263.709C266.205 923.024 267.453 922.976 268.941 922.64C271.773 921.968 273.357 920 273.357 917.072C273.357 914.384 272.157 912.608 269.709 911.936C268.269 911.552 266.349 911.504 263.709 911.504H256.797V923.024ZM296.648 944.624C288.776 944.624 283.832 938.72 283.832 930.8C283.832 922.88 288.776 916.976 296.648 916.976C304.52 916.976 309.464 922.88 309.464 930.8C309.464 938.72 304.52 944.624 296.648 944.624ZM288.632 930.8C288.632 936.752 291.368 941.072 296.648 941.072C301.928 941.072 304.664 936.752 304.664 930.8C304.664 924.896 301.928 920.528 296.648 920.528C291.368 920.528 288.632 924.896 288.632 930.8ZM310.428 944L320.22 930.368L311.1 917.6H316.332L322.908 927.68L329.436 917.6H334.428L325.548 930.032L335.532 944H330.3L322.86 932.624L315.42 944H310.428ZM339.174 944V907.664H343.734V921.776H343.926C345.798 918.512 348.678 916.976 352.278 916.976C355.926 916.976 359.046 918.656 360.438 922.064C360.918 923.264 361.158 924.56 361.158 927.008V944H356.598V927.344C356.598 925.952 356.598 924.608 356.118 923.408C355.494 921.824 354.006 920.672 351.75 920.672C349.398 920.672 347.574 921.68 346.086 923.408C343.734 926.096 343.734 927.776 343.734 931.856V944H339.174ZM365.917 936.56C365.917 931.568 369.853 929.6 375.661 928.64C378.157 928.208 381.037 927.776 384.061 927.392L384.013 926.192C383.917 923.312 382.477 921.776 380.749 921.056C379.789 920.672 378.781 920.528 377.773 920.528C373.885 920.528 371.629 922.112 370.909 925.424H366.493C367.069 920.912 370.525 916.976 377.677 916.976C384.301 916.976 388.285 919.952 388.285 926.24V944H384.061V940.448H383.917C382.237 943.232 378.829 944.624 375.421 944.624C370.669 944.624 365.917 941.936 365.917 936.56ZM370.717 936.56C370.717 939.296 372.733 941.36 376.141 941.36C378.973 941.36 382.621 939.536 383.773 935.984C384.013 935.168 384.157 934.256 384.109 932.816L384.061 930.368C381.229 930.8 378.493 931.376 375.949 931.904C371.725 932.768 370.717 934.592 370.717 936.56ZM416.721 942.416C416.721 949.52 412.785 953.024 404.913 953.024C397.233 953.024 394.401 949.616 393.825 945.584H398.385C398.817 948.272 401.265 949.568 405.009 949.568C409.905 949.568 412.545 947.792 412.545 940.928V939.392H412.353C411.489 941.84 408.561 943.424 404.673 943.424C397.041 943.424 392.769 937.232 392.769 930.224C392.769 923.168 397.041 916.976 404.673 916.976C408.369 916.976 411.153 918.416 412.161 920.768H412.401V917.6H416.721V942.416ZM397.521 930.224C397.521 935.936 400.401 940.064 405.393 940.064C409.233 940.064 411.537 938.096 412.305 934.208C412.593 932.72 412.593 931.664 412.593 930.224C412.593 928.784 412.593 927.776 412.305 926.24C411.537 922.4 409.233 920.288 405.393 920.288C400.401 920.288 397.521 924.416 397.521 930.224ZM446.463 934.928C445.551 941.168 440.991 944.624 434.415 944.624C426.495 944.624 421.551 938.72 421.551 930.8C421.551 925.328 423.903 920.768 427.983 918.512C429.759 917.504 431.919 916.976 434.319 916.976C435.423 916.976 436.383 916.976 437.295 917.12C438.927 917.408 440.415 918.08 441.759 919.04C444.687 921.152 446.607 925.04 446.559 931.184H426.159C426.111 931.568 426.111 931.952 426.159 932.432C426.255 933.584 426.447 934.64 426.783 935.6C428.031 938.912 430.719 941.024 434.655 941.024C437.679 941.024 439.695 939.824 440.943 937.76C441.423 936.944 441.807 935.984 442.047 934.928H446.463ZM426.351 927.776H441.951C441.663 923.648 439.311 920.816 435.711 920.384C435.183 920.336 434.847 920.336 434.463 920.336C430.431 920.336 427.647 922.784 426.591 926.48C426.495 926.912 426.447 927.344 426.351 927.776ZM451.391 944V917.6H455.759V922.16H455.951C457.775 918.608 460.751 916.976 464.495 916.976C468.143 916.976 471.263 918.656 472.655 922.064C473.135 923.264 473.375 924.56 473.375 927.008V944H468.815V927.344C468.815 925.952 468.815 924.608 468.335 923.408C467.711 921.824 466.223 920.672 463.967 920.672C461.615 920.672 459.791 921.68 458.303 923.408C455.951 926.096 455.951 927.776 455.951 931.856V944H451.391ZM502.759 934.928C501.847 941.168 497.287 944.624 490.711 944.624C482.791 944.624 477.847 938.72 477.847 930.8C477.847 925.328 480.199 920.768 484.279 918.512C486.055 917.504 488.215 916.976 490.615 916.976C491.719 916.976 492.679 916.976 493.591 917.12C495.223 917.408 496.711 918.08 498.055 919.04C500.983 921.152 502.903 925.04 502.855 931.184H482.455C482.407 931.568 482.407 931.952 482.455 932.432C482.551 933.584 482.743 934.64 483.079 935.6C484.327 938.912 487.015 941.024 490.951 941.024C493.975 941.024 495.991 939.824 497.239 937.76C497.719 936.944 498.103 935.984 498.343 934.928H502.759ZM482.647 927.776H498.247C497.959 923.648 495.607 920.816 492.007 920.384C491.479 920.336 491.143 920.336 490.759 920.336C486.727 920.336 483.943 922.784 482.887 926.48C482.791 926.912 482.743 927.344 482.647 927.776ZM507.688 944V917.6H512.152V922.976H512.344C514.312 918.8 517.72 917.12 520.888 917.12C521.512 917.12 522.52 917.168 523.144 917.408V921.248C522.616 921.104 521.656 921.008 520.984 921.008C519.16 921.008 516.52 921.584 514.216 924.656C513.736 925.328 513.448 925.904 513.112 926.48C512.44 927.872 512.248 929.216 512.248 931.52V944H507.688ZM553.865 944.672C544.169 944.672 538.841 940.352 538.217 931.904H543.209C544.073 938.24 547.289 940.928 554.393 940.928C560.681 940.928 563.993 938.384 563.993 933.68C563.993 930.464 561.785 928.736 556.505 927.824L550.169 926.72C542.489 925.376 539.561 922.64 539.561 917.168C539.561 910.976 545.177 906.896 554.009 906.896C562.505 906.896 567.641 910.688 568.121 917.36H563.321C562.601 912.944 559.385 910.592 553.721 910.592C548.153 910.592 544.601 913.04 544.601 916.64C544.601 919.712 546.281 921.2 550.601 922.016L558.329 923.456C565.913 924.848 568.889 927.68 568.889 933.44C568.889 940.496 563.609 944.672 553.865 944.672ZM575.085 939.344V921.008H571.581V917.6H575.085V911.12H579.597V917.6H585.405V921.008H579.597V938.192C579.597 940.976 581.373 941.456 583.725 941.456C584.397 941.456 584.973 941.408 585.405 941.36V944.336C584.301 944.576 583.005 944.72 581.709 944.72C578.397 944.72 575.085 943.664 575.085 939.344ZM589.766 944V917.6H594.23V922.976H594.422C596.39 918.8 599.798 917.12 602.966 917.12C603.59 917.12 604.598 917.168 605.222 917.408V921.248C604.694 921.104 603.734 921.008 603.062 921.008C601.238 921.008 598.598 921.584 596.294 924.656C595.814 925.328 595.526 925.904 595.19 926.48C594.518 927.872 594.326 929.216 594.326 931.52V944H589.766ZM603.716 944V938.384H608.756V944H603.716ZM627.326 912.896C630.11 911.648 632.606 909.776 634.142 907.664H638.318V944H633.854V913.76H633.662C631.55 915.536 629.582 916.592 627.326 917.36V912.896ZM657.228 944.624C649.98 944.624 644.364 940.832 644.364 934.352C644.364 929.984 646.716 926.288 652.092 924.944V924.752C647.964 923.408 645.66 920.384 645.66 916.688C645.66 910.544 650.988 907.04 657.228 907.04C663.42 907.04 668.748 910.544 668.748 916.688C668.748 920.384 666.444 923.408 662.316 924.752V924.944C667.692 926.288 670.044 929.984 670.044 934.352C670.044 940.928 664.284 944.624 657.228 944.624ZM649.164 934.064C649.164 938.48 653.004 941.168 657.228 941.168C661.404 941.168 665.292 938.48 665.292 934.064C665.292 929.36 661.884 926.96 657.18 926.96C652.524 926.96 649.164 929.36 649.164 934.064ZM650.412 916.976C650.412 921.584 654.012 923.168 657.228 923.168C660.396 923.168 663.996 921.584 663.996 916.976C663.996 912.752 660.78 910.736 657.228 910.736C653.532 910.736 650.412 912.656 650.412 916.976ZM672.729 950.192L674.457 944V938.384H679.113V944L675.945 950.192H672.729ZM697.686 912.896C700.47 911.648 702.966 909.776 704.502 907.664H708.678V944H704.214V913.76H704.022C701.91 915.536 699.942 916.592 697.686 917.36V912.896ZM728.164 944.624C718.852 944.624 714.724 935.792 714.724 925.808C714.724 915.728 718.9 907.04 728.116 907.04H728.164C737.428 907.04 741.556 915.872 741.556 925.808C741.556 935.936 737.38 944.624 728.164 944.624ZM719.668 925.808C719.668 935.504 722.98 940.784 728.164 940.784C733.348 940.784 736.66 935.504 736.66 925.808C736.66 916.16 733.348 910.88 728.164 910.88C722.98 910.88 719.668 916.16 719.668 925.808ZM746.262 919.28C746.694 914.816 748.134 911.744 750.63 909.728C752.694 908.048 755.526 907.04 758.838 907.04C766.086 907.04 770.646 910.976 770.646 917.504C770.646 922.352 768.486 925.328 763.11 928.112L760.23 929.6C754.518 932.576 751.878 935.408 751.35 939.776H771.03V944H746.31C746.31 935.072 749.478 930.368 756.87 926.576L760.134 924.896C764.262 922.784 765.654 920.72 765.654 917.648C765.654 913.376 762.966 910.88 759.174 910.88C754.566 910.88 751.782 913.856 751.014 919.28H746.262ZM789.636 944L789.732 933.872H772.596V929.936L787.812 907.664H794.34V930.08H798.516V933.872H794.34V944H789.636ZM777.54 930.08H789.732V920.864C789.732 917.552 789.876 913.04 789.972 911.696H789.684C787.908 914.864 785.556 918.608 783.684 921.248L777.54 930.08ZM813.985 944.576C807.649 944.576 802.945 940.592 802.561 934.16H807.601C807.841 938 810.529 940.784 814.465 940.784C819.889 940.784 822.433 935.792 822.433 930.896C822.433 925.376 819.745 921.968 815.137 921.968C811.489 921.968 808.801 924.224 807.937 927.488H803.713L805.345 907.664H825.313V911.792H809.137L808.369 921.2C809.953 919.328 812.545 918.176 815.809 918.176C823.249 918.176 827.281 924.08 827.281 930.608C827.281 938.864 821.713 944.576 813.985 944.576ZM235.824 1000V963.664H241.488L261.168 993.52H261.408C261.216 991.456 261.072 987.568 261.072 982.24V963.664H265.872V1000H260.304L240.528 970.048H240.288C240.432 972.496 240.624 979.648 240.624 984.688V1000H235.824ZM296.134 990.928C295.222 997.168 290.662 1000.62 284.086 1000.62C276.166 1000.62 271.222 994.72 271.222 986.8C271.222 981.328 273.574 976.768 277.654 974.512C279.43 973.504 281.59 972.976 283.99 972.976C285.094 972.976 286.054 972.976 286.966 973.12C288.598 973.408 290.086 974.08 291.43 975.04C294.358 977.152 296.278 981.04 296.23 987.184H275.83C275.782 987.568 275.782 987.952 275.83 988.432C275.926 989.584 276.118 990.64 276.454 991.6C277.702 994.912 280.39 997.024 284.326 997.024C287.35 997.024 289.366 995.824 290.614 993.76C291.094 992.944 291.478 991.984 291.718 990.928H296.134ZM276.022 983.776H291.622C291.334 979.648 288.982 976.816 285.382 976.384C284.854 976.336 284.518 976.336 284.134 976.336C280.102 976.336 277.318 978.784 276.262 982.48C276.166 982.912 276.118 983.344 276.022 983.776ZM322.663 973.6V1000H318.295V995.44H318.103C316.279 998.992 313.303 1000.62 309.559 1000.62C305.911 1000.62 302.791 998.944 301.399 995.536C300.919 994.336 300.679 993.04 300.679 990.592V973.6H305.239V990.256C305.239 991.648 305.239 992.992 305.719 994.192C306.343 995.776 307.831 996.928 310.087 996.928C312.439 996.928 314.263 995.92 315.751 994.192C318.103 991.504 318.103 989.824 318.103 985.744V973.6H322.663ZM352.431 990.928C351.519 997.168 346.959 1000.62 340.383 1000.62C332.463 1000.62 327.519 994.72 327.519 986.8C327.519 981.328 329.871 976.768 333.951 974.512C335.727 973.504 337.887 972.976 340.287 972.976C341.391 972.976 342.351 972.976 343.263 973.12C344.895 973.408 346.383 974.08 347.727 975.04C350.655 977.152 352.575 981.04 352.527 987.184H332.127C332.079 987.568 332.079 987.952 332.127 988.432C332.223 989.584 332.415 990.64 332.751 991.6C333.999 994.912 336.687 997.024 340.623 997.024C343.647 997.024 345.663 995.824 346.911 993.76C347.391 992.944 347.775 991.984 348.015 990.928H352.431ZM332.319 983.776H347.919C347.631 979.648 345.279 976.816 341.679 976.384C341.151 976.336 340.815 976.336 340.431 976.336C336.399 976.336 333.615 978.784 332.559 982.48C332.463 982.912 332.415 983.344 332.319 983.776ZM370.59 1000V963.664H383.214C387.15 963.664 389.07 963.76 391.23 964.48C394.83 965.68 396.99 968.608 396.99 972.352C396.99 976.432 394.35 979.648 390.366 980.272V980.464C394.926 981.232 398.094 984.352 398.094 989.296C398.094 994.192 395.742 997.552 391.47 999.088C389.502 999.808 386.91 1000 383.118 1000H370.59ZM375.438 996.112H382.974C385.086 996.112 386.91 996.016 388.35 995.68C391.326 994.96 393.006 992.848 393.006 989.584C393.006 986.224 391.422 984.064 388.638 983.392C386.862 982.96 385.47 982.912 383.934 982.912H375.438V996.112ZM375.438 979.024H382.35C384.846 979.024 386.094 978.976 387.582 978.64C390.414 977.968 391.998 976 391.998 973.072C391.998 970.384 390.798 968.608 388.35 967.936C386.91 967.552 384.99 967.504 382.35 967.504H375.438V979.024ZM425.272 973.6V1000H420.904V995.44H420.712C418.888 998.992 415.912 1000.62 412.168 1000.62C408.52 1000.62 405.4 998.944 404.008 995.536C403.528 994.336 403.288 993.04 403.288 990.592V973.6H407.848V990.256C407.848 991.648 407.848 992.992 408.328 994.192C408.952 995.776 410.44 996.928 412.696 996.928C415.048 996.928 416.872 995.92 418.36 994.192C420.712 991.504 420.712 989.824 420.712 985.744V973.6H425.272ZM431.377 1000V963.664H435.937V977.776H436.129C438.001 974.512 440.881 972.976 444.481 972.976C448.129 972.976 451.249 974.656 452.641 978.064C453.121 979.264 453.361 980.56 453.361 983.008V1000H448.801V983.344C448.801 981.952 448.801 980.608 448.321 979.408C447.697 977.824 446.209 976.672 443.953 976.672C441.601 976.672 439.777 977.68 438.289 979.408C435.937 982.096 435.937 983.776 435.937 987.856V1000H431.377ZM459.032 1000V973.6H463.4V978.16H463.592C465.416 974.608 468.392 972.976 472.136 972.976C475.784 972.976 478.904 974.656 480.296 978.064C480.776 979.264 481.016 980.56 481.016 983.008V1000H476.456V983.344C476.456 981.952 476.456 980.608 475.976 979.408C475.352 977.824 473.864 976.672 471.608 976.672C469.256 976.672 467.432 977.68 465.944 979.408C463.592 982.096 463.592 983.776 463.592 987.856V1000H459.032ZM510.4 990.928C509.488 997.168 504.928 1000.62 498.352 1000.62C490.432 1000.62 485.488 994.72 485.488 986.8C485.488 981.328 487.84 976.768 491.92 974.512C493.696 973.504 495.856 972.976 498.256 972.976C499.36 972.976 500.32 972.976 501.232 973.12C502.864 973.408 504.352 974.08 505.696 975.04C508.624 977.152 510.544 981.04 510.496 987.184H490.096C490.048 987.568 490.048 987.952 490.096 988.432C490.192 989.584 490.384 990.64 490.72 991.6C491.968 994.912 494.656 997.024 498.592 997.024C501.616 997.024 503.632 995.824 504.88 993.76C505.36 992.944 505.744 991.984 505.984 990.928H510.4ZM490.288 983.776H505.888C505.6 979.648 503.248 976.816 499.648 976.384C499.12 976.336 498.784 976.336 498.4 976.336C494.368 976.336 491.584 978.784 490.528 982.48C490.432 982.912 490.384 983.344 490.288 983.776ZM528.559 1000V963.664H551.695V967.792H533.407V980.272H550.255V984.256H533.407V1000H528.559ZM555.36 1000V973.6H559.824V978.976H560.016C561.984 974.8 565.392 973.12 568.56 973.12C569.184 973.12 570.192 973.168 570.816 973.408V977.248C570.288 977.104 569.328 977.008 568.656 977.008C566.832 977.008 564.192 977.584 561.888 980.656C561.408 981.328 561.12 981.904 560.784 982.48C560.112 983.872 559.92 985.216 559.92 987.52V1000H555.36ZM574.302 1000V973.6H578.862V1000H574.302ZM574.158 969.76V964.72H579.006V969.76H574.158ZM608.791 990.928C607.879 997.168 603.319 1000.62 596.743 1000.62C588.823 1000.62 583.879 994.72 583.879 986.8C583.879 981.328 586.231 976.768 590.311 974.512C592.087 973.504 594.247 972.976 596.647 972.976C597.751 972.976 598.711 972.976 599.623 973.12C601.255 973.408 602.743 974.08 604.087 975.04C607.015 977.152 608.935 981.04 608.887 987.184H588.487C588.439 987.568 588.439 987.952 588.487 988.432C588.583 989.584 588.775 990.64 589.111 991.6C590.359 994.912 593.047 997.024 596.983 997.024C600.007 997.024 602.023 995.824 603.271 993.76C603.751 992.944 604.135 991.984 604.375 990.928H608.791ZM588.679 983.776H604.279C603.991 979.648 601.639 976.816 598.039 976.384C597.511 976.336 597.175 976.336 596.791 976.336C592.759 976.336 589.975 978.784 588.919 982.48C588.823 982.912 588.775 983.344 588.679 983.776ZM636.999 1000H632.679V996.688H632.487C631.479 999.088 628.599 1000.62 624.759 1000.62C616.887 1000.62 612.519 994.144 612.519 986.8C612.519 979.456 616.887 972.976 624.759 972.976C628.359 972.976 631.047 974.32 632.247 976.432H632.439V963.664H636.999V1000ZM617.271 986.8C617.271 992.8 620.343 997.072 625.431 997.072C629.319 997.072 631.815 995.008 632.583 990.976C632.871 989.44 632.871 988.336 632.871 986.8C632.871 985.264 632.871 984.16 632.583 982.624C631.815 978.592 629.319 976.528 625.431 976.528C620.343 976.528 617.271 980.8 617.271 986.8ZM643.11 1000V973.6H647.574V978.976H647.766C649.734 974.8 653.142 973.12 656.31 973.12C656.934 973.12 657.942 973.168 658.566 973.408V977.248C658.038 977.104 657.078 977.008 656.406 977.008C654.582 977.008 651.942 977.584 649.638 980.656C649.158 981.328 648.87 981.904 648.534 982.48C647.862 983.872 647.67 985.216 647.67 987.52V1000H643.11ZM662.052 1000V973.6H666.612V1000H662.052ZM661.908 969.76V964.72H666.756V969.76H661.908ZM695.917 990.928C695.005 997.168 690.733 1000.62 684.253 1000.62C676.429 1000.62 671.629 994.768 671.629 986.8C671.629 978.592 676.717 972.976 684.493 972.976C685.405 972.976 686.413 973.024 687.421 973.216C691.981 974.128 694.861 977.248 695.533 982.144H691.069C690.445 979.12 688.717 977.296 686.269 976.672C685.597 976.528 685.021 976.528 684.349 976.528C679.117 976.528 676.285 980.848 676.285 986.8C676.285 992.8 679.213 997.072 684.493 997.072C688.381 997.072 690.685 994.72 691.405 990.928H695.917ZM700.627 1000V963.664H705.187V977.776H705.379C707.251 974.512 710.131 972.976 713.731 972.976C717.379 972.976 720.499 974.656 721.891 978.064C722.371 979.264 722.611 980.56 722.611 983.008V1000H718.051V983.344C718.051 981.952 718.051 980.608 717.571 979.408C716.947 977.824 715.459 976.672 713.203 976.672C710.851 976.672 709.027 977.68 707.539 979.408C705.187 982.096 705.187 983.776 705.187 987.856V1000H700.627ZM750.17 991.84C750.17 997.072 746.282 1000.62 739.082 1000.62C732.458 1000.62 728.138 997.552 727.418 991.84H731.882C732.65 995.344 735.098 997.024 739.082 997.024C743.258 997.024 745.658 995.152 745.658 992.32C745.658 990.16 744.314 988.864 741.242 988.576L736.442 988.096C730.49 987.52 727.898 985.216 727.898 981.328C727.898 976.432 732.362 972.976 739.13 972.976C745.274 972.976 749.354 975.904 749.93 981.424H745.658C745.034 978.112 742.682 976.528 738.938 976.528C735.002 976.528 732.458 978.304 732.458 980.944C732.458 982.768 733.706 983.728 736.682 984.016L741.722 984.544C747.674 985.168 750.17 987.664 750.17 991.84ZM755.283 1000V963.664H759.843V977.776H760.035C761.907 974.512 764.787 972.976 768.387 972.976C772.035 972.976 775.155 974.656 776.547 978.064C777.027 979.264 777.267 980.56 777.267 983.008V1000H772.707V983.344C772.707 981.952 772.707 980.608 772.227 979.408C771.603 977.824 770.115 976.672 767.859 976.672C765.507 976.672 763.683 977.68 762.195 979.408C759.843 982.096 759.843 983.776 759.843 987.856V1000H755.283ZM782.026 992.56C782.026 987.568 785.962 985.6 791.77 984.64C794.266 984.208 797.146 983.776 800.17 983.392L800.122 982.192C800.026 979.312 798.586 977.776 796.858 977.056C795.898 976.672 794.89 976.528 793.882 976.528C789.994 976.528 787.738 978.112 787.018 981.424H782.602C783.178 976.912 786.634 972.976 793.786 972.976C800.41 972.976 804.394 975.952 804.394 982.24V1000H800.17V996.448H800.026C798.346 999.232 794.938 1000.62 791.53 1000.62C786.778 1000.62 782.026 997.936 782.026 992.56ZM786.826 992.56C786.826 995.296 788.842 997.36 792.25 997.36C795.082 997.36 798.73 995.536 799.882 991.984C800.122 991.168 800.266 990.256 800.218 988.816L800.17 986.368C797.338 986.8 794.602 987.376 792.058 987.904C787.834 988.768 786.826 990.592 786.826 992.56ZM810.271 1000V973.6H814.831V1000H810.271ZM810.127 969.76V964.72H814.975V969.76H810.127ZM821.047 1000V973.6H825.415V978.16H825.607C827.431 974.608 830.407 972.976 834.151 972.976C837.799 972.976 840.919 974.656 842.311 978.064C842.791 979.264 843.031 980.56 843.031 983.008V1000H838.471V983.344C838.471 981.952 838.471 980.608 837.991 979.408C837.367 977.824 835.879 976.672 833.623 976.672C831.271 976.672 829.447 977.68 827.959 979.408C825.607 982.096 825.607 983.776 825.607 987.856V1000H821.047Z" fill="black"/>
<path d="M374.686 84.896C377.47 83.648 379.966 81.776 381.502 79.664H385.678V116H381.214V85.76H381.022C378.91 87.536 376.942 88.592 374.686 89.36V84.896ZM392.043 91.28C392.475 86.816 393.915 83.744 396.411 81.728C398.475 80.048 401.307 79.04 404.619 79.04C411.867 79.04 416.427 82.976 416.427 89.504C416.427 94.352 414.267 97.328 408.891 100.112L406.011 101.6C400.299 104.576 397.659 107.408 397.131 111.776H416.811V116H392.091C392.091 107.072 395.259 102.368 402.651 98.576L405.915 96.896C410.043 94.784 411.435 92.72 411.435 89.648C411.435 85.376 408.747 82.88 404.955 82.88C400.347 82.88 397.563 85.856 396.795 91.28H392.043ZM435.246 116V79.664H447.438C450.462 79.664 453.102 79.904 455.118 80.672C459.054 82.208 461.358 85.808 461.358 90.656C461.358 95.648 459.054 99.152 455.214 100.64C453.102 101.456 450.462 101.696 446.958 101.696H440.094V116H435.246ZM440.094 97.904H447.15C449.07 97.904 450.366 97.904 452.046 97.424C454.542 96.704 456.318 94.544 456.318 90.752C456.318 86.864 454.542 84.752 451.902 83.984C450.366 83.552 449.07 83.504 447.63 83.504H440.094V97.904ZM466.219 116V89.6H470.587V94.16H470.779C472.555 90.608 475.483 88.976 479.131 88.976C481.387 88.976 483.595 89.696 485.179 91.088C486.091 91.904 486.715 92.912 487.339 94.448C489.211 90.704 492.331 88.976 496.267 88.976C498.523 88.976 500.731 89.696 502.315 91.088C503.227 91.904 503.851 92.912 504.379 94.112C504.811 95.264 505.051 96.56 505.051 99.008V116H500.491V99.344C500.491 97.952 500.491 96.608 500.011 95.504C499.387 93.824 497.995 92.672 495.787 92.672C493.531 92.672 491.659 93.68 490.219 95.408C487.915 98.096 487.915 99.776 487.915 103.856V116H483.355V99.344C483.355 97.952 483.355 96.608 482.875 95.504C482.251 93.824 480.859 92.672 478.651 92.672C476.347 92.672 474.523 93.68 473.083 95.408C470.779 98.096 470.779 99.776 470.779 103.856V116H466.219ZM522.974 103.376V99.152H554.894V103.376H522.974ZM571.795 84.896C574.579 83.648 577.075 81.776 578.611 79.664H582.787V116H578.323V85.76H578.131C576.019 87.536 574.051 88.592 571.795 89.36V84.896ZM602.273 116.624C592.961 116.624 588.833 107.792 588.833 97.808C588.833 87.728 593.009 79.04 602.225 79.04H602.273C611.537 79.04 615.665 87.872 615.665 97.808C615.665 107.936 611.489 116.624 602.273 116.624ZM593.777 97.808C593.777 107.504 597.089 112.784 602.273 112.784C607.457 112.784 610.769 107.504 610.769 97.808C610.769 88.16 607.457 82.88 602.273 82.88C597.089 82.88 593.777 88.16 593.777 97.808ZM634.465 116V79.664H646.657C649.681 79.664 652.321 79.904 654.337 80.672C658.273 82.208 660.577 85.808 660.577 90.656C660.577 95.648 658.273 99.152 654.433 100.64C652.321 101.456 649.681 101.696 646.177 101.696H639.313V116H634.465ZM639.313 97.904H646.369C648.289 97.904 649.585 97.904 651.265 97.424C653.761 96.704 655.537 94.544 655.537 90.752C655.537 86.864 653.761 84.752 651.121 83.984C649.585 83.552 648.289 83.504 646.849 83.504H639.313V97.904ZM665.438 116V89.6H669.806V94.16H669.998C671.774 90.608 674.702 88.976 678.35 88.976C680.606 88.976 682.814 89.696 684.398 91.088C685.31 91.904 685.934 92.912 686.558 94.448C688.43 90.704 691.55 88.976 695.486 88.976C697.742 88.976 699.95 89.696 701.534 91.088C702.446 91.904 703.07 92.912 703.598 94.112C704.03 95.264 704.27 96.56 704.27 99.008V116H699.71V99.344C699.71 97.952 699.71 96.608 699.23 95.504C698.606 93.824 697.214 92.672 695.006 92.672C692.75 92.672 690.878 93.68 689.438 95.408C687.134 98.096 687.134 99.776 687.134 103.856V116H682.574V99.344C682.574 97.952 682.574 96.608 682.094 95.504C681.47 93.824 680.078 92.672 677.87 92.672C675.566 92.672 673.742 93.68 672.302 95.408C669.998 98.096 669.998 99.776 669.998 103.856V116H665.438ZM466.678 140.896C469.462 139.648 471.958 137.776 473.494 135.664H477.67V172H473.206V141.76H473.014C470.902 143.536 468.934 144.592 466.678 145.36V140.896ZM495.572 135.04C504.932 135.04 508.58 142.768 508.58 152.56C508.58 163.744 504.548 172.624 494.612 172.624C488.516 172.624 484.628 168.976 484.1 162.736H488.612C489.332 166.768 491.252 168.736 495.044 168.736C501.044 168.736 504.116 162.16 504.212 154.288H503.972C502.148 158.032 498.884 159.808 494.948 159.808C488.9 159.808 483.572 155.2 483.572 147.76C483.572 140.224 488.708 135.04 495.572 135.04ZM488.324 147.616C488.324 153.28 491.972 156.16 495.428 156.16C499.268 156.16 502.916 153.28 502.916 147.568C502.916 142.432 499.94 138.688 495.572 138.688C491.492 138.688 488.324 142.384 488.324 147.616ZM535.731 172.624C528.099 172.624 524.451 167.104 524.355 159.184H529.203C529.443 164.848 531.315 168.688 535.923 168.688C540.867 168.688 542.163 164.944 542.163 159.424V135.664H547.011V159.328C547.011 168.064 543.363 172.624 535.731 172.624ZM575.124 145.6V172H570.756V167.44H570.564C568.74 170.992 565.764 172.624 562.02 172.624C558.372 172.624 555.252 170.944 553.86 167.536C553.38 166.336 553.14 165.04 553.14 162.592V145.6H557.7V162.256C557.7 163.648 557.7 164.992 558.18 166.192C558.804 167.776 560.292 168.928 562.548 168.928C564.9 168.928 566.724 167.92 568.212 166.192C570.564 163.504 570.564 161.824 570.564 157.744V145.6H575.124ZM581.228 172V135.664H585.836V172H581.228ZM589.707 145.744V145.6H594.459L602.331 165.616L609.339 145.6H613.947V145.792L601.131 180.4H596.619V180.208L599.931 170.992L589.707 145.744ZM314.754 228V191.664H327.378C331.314 191.664 333.234 191.76 335.394 192.48C338.994 193.68 341.154 196.608 341.154 200.352C341.154 204.432 338.514 207.648 334.53 208.272V208.464C339.09 209.232 342.258 212.352 342.258 217.296C342.258 222.192 339.906 225.552 335.634 227.088C333.666 227.808 331.074 228 327.282 228H314.754ZM319.602 224.112H327.138C329.25 224.112 331.074 224.016 332.514 223.68C335.49 222.96 337.17 220.848 337.17 217.584C337.17 214.224 335.586 212.064 332.802 211.392C331.026 210.96 329.634 210.912 328.098 210.912H319.602V224.112ZM319.602 207.024H326.514C329.01 207.024 330.258 206.976 331.746 206.64C334.578 205.968 336.162 204 336.162 201.072C336.162 198.384 334.962 196.608 332.514 195.936C331.074 195.552 329.154 195.504 326.514 195.504H319.602V207.024ZM359.453 228.624C351.581 228.624 346.637 222.72 346.637 214.8C346.637 206.88 351.581 200.976 359.453 200.976C367.325 200.976 372.269 206.88 372.269 214.8C372.269 222.72 367.325 228.624 359.453 228.624ZM351.437 214.8C351.437 220.752 354.173 225.072 359.453 225.072C364.733 225.072 367.469 220.752 367.469 214.8C367.469 208.896 364.733 204.528 359.453 204.528C354.173 204.528 351.437 208.896 351.437 214.8ZM373.232 228L383.024 214.368L373.904 201.6H379.136L385.712 211.68L392.24 201.6H397.232L388.352 214.032L398.336 228H393.104L385.664 216.624L378.224 228H373.232ZM402.122 228V201.6H406.682V228H402.122ZM401.978 197.76V192.72H406.826V197.76H401.978ZM426.129 228V191.664H438.753C442.689 191.664 444.609 191.76 446.769 192.48C450.369 193.68 452.529 196.608 452.529 200.352C452.529 204.432 449.889 207.648 445.905 208.272V208.464C450.465 209.232 453.633 212.352 453.633 217.296C453.633 222.192 451.281 225.552 447.009 227.088C445.041 227.808 442.449 228 438.657 228H426.129ZM430.977 224.112H438.513C440.625 224.112 442.449 224.016 443.889 223.68C446.865 222.96 448.545 220.848 448.545 217.584C448.545 214.224 446.961 212.064 444.177 211.392C442.401 210.96 441.009 210.912 439.473 210.912H430.977V224.112ZM430.977 207.024H437.889C440.385 207.024 441.633 206.976 443.121 206.64C445.953 205.968 447.537 204 447.537 201.072C447.537 198.384 446.337 196.608 443.889 195.936C442.449 195.552 440.529 195.504 437.889 195.504H430.977V207.024ZM458.3 220.56C458.3 215.568 462.236 213.6 468.044 212.64C470.54 212.208 473.42 211.776 476.444 211.392L476.396 210.192C476.3 207.312 474.86 205.776 473.132 205.056C472.172 204.672 471.164 204.528 470.156 204.528C466.268 204.528 464.012 206.112 463.292 209.424H458.876C459.452 204.912 462.908 200.976 470.06 200.976C476.684 200.976 480.668 203.952 480.668 210.24V228H476.444V224.448H476.3C474.62 227.232 471.212 228.624 467.804 228.624C463.052 228.624 458.3 225.936 458.3 220.56ZM463.1 220.56C463.1 223.296 465.116 225.36 468.523 225.36C471.356 225.36 475.004 223.536 476.156 219.984C476.396 219.168 476.54 218.256 476.492 216.816L476.444 214.368C473.612 214.8 470.876 215.376 468.332 215.904C464.108 216.768 463.1 218.592 463.1 220.56ZM509.44 218.928C508.528 225.168 504.256 228.624 497.776 228.624C489.952 228.624 485.152 222.768 485.152 214.8C485.152 206.592 490.24 200.976 498.016 200.976C498.928 200.976 499.936 201.024 500.944 201.216C505.504 202.128 508.384 205.248 509.056 210.144H504.592C503.968 207.12 502.24 205.296 499.792 204.672C499.12 204.528 498.544 204.528 497.872 204.528C492.64 204.528 489.808 208.848 489.808 214.8C489.808 220.8 492.736 225.072 498.016 225.072C501.904 225.072 504.208 222.72 504.928 218.928H509.44ZM514.15 228V191.664H518.614V213.216L529.654 201.6H534.934V201.84L525.142 211.776L535.846 227.76V228H530.95L522.07 214.128L518.614 217.584V228H514.15ZM537.16 201.744V201.6H541.912L549.784 221.616L556.792 201.6H561.4V201.792L548.584 236.4H544.072V236.208L547.384 226.992L537.16 201.744ZM563.253 220.56C563.253 215.568 567.189 213.6 572.997 212.64C575.493 212.208 578.373 211.776 581.397 211.392L581.349 210.192C581.253 207.312 579.813 205.776 578.085 205.056C577.125 204.672 576.117 204.528 575.109 204.528C571.221 204.528 568.965 206.112 568.245 209.424H563.829C564.405 204.912 567.861 200.976 575.013 200.976C581.637 200.976 585.621 203.952 585.621 210.24V228H581.397V224.448H581.253C579.573 227.232 576.165 228.624 572.757 228.624C568.005 228.624 563.253 225.936 563.253 220.56ZM568.053 220.56C568.053 223.296 570.069 225.36 573.477 225.36C576.309 225.36 579.957 223.536 581.109 219.984C581.349 219.168 581.493 218.256 581.445 216.816L581.397 214.368C578.565 214.8 575.829 215.376 573.285 215.904C569.061 216.768 568.053 218.592 568.053 220.56ZM591.305 228V201.6H595.769V206.976H595.961C597.929 202.8 601.337 201.12 604.505 201.12C605.129 201.12 606.137 201.168 606.761 201.408V205.248C606.233 205.104 605.273 205.008 604.601 205.008C602.777 205.008 600.137 205.584 597.833 208.656C597.353 209.328 597.065 209.904 596.729 210.48C596.057 211.872 595.865 213.216 595.865 215.52V228H591.305ZM632.351 228H628.031V224.688H627.839C626.831 227.088 623.951 228.624 620.111 228.624C612.239 228.624 607.871 222.144 607.871 214.8C607.871 207.456 612.239 200.976 620.111 200.976C623.711 200.976 626.399 202.32 627.599 204.432H627.791V191.664H632.351V228ZM612.623 214.8C612.623 220.8 615.695 225.072 620.783 225.072C624.671 225.072 627.167 223.008 627.935 218.976C628.223 217.44 628.223 216.336 628.223 214.8C628.223 213.264 628.223 212.16 627.935 210.624C627.167 206.592 624.671 204.528 620.783 204.528C615.695 204.528 612.623 208.8 612.623 214.8ZM651.692 228V191.664H663.884C666.908 191.664 669.548 191.904 671.564 192.672C675.5 194.208 677.804 197.808 677.804 202.656C677.804 207.648 675.5 211.152 671.66 212.64C669.548 213.456 666.908 213.696 663.404 213.696H656.54V228H651.692ZM656.54 209.904H663.596C665.516 209.904 666.812 209.904 668.492 209.424C670.988 208.704 672.764 206.544 672.764 202.752C672.764 198.864 670.988 196.752 668.348 195.984C666.812 195.552 665.516 195.504 664.076 195.504H656.54V209.904ZM681.284 220.56C681.284 215.568 685.22 213.6 691.028 212.64C693.524 212.208 696.404 211.776 699.428 211.392L699.38 210.192C699.284 207.312 697.844 205.776 696.116 205.056C695.156 204.672 694.148 204.528 693.14 204.528C689.252 204.528 686.996 206.112 686.276 209.424H681.86C682.436 204.912 685.892 200.976 693.044 200.976C699.668 200.976 703.652 203.952 703.652 210.24V228H699.428V224.448H699.284C697.604 227.232 694.196 228.624 690.788 228.624C686.036 228.624 681.284 225.936 681.284 220.56ZM686.084 220.56C686.084 223.296 688.1 225.36 691.508 225.36C694.34 225.36 697.988 223.536 699.14 219.984C699.38 219.168 699.524 218.256 699.476 216.816L699.428 214.368C696.596 214.8 693.86 215.376 691.316 215.904C687.092 216.768 686.084 218.592 686.084 220.56ZM709.337 228V201.6H713.801V206.976H713.993C715.961 202.8 719.369 201.12 722.537 201.12C723.161 201.12 724.169 201.168 724.793 201.408V205.248C724.265 205.104 723.305 205.008 722.633 205.008C720.809 205.008 718.169 205.584 715.865 208.656C715.385 209.328 715.097 209.904 714.761 210.48C714.089 211.872 713.897 213.216 713.897 215.52V228H709.337ZM731.077 223.344V205.008H727.573V201.6H731.077V195.12H735.589V201.6H741.397V205.008H735.589V222.192C735.589 224.976 737.365 225.456 739.717 225.456C740.389 225.456 740.965 225.408 741.397 225.36V228.336C740.293 228.576 738.997 228.72 737.701 228.72C734.389 228.72 731.077 227.664 731.077 223.344ZM743.55 201.744V201.6H748.302L756.174 221.616L763.182 201.6H767.79V201.792L754.974 236.4H750.462V236.208L753.774 226.992L743.55 201.744Z" fill="black"/>
</svg>
