<svg width="1080" height="1080" viewBox="0 0 1080 1080" fill="none" xmlns="http://www.w3.org/2000/svg">
<rect width="1080" height="1080" fill="white"/>
<path d="M491.33 503.624C481.634 503.624 473.81 497.576 473.81 485C473.81 472.184 481.634 466.04 491.33 466.04C501.074 466.04 508.85 472.184 508.85 485C508.85 497.576 501.074 503.624 491.33 503.624ZM478.946 485C478.946 492.92 482.594 499.736 491.234 499.736C499.97 499.736 503.714 493.016 503.714 485C503.714 476.888 500.21 469.928 491.33 469.928C482.45 469.928 478.946 476.888 478.946 485ZM514.463 503V466.664H518.927V488.216L529.967 476.6H535.247V476.84L525.455 486.776L536.159 502.76V503H531.263L522.383 489.128L518.927 492.584V503H514.463ZM539.68 503V476.6H544.144V481.976H544.336C546.304 477.8 549.712 476.12 552.88 476.12C553.504 476.12 554.512 476.168 555.136 476.408V480.248C554.608 480.104 553.648 480.008 552.976 480.008C551.152 480.008 548.512 480.584 546.208 483.656C545.728 484.328 545.44 484.904 545.104 485.48C544.432 486.872 544.24 488.216 544.24 490.52V503H539.68ZM557.05 495.56C557.05 490.568 560.986 488.6 566.794 487.64C569.29 487.208 572.17 486.776 575.194 486.392L575.146 485.192C575.05 482.312 573.61 480.776 571.882 480.056C570.922 479.672 569.914 479.528 568.906 479.528C565.018 479.528 562.762 481.112 562.042 484.424H557.626C558.202 479.912 561.658 475.976 568.81 475.976C575.434 475.976 579.418 478.952 579.418 485.24V503H575.194V499.448H575.05C573.37 502.232 569.962 503.624 566.554 503.624C561.802 503.624 557.05 500.936 557.05 495.56ZM561.85 495.56C561.85 498.296 563.866 500.36 567.273 500.36C570.106 500.36 573.754 498.536 574.906 494.984C575.146 494.168 575.29 493.256 575.242 491.816L575.194 489.368C572.362 489.8 569.626 490.376 567.082 490.904C562.858 491.768 561.85 493.592 561.85 495.56ZM585.102 503V476.6H589.47V481.16H589.662C591.486 477.608 594.462 475.976 598.206 475.976C601.854 475.976 604.974 477.656 606.366 481.064C606.846 482.264 607.086 483.56 607.086 486.008V503H602.526V486.344C602.526 484.952 602.526 483.608 602.046 482.408C601.422 480.824 599.934 479.672 597.678 479.672C595.326 479.672 593.502 480.68 592.014 482.408C589.662 485.096 589.662 486.776 589.662 490.856V503H585.102ZM396.173 559.624C386.477 559.624 378.653 553.576 378.653 541C378.653 528.184 386.477 522.04 396.173 522.04C405.917 522.04 413.693 528.184 413.693 541C413.693 553.576 405.917 559.624 396.173 559.624ZM383.789 541C383.789 548.92 387.437 555.736 396.077 555.736C404.813 555.736 408.557 549.016 408.557 541C408.557 532.888 405.053 525.928 396.173 525.928C387.293 525.928 383.789 532.888 383.789 541ZM419.306 559V522.664H423.914V559H419.306ZM453.705 549.928C452.793 556.168 448.233 559.624 441.657 559.624C433.737 559.624 428.793 553.72 428.793 545.8C428.793 540.328 431.145 535.768 435.225 533.512C437.001 532.504 439.161 531.976 441.561 531.976C442.665 531.976 443.625 531.976 444.537 532.12C446.169 532.408 447.657 533.08 449.001 534.04C451.929 536.152 453.849 540.04 453.801 546.184H433.401C433.353 546.568 433.353 546.952 433.401 547.432C433.497 548.584 433.689 549.64 434.025 550.6C435.273 553.912 437.961 556.024 441.897 556.024C444.921 556.024 446.937 554.824 448.185 552.76C448.665 551.944 449.049 550.984 449.289 549.928H453.705ZM433.593 542.776H449.193C448.905 538.648 446.553 535.816 442.953 535.384C442.425 535.336 442.089 535.336 441.705 535.336C437.673 535.336 434.889 537.784 433.833 541.48C433.737 541.912 433.689 542.344 433.593 542.776ZM480.917 557.416C480.917 564.52 476.981 568.024 469.109 568.024C461.429 568.024 458.597 564.616 458.021 560.584H462.581C463.013 563.272 465.461 564.568 469.205 564.568C474.101 564.568 476.741 562.792 476.741 555.928V554.392H476.549C475.685 556.84 472.757 558.424 468.869 558.424C461.237 558.424 456.965 552.232 456.965 545.224C456.965 538.168 461.237 531.976 468.869 531.976C472.565 531.976 475.349 533.416 476.357 535.768H476.597V532.6H480.917V557.416ZM461.717 545.224C461.717 550.936 464.597 555.064 469.589 555.064C473.429 555.064 475.733 553.096 476.501 549.208C476.789 547.72 476.789 546.664 476.789 545.224C476.789 543.784 476.789 542.776 476.501 541.24C475.733 537.4 473.429 535.288 469.589 535.288C464.597 535.288 461.717 539.416 461.717 545.224ZM513.904 559.672C504.208 559.672 498.88 555.352 498.256 546.904H503.248C504.112 553.24 507.328 555.928 514.432 555.928C520.72 555.928 524.032 553.384 524.032 548.68C524.032 545.464 521.824 543.736 516.544 542.824L510.208 541.72C502.528 540.376 499.6 537.64 499.6 532.168C499.6 525.976 505.216 521.896 514.048 521.896C522.544 521.896 527.68 525.688 528.16 532.36H523.36C522.64 527.944 519.424 525.592 513.76 525.592C508.192 525.592 504.64 528.04 504.64 531.64C504.64 534.712 506.32 536.2 510.64 537.016L518.368 538.456C525.952 539.848 528.928 542.68 528.928 548.44C528.928 555.496 523.648 559.672 513.904 559.672ZM545.156 559.624C537.284 559.624 532.34 553.72 532.34 545.8C532.34 537.88 537.284 531.976 545.156 531.976C553.028 531.976 557.972 537.88 557.972 545.8C557.972 553.72 553.028 559.624 545.156 559.624ZM537.14 545.8C537.14 551.752 539.876 556.072 545.156 556.072C550.436 556.072 553.172 551.752 553.172 545.8C553.172 539.896 550.436 535.528 545.156 535.528C539.876 535.528 537.14 539.896 537.14 545.8ZM564.288 559V536.008H560.208V532.6H564.288V529.144C564.288 523.24 568.704 522.04 572.112 522.04C573.216 522.04 574.224 522.184 574.944 522.328V525.784C574.272 525.736 573.648 525.688 573.072 525.688C570.384 525.688 568.8 526.456 568.8 529.192V532.6H575.328V536.008H568.8V559H564.288ZM579.196 559V532.6H583.66V537.976H583.852C585.82 533.8 589.228 532.12 592.396 532.12C593.02 532.12 594.028 532.168 594.652 532.408V536.248C594.124 536.104 593.164 536.008 592.492 536.008C590.668 536.008 588.028 536.584 585.724 539.656C585.244 540.328 584.956 540.904 584.62 541.48C583.948 542.872 583.756 544.216 583.756 546.52V559H579.196ZM608.578 559.624C600.706 559.624 595.762 553.72 595.762 545.8C595.762 537.88 600.706 531.976 608.578 531.976C616.45 531.976 621.394 537.88 621.394 545.8C621.394 553.72 616.45 559.624 608.578 559.624ZM600.562 545.8C600.562 551.752 603.298 556.072 608.578 556.072C613.858 556.072 616.594 551.752 616.594 545.8C616.594 539.896 613.858 535.528 608.578 535.528C603.298 535.528 600.562 539.896 600.562 545.8ZM626.258 559V532.6H630.626V537.16H630.818C632.642 533.608 635.618 531.976 639.362 531.976C643.01 531.976 646.13 533.656 647.522 537.064C648.002 538.264 648.242 539.56 648.242 542.008V559H643.682V542.344C643.682 540.952 643.682 539.608 643.202 538.408C642.578 536.824 641.09 535.672 638.834 535.672C636.482 535.672 634.658 536.68 633.17 538.408C630.818 541.096 630.818 542.776 630.818 546.856V559H626.258ZM665.531 559.624C657.659 559.624 652.715 553.72 652.715 545.8C652.715 537.88 657.659 531.976 665.531 531.976C673.403 531.976 678.347 537.88 678.347 545.8C678.347 553.72 673.403 559.624 665.531 559.624ZM657.515 545.8C657.515 551.752 660.251 556.072 665.531 556.072C670.811 556.072 673.547 551.752 673.547 545.8C673.547 539.896 670.811 535.528 665.531 535.528C660.251 535.528 657.515 539.896 657.515 545.8ZM689.385 559L679.833 532.6H684.537L689.673 547.672C691.065 551.704 691.449 553.432 691.833 554.632H692.025C692.409 553.432 692.793 551.704 694.185 547.672L699.321 532.6H704.025L694.473 559H689.385ZM431.634 615.624C421.938 615.624 414.114 609.576 414.114 597C414.114 584.184 421.938 578.04 431.634 578.04C441.378 578.04 449.154 584.184 449.154 597C449.154 609.576 441.378 615.624 431.634 615.624ZM419.25 597C419.25 604.92 422.898 611.736 431.538 611.736C440.274 611.736 444.018 605.016 444.018 597C444.018 588.888 440.514 581.928 431.634 581.928C422.754 581.928 419.25 588.888 419.25 597ZM454.767 615V578.664H459.375V615H454.767ZM489.166 605.928C488.254 612.168 483.694 615.624 477.118 615.624C469.198 615.624 464.254 609.72 464.254 601.8C464.254 596.328 466.606 591.768 470.686 589.512C472.462 588.504 474.622 587.976 477.022 587.976C478.126 587.976 479.086 587.976 479.998 588.12C481.63 588.408 483.118 589.08 484.462 590.04C487.39 592.152 489.31 596.04 489.262 602.184H468.862C468.814 602.568 468.814 602.952 468.862 603.432C468.958 604.584 469.15 605.64 469.486 606.6C470.734 609.912 473.422 612.024 477.358 612.024C480.382 612.024 482.398 610.824 483.646 608.76C484.126 607.944 484.51 606.984 484.75 605.928H489.166ZM469.054 598.776H484.654C484.366 594.648 482.014 591.816 478.414 591.384C477.886 591.336 477.55 591.336 477.166 591.336C473.134 591.336 470.35 593.784 469.294 597.48C469.198 597.912 469.15 598.344 469.054 598.776ZM516.378 613.416C516.378 620.52 512.442 624.024 504.57 624.024C496.89 624.024 494.058 620.616 493.482 616.584H498.042C498.474 619.272 500.922 620.568 504.666 620.568C509.562 620.568 512.202 618.792 512.202 611.928V610.392H512.01C511.146 612.84 508.218 614.424 504.33 614.424C496.698 614.424 492.426 608.232 492.426 601.224C492.426 594.168 496.698 587.976 504.33 587.976C508.026 587.976 510.81 589.416 511.818 591.768H512.058V588.6H516.378V613.416ZM497.178 601.224C497.178 606.936 500.058 611.064 505.05 611.064C508.89 611.064 511.194 609.096 511.962 605.208C512.25 603.72 512.25 602.664 512.25 601.224C512.25 599.784 512.25 598.776 511.962 597.24C511.194 593.4 508.89 591.288 505.05 591.288C500.058 591.288 497.178 595.416 497.178 601.224ZM535.637 615V578.664H548.213C551.333 578.664 554.309 578.808 556.421 579.528C560.501 580.92 562.613 584.28 562.613 588.936C562.613 594.696 559.109 598.152 553.349 598.968L562.949 614.76V615H557.573L548.261 599.304H540.485V615H535.637ZM540.485 595.608H548.405C550.421 595.608 551.765 595.56 553.541 595.128C556.133 594.504 557.957 592.584 557.957 589.224C557.957 585.48 556.133 583.56 553.589 582.936C551.765 582.456 549.941 582.504 548.453 582.504H540.485V595.608ZM578.788 615.624C570.916 615.624 565.972 609.72 565.972 601.8C565.972 593.88 570.916 587.976 578.788 587.976C586.66 587.976 591.604 593.88 591.604 601.8C591.604 609.72 586.66 615.624 578.788 615.624ZM570.772 601.8C570.772 607.752 573.508 612.072 578.788 612.072C584.068 612.072 586.804 607.752 586.804 601.8C586.804 595.896 584.068 591.528 578.788 591.528C573.508 591.528 570.772 595.896 570.772 601.8ZM593.942 615V611.784L609.398 591.912H594.662V588.6H614.342V592.2L599.174 611.688H614.918V615H593.942ZM630.07 615.624C622.198 615.624 617.254 609.72 617.254 601.8C617.254 593.88 622.198 587.976 630.07 587.976C637.942 587.976 642.886 593.88 642.886 601.8C642.886 609.72 637.942 615.624 630.07 615.624ZM622.054 601.8C622.054 607.752 624.79 612.072 630.07 612.072C635.35 612.072 638.086 607.752 638.086 601.8C638.086 595.896 635.35 591.528 630.07 591.528C624.79 591.528 622.054 595.896 622.054 601.8ZM653.924 615L644.372 588.6H649.076L654.212 603.672C655.604 607.704 655.988 609.432 656.372 610.632H656.564C656.948 609.432 657.332 607.704 658.724 603.672L663.86 588.6H668.564L659.012 615H653.924ZM467.059 671V634.664H471.907V652.904L487.075 634.664H492.595V634.808L479.875 649.832L494.371 670.712V671H488.947L476.563 653.048L471.907 658.616V671H467.059ZM508.148 671.624C500.276 671.624 495.332 665.72 495.332 657.8C495.332 649.88 500.276 643.976 508.148 643.976C516.02 643.976 520.964 649.88 520.964 657.8C520.964 665.72 516.02 671.624 508.148 671.624ZM500.132 657.8C500.132 663.752 502.868 668.072 508.148 668.072C513.428 668.072 516.164 663.752 516.164 657.8C516.164 651.896 513.428 647.528 508.148 647.528C502.868 647.528 500.132 651.896 500.132 657.8ZM525.877 671V634.664H530.485V671H525.877ZM548.179 671.624C540.307 671.624 535.363 665.72 535.363 657.8C535.363 649.88 540.307 643.976 548.179 643.976C556.051 643.976 560.995 649.88 560.995 657.8C560.995 665.72 556.051 671.624 548.179 671.624ZM540.163 657.8C540.163 663.752 542.899 668.072 548.179 668.072C553.459 668.072 556.195 663.752 556.195 657.8C556.195 651.896 553.459 647.528 548.179 647.528C542.899 647.528 540.163 651.896 540.163 657.8ZM564.714 663.56C564.714 658.568 568.65 656.6 574.458 655.64C576.954 655.208 579.834 654.776 582.858 654.392L582.81 653.192C582.714 650.312 581.274 648.776 579.546 648.056C578.586 647.672 577.578 647.528 576.57 647.528C572.682 647.528 570.426 649.112 569.706 652.424H565.29C565.866 647.912 569.322 643.976 576.474 643.976C583.098 643.976 587.082 646.952 587.082 653.24V671H582.858V667.448H582.714C581.034 670.232 577.626 671.624 574.218 671.624C569.466 671.624 564.714 668.936 564.714 663.56ZM569.514 663.56C569.514 666.296 571.53 668.36 574.938 668.36C577.77 668.36 581.418 666.536 582.57 662.984C582.81 662.168 582.954 661.256 582.906 659.816L582.858 657.368C580.026 657.8 577.29 658.376 574.746 658.904C570.522 659.768 569.514 661.592 569.514 663.56ZM592.814 671V634.664H597.374V648.776H597.566C599.438 645.512 602.318 643.976 605.918 643.976C609.566 643.976 612.686 645.656 614.078 649.064C614.558 650.264 614.798 651.56 614.798 654.008V671H610.238V654.344C610.238 652.952 610.238 651.608 609.758 650.408C609.134 648.824 607.646 647.672 605.39 647.672C603.038 647.672 601.214 648.68 599.726 650.408C597.374 653.096 597.374 654.776 597.374 658.856V671H592.814Z" fill="black"/>
<path d="M251.949 918V881.664H264.573C268.509 881.664 270.429 881.76 272.589 882.48C276.189 883.68 278.349 886.608 278.349 890.352C278.349 894.432 275.709 897.648 271.725 898.272V898.464C276.285 899.232 279.453 902.352 279.453 907.296C279.453 912.192 277.101 915.552 272.829 917.088C270.861 917.808 268.269 918 264.477 918H251.949ZM256.797 914.112H264.333C266.445 914.112 268.269 914.016 269.709 913.68C272.685 912.96 274.365 910.848 274.365 907.584C274.365 904.224 272.781 902.064 269.997 901.392C268.221 900.96 266.829 900.912 265.293 900.912H256.797V914.112ZM256.797 897.024H263.709C266.205 897.024 267.453 896.976 268.941 896.64C271.773 895.968 273.357 894 273.357 891.072C273.357 888.384 272.157 886.608 269.709 885.936C268.269 885.552 266.349 885.504 263.709 885.504H256.797V897.024ZM296.648 918.624C288.776 918.624 283.832 912.72 283.832 904.8C283.832 896.88 288.776 890.976 296.648 890.976C304.52 890.976 309.464 896.88 309.464 904.8C309.464 912.72 304.52 918.624 296.648 918.624ZM288.632 904.8C288.632 910.752 291.368 915.072 296.648 915.072C301.928 915.072 304.664 910.752 304.664 904.8C304.664 898.896 301.928 894.528 296.648 894.528C291.368 894.528 288.632 898.896 288.632 904.8ZM310.428 918L320.22 904.368L311.1 891.6H316.332L322.908 901.68L329.436 891.6H334.428L325.548 904.032L335.532 918H330.3L322.86 906.624L315.42 918H310.428ZM339.174 918V881.664H343.734V895.776H343.926C345.798 892.512 348.678 890.976 352.278 890.976C355.926 890.976 359.046 892.656 360.438 896.064C360.918 897.264 361.158 898.56 361.158 901.008V918H356.598V901.344C356.598 899.952 356.598 898.608 356.118 897.408C355.494 895.824 354.006 894.672 351.75 894.672C349.398 894.672 347.574 895.68 346.086 897.408C343.734 900.096 343.734 901.776 343.734 905.856V918H339.174ZM365.917 910.56C365.917 905.568 369.853 903.6 375.661 902.64C378.157 902.208 381.037 901.776 384.061 901.392L384.013 900.192C383.917 897.312 382.477 895.776 380.749 895.056C379.789 894.672 378.781 894.528 377.773 894.528C373.885 894.528 371.629 896.112 370.909 899.424H366.493C367.069 894.912 370.525 890.976 377.677 890.976C384.301 890.976 388.285 893.952 388.285 900.24V918H384.061V914.448H383.917C382.237 917.232 378.829 918.624 375.421 918.624C370.669 918.624 365.917 915.936 365.917 910.56ZM370.717 910.56C370.717 913.296 372.733 915.36 376.141 915.36C378.973 915.36 382.621 913.536 383.773 909.984C384.013 909.168 384.157 908.256 384.109 906.816L384.061 904.368C381.229 904.8 378.493 905.376 375.949 905.904C371.725 906.768 370.717 908.592 370.717 910.56ZM416.721 916.416C416.721 923.52 412.785 927.024 404.913 927.024C397.233 927.024 394.401 923.616 393.825 919.584H398.385C398.817 922.272 401.265 923.568 405.009 923.568C409.905 923.568 412.545 921.792 412.545 914.928V913.392H412.353C411.489 915.84 408.561 917.424 404.673 917.424C397.041 917.424 392.769 911.232 392.769 904.224C392.769 897.168 397.041 890.976 404.673 890.976C408.369 890.976 411.153 892.416 412.161 894.768H412.401V891.6H416.721V916.416ZM397.521 904.224C397.521 909.936 400.401 914.064 405.393 914.064C409.233 914.064 411.537 912.096 412.305 908.208C412.593 906.72 412.593 905.664 412.593 904.224C412.593 902.784 412.593 901.776 412.305 900.24C411.537 896.4 409.233 894.288 405.393 894.288C400.401 894.288 397.521 898.416 397.521 904.224ZM446.463 908.928C445.551 915.168 440.991 918.624 434.415 918.624C426.495 918.624 421.551 912.72 421.551 904.8C421.551 899.328 423.903 894.768 427.983 892.512C429.759 891.504 431.919 890.976 434.319 890.976C435.423 890.976 436.383 890.976 437.295 891.12C438.927 891.408 440.415 892.08 441.759 893.04C444.687 895.152 446.607 899.04 446.559 905.184H426.159C426.111 905.568 426.111 905.952 426.159 906.432C426.255 907.584 426.447 908.64 426.783 909.6C428.031 912.912 430.719 915.024 434.655 915.024C437.679 915.024 439.695 913.824 440.943 911.76C441.423 910.944 441.807 909.984 442.047 908.928H446.463ZM426.351 901.776H441.951C441.663 897.648 439.311 894.816 435.711 894.384C435.183 894.336 434.847 894.336 434.463 894.336C430.431 894.336 427.647 896.784 426.591 900.48C426.495 900.912 426.447 901.344 426.351 901.776ZM451.391 918V891.6H455.759V896.16H455.951C457.775 892.608 460.751 890.976 464.495 890.976C468.143 890.976 471.263 892.656 472.655 896.064C473.135 897.264 473.375 898.56 473.375 901.008V918H468.815V901.344C468.815 899.952 468.815 898.608 468.335 897.408C467.711 895.824 466.223 894.672 463.967 894.672C461.615 894.672 459.791 895.68 458.303 897.408C455.951 900.096 455.951 901.776 455.951 905.856V918H451.391ZM502.759 908.928C501.847 915.168 497.287 918.624 490.711 918.624C482.791 918.624 477.847 912.72 477.847 904.8C477.847 899.328 480.199 894.768 484.279 892.512C486.055 891.504 488.215 890.976 490.615 890.976C491.719 890.976 492.679 890.976 493.591 891.12C495.223 891.408 496.711 892.08 498.055 893.04C500.983 895.152 502.903 899.04 502.855 905.184H482.455C482.407 905.568 482.407 905.952 482.455 906.432C482.551 907.584 482.743 908.64 483.079 909.6C484.327 912.912 487.015 915.024 490.951 915.024C493.975 915.024 495.991 913.824 497.239 911.76C497.719 910.944 498.103 909.984 498.343 908.928H502.759ZM482.647 901.776H498.247C497.959 897.648 495.607 894.816 492.007 894.384C491.479 894.336 491.143 894.336 490.759 894.336C486.727 894.336 483.943 896.784 482.887 900.48C482.791 900.912 482.743 901.344 482.647 901.776ZM507.688 918V891.6H512.152V896.976H512.344C514.312 892.8 517.72 891.12 520.888 891.12C521.512 891.12 522.52 891.168 523.144 891.408V895.248C522.616 895.104 521.656 895.008 520.984 895.008C519.16 895.008 516.52 895.584 514.216 898.656C513.736 899.328 513.448 899.904 513.112 900.48C512.44 901.872 512.248 903.216 512.248 905.52V918H507.688ZM553.865 918.672C544.169 918.672 538.841 914.352 538.217 905.904H543.209C544.073 912.24 547.289 914.928 554.393 914.928C560.681 914.928 563.993 912.384 563.993 907.68C563.993 904.464 561.785 902.736 556.505 901.824L550.169 900.72C542.489 899.376 539.561 896.64 539.561 891.168C539.561 884.976 545.177 880.896 554.009 880.896C562.505 880.896 567.641 884.688 568.121 891.36H563.321C562.601 886.944 559.385 884.592 553.721 884.592C548.153 884.592 544.601 887.04 544.601 890.64C544.601 893.712 546.281 895.2 550.601 896.016L558.329 897.456C565.913 898.848 568.889 901.68 568.889 907.44C568.889 914.496 563.609 918.672 553.865 918.672ZM575.085 913.344V895.008H571.581V891.6H575.085V885.12H579.597V891.6H585.405V895.008H579.597V912.192C579.597 914.976 581.373 915.456 583.725 915.456C584.397 915.456 584.973 915.408 585.405 915.36V918.336C584.301 918.576 583.005 918.72 581.709 918.72C578.397 918.72 575.085 917.664 575.085 913.344ZM589.766 918V891.6H594.23V896.976H594.422C596.39 892.8 599.798 891.12 602.966 891.12C603.59 891.12 604.598 891.168 605.222 891.408V895.248C604.694 895.104 603.734 895.008 603.062 895.008C601.238 895.008 598.598 895.584 596.294 898.656C595.814 899.328 595.526 899.904 595.19 900.48C594.518 901.872 594.326 903.216 594.326 905.52V918H589.766ZM603.716 918V912.384H608.756V918H603.716ZM627.326 886.896C630.11 885.648 632.606 883.776 634.142 881.664H638.318V918H633.854V887.76H633.662C631.55 889.536 629.582 890.592 627.326 891.36V886.896ZM657.228 918.624C649.98 918.624 644.364 914.832 644.364 908.352C644.364 903.984 646.716 900.288 652.092 898.944V898.752C647.964 897.408 645.66 894.384 645.66 890.688C645.66 884.544 650.988 881.04 657.228 881.04C663.42 881.04 668.748 884.544 668.748 890.688C668.748 894.384 666.444 897.408 662.316 898.752V898.944C667.692 900.288 670.044 903.984 670.044 908.352C670.044 914.928 664.284 918.624 657.228 918.624ZM649.164 908.064C649.164 912.48 653.004 915.168 657.228 915.168C661.404 915.168 665.292 912.48 665.292 908.064C665.292 903.36 661.884 900.96 657.18 900.96C652.524 900.96 649.164 903.36 649.164 908.064ZM650.412 890.976C650.412 895.584 654.012 897.168 657.228 897.168C660.396 897.168 663.996 895.584 663.996 890.976C663.996 886.752 660.78 884.736 657.228 884.736C653.532 884.736 650.412 886.656 650.412 890.976ZM672.729 924.192L674.457 918V912.384H679.113V918L675.945 924.192H672.729ZM697.686 886.896C700.47 885.648 702.966 883.776 704.502 881.664H708.678V918H704.214V887.76H704.022C701.91 889.536 699.942 890.592 697.686 891.36V886.896ZM728.164 918.624C718.852 918.624 714.724 909.792 714.724 899.808C714.724 889.728 718.9 881.04 728.116 881.04H728.164C737.428 881.04 741.556 889.872 741.556 899.808C741.556 909.936 737.38 918.624 728.164 918.624ZM719.668 899.808C719.668 909.504 722.98 914.784 728.164 914.784C733.348 914.784 736.66 909.504 736.66 899.808C736.66 890.16 733.348 884.88 728.164 884.88C722.98 884.88 719.668 890.16 719.668 899.808ZM746.262 893.28C746.694 888.816 748.134 885.744 750.63 883.728C752.694 882.048 755.526 881.04 758.838 881.04C766.086 881.04 770.646 884.976 770.646 891.504C770.646 896.352 768.486 899.328 763.11 902.112L760.23 903.6C754.518 906.576 751.878 909.408 751.35 913.776H771.03V918H746.31C746.31 909.072 749.478 904.368 756.87 900.576L760.134 898.896C764.262 896.784 765.654 894.72 765.654 891.648C765.654 887.376 762.966 884.88 759.174 884.88C754.566 884.88 751.782 887.856 751.014 893.28H746.262ZM789.636 918L789.732 907.872H772.596V903.936L787.812 881.664H794.34V904.08H798.516V907.872H794.34V918H789.636ZM777.54 904.08H789.732V894.864C789.732 891.552 789.876 887.04 789.972 885.696H789.684C787.908 888.864 785.556 892.608 783.684 895.248L777.54 904.08ZM813.985 918.576C807.649 918.576 802.945 914.592 802.561 908.16H807.601C807.841 912 810.529 914.784 814.465 914.784C819.889 914.784 822.433 909.792 822.433 904.896C822.433 899.376 819.745 895.968 815.137 895.968C811.489 895.968 808.801 898.224 807.937 901.488H803.713L805.345 881.664H825.313V885.792H809.137L808.369 895.2C809.953 893.328 812.545 892.176 815.809 892.176C823.249 892.176 827.281 898.08 827.281 904.608C827.281 912.864 821.713 918.576 813.985 918.576ZM235.824 974V937.664H241.488L261.168 967.52H261.408C261.216 965.456 261.072 961.568 261.072 956.24V937.664H265.872V974H260.304L240.528 944.048H240.288C240.432 946.496 240.624 953.648 240.624 958.688V974H235.824ZM296.134 964.928C295.222 971.168 290.662 974.624 284.086 974.624C276.166 974.624 271.222 968.72 271.222 960.8C271.222 955.328 273.574 950.768 277.654 948.512C279.43 947.504 281.59 946.976 283.99 946.976C285.094 946.976 286.054 946.976 286.966 947.12C288.598 947.408 290.086 948.08 291.43 949.04C294.358 951.152 296.278 955.04 296.23 961.184H275.83C275.782 961.568 275.782 961.952 275.83 962.432C275.926 963.584 276.118 964.64 276.454 965.6C277.702 968.912 280.39 971.024 284.326 971.024C287.35 971.024 289.366 969.824 290.614 967.76C291.094 966.944 291.478 965.984 291.718 964.928H296.134ZM276.022 957.776H291.622C291.334 953.648 288.982 950.816 285.382 950.384C284.854 950.336 284.518 950.336 284.134 950.336C280.102 950.336 277.318 952.784 276.262 956.48C276.166 956.912 276.118 957.344 276.022 957.776ZM322.663 947.6V974H318.295V969.44H318.103C316.279 972.992 313.303 974.624 309.559 974.624C305.911 974.624 302.791 972.944 301.399 969.536C300.919 968.336 300.679 967.04 300.679 964.592V947.6H305.239V964.256C305.239 965.648 305.239 966.992 305.719 968.192C306.343 969.776 307.831 970.928 310.087 970.928C312.439 970.928 314.263 969.92 315.751 968.192C318.103 965.504 318.103 963.824 318.103 959.744V947.6H322.663ZM352.431 964.928C351.519 971.168 346.959 974.624 340.383 974.624C332.463 974.624 327.519 968.72 327.519 960.8C327.519 955.328 329.871 950.768 333.951 948.512C335.727 947.504 337.887 946.976 340.287 946.976C341.391 946.976 342.351 946.976 343.263 947.12C344.895 947.408 346.383 948.08 347.727 949.04C350.655 951.152 352.575 955.04 352.527 961.184H332.127C332.079 961.568 332.079 961.952 332.127 962.432C332.223 963.584 332.415 964.64 332.751 965.6C333.999 968.912 336.687 971.024 340.623 971.024C343.647 971.024 345.663 969.824 346.911 967.76C347.391 966.944 347.775 965.984 348.015 964.928H352.431ZM332.319 957.776H347.919C347.631 953.648 345.279 950.816 341.679 950.384C341.151 950.336 340.815 950.336 340.431 950.336C336.399 950.336 333.615 952.784 332.559 956.48C332.463 956.912 332.415 957.344 332.319 957.776ZM370.59 974V937.664H383.214C387.15 937.664 389.07 937.76 391.23 938.48C394.83 939.68 396.99 942.608 396.99 946.352C396.99 950.432 394.35 953.648 390.366 954.272V954.464C394.926 955.232 398.094 958.352 398.094 963.296C398.094 968.192 395.742 971.552 391.47 973.088C389.502 973.808 386.91 974 383.118 974H370.59ZM375.438 970.112H382.974C385.086 970.112 386.91 970.016 388.35 969.68C391.326 968.96 393.006 966.848 393.006 963.584C393.006 960.224 391.422 958.064 388.638 957.392C386.862 956.96 385.47 956.912 383.934 956.912H375.438V970.112ZM375.438 953.024H382.35C384.846 953.024 386.094 952.976 387.582 952.64C390.414 951.968 391.998 950 391.998 947.072C391.998 944.384 390.798 942.608 388.35 941.936C386.91 941.552 384.99 941.504 382.35 941.504H375.438V953.024ZM425.272 947.6V974H420.904V969.44H420.712C418.888 972.992 415.912 974.624 412.168 974.624C408.52 974.624 405.4 972.944 404.008 969.536C403.528 968.336 403.288 967.04 403.288 964.592V947.6H407.848V964.256C407.848 965.648 407.848 966.992 408.328 968.192C408.952 969.776 410.44 970.928 412.696 970.928C415.048 970.928 416.872 969.92 418.36 968.192C420.712 965.504 420.712 963.824 420.712 959.744V947.6H425.272ZM431.377 974V937.664H435.937V951.776H436.129C438.001 948.512 440.881 946.976 444.481 946.976C448.129 946.976 451.249 948.656 452.641 952.064C453.121 953.264 453.361 954.56 453.361 957.008V974H448.801V957.344C448.801 955.952 448.801 954.608 448.321 953.408C447.697 951.824 446.209 950.672 443.953 950.672C441.601 950.672 439.777 951.68 438.289 953.408C435.937 956.096 435.937 957.776 435.937 961.856V974H431.377ZM459.032 974V947.6H463.4V952.16H463.592C465.416 948.608 468.392 946.976 472.136 946.976C475.784 946.976 478.904 948.656 480.296 952.064C480.776 953.264 481.016 954.56 481.016 957.008V974H476.456V957.344C476.456 955.952 476.456 954.608 475.976 953.408C475.352 951.824 473.864 950.672 471.608 950.672C469.256 950.672 467.432 951.68 465.944 953.408C463.592 956.096 463.592 957.776 463.592 961.856V974H459.032ZM510.4 964.928C509.488 971.168 504.928 974.624 498.352 974.624C490.432 974.624 485.488 968.72 485.488 960.8C485.488 955.328 487.84 950.768 491.92 948.512C493.696 947.504 495.856 946.976 498.256 946.976C499.36 946.976 500.32 946.976 501.232 947.12C502.864 947.408 504.352 948.08 505.696 949.04C508.624 951.152 510.544 955.04 510.496 961.184H490.096C490.048 961.568 490.048 961.952 490.096 962.432C490.192 963.584 490.384 964.64 490.72 965.6C491.968 968.912 494.656 971.024 498.592 971.024C501.616 971.024 503.632 969.824 504.88 967.76C505.36 966.944 505.744 965.984 505.984 964.928H510.4ZM490.288 957.776H505.888C505.6 953.648 503.248 950.816 499.648 950.384C499.12 950.336 498.784 950.336 498.4 950.336C494.368 950.336 491.584 952.784 490.528 956.48C490.432 956.912 490.384 957.344 490.288 957.776ZM528.559 974V937.664H551.695V941.792H533.407V954.272H550.255V958.256H533.407V974H528.559ZM555.36 974V947.6H559.824V952.976H560.016C561.984 948.8 565.392 947.12 568.56 947.12C569.184 947.12 570.192 947.168 570.816 947.408V951.248C570.288 951.104 569.328 951.008 568.656 951.008C566.832 951.008 564.192 951.584 561.888 954.656C561.408 955.328 561.12 955.904 560.784 956.48C560.112 957.872 559.92 959.216 559.92 961.52V974H555.36ZM574.302 974V947.6H578.862V974H574.302ZM574.158 943.76V938.72H579.006V943.76H574.158ZM608.791 964.928C607.879 971.168 603.319 974.624 596.743 974.624C588.823 974.624 583.879 968.72 583.879 960.8C583.879 955.328 586.231 950.768 590.311 948.512C592.087 947.504 594.247 946.976 596.647 946.976C597.751 946.976 598.711 946.976 599.623 947.12C601.255 947.408 602.743 948.08 604.087 949.04C607.015 951.152 608.935 955.04 608.887 961.184H588.487C588.439 961.568 588.439 961.952 588.487 962.432C588.583 963.584 588.775 964.64 589.111 965.6C590.359 968.912 593.047 971.024 596.983 971.024C600.007 971.024 602.023 969.824 603.271 967.76C603.751 966.944 604.135 965.984 604.375 964.928H608.791ZM588.679 957.776H604.279C603.991 953.648 601.639 950.816 598.039 950.384C597.511 950.336 597.175 950.336 596.791 950.336C592.759 950.336 589.975 952.784 588.919 956.48C588.823 956.912 588.775 957.344 588.679 957.776ZM636.999 974H632.679V970.688H632.487C631.479 973.088 628.599 974.624 624.759 974.624C616.887 974.624 612.519 968.144 612.519 960.8C612.519 953.456 616.887 946.976 624.759 946.976C628.359 946.976 631.047 948.32 632.247 950.432H632.439V937.664H636.999V974ZM617.271 960.8C617.271 966.8 620.343 971.072 625.431 971.072C629.319 971.072 631.815 969.008 632.583 964.976C632.871 963.44 632.871 962.336 632.871 960.8C632.871 959.264 632.871 958.16 632.583 956.624C631.815 952.592 629.319 950.528 625.431 950.528C620.343 950.528 617.271 954.8 617.271 960.8ZM643.11 974V947.6H647.574V952.976H647.766C649.734 948.8 653.142 947.12 656.31 947.12C656.934 947.12 657.942 947.168 658.566 947.408V951.248C658.038 951.104 657.078 951.008 656.406 951.008C654.582 951.008 651.942 951.584 649.638 954.656C649.158 955.328 648.87 955.904 648.534 956.48C647.862 957.872 647.67 959.216 647.67 961.52V974H643.11ZM662.052 974V947.6H666.612V974H662.052ZM661.908 943.76V938.72H666.756V943.76H661.908ZM695.917 964.928C695.005 971.168 690.733 974.624 684.253 974.624C676.429 974.624 671.629 968.768 671.629 960.8C671.629 952.592 676.717 946.976 684.493 946.976C685.405 946.976 686.413 947.024 687.421 947.216C691.981 948.128 694.861 951.248 695.533 956.144H691.069C690.445 953.12 688.717 951.296 686.269 950.672C685.597 950.528 685.021 950.528 684.349 950.528C679.117 950.528 676.285 954.848 676.285 960.8C676.285 966.8 679.213 971.072 684.493 971.072C688.381 971.072 690.685 968.72 691.405 964.928H695.917ZM700.627 974V937.664H705.187V951.776H705.379C707.251 948.512 710.131 946.976 713.731 946.976C717.379 946.976 720.499 948.656 721.891 952.064C722.371 953.264 722.611 954.56 722.611 957.008V974H718.051V957.344C718.051 955.952 718.051 954.608 717.571 953.408C716.947 951.824 715.459 950.672 713.203 950.672C710.851 950.672 709.027 951.68 707.539 953.408C705.187 956.096 705.187 957.776 705.187 961.856V974H700.627ZM750.17 965.84C750.17 971.072 746.282 974.624 739.082 974.624C732.458 974.624 728.138 971.552 727.418 965.84H731.882C732.65 969.344 735.098 971.024 739.082 971.024C743.258 971.024 745.658 969.152 745.658 966.32C745.658 964.16 744.314 962.864 741.242 962.576L736.442 962.096C730.49 961.52 727.898 959.216 727.898 955.328C727.898 950.432 732.362 946.976 739.13 946.976C745.274 946.976 749.354 949.904 749.93 955.424H745.658C745.034 952.112 742.682 950.528 738.938 950.528C735.002 950.528 732.458 952.304 732.458 954.944C732.458 956.768 733.706 957.728 736.682 958.016L741.722 958.544C747.674 959.168 750.17 961.664 750.17 965.84ZM755.283 974V937.664H759.843V951.776H760.035C761.907 948.512 764.787 946.976 768.387 946.976C772.035 946.976 775.155 948.656 776.547 952.064C777.027 953.264 777.267 954.56 777.267 957.008V974H772.707V957.344C772.707 955.952 772.707 954.608 772.227 953.408C771.603 951.824 770.115 950.672 767.859 950.672C765.507 950.672 763.683 951.68 762.195 953.408C759.843 956.096 759.843 957.776 759.843 961.856V974H755.283ZM782.026 966.56C782.026 961.568 785.962 959.6 791.77 958.64C794.266 958.208 797.146 957.776 800.17 957.392L800.122 956.192C800.026 953.312 798.586 951.776 796.858 951.056C795.898 950.672 794.89 950.528 793.882 950.528C789.994 950.528 787.738 952.112 787.018 955.424H782.602C783.178 950.912 786.634 946.976 793.786 946.976C800.41 946.976 804.394 949.952 804.394 956.24V974H800.17V970.448H800.026C798.346 973.232 794.938 974.624 791.53 974.624C786.778 974.624 782.026 971.936 782.026 966.56ZM786.826 966.56C786.826 969.296 788.842 971.36 792.25 971.36C795.082 971.36 798.73 969.536 799.882 965.984C800.122 965.168 800.266 964.256 800.218 962.816L800.17 960.368C797.338 960.8 794.602 961.376 792.058 961.904C787.834 962.768 786.826 964.592 786.826 966.56ZM810.271 974V947.6H814.831V974H810.271ZM810.127 943.76V938.72H814.975V943.76H810.127ZM821.047 974V947.6H825.415V952.16H825.607C827.431 948.608 830.407 946.976 834.151 946.976C837.799 946.976 840.919 948.656 842.311 952.064C842.791 953.264 843.031 954.56 843.031 957.008V974H838.471V957.344C838.471 955.952 838.471 954.608 837.991 953.408C837.367 951.824 835.879 950.672 833.623 950.672C831.271 950.672 829.447 951.68 827.959 953.408C825.607 956.096 825.607 957.776 825.607 961.856V974H821.047Z" fill="black"/>
<path d="M373.42 112.896C376.204 111.648 378.7 109.776 380.236 107.664H384.412V144H379.948V113.76H379.756C377.644 115.536 375.676 116.592 373.42 117.36V112.896ZM390.777 119.28C391.209 114.816 392.649 111.744 395.145 109.728C397.209 108.048 400.041 107.04 403.353 107.04C410.601 107.04 415.161 110.976 415.161 117.504C415.161 122.352 413.001 125.328 407.625 128.112L404.745 129.6C399.033 132.576 396.393 135.408 395.865 139.776H415.545V144H390.825C390.825 135.072 393.993 130.368 401.385 126.576L404.649 124.896C408.777 122.784 410.169 120.72 410.169 117.648C410.169 113.376 407.481 110.88 403.689 110.88C399.081 110.88 396.297 113.856 395.529 119.28H390.777ZM431.101 144L444.349 107.664H450.589L463.837 144H458.941L455.005 133.104H439.933L435.997 144H431.101ZM441.373 129.12H453.565L448.909 116.16C448.189 114.144 447.901 113.28 447.565 112.128H447.373C447.037 113.28 446.749 114.144 446.029 116.16L441.373 129.12ZM467.485 144V117.6H471.853V122.16H472.045C473.821 118.608 476.749 116.976 480.397 116.976C482.653 116.976 484.861 117.696 486.445 119.088C487.357 119.904 487.981 120.912 488.605 122.448C490.477 118.704 493.597 116.976 497.533 116.976C499.789 116.976 501.997 117.696 503.581 119.088C504.493 119.904 505.117 120.912 505.645 122.112C506.077 123.264 506.317 124.56 506.317 127.008V144H501.757V127.344C501.757 125.952 501.757 124.608 501.277 123.504C500.653 121.824 499.261 120.672 497.053 120.672C494.797 120.672 492.925 121.68 491.485 123.408C489.181 126.096 489.181 127.776 489.181 131.856V144H484.621V127.344C484.621 125.952 484.621 124.608 484.141 123.504C483.517 121.824 482.125 120.672 479.917 120.672C477.613 120.672 475.789 121.68 474.349 123.408C472.045 126.096 472.045 127.776 472.045 131.856V144H467.485ZM524.239 131.376V127.152H556.159V131.376H524.239ZM573.061 112.896C575.845 111.648 578.341 109.776 579.877 107.664H584.053V144H579.589V113.76H579.397C577.285 115.536 575.317 116.592 573.061 117.36V112.896ZM603.539 144.624C594.227 144.624 590.099 135.792 590.099 125.808C590.099 115.728 594.275 107.04 603.491 107.04H603.539C612.803 107.04 616.931 115.872 616.931 125.808C616.931 135.936 612.755 144.624 603.539 144.624ZM595.043 125.808C595.043 135.504 598.355 140.784 603.539 140.784C608.723 140.784 612.035 135.504 612.035 125.808C612.035 116.16 608.723 110.88 603.539 110.88C598.355 110.88 595.043 116.16 595.043 125.808ZM635.731 144V107.664H647.923C650.947 107.664 653.587 107.904 655.603 108.672C659.539 110.208 661.843 113.808 661.843 118.656C661.843 123.648 659.539 127.152 655.699 128.64C653.587 129.456 650.947 129.696 647.443 129.696H640.579V144H635.731ZM640.579 125.904H647.635C649.555 125.904 650.851 125.904 652.531 125.424C655.027 124.704 656.803 122.544 656.803 118.752C656.803 114.864 655.027 112.752 652.387 111.984C650.851 111.552 649.555 111.504 648.115 111.504H640.579V125.904ZM666.704 144V117.6H671.072V122.16H671.264C673.04 118.608 675.968 116.976 679.616 116.976C681.872 116.976 684.08 117.696 685.664 119.088C686.576 119.904 687.2 120.912 687.824 122.448C689.696 118.704 692.816 116.976 696.752 116.976C699.008 116.976 701.216 117.696 702.8 119.088C703.712 119.904 704.336 120.912 704.864 122.112C705.296 123.264 705.536 124.56 705.536 127.008V144H700.976V127.344C700.976 125.952 700.976 124.608 700.496 123.504C699.872 121.824 698.48 120.672 696.272 120.672C694.016 120.672 692.144 121.68 690.704 123.408C688.4 126.096 688.4 127.776 688.4 131.856V144H683.84V127.344C683.84 125.952 683.84 124.608 683.36 123.504C682.736 121.824 681.344 120.672 679.136 120.672C676.832 120.672 675.008 121.68 673.568 123.408C671.264 126.096 671.264 127.776 671.264 131.856V144H666.704ZM466.678 168.896C469.462 167.648 471.958 165.776 473.494 163.664H477.67V200H473.206V169.76H473.014C470.902 171.536 468.934 172.592 466.678 173.36V168.896ZM495.572 163.04C504.932 163.04 508.58 170.768 508.58 180.56C508.58 191.744 504.548 200.624 494.612 200.624C488.516 200.624 484.628 196.976 484.1 190.736H488.612C489.332 194.768 491.252 196.736 495.044 196.736C501.044 196.736 504.116 190.16 504.212 182.288H503.972C502.148 186.032 498.884 187.808 494.948 187.808C488.9 187.808 483.572 183.2 483.572 175.76C483.572 168.224 488.708 163.04 495.572 163.04ZM488.324 175.616C488.324 181.28 491.972 184.16 495.428 184.16C499.268 184.16 502.916 181.28 502.916 175.568C502.916 170.432 499.94 166.688 495.572 166.688C491.492 166.688 488.324 170.384 488.324 175.616ZM535.731 200.624C528.099 200.624 524.451 195.104 524.355 187.184H529.203C529.443 192.848 531.315 196.688 535.923 196.688C540.867 196.688 542.163 192.944 542.163 187.424V163.664H547.011V187.328C547.011 196.064 543.363 200.624 535.731 200.624ZM575.124 173.6V200H570.756V195.44H570.564C568.74 198.992 565.764 200.624 562.02 200.624C558.372 200.624 555.252 198.944 553.86 195.536C553.38 194.336 553.14 193.04 553.14 190.592V173.6H557.7V190.256C557.7 191.648 557.7 192.992 558.18 194.192C558.804 195.776 560.292 196.928 562.548 196.928C564.9 196.928 566.724 195.92 568.212 194.192C570.564 191.504 570.564 189.824 570.564 185.744V173.6H575.124ZM581.228 200V163.664H585.836V200H581.228ZM589.707 173.744V173.6H594.459L602.331 193.616L609.339 173.6H613.947V173.792L601.131 208.4H596.619V208.208L599.931 198.992L589.707 173.744ZM314.754 256V219.664H327.378C331.314 219.664 333.234 219.76 335.394 220.48C338.994 221.68 341.154 224.608 341.154 228.352C341.154 232.432 338.514 235.648 334.53 236.272V236.464C339.09 237.232 342.258 240.352 342.258 245.296C342.258 250.192 339.906 253.552 335.634 255.088C333.666 255.808 331.074 256 327.282 256H314.754ZM319.602 252.112H327.138C329.25 252.112 331.074 252.016 332.514 251.68C335.49 250.96 337.17 248.848 337.17 245.584C337.17 242.224 335.586 240.064 332.802 239.392C331.026 238.96 329.634 238.912 328.098 238.912H319.602V252.112ZM319.602 235.024H326.514C329.01 235.024 330.258 234.976 331.746 234.64C334.578 233.968 336.162 232 336.162 229.072C336.162 226.384 334.962 224.608 332.514 223.936C331.074 223.552 329.154 223.504 326.514 223.504H319.602V235.024ZM359.453 256.624C351.581 256.624 346.637 250.72 346.637 242.8C346.637 234.88 351.581 228.976 359.453 228.976C367.325 228.976 372.269 234.88 372.269 242.8C372.269 250.72 367.325 256.624 359.453 256.624ZM351.437 242.8C351.437 248.752 354.173 253.072 359.453 253.072C364.733 253.072 367.469 248.752 367.469 242.8C367.469 236.896 364.733 232.528 359.453 232.528C354.173 232.528 351.437 236.896 351.437 242.8ZM373.232 256L383.024 242.368L373.904 229.6H379.136L385.712 239.68L392.24 229.6H397.232L388.352 242.032L398.336 256H393.104L385.664 244.624L378.224 256H373.232ZM402.122 256V229.6H406.682V256H402.122ZM401.978 225.76V220.72H406.826V225.76H401.978ZM426.129 256V219.664H438.753C442.689 219.664 444.609 219.76 446.769 220.48C450.369 221.68 452.529 224.608 452.529 228.352C452.529 232.432 449.889 235.648 445.905 236.272V236.464C450.465 237.232 453.633 240.352 453.633 245.296C453.633 250.192 451.281 253.552 447.009 255.088C445.041 255.808 442.449 256 438.657 256H426.129ZM430.977 252.112H438.513C440.625 252.112 442.449 252.016 443.889 251.68C446.865 250.96 448.545 248.848 448.545 245.584C448.545 242.224 446.961 240.064 444.177 239.392C442.401 238.96 441.009 238.912 439.473 238.912H430.977V252.112ZM430.977 235.024H437.889C440.385 235.024 441.633 234.976 443.121 234.64C445.953 233.968 447.537 232 447.537 229.072C447.537 226.384 446.337 224.608 443.889 223.936C442.449 223.552 440.529 223.504 437.889 223.504H430.977V235.024ZM458.3 248.56C458.3 243.568 462.236 241.6 468.044 240.64C470.54 240.208 473.42 239.776 476.444 239.392L476.396 238.192C476.3 235.312 474.86 233.776 473.132 233.056C472.172 232.672 471.164 232.528 470.156 232.528C466.268 232.528 464.012 234.112 463.292 237.424H458.876C459.452 232.912 462.908 228.976 470.06 228.976C476.684 228.976 480.668 231.952 480.668 238.24V256H476.444V252.448H476.3C474.62 255.232 471.212 256.624 467.804 256.624C463.052 256.624 458.3 253.936 458.3 248.56ZM463.1 248.56C463.1 251.296 465.116 253.36 468.523 253.36C471.356 253.36 475.004 251.536 476.156 247.984C476.396 247.168 476.54 246.256 476.492 244.816L476.444 242.368C473.612 242.8 470.876 243.376 468.332 243.904C464.108 244.768 463.1 246.592 463.1 248.56ZM509.44 246.928C508.528 253.168 504.256 256.624 497.776 256.624C489.952 256.624 485.152 250.768 485.152 242.8C485.152 234.592 490.24 228.976 498.016 228.976C498.928 228.976 499.936 229.024 500.944 229.216C505.504 230.128 508.384 233.248 509.056 238.144H504.592C503.968 235.12 502.24 233.296 499.792 232.672C499.12 232.528 498.544 232.528 497.872 232.528C492.64 232.528 489.808 236.848 489.808 242.8C489.808 248.8 492.736 253.072 498.016 253.072C501.904 253.072 504.208 250.72 504.928 246.928H509.44ZM514.15 256V219.664H518.614V241.216L529.654 229.6H534.934V229.84L525.142 239.776L535.846 255.76V256H530.95L522.07 242.128L518.614 245.584V256H514.15ZM537.16 229.744V229.6H541.912L549.784 249.616L556.792 229.6H561.4V229.792L548.584 264.4H544.072V264.208L547.384 254.992L537.16 229.744ZM563.253 248.56C563.253 243.568 567.189 241.6 572.997 240.64C575.493 240.208 578.373 239.776 581.397 239.392L581.349 238.192C581.253 235.312 579.813 233.776 578.085 233.056C577.125 232.672 576.117 232.528 575.109 232.528C571.221 232.528 568.965 234.112 568.245 237.424H563.829C564.405 232.912 567.861 228.976 575.013 228.976C581.637 228.976 585.621 231.952 585.621 238.24V256H581.397V252.448H581.253C579.573 255.232 576.165 256.624 572.757 256.624C568.005 256.624 563.253 253.936 563.253 248.56ZM568.053 248.56C568.053 251.296 570.069 253.36 573.477 253.36C576.309 253.36 579.957 251.536 581.109 247.984C581.349 247.168 581.493 246.256 581.445 244.816L581.397 242.368C578.565 242.8 575.829 243.376 573.285 243.904C569.061 244.768 568.053 246.592 568.053 248.56ZM591.305 256V229.6H595.769V234.976H595.961C597.929 230.8 601.337 229.12 604.505 229.12C605.129 229.12 606.137 229.168 606.761 229.408V233.248C606.233 233.104 605.273 233.008 604.601 233.008C602.777 233.008 600.137 233.584 597.833 236.656C597.353 237.328 597.065 237.904 596.729 238.48C596.057 239.872 595.865 241.216 595.865 243.52V256H591.305ZM632.351 256H628.031V252.688H627.839C626.831 255.088 623.951 256.624 620.111 256.624C612.239 256.624 607.871 250.144 607.871 242.8C607.871 235.456 612.239 228.976 620.111 228.976C623.711 228.976 626.399 230.32 627.599 232.432H627.791V219.664H632.351V256ZM612.623 242.8C612.623 248.8 615.695 253.072 620.783 253.072C624.671 253.072 627.167 251.008 627.935 246.976C628.223 245.44 628.223 244.336 628.223 242.8C628.223 241.264 628.223 240.16 627.935 238.624C627.167 234.592 624.671 232.528 620.783 232.528C615.695 232.528 612.623 236.8 612.623 242.8ZM651.692 256V219.664H663.884C666.908 219.664 669.548 219.904 671.564 220.672C675.5 222.208 677.804 225.808 677.804 230.656C677.804 235.648 675.5 239.152 671.66 240.64C669.548 241.456 666.908 241.696 663.404 241.696H656.54V256H651.692ZM656.54 237.904H663.596C665.516 237.904 666.812 237.904 668.492 237.424C670.988 236.704 672.764 234.544 672.764 230.752C672.764 226.864 670.988 224.752 668.348 223.984C666.812 223.552 665.516 223.504 664.076 223.504H656.54V237.904ZM681.284 248.56C681.284 243.568 685.22 241.6 691.028 240.64C693.524 240.208 696.404 239.776 699.428 239.392L699.38 238.192C699.284 235.312 697.844 233.776 696.116 233.056C695.156 232.672 694.148 232.528 693.14 232.528C689.252 232.528 686.996 234.112 686.276 237.424H681.86C682.436 232.912 685.892 228.976 693.044 228.976C699.668 228.976 703.652 231.952 703.652 238.24V256H699.428V252.448H699.284C697.604 255.232 694.196 256.624 690.788 256.624C686.036 256.624 681.284 253.936 681.284 248.56ZM686.084 248.56C686.084 251.296 688.1 253.36 691.508 253.36C694.34 253.36 697.988 251.536 699.14 247.984C699.38 247.168 699.524 246.256 699.476 244.816L699.428 242.368C696.596 242.8 693.86 243.376 691.316 243.904C687.092 244.768 686.084 246.592 686.084 248.56ZM709.337 256V229.6H713.801V234.976H713.993C715.961 230.8 719.369 229.12 722.537 229.12C723.161 229.12 724.169 229.168 724.793 229.408V233.248C724.265 233.104 723.305 233.008 722.633 233.008C720.809 233.008 718.169 233.584 715.865 236.656C715.385 237.328 715.097 237.904 714.761 238.48C714.089 239.872 713.897 241.216 713.897 243.52V256H709.337ZM731.077 251.344V233.008H727.573V229.6H731.077V223.12H735.589V229.6H741.397V233.008H735.589V250.192C735.589 252.976 737.365 253.456 739.717 253.456C740.389 253.456 740.965 253.408 741.397 253.36V256.336C740.293 256.576 738.997 256.72 737.701 256.72C734.389 256.72 731.077 255.664 731.077 251.344ZM743.55 229.744V229.6H748.302L756.174 249.616L763.182 229.6H767.79V229.792L754.974 264.4H750.462V264.208L753.774 254.992L743.55 229.744Z" fill="black"/>
</svg>
